<svg width="57" height="56" viewBox="0 0 57 56" fill="none" xmlns="http://www.w3.org/2000/svg">
<circle cx="28.5" cy="28" r="28" fill="#FEE992" fill-opacity="0.4"/>
<g clip-path="url(#clip0_457_12087)">
<path fill-rule="evenodd" clip-rule="evenodd" d="M25.4041 17.1399C26.2337 16.4329 27.2804 16.0313 28.37 16.0018C29.4595 15.9722 30.5264 16.3166 31.3931 16.9776L31.5959 17.1399L32.0445 17.5216C32.371 17.8004 32.7667 17.9859 33.1898 18.0585L33.4022 18.0848L33.9903 18.1325C35.0799 18.2194 36.1066 18.6778 36.8988 19.4309C37.6909 20.184 38.2006 21.1862 38.3425 22.27L38.3676 22.5086L38.4153 23.098C38.4491 23.5255 38.5974 23.936 38.8448 24.2863L38.976 24.4557L39.3602 24.9043C40.0671 25.734 40.4687 26.7806 40.4982 27.8702C40.5278 28.9598 40.1834 30.0267 39.5224 30.8934L39.3602 31.0963L38.9772 31.5449C38.6985 31.8714 38.513 32.2671 38.4403 32.6902L38.4141 32.9026L38.3676 33.4907C38.2806 34.5803 37.8223 35.607 37.0692 36.3992C36.3161 37.1914 35.3139 37.7011 34.2301 37.843L33.9903 37.8681L33.4022 37.9158C32.9747 37.9496 32.5642 38.0979 32.2139 38.3453L32.0445 38.4777L31.5947 38.8595C30.7652 39.5666 29.7186 39.9685 28.6291 39.9982C27.5395 40.028 26.4725 39.6838 25.6057 39.0229L25.4041 38.8607L24.9555 38.4777C24.629 38.199 24.2333 38.0135 23.8102 37.9408L23.5978 37.9158L23.0097 37.8681C21.9201 37.7811 20.8934 37.3228 20.1012 36.5697C19.3091 35.8166 18.7994 34.8143 18.6575 33.7305L18.6324 33.4919L18.5847 32.9026C18.5509 32.4751 18.4026 32.0646 18.1552 31.7143L18.0228 31.5449L17.6398 31.0951C16.9329 30.2654 16.5313 29.2187 16.5018 28.1291C16.4722 27.0395 16.8166 25.9726 17.4776 25.1059L17.6398 24.9043L18.0216 24.4557C18.3003 24.1292 18.4858 23.7335 18.5585 23.3104L18.5847 23.098L18.6324 22.5098C18.7194 21.4202 19.1777 20.3935 19.9308 19.6013C20.6839 18.8091 21.6861 18.2995 22.7699 18.1575L23.0085 18.1325L23.5978 18.0848C24.0253 18.051 24.4358 17.9026 24.7861 17.6553L24.9555 17.5228L25.4041 17.1399ZM31.4826 29.1933C31.008 29.1933 30.5528 29.3819 30.2172 29.7175C29.8816 30.0531 29.693 30.5083 29.693 30.9829C29.693 31.4576 29.8816 31.9127 30.2172 32.2484C30.5528 32.584 31.008 32.7725 31.4826 32.7725C31.9572 32.7725 32.4124 32.584 32.748 32.2484C33.0836 31.9127 33.2721 31.4576 33.2721 30.9829C33.2721 30.5083 33.0836 30.0531 32.748 29.7175C32.4124 29.3819 31.9572 29.1933 31.4826 29.1933ZM31.2356 23.5776L24.0774 30.736C23.9635 30.846 23.8726 30.9777 23.8101 31.1232C23.7476 31.2688 23.7146 31.4253 23.7133 31.5838C23.7119 31.7422 23.7421 31.8993 23.8021 32.0459C23.862 32.1925 23.9506 32.3257 24.0626 32.4377C24.1747 32.5498 24.3079 32.6383 24.4545 32.6983C24.6011 32.7583 24.7582 32.7885 24.9166 32.7871C25.075 32.7858 25.2316 32.7528 25.3771 32.6903C25.5227 32.6278 25.6543 32.5369 25.7644 32.4229L32.9226 25.2646C33.1399 25.0396 33.2601 24.7382 33.2574 24.4254C33.2547 24.1126 33.1292 23.8133 32.908 23.5921C32.6868 23.3709 32.3876 23.2455 32.0748 23.2428C31.762 23.24 31.4606 23.3603 31.2356 23.5776ZM25.5174 23.228C25.0428 23.228 24.5876 23.4166 24.252 23.7522C23.9164 24.0878 23.7279 24.543 23.7279 25.0176C23.7279 25.4923 23.9164 25.9475 24.252 26.2831C24.5876 26.6187 25.0428 26.8072 25.5174 26.8072C25.992 26.8072 26.4472 26.6187 26.7828 26.2831C27.1184 25.9475 27.307 25.4923 27.307 25.0176C27.307 24.543 27.1184 24.0878 26.7828 23.7522C26.4472 23.4166 25.992 23.228 25.5174 23.228Z" fill="#FF9F48"/>
</g>
<defs>
<clipPath id="clip0_457_12087">
<rect width="28" height="28" fill="white" transform="translate(14.5 14)"/>
</clipPath>
</defs>
</svg>
