<svg width="57" height="56" viewBox="0 0 57 56" fill="none" xmlns="http://www.w3.org/2000/svg">
<circle cx="28.5" cy="28" r="28" fill="#FEE992" fill-opacity="0.4"/>
<g clip-path="url(#clip0_457_12097)">
<path d="M28.5 16.3333C31.2848 16.3333 33.9555 17.4396 35.9246 19.4087C37.8938 21.3778 39 24.0485 39 26.8333C39 30.4196 37.0447 33.355 34.9843 35.4608C33.9548 36.5014 32.8316 37.4449 31.629 38.2795L31.132 38.6178L30.8987 38.773L30.4588 39.053L30.0668 39.2921L29.5815 39.5745C29.2519 39.7621 28.8792 39.8607 28.5 39.8607C28.1208 39.8607 27.7481 39.7621 27.4185 39.5745L26.9332 39.2921L26.3265 38.9188L26.1025 38.773L25.6242 38.4545C24.3268 37.5764 23.1182 36.5737 22.0157 35.4608C19.9553 33.3538 18 30.4196 18 26.8333C18 24.0485 19.1062 21.3778 21.0754 19.4087C23.0445 17.4396 25.7152 16.3333 28.5 16.3333ZM28.5 23.3333C28.0404 23.3333 27.5852 23.4238 27.1606 23.5997C26.736 23.7756 26.3501 24.0334 26.0251 24.3584C25.7001 24.6834 25.4423 25.0693 25.2664 25.4939C25.0905 25.9186 25 26.3737 25 26.8333C25 27.2929 25.0905 27.7481 25.2664 28.1727C25.4423 28.5973 25.7001 28.9832 26.0251 29.3082C26.3501 29.6332 26.736 29.891 27.1606 30.0669C27.5852 30.2428 28.0404 30.3333 28.5 30.3333C29.4283 30.3333 30.3185 29.9646 30.9749 29.3082C31.6313 28.6518 32 27.7616 32 26.8333C32 25.9051 31.6313 25.0148 30.9749 24.3584C30.3185 23.7021 29.4283 23.3333 28.5 23.3333Z" fill="#FF9F48"/>
</g>
<defs>
<clipPath id="clip0_457_12097">
<rect width="28" height="28" fill="white" transform="translate(14.5 14)"/>
</clipPath>
</defs>
</svg>
