<svg width="57" height="56" viewBox="0 0 57 56" fill="none" xmlns="http://www.w3.org/2000/svg">
<path fill-rule="evenodd" clip-rule="evenodd" d="M0.5 28C0.5 12.536 13.036 0 28.5 0C43.964 0 56.5 12.536 56.5 28C56.5 43.464 43.964 56 28.5 56C13.036 56 0.5 43.464 0.5 28Z" fill="#FEE992" fill-opacity="0.4"/>
<g clip-path="url(#clip0_457_12107)">
<path d="M26.7401 16.346C26.8685 16.1257 27.0524 15.9429 27.2735 15.8159C27.4946 15.6888 27.7451 15.6219 28.0001 15.6219C28.2551 15.6219 28.5056 15.6888 28.7267 15.8159C28.9478 15.9429 29.1317 16.1257 29.2601 16.346L32.5209 21.9437L38.8536 23.3157C39.1027 23.3698 39.3333 23.4883 39.5223 23.6593C39.7113 23.8303 39.8522 24.0479 39.931 24.2903C40.0097 24.5328 40.0235 24.7916 39.971 25.0411C39.9185 25.2905 39.8015 25.5219 39.6318 25.712L35.3151 30.5432L35.9684 36.989C35.9942 37.2428 35.9529 37.499 35.8488 37.7319C35.7446 37.9647 35.5812 38.1662 35.3748 38.3162C35.1684 38.4661 34.9262 38.5593 34.6726 38.5864C34.4189 38.6135 34.1625 38.5736 33.9291 38.4707L28.0001 35.8574L22.0711 38.4707C21.8377 38.5736 21.5813 38.6135 21.3277 38.5864C21.074 38.5593 20.8319 38.4661 20.6255 38.3162C20.4191 38.1662 20.2556 37.9647 20.1514 37.7319C20.0473 37.499 20.006 37.2428 20.0318 36.989L20.6851 30.5432L16.3684 25.7132C16.1984 25.5231 16.0812 25.2916 16.0285 25.042C15.9758 24.7924 15.9896 24.5334 16.0683 24.2907C16.1471 24.0481 16.2881 23.8304 16.4773 23.6593C16.6665 23.4882 16.8973 23.3697 17.1466 23.3157L23.4793 21.9437L26.7401 16.346Z" fill="#FF9F48"/>
</g>
<defs>
<clipPath id="clip0_457_12107">
<rect width="28" height="28" fill="white" transform="translate(14 14)"/>
</clipPath>
</defs>
</svg>
