<svg width="57" height="56" viewBox="0 0 57 56" fill="none" xmlns="http://www.w3.org/2000/svg">
<path fill-rule="evenodd" clip-rule="evenodd" d="M0.5 28C0.5 12.536 13.036 0 28.5 0C43.964 0 56.5 12.536 56.5 28C56.5 43.464 43.964 56 28.5 56C13.036 56 0.5 43.464 0.5 28Z" fill="#FEE992" fill-opacity="0.4"/>
<g clip-path="url(#clip0_457_12123)">
<path fill-rule="evenodd" clip-rule="evenodd" d="M19.1667 20.4375C19.1667 20.2552 19.2369 20.0803 19.3619 19.9514C19.487 19.8224 19.6565 19.75 19.8333 19.75H33.8333C34.187 19.75 34.5261 19.6051 34.7761 19.3473C35.0262 19.0894 35.1667 18.7397 35.1667 18.375C35.1667 18.0103 35.0262 17.6606 34.7761 17.4027C34.5261 17.1449 34.187 17 33.8333 17H19.8333C18.9493 17 18.1014 17.3622 17.4763 18.0068C16.8512 18.6515 16.5 19.5258 16.5 20.4375V36.25C16.5 36.9793 16.781 37.6788 17.281 38.1945C17.7811 38.7103 18.4594 39 19.1667 39H37.8333C38.5406 39 39.2189 38.7103 39.719 38.1945C40.219 37.6788 40.5 36.9793 40.5 36.25V23.875C40.5 23.1457 40.219 22.4462 39.719 21.9305C39.2189 21.4147 38.5406 21.125 37.8333 21.125H19.8333C19.6565 21.125 19.487 21.0526 19.3619 20.9236C19.2369 20.7947 19.1667 20.6198 19.1667 20.4375ZM33.1667 32.125C33.6971 32.125 34.2058 31.9077 34.5809 31.5209C34.956 31.1341 35.1667 30.6095 35.1667 30.0625C35.1667 29.5155 34.956 28.9909 34.5809 28.6041C34.2058 28.2173 33.6971 28 33.1667 28C32.6362 28 32.1275 28.2173 31.7525 28.6041C31.3774 28.9909 31.1667 29.5155 31.1667 30.0625C31.1667 30.6095 31.3774 31.1341 31.7525 31.5209C32.1275 31.9077 32.6362 32.125 33.1667 32.125Z" fill="#FF9F48"/>
</g>
<defs>
<clipPath id="clip0_457_12123">
<rect width="28" height="28" fill="white" transform="translate(14.5 14)"/>
</clipPath>
</defs>
</svg>
