<svg width="24" height="24" viewBox="0 0 24 24" fill="none" xmlns="http://www.w3.org/2000/svg">
<path fill-rule="evenodd" clip-rule="evenodd" d="M1 1.91667C1 1.41041 1.41041 1 1.91667 1H5.125H5.60669C6.63419 1 7.49453 1.77859 7.59677 2.80099L7.875 5.58333H20.6688C21.8945 5.58333 22.8319 6.67593 22.6455 7.88745L21.4276 15.8041C21.2775 16.7798 20.438 17.5 19.4508 17.5H8.35206C7.30699 17.5 6.43811 16.6954 6.35795 15.6534L5.58333 5.58333L5.30834 2.83333H1.91667C1.41041 2.83333 1 2.42293 1 1.91667ZM6.5 21.1663C6.5 20.1538 7.32081 19.333 8.33333 19.333C9.34585 19.333 10.1667 20.1538 10.1667 21.1663C10.1667 22.1789 9.34585 22.9997 8.33333 22.9997C7.32081 22.9997 6.5 22.1789 6.5 21.1663ZM18.4168 19.333C17.4043 19.333 16.5835 20.1538 16.5835 21.1663C16.5835 22.1789 17.4043 22.9997 18.4168 22.9997C19.4294 22.9997 20.2502 22.1789 20.2502 21.1663C20.2502 20.1538 19.4294 19.333 18.4168 19.333Z" fill="#D1D1DB"/>
<path fill-rule="evenodd" clip-rule="evenodd" d="M11.5417 8.79199C11.0354 8.79199 10.625 9.20238 10.625 9.70866V13.3753C10.625 13.8816 11.0354 14.292 11.5417 14.292C12.0479 14.292 12.4583 13.8816 12.4583 13.3753V9.70866C12.4583 9.20238 12.0479 8.79199 11.5417 8.79199ZM16.125 8.79199C15.6187 8.79199 15.2083 9.20238 15.2083 9.70866V13.3753C15.2083 13.8816 15.6187 14.292 16.125 14.292C16.6313 14.292 17.0417 13.8816 17.0417 13.3753V9.70866C17.0417 9.20238 16.6313 8.79199 16.125 8.79199Z" fill="#80808A"/>
</svg>
