<svg width="25" height="24" viewBox="0 0 25 24" fill="none" xmlns="http://www.w3.org/2000/svg">
<path d="M15.9603 13.906L15.5053 14.359C15.5053 14.359 14.4223 15.435 11.4673 12.497C8.5123 9.55898 9.5953 8.48298 9.5953 8.48298L9.8813 8.19698C10.5883 7.49498 10.6553 6.36698 10.0383 5.54298L8.7783 3.85998C8.0143 2.83998 6.5393 2.70498 5.6643 3.57498L4.0943 5.13498C3.6613 5.56698 3.3713 6.12498 3.4063 6.74498C3.4963 8.33198 4.2143 11.745 8.2183 15.727C12.4653 19.949 16.4503 20.117 18.0793 19.965C18.5953 19.917 19.0433 19.655 19.4043 19.295L20.8243 17.883C21.7843 16.93 21.5143 15.295 20.2863 14.628L18.3763 13.589C17.5703 13.152 16.5903 13.28 15.9603 13.906Z" fill="#16151C"/>
</svg>
