<svg width="18" height="18" viewBox="0 0 18 18" fill="none" xmlns="http://www.w3.org/2000/svg">
<path fill-rule="evenodd" clip-rule="evenodd" d="M11.25 11.25L15.75 15.75L11.25 11.25Z" fill="#6B7280"/>
<path d="M11.9571 10.5429C11.5666 10.1524 10.9334 10.1524 10.5429 10.5429C10.1524 10.9334 10.1524 11.5666 10.5429 11.9571L11.9571 10.5429ZM15.0429 16.4571C15.4334 16.8476 16.0666 16.8476 16.4571 16.4571C16.8476 16.0666 16.8476 15.4334 16.4571 15.0429L15.0429 16.4571ZM7.5 11.75C5.15279 11.75 3.25 9.84721 3.25 7.5H1.25C1.25 10.9518 4.04822 13.75 7.5 13.75V11.75ZM3.25 7.5C3.25 5.15279 5.15279 3.25 7.5 3.25V1.25C4.04822 1.25 1.25 4.04822 1.25 7.5H3.25ZM7.5 3.25C9.84721 3.25 11.75 5.15279 11.75 7.5H13.75C13.75 4.04822 10.9518 1.25 7.5 1.25V3.25ZM11.75 7.5C11.75 9.84721 9.84721 11.75 7.5 11.75V13.75C10.9518 13.75 13.75 10.9518 13.75 7.5H11.75ZM10.5429 11.9571L15.0429 16.4571L16.4571 15.0429L11.9571 10.5429L10.5429 11.9571Z" fill="#6B7280"/>
</svg>
