<svg width="22" height="22" viewBox="0 0 22 22" fill="none" xmlns="http://www.w3.org/2000/svg">
<path d="M17.852 4.14777C17.8137 3.32626 17.4715 2.54827 16.892 1.96477C16.5831 1.65246 16.2155 1.4043 15.8104 1.23454C15.4052 1.06478 14.9705 0.97678 14.5313 0.975598C14.092 0.974416 13.6568 1.06007 13.2508 1.22765C12.8448 1.39522 12.4758 1.64141 12.1653 1.95205C11.8547 2.26269 11.6086 2.63166 11.4411 3.03774C11.2736 3.44382 11.188 3.879 11.1893 4.31826C11.1906 4.75753 11.2787 5.19221 11.4485 5.59731C11.6184 6.00241 11.8666 6.36994 12.179 6.67877L6.67999 12.1788C6.37116 11.8664 6.00363 11.6182 5.59853 11.4483C5.19343 11.2785 4.75875 11.1904 4.31948 11.1891C3.88022 11.1878 3.44504 11.2734 3.03896 11.4409C2.63288 11.6084 2.26391 11.8545 1.95327 12.165C1.64263 12.4756 1.39644 12.8445 1.22887 13.2506C1.0613 13.6566 0.975636 14.0918 0.976819 14.5311C0.978001 14.9703 1.066 15.405 1.23576 15.8102C1.40552 16.2153 1.65368 16.5829 1.96599 16.8918C2.57199 17.4978 3.35599 17.8098 4.14899 17.8518C4.19099 18.6448 4.50299 19.4278 5.10899 20.0348C5.41789 20.3471 5.78547 20.5952 6.19061 20.765C6.59575 20.9348 7.03045 21.0228 7.46971 21.0239C7.90897 21.0251 8.34414 20.9395 8.75018 20.7719C9.15623 20.6043 9.52514 20.3581 9.83572 20.0475C10.1463 19.7369 10.3924 19.3679 10.5599 18.9618C10.7274 18.5557 10.8129 18.1205 10.8117 17.6813C10.8104 17.242 10.7223 16.8073 10.5525 16.4022C10.3826 15.9971 10.1344 15.6296 9.82199 15.3208L15.321 9.82177C15.6298 10.1341 15.9974 10.3824 16.4025 10.5522C16.8076 10.7221 17.2422 10.8102 17.6815 10.8114C18.1208 10.8127 18.5559 10.7272 18.962 10.5597C19.3681 10.3922 19.7371 10.1461 20.0477 9.8355C20.3584 9.52492 20.6045 9.156 20.7721 8.74996C20.9397 8.34392 21.0253 7.90875 21.0242 7.46949C21.023 7.03022 20.935 6.59553 20.7652 6.19039C20.5955 5.78525 20.3473 5.41767 20.035 5.10877C19.4519 4.52852 18.6737 4.18597 17.852 4.14777Z" fill="#D1D1DB"/>
</svg>
