<svg width="24" height="24" viewBox="0 0 24 24" fill="none" xmlns="http://www.w3.org/2000/svg">
<path d="M15.7943 14.6921L15.309 15.1718C15.309 15.1718 14.1538 16.3111 11.0018 13.2002C7.8498 10.0894 9.00499 8.95009 9.00499 8.95009L9.31006 8.64727C10.0642 7.90397 10.1357 6.7096 9.47752 5.83713L8.13353 4.05511C7.3186 2.9751 5.74528 2.83216 4.81195 3.75334L3.1373 5.40512C2.67543 5.86254 2.3661 6.45337 2.40344 7.10984C2.49944 8.79021 3.2653 12.404 7.5362 16.6203C12.0663 21.0907 16.3169 21.2685 18.0545 21.1076C18.6049 21.0568 19.0828 20.7794 19.4679 20.3982L20.9825 18.9031C22.0065 17.894 21.7185 16.1629 20.4087 15.4566L18.3713 14.3565C17.5116 13.8938 16.4663 14.0293 15.7943 14.6921Z" fill="#80808A"/>
</svg>
