<svg width="141" height="48" viewBox="0 0 141 48" fill="none" xmlns="http://www.w3.org/2000/svg">
<path fill-rule="evenodd" clip-rule="evenodd" d="M22.429 20.4805C22.429 18.4523 23.6572 16.4923 28.4679 16.5094C32.1186 16.5094 34.0463 17.8558 34.0293 20.1226V21.9462H29.048V19.5431C29.048 19.117 29.048 18.6568 28.1609 18.6568C27.5979 18.6568 27.4103 19.0488 27.4103 19.509V26.9058C27.4103 27.349 27.5979 27.758 28.1609 27.758C29.048 27.758 29.048 27.2637 29.048 26.7183V24.1107H34.0293V26.2411C34.0293 28.5079 31.8798 29.9395 28.3485 29.9395C23.3502 29.9395 22.429 27.9966 22.429 25.9514V20.4805ZM35.5987 16.8162L40.58 16.7991L40.6141 21.452H42.4907L42.4736 16.7821L47.4549 16.748L47.5232 29.6157L42.5418 29.6498L42.5077 24.2471L40.6141 24.2641L40.6483 29.6498L35.667 29.6839L35.5987 16.8162ZM49.0414 16.8162H54.0227V29.6839H49.0414V16.8162ZM55.3022 20.5316C55.2851 18.4864 56.4793 16.5435 61.29 16.4923C64.9407 16.4583 66.8684 17.7876 66.9025 20.0544L66.9196 21.878L61.9382 21.9292L61.9212 19.5261C61.9212 19.1 61.9212 18.6398 61.017 18.6568C60.4541 18.6568 60.2664 19.0659 60.2664 19.509L60.3347 26.8888C60.3347 27.3319 60.5394 27.7409 61.1023 27.7239C61.9894 27.7239 61.9894 27.2296 61.9894 26.6672L61.9724 24.0596L66.9537 24.0085L66.9707 26.1389C66.9878 28.4056 64.8724 29.8543 61.3241 29.8884C56.3257 29.9395 55.3875 27.9966 55.3704 25.9684L55.3022 20.5316ZM73.368 26.8888C73.368 27.3319 73.5556 27.7409 74.3233 27.7409C75.0739 27.7409 75.2615 27.349 75.2615 26.8888L75.2445 19.509C75.2445 19.0488 75.0568 18.6568 74.3062 18.6568C73.5556 18.6568 73.368 19.0488 73.368 19.509V26.8888ZM68.3867 20.4805C68.3867 18.4523 69.3079 16.4923 74.3062 16.4923C79.3046 16.4923 80.2258 18.4353 80.2258 20.4634L80.2428 25.9003C80.2428 27.9455 79.3216 29.8884 74.3233 29.8884C69.3249 29.8884 68.4037 27.9455 68.4037 25.9173L68.3867 20.4805ZM86.6571 22.27H87.5101C88.3801 22.27 88.7043 21.9973 88.7043 21.486V19.7306C88.7043 19.2193 88.3801 18.9636 87.5101 18.9636H86.6401L86.6571 22.27ZM81.8464 16.8162H88.3631C91.229 16.8162 92.935 17.7535 92.935 19.7476V21.3327C92.935 23.1904 91.9114 24.4345 88.8237 24.4345H86.6571V29.6839H81.8464V16.8162ZM94.5215 16.7991L102.932 16.8162L102.915 19.4068H99.4857V21.7587L102.693 21.7758V24.2641L99.4687 24.2471V27.0763H103.171V29.6839L94.4873 29.6668L94.5215 16.7991ZM115.726 31.2348V29.6157H116.119L116.528 30.911L116.92 29.6157H117.313V31.2348H117.074V29.8714L116.664 31.2348H116.409L115.982 29.8543V31.2348H115.726ZM114.737 31.2348V29.8543H114.208V29.6157H115.539V29.8543H115.01V31.2348H114.737ZM104.621 16.7991L113.031 16.8162V19.4068H109.585V21.7587L112.809 21.7758L112.792 24.2641L109.585 24.2471L109.568 27.0763H113.287L113.27 29.6839L104.586 29.6668L104.621 16.7991Z" fill="#16151C"/>
<path d="M29.3038 41.4097L29.3209 41.529L29.2697 41.6312L29.2185 41.7335L29.1844 41.8187L29.1332 41.8869L29.082 41.9721L29.0479 42.0573L28.9967 42.1596L28.9456 42.2789L28.8773 42.3982L28.8261 42.5004L28.775 42.5686L28.7067 42.6538L28.5703 42.8754L28.502 42.9606L28.4508 43.0288L28.3144 43.1651L28.2461 43.2163L28.1097 43.3526L28.0414 43.4208L27.8708 43.506L27.7344 43.5571L27.5979 43.6253L27.5296 43.6423L27.4273 43.6935L27.2908 43.7105L27.1543 43.7276L26.9496 43.7105H26.8473L26.7449 43.6935L26.5402 43.6253L26.3696 43.523L26.3014 43.4719L26.2331 43.4037L26.1649 43.3356L26.1137 43.2674L26.0625 43.1822L26.0114 43.097L25.9602 42.9947L25.9431 42.8924L25.909 42.6027L25.8919 42.5004V42.4152L25.9431 42.2107L25.9772 42.0744L26.0284 41.9039L26.0796 41.7676L26.1308 41.6653L26.1649 41.5801L26.2161 41.4949L26.2673 41.4267L26.3184 41.3415L26.4549 41.1029L26.5231 41.0006L26.5914 40.8984L26.6767 40.7961L26.7279 40.7109L26.7961 40.5916L26.8643 40.4893L26.9155 40.3871V40.2678L26.8814 40.1314L26.8302 40.0292L26.6596 39.8076L26.5914 39.7394L26.5061 39.6372L26.3867 39.5519L26.2843 39.569L26.2161 39.6542L26.1649 39.7394L26.1137 39.8246L26.0625 39.9099L25.9602 40.0632L25.8919 40.1314L25.6702 40.353L25.5166 40.4893L25.4484 40.5405L25.3461 40.6086L25.1413 40.7279L25.039 40.7961L24.9537 40.8472L24.766 40.9154L24.6637 40.9495L24.5784 40.9836L24.476 41.0006L24.3566 41.0518L24.2543 41.1199L24.2031 41.2051L24.1178 41.3756L24.0837 41.4608L24.0495 41.5631L23.9984 41.6483L23.9472 41.7335L23.8448 41.9039L23.7937 41.9891L23.7425 42.0914L23.7084 42.1596L23.6401 42.2618L23.5889 42.3471L23.4184 42.5686L23.3501 42.6368L23.2819 42.722L23.2136 42.7902L23.1454 42.8584L23.0089 42.9947L22.9407 43.0629L22.7872 43.1992L22.6166 43.3015L22.5483 43.3526L22.463 43.4037L22.3607 43.4549L22.2242 43.523L22.0195 43.6253L21.9171 43.6594L21.8318 43.6935L21.7295 43.7105L21.4395 43.7446H21.2348L21.0301 43.7276L20.8936 43.7105L20.7571 43.6935L20.5524 43.6423L20.45 43.6253L20.2624 43.6083L20.143 43.5571L20.0577 43.506L19.9724 43.4549L19.8871 43.3867L19.8188 43.3185L19.5971 43.097L19.5288 43.0288L19.4777 42.9606L19.3753 42.7902L19.3241 42.722L19.2729 42.6368L19.2218 42.5516L19.1877 42.4493L19.1365 42.2448L19.1194 42.1425L19.0853 42.0573L19.0682 41.9551L19.0512 41.8528V41.7335L19.0341 41.5971L19 41.3926V41.2904L19.0341 41.0006V40.8813L19.0512 40.7791L19.0682 40.6768L19.0853 40.5745L19.1024 40.4723L19.1365 40.3359L19.1706 40.1996L19.2047 40.0973L19.2388 40.0121L19.29 39.9099L19.3241 39.8246L19.3582 39.7224L19.4094 39.586L19.4777 39.4497L19.5288 39.3474L19.5971 39.2452L19.6994 39.1429L19.8018 39.0918L19.9041 39.1088L20.0065 39.1429L20.1089 39.194L20.1941 39.2622L20.2624 39.3304L20.2794 39.4326L20.2624 39.5349L20.2283 39.6372L20.143 39.8076L20.0918 39.9099L20.0577 40.0292L19.9724 40.2848L19.9383 40.3871L19.9212 40.4893L19.9041 40.5745L19.8871 40.6768L19.8359 41.1711V41.3756L19.853 41.4949L19.87 41.5971V41.6824L19.8871 41.7846L19.9383 41.9891L19.9553 42.0744L19.9894 42.1766L20.0065 42.2618L20.0406 42.3641L20.0918 42.4664L20.143 42.5516L20.1941 42.6197L20.2624 42.705L20.3136 42.7561L20.3818 42.8243L20.45 42.8924L20.5183 42.9436L20.6036 42.9947L20.74 43.0458L20.8765 43.0799L20.9959 43.097L21.2006 43.114H21.303L21.4054 43.097L21.5077 43.0799L21.593 43.0458L21.6954 43.0117L21.7807 42.9777L21.883 42.9436L21.9513 42.8924L22.0366 42.8413L22.1389 42.7731L22.2071 42.722L22.3607 42.5857L22.6166 42.2789L22.6677 42.2107L22.736 42.1255L22.7872 42.0573L22.8725 41.8869L22.9236 41.7846L22.9578 41.7164L23.026 41.6142L23.1113 41.4438L23.1625 41.3415L23.2136 41.2563L23.2478 41.154L23.2648 41.0858L23.2307 41.0347L23.1625 41.0006L22.9578 40.9836L22.753 40.9325L22.6507 40.8984L22.5995 40.8813L22.3948 40.8302L22.2924 40.7961L22.0195 40.6938L21.9342 40.6427L21.8489 40.5916L21.6783 40.4893L21.593 40.4212L21.5418 40.37L21.4395 40.3019L21.3542 40.2507L21.2177 40.1144L21.1495 40.0462L20.9448 39.8417L20.8765 39.7735L20.8253 39.6883L20.7742 39.6201L20.7059 39.5349L20.6547 39.4667L20.6036 39.3645L20.5183 39.194L20.4842 39.1088L20.45 39.0066L20.3818 38.8191L20.3477 38.7168L20.3136 38.6657L20.2965 38.5634L20.2794 38.4612L20.2624 38.3589L20.2453 38.2737V38.0692L20.2624 37.9669L20.2794 37.8647V37.7624L20.2965 37.6772L20.3477 37.4727L20.3989 37.3363L20.45 37.2L20.5012 37.0977L20.5865 36.9273L20.6377 36.8591L20.7059 36.7909L20.7571 36.7398L20.8253 36.6546L20.8936 36.5864L20.9618 36.5182L21.0301 36.4671L21.1154 36.3989L21.3542 36.2626L21.4565 36.2114L21.5248 36.1944L21.6442 36.1433L21.9001 36.0751L22.0024 36.0581L22.1048 36.041H22.5824L22.7872 36.0581L22.9236 36.0921L23.0601 36.1262L23.2819 36.1944L23.4184 36.2455L23.5207 36.2967L23.6913 36.3989L23.7937 36.4671L23.896 36.5694L23.9642 36.6375L24.0154 36.7057L24.0666 36.7739L24.1348 36.8421L24.186 36.9273L24.2884 37.1318L24.3396 37.2681L24.3907 37.3704L24.4419 37.5067L24.4931 37.6772L24.5272 37.8135L24.5443 37.9158L24.5613 38.0521L24.5784 38.1885L24.5954 38.2907L24.6125 38.393L24.5954 38.4953V38.9725L24.5784 39.177L24.5613 39.2793L24.5443 39.4156L24.5272 39.5519V39.6542L24.5101 39.7906L24.476 39.9269L24.459 40.0292L24.4078 40.2337V40.353L24.476 40.4212H24.5954L24.6978 40.37L24.8684 40.3019L24.9707 40.2507L25.0731 40.1996L25.1584 40.1485L25.2437 40.0973L25.329 40.0292L25.6019 39.7565L25.6702 39.6883L25.7214 39.6031L25.7725 39.5008L25.8067 39.4326L25.8578 39.3304L25.909 39.2281L25.9261 39.1259L25.8919 39.0066L25.8408 38.8873L25.7896 38.785L25.7384 38.6657L25.7043 38.5293V38.4271L25.7214 38.2907L25.7725 38.1203L25.8408 38.018L25.9261 37.9499L26.0455 37.8987L26.182 37.8817L26.2843 37.8987L26.3696 37.9499L26.4378 38.018L26.489 38.0862L26.5402 38.1714L26.5573 38.3078L26.5743 38.4441V38.6827L26.5914 38.8191L26.6426 38.8873L26.779 39.0406L26.8643 39.1259L26.9326 39.194L27.0008 39.2452L27.1373 39.3815L27.2055 39.4497L27.2737 39.5179L27.3249 39.586L27.3932 39.6542L27.5126 39.7906L27.5808 39.8928L27.632 39.961L27.6832 40.0462L27.7344 40.1485L27.7685 40.2337V40.3359L27.7514 40.4212L27.7173 40.5234L27.6661 40.6086L27.6149 40.6768L27.5638 40.745L27.4955 40.8302L27.4273 40.8984L27.3761 40.9665L27.3079 41.0518L27.2567 41.137L27.2055 41.2222L27.1543 41.2904L27.1032 41.3756L27.052 41.4438L26.9837 41.6312L26.9326 41.7164L26.8814 41.8187L26.8643 41.9039L26.8302 42.0062L26.8131 42.1084L26.7961 42.313V42.5175L26.8131 42.6197L26.8473 42.722L26.8814 42.8072L26.9326 42.8924L27.0349 42.9777L27.1543 43.0288L27.2567 43.0458L27.3932 43.0288L27.5296 43.097L27.632 43.0629L27.7173 43.0288L27.8026 42.9777L27.9049 42.9095L28.0073 42.8072L28.0755 42.739L28.212 42.6027L28.2973 42.5004L28.3997 42.3641L28.485 42.2448L28.5361 42.1596L28.6385 41.9891L28.7067 41.8528L28.775 41.7505L28.8261 41.6483L28.9626 41.3585L29.065 41.2563L29.2014 41.2904L29.3038 41.4097ZM23.5719 39.9951L23.5889 39.8587L23.606 39.7565L23.6231 39.6201L23.6401 39.4838L23.6572 39.3815L23.6742 39.2452L23.6913 39.1088L23.7084 39.0066L23.7254 38.8702V38.6486L23.7084 38.5464L23.6913 38.4441L23.6742 38.3078V38.1714L23.6572 38.0692L23.6231 37.9328L23.606 37.7965L23.5719 37.6942L23.5378 37.609L23.4866 37.5067L23.4354 37.3874L23.3672 37.2681L23.2989 37.1829L23.2307 37.1147L23.1625 37.0636L23.0942 37.0125L23.0089 36.9614L22.9236 36.9273L22.8213 36.8761L22.6848 36.8421L22.5142 36.825H22.3266L22.1389 36.8421L21.9683 36.8761L21.8318 36.9273L21.7295 36.9784L21.6271 37.0466L21.5248 37.1318L21.4565 37.2L21.4054 37.2681L21.3542 37.3534L21.303 37.4897L21.2518 37.6431L21.2006 37.7794L21.1836 37.8817L21.1665 38.0862V38.1885L21.1836 38.2907V38.4953L21.2006 38.5975L21.2177 38.6998L21.2859 38.9043L21.3371 38.9895L21.3712 39.0918L21.4224 39.177L21.4736 39.2793L21.5248 39.3815L21.593 39.4497L21.6442 39.5179L21.7807 39.6712L21.866 39.7565L21.9171 39.8076L22.0877 39.961L22.156 40.0121L22.3095 40.1314L22.4119 40.1996L22.5483 40.2678L22.6166 40.3019L22.736 40.353L22.9407 40.4212L23.043 40.4382L23.2478 40.4893L23.3501 40.5064L23.4354 40.4893L23.5036 40.4041L23.5548 40.2337L23.5719 39.9951Z" fill="#16151C"/>
<path d="M31.5045 41.3246V41.4439L31.4704 41.5462L31.3851 41.7166L31.2827 41.887L31.2316 41.9893L31.1804 42.0745L31.1121 42.1768L31.078 42.245L31.0268 42.3472L30.9757 42.4324L30.9245 42.5006L30.8563 42.5858L30.8051 42.654L30.7027 42.8244L30.498 43.046L30.3615 43.1823L30.2933 43.2505L30.2251 43.3187L30.1568 43.3869L29.918 43.5743L29.8498 43.6255L29.7474 43.6766L29.645 43.7107L29.5598 43.7277L29.355 43.7789H29.1674L29.048 43.7618L28.9627 43.7277L28.8603 43.6936L28.775 43.6425L28.7068 43.5743L28.6556 43.5062L28.6044 43.4209L28.5533 43.3187L28.5362 43.2335L28.5191 43.1312L28.5021 43.029V42.9267L28.5191 42.7222L28.5362 42.6199L28.5703 42.5177L28.6215 42.3131L28.6556 42.2279L28.6727 42.1257L28.7068 42.0234L28.7409 41.9382L28.8433 41.6484L28.8603 41.5632L28.8774 41.461L28.9115 41.3587L28.9286 41.2564L28.9456 41.1712L29.0139 40.9667L29.048 40.8304L29.0821 40.694L29.1503 40.4895L29.1674 40.3872L29.1844 40.3191L29.2015 40.2168L29.2527 40.1145L29.2868 40.0293L29.355 39.7396L29.3892 39.6373L29.4233 39.501L29.4745 39.3646L29.5086 39.2624L29.5598 39.1772L29.628 39.126L29.7303 39.0749L29.8156 39.0579L29.918 39.0749L30.0886 39.1772L30.2592 39.2453L30.3104 39.3135V39.4158L30.2933 39.518L30.2592 39.6544L30.2251 39.7907L30.1568 39.9952L30.1398 40.0805L30.1227 40.1827L30.0886 40.285L30.0545 40.4213L29.9521 40.7451L29.9351 40.8474L29.8839 40.9838L29.8156 41.2053L29.7986 41.3076L29.7474 41.3928L29.7303 41.4951L29.6621 41.6825L29.645 41.7848L29.5768 42.0575L29.5086 42.262L29.4915 42.3643L29.4574 42.5006L29.4233 42.671L29.4062 42.8585L29.4233 43.029L29.5086 43.1483L29.628 43.1823L29.7303 43.1653L29.8327 43.1142L29.9009 43.063L29.9862 42.9949L30.3445 42.637L30.4127 42.5688L30.4639 42.5006L30.5321 42.4154L30.6345 42.245L30.7027 42.1768L30.7539 42.1086L30.8051 42.0234L30.8733 41.9211L30.9245 41.8189L31.0098 41.6314L31.1463 41.3757L31.1974 41.2905L31.2998 41.2394L31.4363 41.2564L31.5045 41.3246ZM29.7474 37.9671L29.7986 37.8819L29.8839 37.8137L29.9692 37.7626L30.0715 37.7285L30.1739 37.7114H30.2762L30.3786 37.7285L30.4639 37.7796L30.5321 37.8478L30.6004 37.9159L30.6515 38.0012L30.6857 38.1034L30.7027 38.2057V38.3079L30.6686 38.4102L30.6174 38.4954L30.5492 38.5806L30.481 38.6488L30.3957 38.717L30.2933 38.7681L30.1909 38.7852L30.0886 38.7681L29.9862 38.7511L29.8156 38.6488L29.7474 38.5806L29.6962 38.4954L29.6792 38.3932L29.6621 38.2909L29.6792 38.1886L29.6962 38.0864L29.7474 37.9671Z" fill="#16151C"/>
<path d="M31.7091 46.8467L31.5897 46.8126L31.5214 46.7956L31.4191 46.7444L31.3338 46.6933L31.2655 46.6251L31.1973 46.5569L31.1461 46.4717L31.0779 46.3524L31.0267 46.2331L31.0096 46.1309L30.9926 46.0286L31.0096 45.9263L31.0267 45.79L31.0608 45.6536L31.0949 45.5514L31.1461 45.4321L31.2144 45.3128L31.2655 45.2276L31.3338 45.1423L31.402 45.0742L31.5214 44.9378L31.7432 44.7333L31.8114 44.6822L32.0503 44.5288L32.1526 44.4777L32.272 44.4095L32.4085 44.3584L32.5109 44.3072L32.562 44.2902L32.6815 44.222L32.8009 44.1709L32.9032 44.1197L33.0056 44.0686L33.0909 44.0345L33.1591 43.9834L33.2273 43.9152L33.2615 43.83L33.3297 43.6425L33.415 43.3698L33.4321 43.2676L33.4662 43.1653L33.4832 43.0801L33.5003 42.9778L33.5344 42.8756L33.5515 42.7904L33.5856 42.6881L33.6538 42.5177L33.6879 42.4154H33.6709L33.6197 42.5006L33.5174 42.6711L33.4662 42.7392L33.3979 42.8074L33.3468 42.8756L33.2785 42.9608L33.2273 43.0119L33.1591 43.0971L33.0909 43.1653L32.9544 43.3017L32.8862 43.3698L32.8009 43.421L32.6303 43.5062L32.545 43.5573L32.4597 43.6084L32.3744 43.6255L32.272 43.6425L32.0673 43.6596H31.8626L31.7261 43.6425L31.5897 43.6255L31.4873 43.5744L31.3679 43.5062L31.2655 43.438L31.1973 43.3698L31.1291 43.3017L31.0779 43.2164L31.0096 43.0801L30.9585 42.9608L30.9414 42.8585L30.9243 42.7563L30.9073 42.654L30.8902 42.5177L30.8732 42.3813V42.2791L30.8902 42.0745L30.9073 41.9382L30.9414 41.7678L30.9926 41.6314L31.0267 41.5292L31.0438 41.4439L31.0779 41.3417L31.112 41.2565L31.1632 41.1542L31.2144 41.0349L31.2997 40.8304L31.3508 40.7281L31.402 40.6259L31.4532 40.5577L31.5897 40.3532L31.6579 40.2339L31.7261 40.1657L31.8285 40.0123L31.965 39.8589L32.0332 39.7907L32.1185 39.7226L32.255 39.6033L32.562 39.3817L32.8009 39.2453L32.9032 39.1942L33.0226 39.1431L33.2444 39.0749L33.3468 39.0579L33.415 39.0408L33.5174 39.0067L33.6197 38.9897L33.8244 38.9727H33.9268L34.2168 38.9897H34.3533L34.4556 39.0067L34.5409 39.0238L34.6433 39.0408L34.7456 39.092L34.848 39.126L34.9162 39.1431L35.0015 39.1942L35.0868 39.2283L35.1892 39.2794L35.3086 39.3476L35.4109 39.3987L35.5133 39.4669L35.5986 39.5351L35.6668 39.6033L35.7009 39.7055L35.6668 39.8248L35.5986 39.91L35.5304 39.9782L35.4621 40.0293L35.3768 40.0805L35.2745 40.0634L35.1721 40.0123L35.0186 39.91L34.848 39.8078L34.7627 39.7566L34.6603 39.7226L34.558 39.7055L34.4556 39.6714L34.2509 39.6203H33.9438L33.8415 39.6373L33.7391 39.6544L33.6197 39.6885L33.5003 39.7396L33.3809 39.7737L33.2444 39.8419L33.0909 39.9271L32.9715 40.0123L32.9032 40.0634L32.835 40.1316L32.7667 40.1998L32.6815 40.302L32.5962 40.4043L32.5279 40.4895L32.4597 40.5918L32.3232 40.7792L32.2379 40.9156L32.1697 41.0349L32.0844 41.2394L32.0503 41.3246L31.9991 41.4269L31.9308 41.6314L31.9138 41.7337L31.8797 41.8359L31.8626 41.9382L31.8455 42.0405L31.8285 42.1427L31.8114 42.245L31.7944 42.3472V42.4495L31.8114 42.5518L31.8455 42.654L31.8797 42.7563L31.8967 42.8245L31.9479 42.9267L32.0161 42.9949L32.1014 43.046L32.2038 43.0631H32.3061L32.3914 43.046L32.4938 43.029L32.5791 42.9778L32.8009 42.8074L32.8691 42.7392L32.9373 42.6711L33.0056 42.6029L33.0738 42.5347L33.1421 42.4665L33.1932 42.3984L33.2956 42.2279L33.3638 42.1257L33.4491 42.0234L33.5003 41.9382L33.5515 41.87L33.5856 41.7678L33.6709 41.5973L33.7732 41.4269L33.8244 41.3417L33.8756 41.2394L34.1315 40.4554L34.1486 40.3532L34.1997 40.2509L34.285 40.1657L34.3874 40.1146H34.4897L34.6262 40.1316L34.7627 40.1827L34.865 40.2339L34.9333 40.3361L34.9674 40.4554L34.9503 40.5577L34.9333 40.6599L34.865 40.8645L34.848 40.9497L34.8139 41.0519L34.7968 41.1542L34.7286 41.3587L34.7115 41.4439L34.6944 41.5292L34.6603 41.6314L34.5921 41.9212L34.5239 42.1257L34.5068 42.2279L34.4897 42.3302L34.4727 42.3984L34.4556 42.5006L34.4386 42.6029L34.4044 42.7051L34.3533 42.8415L34.3191 42.9778L34.285 43.0801L34.268 43.1824L34.1656 43.4721L34.1486 43.5914L34.1656 43.6596L34.2509 43.6425L34.4215 43.5744L34.5068 43.5232L34.5921 43.4721L34.6603 43.421L34.7456 43.3528L34.8139 43.3017L34.8821 43.2335L34.9503 43.1824L35.0186 43.1142L35.1039 43.029L35.1721 42.9608L35.2403 42.8926L35.2915 42.8245L35.3427 42.7392L35.4109 42.6711L35.4792 42.5688L35.5815 42.4495L35.6498 42.3643L35.7521 42.1938L35.8033 42.1257L35.8545 42.0405L35.9057 41.9552L35.9398 41.853L36.0762 41.5973L36.1274 41.4951L36.1786 41.4099L36.2468 41.3417L36.3151 41.2906H36.4174L36.5198 41.3587L36.571 41.4269V41.5292L36.5198 41.6314L36.4686 41.7678L36.4174 41.8871L36.3663 41.9723L36.3151 42.0575L36.2639 42.1598L36.2127 42.2791L36.1445 42.3984L36.0762 42.5006L36.008 42.6029L35.9398 42.7051L35.8715 42.7904L35.8204 42.8585L35.7521 42.9608L35.718 43.0119L35.5645 43.2164L35.4621 43.3187L35.3256 43.4551L35.2403 43.5232L35.1039 43.6425L35.0356 43.7107L34.9674 43.7789L34.8992 43.8471L34.8139 43.8982L34.7456 43.9493L34.6603 44.0004L34.5921 44.0516L34.5068 44.1027L34.3362 44.1879L34.1656 44.2902L34.0803 44.3413L33.995 44.3924L33.9438 44.4947L33.8927 44.631L33.8756 44.7333L33.8415 44.8185L33.8244 44.9208L33.7903 45.023L33.7732 45.0742L33.7391 45.1764L33.705 45.2787L33.6538 45.415L33.6027 45.5855L33.5344 45.7559L33.4832 45.8923L33.4491 45.9945L33.415 46.0797L33.3638 46.182L33.2956 46.2843L33.2273 46.4036L33.1591 46.4888L33.1079 46.5569L33.0397 46.6251L32.9715 46.6762L32.9032 46.7444L32.8009 46.8126L32.7156 46.8637L32.5962 46.9149L32.4256 46.966L32.2891 46.983L32.1867 47.0001H32.0844L31.982 46.983L31.7091 46.8467ZM31.7944 45.9093L31.8114 46.0456L31.8626 46.1309L31.965 46.199L32.0844 46.2331L32.1867 46.2161L32.272 46.182L32.3573 46.1309L32.4597 46.0456L32.545 45.9604L32.6132 45.8752L32.6644 45.807L32.7156 45.7048L32.8179 45.4662L32.852 45.3639L33.0056 44.9037L33.0226 44.7674L32.9544 44.7163L32.852 44.7674L32.7497 44.8185L32.4938 44.989L32.4256 45.0401L32.3403 45.1083L32.272 45.1764L32.0673 45.381L31.9991 45.4491L31.9308 45.5343L31.8797 45.6025L31.8285 45.6877L31.7773 45.79L31.7944 45.9093Z" fill="#16151C"/>
<path d="M38.84 41.3246V41.4439L38.8058 41.5462L38.7205 41.7166L38.6182 41.887L38.567 41.9893L38.5158 42.0745L38.4476 42.1768L38.4135 42.245L38.3623 42.3472L38.3111 42.4324L38.2599 42.5006L38.1917 42.5858L38.1405 42.654L38.0382 42.8244L37.8335 43.046L37.697 43.1823L37.6287 43.2505L37.5605 43.3187L37.4923 43.3869L37.2534 43.6084L37.1852 43.6596L37.0829 43.7107L36.9805 43.7448L36.8952 43.7618L36.6905 43.8129H36.5028L36.3834 43.7959L36.2981 43.7618L36.1958 43.7277L36.1105 43.6766L36.0422 43.6084L35.9911 43.5403L35.9399 43.455L35.8887 43.3528L35.8716 43.2676L35.8546 43.1653L35.8375 43.063V42.9608L35.8546 42.7563L35.8716 42.654L35.9058 42.5517L35.9569 42.3472L35.9911 42.262L36.0081 42.1597L36.0422 42.0575L36.0764 41.9723L36.1787 41.6825L36.1958 41.5973L36.2128 41.4951L36.2469 41.3928L36.264 41.2905L36.2811 41.2053L36.3493 41.0008L36.3834 40.8644L36.4175 40.7281L36.4858 40.5236L36.5028 40.4213L36.5199 40.3531L36.537 40.2509L36.5881 40.1486L36.6223 40.0634L36.6905 39.7737L36.7246 39.6714L36.7587 39.5351L36.8099 39.3987L36.844 39.2965L36.8952 39.2112L36.9634 39.1601L37.0658 39.109L37.1511 39.0919L37.2534 39.109L37.4582 39.126L37.6287 39.1942L37.6799 39.2624V39.3646L37.6629 39.4669L37.6287 39.6032L37.5946 39.7396L37.5264 39.9441L37.5093 40.0293L37.4923 40.1316L37.4582 40.2338L37.424 40.3702L37.3217 40.694L37.3046 40.7963L37.2534 40.9326L37.1852 41.1542L37.1681 41.2564L37.1511 41.3417L37.134 41.4439L37.0658 41.6314L37.0487 41.7337L36.9805 42.0064L36.9123 42.2109L36.8952 42.3131L36.8611 42.4495L36.827 42.6199L36.8099 42.8074L36.827 42.9778L36.9123 43.0971L37.0317 43.1312L37.134 43.1142L37.2364 43.063L37.3046 43.0119L37.3899 42.9437L37.7482 42.5858L37.8164 42.5177L37.8676 42.4495L37.9358 42.3643L38.0382 42.1938L38.1064 42.1257L38.1576 42.0575L38.2088 41.9723L38.277 41.87L38.3282 41.7677L38.4135 41.5803L38.5499 41.3246L38.6011 41.2394L38.7035 41.1883L38.84 41.2053V41.3246ZM37.0829 37.9671L37.134 37.8819L37.2193 37.8137L37.3046 37.7626L37.407 37.7285L37.5093 37.7114H37.6117L37.714 37.7285L37.7993 37.7796L37.8676 37.8478L37.9358 37.9159L37.987 38.0012L38.0211 38.1034L38.0382 38.2057V38.3079L38.0041 38.4102L37.9529 38.4954L37.8846 38.5806L37.8164 38.6488L37.7311 38.717L37.6287 38.7681L37.5264 38.7852L37.424 38.7681L37.3217 38.7511L37.1511 38.6488L37.0829 38.5806L37.0317 38.4954L37.0146 38.3932L36.9976 38.2909L37.0146 38.1886L37.0317 38.0864L37.0829 37.9671Z" fill="#16151C"/>
<path d="M40.8701 39.8249L40.7848 39.876L40.7166 39.9272L40.6483 39.9783L40.563 40.0465L40.4948 40.1147L40.3242 40.234L40.256 40.2851L40.1877 40.3533L40.1195 40.4214L39.983 40.5748L39.9148 40.643L39.7783 40.7964L39.676 40.9668L39.6077 41.052L39.4712 41.3077L39.3518 41.6656L39.3177 41.8019L39.2665 41.9724L39.2154 42.1087L39.1471 42.3985L39.0959 42.5348L39.0448 42.7052L39.0106 42.8416L38.9765 42.9439L38.9424 43.0802L38.9254 43.1995L38.8912 43.3018L38.8742 43.404L38.8571 43.4892L38.823 43.5745L38.7548 43.6256L38.6524 43.6597L38.55 43.6767L38.4136 43.6938L38.243 43.6767L38.1065 43.6597L38.0212 43.6085L37.953 43.5063L37.9359 43.387L37.953 43.2847L37.9871 43.1484L38.0212 43.012L38.0383 42.9098L38.0724 42.8075L38.0894 42.7052L38.1236 42.62L38.1577 42.5178L38.1747 42.4155L38.1918 42.3303L38.2089 42.228L38.243 42.1258L38.2771 42.0406L38.3283 41.836L38.3453 41.7508L38.3624 41.6486L38.3965 41.5463L38.4136 41.444L38.4477 41.3418L38.4818 41.2054L38.533 41.0691L38.5842 40.8646L38.6012 40.7793L38.6183 40.6771L38.6524 40.5748L38.6695 40.4726L38.7036 40.3873L38.7206 40.2851L38.7548 40.1828L38.7889 40.0465L38.823 39.9101L38.8401 39.8079L38.9083 39.6034L38.9254 39.5181L38.9595 39.4159L39.0106 39.2114L39.0789 39.1091L39.2154 39.0409L39.386 39.0239L39.5565 39.0409L39.7271 39.0921L39.8295 39.1943L39.8466 39.3307L39.8295 39.4329L39.8124 39.5011L39.7783 39.6034L39.7613 39.7056L39.7271 39.7908L39.7101 39.8931L39.676 39.9954L39.6589 40.0976L39.6418 40.1658L39.6589 40.1828L39.7101 40.1317L39.7783 40.0635L39.8295 39.9954L39.966 39.842L40.0342 39.7738L40.1707 39.6545L40.2389 39.5863L40.3754 39.45L40.5972 39.2795L40.6825 39.2284L40.7678 39.1773L40.8531 39.1261L40.9383 39.0921L41.0407 39.058L41.1772 39.0239L41.3137 39.0068H41.5695L41.7401 39.0239L41.8595 39.0409L41.9619 39.0921L42.0643 39.1432L42.1325 39.2114L42.1837 39.2795L42.2349 39.3647L42.286 39.45L42.3201 39.5522L42.3543 39.6886L42.3713 39.8249V40.0294L42.3543 40.1317V40.234L42.3372 40.3192L42.3201 40.4214L42.3031 40.5237L42.286 40.5919L42.2519 40.6941L42.2178 40.8305L42.1666 41.0009L42.1154 41.1373L42.0813 41.2395L42.0472 41.3759L41.996 41.5633L41.9448 41.7338L41.8937 41.8872L41.8766 41.9894L41.8595 42.0576L41.8425 42.1599L41.8084 42.2621L41.7913 42.3473L41.7231 42.6371L41.706 42.7393V42.9439L41.7572 43.0291L41.8254 43.0802L41.9278 43.0972L42.0301 43.0632L42.1325 43.012L42.2178 42.9609L42.286 42.9098L42.3713 42.8416L42.5078 42.7052L42.559 42.6371L42.6272 42.5519L42.6784 42.4837L42.7466 42.3985L42.7978 42.3303L42.866 42.228L42.9684 42.0576L43.0366 41.9553L43.0708 41.9042L43.139 41.8019L43.1902 41.6997L43.2755 41.5293L43.3266 41.427L43.3608 41.3418L43.3949 41.2395L43.4461 41.1543L43.5484 41.0861L43.6849 41.1202L43.7702 41.2225V41.3247L43.7361 41.427L43.6849 41.5122L43.6337 41.6145L43.5825 41.6997L43.5314 41.7849L43.4802 41.8701L43.4119 41.9724L43.3778 42.0406L43.2755 42.2451L43.2584 42.3132L43.2072 42.4155L43.1049 42.5859L43.0366 42.6882L42.9855 42.7393L42.9172 42.8245L42.849 42.9268L42.7807 42.995L42.6613 43.1313L42.5931 43.1995L42.4396 43.3358L42.3713 43.404L42.286 43.4722L42.2007 43.5233L42.0301 43.6085L41.9448 43.6426L41.8425 43.6767L41.7401 43.6938L41.6548 43.7108L41.5525 43.7278H41.4501L41.3478 43.7108L41.2625 43.6938L41.1601 43.6597L41.0748 43.6256L40.9895 43.5745L40.9213 43.5233L40.8531 43.4552L40.8019 43.3529L40.7678 43.2677L40.7507 43.1654L40.7336 43.0802V42.8416L40.7507 42.7052L40.7678 42.603L40.8019 42.4666L40.9042 42.1087L40.9383 41.9212L40.9895 41.7338L41.0407 41.5633L41.0919 41.427L41.126 41.3247L41.1772 41.1884L41.2284 41.018L41.2625 40.8475L41.3137 40.7112L41.3648 40.5067L41.3819 40.4044L41.4331 40.1999L41.4501 40.0976L41.4331 39.9954L41.3648 39.8931L41.2625 39.7908L41.1601 39.7567L41.0578 39.7397L40.9554 39.7567L40.8701 39.8249Z" fill="#16151C"/>
<path d="M48.7513 41.6143L48.7343 41.6654L48.6831 41.7677L48.6319 41.8358L48.5807 41.9211L48.5296 42.0233L48.4784 42.1085L48.376 42.279L48.3248 42.3471L48.2737 42.4324L48.2225 42.5176L48.1713 42.6028L48.1031 42.671L48.0348 42.7562L47.9666 42.8244L47.8472 42.9777L47.7789 43.0459L47.7107 43.1141L47.4036 43.3697L47.3183 43.4209L47.216 43.472L47.0966 43.5231L46.9601 43.5743L46.8577 43.6084L46.7554 43.6254H46.653L46.5166 43.6084L46.3801 43.5743L46.2777 43.5402L46.2095 43.4891L46.1413 43.4209L46.073 43.3186L46.0048 43.1993L45.9707 43.0971L45.9365 42.9607L45.9195 42.8244V42.7221L45.9365 42.5858L45.9536 42.4494L45.9195 42.4324L45.8683 42.5005L45.766 42.671L45.6636 42.8244L45.5954 42.8925L45.5442 42.9607L45.4759 43.0289L45.4248 43.0971L45.3565 43.1652L45.2883 43.2334L45.2201 43.3016L45.1518 43.3527L45.0665 43.4038L44.9471 43.472L44.7765 43.5402L44.6059 43.5913L44.4694 43.6254L44.2647 43.6424L44.1624 43.6254L44.0259 43.6084L43.8894 43.5743L43.7871 43.5402L43.7018 43.5061L43.6335 43.455L43.48 43.3186L43.4288 43.2504L43.3777 43.1652L43.3094 43.0459L43.2412 42.8755L43.2071 42.7391L43.19 42.6369L43.1729 42.5005L43.1559 42.3301V42.1938L43.1729 42.0915L43.19 41.9551L43.2071 41.8188L43.2412 41.7165L43.2753 41.5802L43.3094 41.4438L43.3435 41.3416L43.3947 41.2564L43.4288 41.1541L43.6847 40.6258L43.7359 40.5406L43.7871 40.4724L43.8383 40.3872L43.9406 40.2338L44.0088 40.1656L44.1453 39.9952L44.1965 39.944L44.2647 39.8588L44.4183 39.7225L44.5206 39.6202L44.64 39.535L44.7936 39.4157L44.8789 39.3646L44.9471 39.3134L45.0495 39.2623L45.1859 39.2112L45.3054 39.143L45.4077 39.0919L45.5442 39.0407L45.6807 39.0066L45.783 38.9726L46.056 38.9555L46.1583 38.9385H46.2948L46.5166 38.9555L46.7725 38.9726L47.0113 39.0237L47.1136 39.0407L47.2331 39.0748L47.6766 39.2793L47.7448 39.3475L47.8131 39.3986L47.8813 39.4668L47.9495 39.535L47.9666 39.6543L47.9154 39.8077L47.796 39.944L47.6766 40.0122L47.5913 40.0292L47.506 39.9952L47.4207 39.927L47.3183 39.8759L47.2331 39.8247L47.1648 39.7906L47.0795 39.7395L46.9772 39.6884L46.8919 39.6713L46.7042 39.6202L46.6019 39.5861L46.4995 39.5691H46.2777L46.2095 39.5861L46.1071 39.6032L45.9707 39.6373L45.6977 39.7395L45.5954 39.7906L45.493 39.8588L45.4248 39.9099L45.3395 39.9611L45.2712 40.0122L45.1006 40.1997L45.0153 40.2679L44.9642 40.319L44.8959 40.4042L44.8277 40.4724L44.7765 40.5406L44.64 40.6939L44.5889 40.7621L44.5377 40.8473L44.4012 41.103L44.35 41.1882L44.2818 41.3927L44.2306 41.495L44.1794 41.5802L44.1112 41.8699L44.0771 41.9722L44.043 42.2619V42.5687L44.06 42.671L44.0941 42.7732L44.1453 42.8584L44.1965 42.9437L44.2647 43.0118L44.3671 43.063L44.5036 43.08L44.64 43.063L44.7424 43.0289L44.913 42.9437L45.0665 42.8073L45.1348 42.7391L45.203 42.671L45.2712 42.6028L45.3224 42.5346L45.3906 42.4664L45.4418 42.3983L45.5612 42.2278L45.6124 42.1597L45.783 41.904L45.8512 41.7847L45.9195 41.6484L45.9707 41.5802L46.1071 41.2905L46.1583 41.1882L46.1754 41.12L46.2266 41.0178L46.2607 40.9325L46.2948 40.8303L46.346 40.711L46.4142 40.4894L46.4654 40.3701L46.4995 40.2679L46.5677 40.1656L46.6701 40.1145L46.7725 40.0974L46.8748 40.1145L46.9772 40.1315L47.1478 40.2167L47.2331 40.2679L47.2842 40.336L47.3013 40.4383L47.2672 40.5235L47.2501 40.6258L47.216 40.728L47.1648 40.9325L47.1307 41.0348L47.1136 41.12L47.0454 41.3245L47.0283 41.4268L47.0113 41.495L46.9772 41.6313L46.9601 41.7336L46.9089 41.9211L46.8748 42.0574L46.8577 42.1597L46.8407 42.279L46.8066 42.4494L46.7725 42.6369L46.7554 42.8073L46.7725 42.9437L46.8236 43.0289L46.926 43.08L47.0966 43.0971L47.2331 43.0459L47.3354 42.9948L47.4889 42.8925L47.5572 42.8244L47.6937 42.688L47.8301 42.5346L47.9325 42.3812L47.9837 42.296L48.0519 42.2108L48.069 42.1426L48.2395 41.887L48.2907 41.8018L48.3419 41.7165L48.5637 41.2734L48.666 41.2223L48.8025 41.2393L48.8878 41.3416L48.9049 41.4438L48.8537 41.5461L48.7513 41.6143Z" fill="#16151C"/>
<path d="M51.8733 38.4272L51.8221 38.5294L51.7368 38.6999L51.6856 38.8192L51.6174 38.9385L51.5662 39.0067L51.515 39.0919L51.4639 39.16L51.4127 39.2623L51.3615 39.3305L51.3103 39.4157L51.2421 39.518L51.1397 39.6202L51.0374 39.7225L50.9862 39.7736L50.918 39.8588L50.7815 39.9952L50.7132 40.0633L50.5938 40.1997L50.5256 40.2679L50.4403 40.3531L50.3209 40.4383L50.1503 40.5746L50.065 40.6258L49.8262 40.7792L49.7579 40.8132L49.6726 40.8644L49.5532 40.9666L49.485 41.0689L49.4338 41.1541L49.4167 41.2734L49.3826 41.4779V41.5461L49.3656 41.6484L49.3485 41.7506L49.3314 41.8529V42.0745L49.3144 42.2108V42.4324L49.3314 42.5517L49.3485 42.6198L49.3656 42.7221L49.4167 42.8244L49.4679 42.9096L49.5362 42.9778L49.6215 43.0289L49.7068 43.063L49.8091 43.08H49.9968L50.0821 43.063L50.1844 43.0289L50.3209 42.9778L50.4403 42.9096L50.5256 42.8414L50.628 42.7562L50.7303 42.6539L50.8668 42.5346L50.9521 42.4665L51.0203 42.3812L51.0715 42.3301L51.1397 42.2449L51.1909 42.1767L51.2591 42.0745L51.3103 42.0233L51.3786 41.9211L51.4639 41.7506L51.515 41.6654L51.5833 41.5632L51.6345 41.4609L51.6856 41.3586L51.788 41.2223L51.8903 41.1371L52.0268 41.1541L52.1121 41.2564V41.3586L52.078 41.4609L52.0268 41.5461L51.9756 41.6313L51.9245 41.7336L51.8733 41.8188L51.8392 41.904L51.788 41.9892L51.7368 42.0574L51.6856 42.1426L51.6174 42.2449L51.6003 42.296L51.5492 42.3983L51.4809 42.4835L51.3786 42.6369L51.3103 42.7391L51.2591 42.7903L51.1909 42.8925L51.1227 42.9607L51.0374 43.063L50.935 43.1482L50.8668 43.2164L50.7985 43.2675L50.7303 43.3357L50.628 43.3868L50.5427 43.4379L50.4403 43.4891L50.355 43.5402L50.2697 43.5743L50.1674 43.6254L50.0309 43.6765L49.8091 43.7277L49.6726 43.7447L49.5532 43.7277H49.485L49.3826 43.7106L49.2803 43.6936L49.195 43.6595L49.0926 43.6254L49.0073 43.5743L48.922 43.5231L48.8538 43.455L48.7856 43.3868L48.7173 43.3186L48.6661 43.2334L48.615 43.1311L48.5808 43.0459L48.5638 42.9437L48.5297 42.8414L48.5126 42.7391L48.4955 42.6369V42.5687L48.4785 42.4494L48.4614 42.3471V42.2449L48.4785 42.1426L48.4955 42.0404V41.9722L48.5126 41.8358L48.5467 41.5972L48.5638 41.4609V41.3586L48.5808 41.2564L48.5979 41.1541L48.6661 40.7962L48.7003 40.6599L48.7344 40.4553L48.7514 40.4042L48.7856 40.2679L48.8026 40.1997L48.8538 40.0293L48.8879 39.8929L48.905 39.7906L48.9391 39.6543L48.9903 39.5009L49.0073 39.4327L49.0585 39.2793L49.1097 39.143L49.1438 39.0748L49.195 38.9385L49.2462 38.8021L49.2973 38.6999L49.3997 38.4101L49.4167 38.342L49.485 38.1886L49.5532 38.0181L49.6044 37.8818L49.6556 37.7795L49.6897 37.7114L49.7409 37.6091L49.8091 37.4216L49.8603 37.3194L49.9115 37.2171L49.9797 37.1148L50.065 36.9785L50.2015 36.774L50.2697 36.6888L50.4062 36.5524L50.4574 36.5013L50.5256 36.4331L50.5938 36.382L50.7644 36.2627L50.8838 36.1945L51.0033 36.1434L51.1056 36.1093L51.208 36.0922H51.4127L51.515 36.1093L51.5833 36.1263L51.6856 36.1604L51.7709 36.2115L51.9245 36.3479L51.9756 36.4331L52.0439 36.5354L52.0951 36.6717L52.1462 36.774L52.1974 36.9103L52.2145 37.0467V37.2512L52.1974 37.5409L52.1462 37.7454L52.1121 37.8307L52.0951 37.9329L52.0098 38.1886L51.9586 38.2738L51.8733 38.4272ZM50.065 38.734L49.9115 39.1941L49.8944 39.2964L49.8603 39.3986L49.8091 39.535L49.7409 39.7566L49.7068 39.8588L49.6897 39.927L49.6556 40.0293L49.6215 40.1315L49.6044 40.2338L49.6215 40.3019L49.6897 40.2508L49.792 40.1656L50.2356 39.7225L50.2868 39.6543L50.3379 39.5691L50.4062 39.4668L50.4574 39.4157L50.5256 39.3134L50.5938 39.2112L50.6621 39.1089L50.7303 38.9896L50.7815 38.9044L50.8327 38.8362L50.8838 38.768L50.9691 38.5976L51.0203 38.4954L51.0544 38.4272L51.1056 38.3249L51.1568 38.2227L51.1739 38.1204L51.208 38.0181L51.2421 37.8988L51.2933 37.7795L51.3274 37.6602L51.3786 37.5409L51.3956 37.4387L51.4127 37.3364V37.1319L51.3956 37.0467L51.3615 36.9614L51.2933 36.9103L51.208 36.8933L51.1056 36.9103L51.0033 36.9785L50.935 37.0467L50.8838 37.1148L50.8327 37.183L50.7815 37.2682L50.6791 37.4387L50.628 37.5409L50.5768 37.6432L50.5256 37.7284L50.4744 37.8307L50.4232 37.9159L50.3721 38.0181L50.3379 38.1034L50.2868 38.2227L50.2185 38.3931L50.1674 38.4954L50.065 38.734ZM56.5816 43.7617L56.3428 43.7106L56.2405 43.6765L56.104 43.6254L55.9846 43.5743L55.8993 43.5231L55.831 43.455L55.7628 43.4038L55.541 43.1993L55.4046 43.063L55.3363 42.9948L55.2851 42.9096L55.1828 42.7391L55.0975 42.5687L55.0634 42.4665L55.0292 42.3812L54.9781 42.279L54.9269 42.1597L54.8928 42.0233L54.8757 41.9211L54.8587 41.8188L54.8416 41.7165L54.8245 41.5802L54.8075 41.4439L54.7904 41.3416V41.0348L54.7734 40.9325V40.8303L54.7904 40.728L54.8075 40.5917L54.8245 40.4553L54.8416 40.3531L54.8587 40.2679L54.8757 40.1656L54.8928 40.0633L54.9098 39.9611L54.9269 39.8247L54.961 39.6884L55.0122 39.4839L55.0463 39.3816L55.0975 39.2453L55.1657 39.0237L55.1998 38.9385L55.234 38.8362L55.2851 38.751L55.3363 38.6487L55.4046 38.5294L55.4557 38.3931L55.5069 38.2908L55.6434 38.0522L55.6775 37.967V37.8818L55.6434 37.8136L55.5922 37.7284L55.541 37.6261L55.4898 37.5068L55.4216 37.3875L55.3363 37.3023L55.2851 37.166L55.234 37.0467L55.1998 36.9444L55.1657 36.8081L55.1145 36.6717L55.0634 36.4672L55.0463 36.3649L55.0975 36.2456L55.2169 36.1775H55.3875L55.524 36.2456L55.5922 36.3649L55.6093 36.4672L55.6263 36.5695L55.6604 36.6717L55.6946 36.774L55.7287 36.8592L55.7628 36.9614L55.814 37.0637L55.9163 37.2512L55.9675 37.3534L56.0187 37.4216H56.0699L56.2063 37.2853L56.2746 37.2171L56.4793 37.0126L56.5816 36.9274L56.6499 36.8592L56.7352 36.8081L56.8375 36.7399L56.8887 36.6888L56.974 36.6206L57.0764 36.5695L57.4346 36.3649L57.6052 36.2797L57.6905 36.2456L57.8952 36.1945L57.9976 36.1604L58.0999 36.1434L58.407 36.0922L58.6117 36.0752H58.7141L58.8164 36.0922H58.9188L59.0382 36.1093H59.1064L59.2258 36.1263L59.3111 36.1434L59.4135 36.1945L59.4988 36.2286L59.6011 36.2797L59.6864 36.3308L59.7717 36.382L59.84 36.4331L59.9082 36.5013L59.9935 36.5865L60.0447 36.6547L60.0959 36.7399L60.147 36.8251L60.1982 36.9274L60.2323 37.0126L60.2494 37.1148L60.2664 37.2171L60.2835 37.4216V37.6261L60.2664 37.7114L60.2494 37.8136L60.2153 37.9159L60.1811 38.0011L60.13 38.1034L60.0788 38.1886L60.0276 38.2738L59.9764 38.342L59.9082 38.4272L59.8058 38.5806L59.7376 38.6487L59.6694 38.7169L59.5158 38.8533L59.4476 38.9044L59.3623 38.9555L59.2941 39.0067L59.2088 39.0578L59.0894 39.1089L58.9529 39.16L58.8505 39.2112L58.7482 39.2453L58.6458 39.2623L58.5605 39.2793L58.3046 39.2964L58.1682 39.3134H57.8952L57.6905 39.2964L57.6223 39.2793L57.5199 39.2623L57.264 39.1941L57.0593 39.126L56.9228 39.0748L56.8375 39.0237L56.7522 38.9726L56.6669 38.9214L56.5816 38.8703L56.4963 38.8192L56.411 38.768L56.3428 38.7169L56.2746 38.6658L56.2234 38.6828L56.1722 38.751L56.0528 39.0578L55.9846 39.2282L55.9334 39.3646L55.8993 39.4668L55.8822 39.552L55.8481 39.6543L55.831 39.7906L55.814 39.927L55.7969 40.1315L55.7799 40.2338L55.7628 40.3701L55.7457 40.5406L55.7287 40.6769V40.9155L55.7457 41.0519V41.1541L55.7628 41.2905L55.7969 41.4609L55.814 41.5972L55.831 41.6995L55.8652 41.8358L55.9334 42.0574L56.0016 42.1938L56.0699 42.3642L56.1381 42.4835L56.1893 42.5687L56.2405 42.6369L56.3087 42.7051L56.411 42.7903L56.5134 42.8584L56.6158 42.9096L56.7011 42.9437L56.8034 42.9778L56.9399 43.0118L57.1105 43.0289H57.3493L57.4517 43.0118L57.6905 42.9607L57.827 42.9437L57.9293 42.9096L58.0658 42.8584L58.2364 42.7903L58.4582 42.688L58.5435 42.6369L58.6117 42.5858L58.8335 42.4153L59.0552 42.2108L59.1405 42.1085L59.2258 42.0063L59.3623 41.8018L59.4305 41.6995L59.4988 41.6143L59.55 41.5461L59.6011 41.4609L59.6694 41.3416L59.7376 41.2393L59.8229 41.1882L59.9594 41.2393L60.0447 41.3416L60.0617 41.4609L60.0106 41.5632L59.9594 41.6484L59.9082 41.7506L59.7717 41.9892L59.7205 42.0915L59.4988 42.3983L59.4305 42.4835L59.3623 42.5687L59.2599 42.671L59.1747 42.7732L59.0211 42.9096L58.9529 42.9778L58.8846 43.0459L58.7823 43.1141L58.7311 43.1652L58.6288 43.2334L58.4752 43.3357L58.3899 43.3868L58.2876 43.4379L58.2023 43.4891L58.0146 43.5572L57.9123 43.5913L57.827 43.6254L57.7246 43.6424L57.6223 43.6765L57.537 43.6936L57.4346 43.7106L57.1275 43.7617H56.9399L56.8375 43.7447H56.7352L56.5816 43.7617ZM58.2193 36.8251L58.117 36.8421L58.0146 36.8762L57.8781 36.9274L57.7417 36.9785L57.6564 37.0296L57.5711 37.0808L57.4858 37.1319L57.3152 37.2341L57.247 37.2853L57.1787 37.3534L57.1105 37.4216L57.0593 37.4727L56.9911 37.5409L56.8716 37.6432L56.8034 37.7114L56.7352 37.7795L56.684 37.8647L56.6328 37.984L56.6499 38.1204L56.7352 38.2227L56.9058 38.3249L56.974 38.376L57.0593 38.4272L57.1275 38.4783L57.2299 38.5124L57.3152 38.5294L57.5199 38.5806L57.6223 38.5976L57.9123 38.6147H58.117L58.2193 38.5976L58.3217 38.5806L58.407 38.5635L58.5093 38.5294L58.6458 38.4783L58.7652 38.4101L58.8505 38.359L59.0041 38.2227L59.0723 38.1545L59.1405 38.0693L59.1917 38.0011L59.3623 37.6602L59.3794 37.558L59.3964 37.4557V37.3705L59.3794 37.2682L59.3282 37.166L59.2599 37.0637L59.1747 36.9614L59.1064 36.8933L59.0211 36.8421L58.9188 36.8081L58.8335 36.791L58.7311 36.774L58.6288 36.7569H58.5264L58.2193 36.8251Z" fill="#16151C"/>
<path d="M65.1283 41.6143L65.1112 41.6654L65.06 41.7677L65.0089 41.8358L64.9577 41.9211L64.9065 42.0233L64.8553 42.1085L64.753 42.279L64.7018 42.3471L64.6506 42.4324L64.5994 42.5176L64.5483 42.6028L64.48 42.671L64.4118 42.7562L64.3436 42.8244L64.2241 42.9777L64.1559 43.0459L64.0877 43.1141L63.7806 43.3697L63.6953 43.4209L63.5929 43.472L63.4735 43.5231L63.3371 43.5743L63.2347 43.6084L63.1323 43.6254H63.03L62.8935 43.6084L62.757 43.5743L62.6547 43.5402L62.5864 43.4891L62.5182 43.4209L62.45 43.3186L62.3817 43.1993L62.3476 43.0971L62.3135 42.9607L62.2964 42.8244V42.7221L62.3135 42.5858L62.3306 42.4494L62.2964 42.4324L62.2453 42.5005L62.1429 42.671L62.0406 42.8244L61.9723 42.8925L61.9211 42.9607L61.8529 43.0289L61.8017 43.0971L61.7335 43.1652L61.6652 43.2334L61.597 43.3016L61.5288 43.3527L61.4435 43.4038L61.3241 43.472L61.1535 43.5402L60.9829 43.5913L60.8464 43.6254L60.6417 43.6424L60.5393 43.6254L60.4029 43.6084L60.2664 43.5743L60.164 43.5402L60.0787 43.5061L60.0105 43.455L59.857 43.3186L59.8058 43.2504L59.7546 43.1652L59.6864 43.0459L59.6181 42.8755L59.584 42.7391L59.567 42.6369L59.5499 42.5005L59.5328 42.3301V42.1938L59.5499 42.0915L59.567 41.9551L59.584 41.8188L59.6181 41.7165L59.6523 41.5802L59.6864 41.4438L59.7205 41.3416L59.7717 41.2564L59.8058 41.1541L60.0617 40.6258L60.1129 40.5406L60.164 40.4724L60.2152 40.3872L60.3176 40.2338L60.3858 40.1656L60.5223 39.9952L60.5735 39.944L60.6417 39.8588L60.7952 39.7225L60.8976 39.6202L61.017 39.535L61.1705 39.4157L61.2558 39.3646L61.3241 39.3134L61.4264 39.2623L61.5629 39.2112L61.6823 39.143L61.7847 39.0919L61.9211 39.0407L62.0576 39.0066L62.16 38.9726L62.4329 38.9555L62.5353 38.9385H62.6717L62.8935 38.9555L63.1494 38.9726L63.3882 39.0237L63.4906 39.0407L63.61 39.0748L64.0535 39.2793L64.1218 39.3475L64.19 39.3986L64.2583 39.4668L64.3265 39.535L64.3436 39.6543L64.2924 39.8077L64.173 39.944L64.0535 40.0122L63.9682 40.0292L63.883 39.9952L63.7977 39.927L63.6953 39.8759L63.61 39.8247L63.5418 39.7906L63.4565 39.7395L63.3541 39.6884L63.2688 39.6713L63.0812 39.6202L62.9788 39.5861L62.8765 39.5691H62.6547L62.5864 39.5861L62.4841 39.6032L62.3476 39.6373L62.0747 39.7395L61.9723 39.7906L61.87 39.8588L61.8017 39.9099L61.7164 39.9611L61.6482 40.0122L61.4776 40.1997L61.3923 40.2679L61.3411 40.319L61.2729 40.4042L61.2046 40.4724L61.1535 40.5406L61.017 40.6939L60.9658 40.7621L60.9146 40.8473L60.7782 41.103L60.727 41.1882L60.6587 41.3927L60.6076 41.495L60.5564 41.5802L60.4882 41.8699L60.454 41.9722L60.4199 42.2619V42.5687L60.437 42.671L60.4711 42.7732L60.5223 42.8584L60.5735 42.9437L60.6417 43.0118L60.744 43.063L60.8805 43.08L61.017 43.063L61.1193 43.0289L61.2899 42.9437L61.4435 42.8073L61.5117 42.7391L61.58 42.671L61.6482 42.6028L61.6994 42.5346L61.7676 42.4664L61.8188 42.3983L61.9382 42.2278L61.9894 42.1597L62.16 41.904L62.2282 41.7847L62.2964 41.6484L62.3476 41.5802L62.4841 41.2905L62.5353 41.1882L62.5523 41.12L62.6035 41.0178L62.6376 40.9325L62.6717 40.8303L62.7229 40.711L62.7912 40.4894L62.8423 40.3701L62.8765 40.2679L62.9447 40.1656L63.047 40.1145L63.1494 40.0974L63.2518 40.1145L63.3541 40.1315L63.5247 40.2167L63.61 40.2679L63.6612 40.336L63.6782 40.4383L63.6441 40.5235L63.6271 40.6258L63.5929 40.728L63.5418 40.9325L63.5076 41.0348L63.4906 41.12L63.4224 41.3245L63.4053 41.4268L63.3882 41.495L63.3541 41.6313L63.3371 41.7336L63.2859 41.9211L63.2518 42.0574L63.2347 42.1597L63.2176 42.279L63.1835 42.4494L63.1494 42.6369L63.1323 42.8073L63.1494 42.9437L63.2006 43.0289L63.3029 43.08L63.4735 43.0971L63.61 43.0459L63.7124 42.9948L63.8659 42.8925L63.9341 42.8244L64.0706 42.688L64.2071 42.5346L64.3094 42.3812L64.3606 42.296L64.4288 42.2108L64.4459 42.1426L64.6165 41.887L64.6677 41.8018L64.7189 41.7165L64.9406 41.2734L65.043 41.2223L65.1795 41.2393L65.2648 41.3416L65.2818 41.4438L65.2306 41.5461L65.1283 41.6143Z" fill="#16151C"/>
<path d="M67.2948 39.8245L67.2095 39.8757L67.1412 39.9268L67.073 39.9779L66.9877 40.0461L66.9195 40.1143L66.7489 40.2336L66.6806 40.2847L66.6124 40.3529L66.5442 40.421L66.4077 40.5744L66.3394 40.6426L66.203 40.796L66.1006 40.9664L66.0324 41.0516L65.8959 41.3073L65.7765 41.6652L65.7424 41.8015L65.6912 41.972L65.64 42.1083L65.5718 42.3981L65.5206 42.5344L65.4694 42.7048L65.4353 42.8412L65.4012 42.9435L65.3671 43.0798L65.35 43.1991L65.3159 43.3014L65.2988 43.4036L65.2818 43.4888L65.2306 43.6081L65.1624 43.6593L65.06 43.6934L64.9576 43.7104L64.8212 43.7274L64.6506 43.7104L64.5141 43.6934L64.4288 43.6422L64.3606 43.54L64.3435 43.4207L64.3606 43.3184L64.3947 43.1821L64.4288 43.0457L64.4459 42.9435L64.48 42.8412L64.497 42.7389L64.5312 42.6537L64.5653 42.5515L64.5823 42.4492L64.5994 42.364L64.6165 42.2617L64.6506 42.1595L64.6847 42.0742L64.7359 41.8697L64.7529 41.7845L64.77 41.6822L64.8041 41.58L64.8212 41.4777L64.8553 41.3755L64.8894 41.2391L64.9406 41.1028L64.9918 40.8983L65.0088 40.813L65.0259 40.7108L65.06 40.6085L65.0771 40.5063L65.1112 40.421L65.1282 40.3188L65.1624 40.2165L65.1965 40.0802L65.2306 39.9438L65.2477 39.8416L65.3159 39.637L65.3329 39.5518L65.3671 39.4496L65.4182 39.245L65.4865 39.1428L65.623 39.0746L65.7935 39.0576L65.9641 39.0746L66.1347 39.1257L66.2371 39.228L66.2541 39.3644L66.2371 39.4666L66.22 39.5348L66.1859 39.637L66.1689 39.7393L66.1347 39.8245L66.1177 39.9268L66.0836 40.029L66.0665 40.1313L66.0494 40.1995L66.0665 40.2165L66.1177 40.1654L66.1859 40.0972L66.2371 40.029L66.3736 39.8757L66.4418 39.8075L66.5783 39.6882L66.6465 39.62L66.783 39.4837L67.0048 39.3132L67.0901 39.2621L67.1753 39.211L67.2606 39.1598L67.3459 39.1257L67.4483 39.0917L67.5848 39.0576L67.7212 39.0405H67.9771L68.1477 39.0576L68.2671 39.0746L68.3695 39.1257L68.4719 39.1769L68.5401 39.245L68.5913 39.3132L68.6424 39.3984L68.6936 39.4837L68.7277 39.5859L68.7619 39.7223L68.7789 39.8586V40.0631L68.7619 40.1654V40.2676L68.7448 40.3529L68.7277 40.4551L68.7107 40.5574L68.6936 40.6256L68.6595 40.7278L68.6254 40.8642L68.5742 41.0346L68.523 41.1709L68.4889 41.2732L68.4548 41.4096L68.4036 41.597L68.3524 41.7675L68.3013 41.9209L68.2842 42.0231L68.2671 42.0913L68.2501 42.1935L68.216 42.2958L68.1989 42.381L68.1307 42.6708L68.1136 42.773V42.9775L68.1648 43.0628L68.233 43.1139L68.3354 43.1309L68.4377 43.0968L68.5401 43.0457L68.6254 42.9946L68.6936 42.9435L68.7789 42.8753L68.9154 42.7389L68.9666 42.6708L69.0348 42.5855L69.086 42.5174L69.1542 42.4322L69.2054 42.364L69.2736 42.2617L69.376 42.0913L69.4442 41.989L69.4783 41.9379L69.5466 41.8356L69.5978 41.7334L69.6831 41.5629L69.7342 41.4607L69.7684 41.3755L69.8025 41.2732L69.8537 41.188L69.956 41.1198L70.0925 41.1539L70.1778 41.2562V41.3584L70.1437 41.4607L70.0925 41.5459L70.0413 41.6482L69.9901 41.7334L69.939 41.8186L69.8878 41.9038L69.8195 42.0061L69.7854 42.0742L69.6831 42.2788L69.666 42.3469L69.6148 42.4492L69.5125 42.6196L69.4442 42.7219L69.3931 42.773L69.3248 42.8582L69.2566 42.9605L69.1883 43.0287L69.0689 43.165L69.0007 43.2332L68.8472 43.3695L68.7789 43.4377L68.6936 43.5059L68.6083 43.557L68.4377 43.6422L68.3524 43.6763L68.2501 43.7104L68.1477 43.7274L68.0624 43.7445L67.9601 43.7615H67.8577L67.7554 43.7445L67.6701 43.7274L67.5677 43.6934L67.4824 43.6593L67.3971 43.6081L67.3289 43.557L67.2606 43.4888L67.2095 43.3866L67.1753 43.3014L67.1583 43.1991L67.1412 43.1139V42.8753L67.1583 42.7389L67.1753 42.6367L67.2095 42.5003L67.3118 42.1424L67.3459 41.9549L67.3971 41.7675L67.4483 41.597L67.4995 41.4607L67.5336 41.3584L67.5848 41.2221L67.6359 41.0516L67.6701 40.8812L67.7212 40.7449L67.7724 40.5403L67.7895 40.4381L67.8407 40.2336L67.8577 40.1313L67.8407 40.029L67.7724 39.9268L67.6701 39.8245L67.5677 39.7904L67.4654 39.7734L67.363 39.7904L67.2948 39.8245Z" fill="#16151C"/>
<path d="M75.1761 41.6143L75.1591 41.6654L75.1079 41.7677L75.0567 41.8358L75.0055 41.9211L74.9544 42.0233L74.9032 42.1085L74.8008 42.279L74.7496 42.3471L74.6985 42.4324L74.6473 42.5176L74.5961 42.6028L74.5279 42.671L74.4596 42.7562L74.3914 42.8244L74.272 42.9777L74.2038 43.0459L74.1355 43.1141L73.8284 43.3697L73.7432 43.4209L73.6408 43.472L73.5214 43.5231L73.3849 43.5743L73.2826 43.6084L73.1802 43.6254H73.0778L72.9414 43.6084L72.8049 43.5743L72.7025 43.5402L72.6343 43.4891L72.5661 43.4209L72.4978 43.3186L72.4296 43.1993L72.3955 43.0971L72.3613 42.9607L72.3443 42.8244V42.7221L72.3613 42.5858L72.3784 42.4494L72.3443 42.4324L72.2931 42.5005L72.1908 42.671L72.0884 42.8244L72.0202 42.8925L71.969 42.9607L71.9008 43.0289L71.8496 43.0971L71.7813 43.1652L71.7131 43.2334L71.6449 43.3016L71.5766 43.3527L71.4913 43.4038L71.3719 43.472L71.2013 43.5402L71.0307 43.5913L70.8943 43.6254L70.6895 43.6424L70.5872 43.6254L70.4507 43.6084L70.3142 43.5743L70.2119 43.5402L70.1266 43.5061L70.0583 43.455L69.9048 43.3186L69.8536 43.2504L69.8025 43.1652L69.7342 43.0459L69.666 42.8755L69.6319 42.7391L69.6148 42.6369L69.5977 42.5005L69.5807 42.3301V42.1938L69.5977 42.0915L69.6148 41.9551L69.6319 41.8188L69.666 41.7165L69.7001 41.5802L69.7342 41.4438L69.7683 41.3416L69.8195 41.2564L69.8536 41.1541L70.1095 40.6258L70.1607 40.5406L70.2119 40.4724L70.2631 40.3872L70.3654 40.2338L70.4337 40.1656L70.5701 39.9952L70.6213 39.944L70.6895 39.8588L70.8431 39.7225L70.9454 39.6202L71.0648 39.535L71.2184 39.4157L71.3037 39.3646L71.3719 39.3134L71.4743 39.2623L71.6107 39.2112L71.7302 39.143L71.8325 39.0919L71.969 39.0407L72.1055 39.0066L72.2078 38.9726L72.4808 38.9555L72.5831 38.9385H72.7196L72.9414 38.9555L73.1973 38.9726L73.4361 39.0237L73.5384 39.0407L73.6579 39.0748L74.1014 39.2793L74.1696 39.3475L74.2379 39.3986L74.3061 39.4668L74.3743 39.535L74.3914 39.6543L74.3402 39.8077L74.2208 39.944L74.1014 40.0122L74.0161 40.0292L73.9308 39.9952L73.8455 39.927L73.7432 39.8759L73.6579 39.8247L73.5896 39.7906L73.5043 39.7395L73.402 39.6884L73.3167 39.6713L73.129 39.6202L73.0267 39.5861L72.9243 39.5691H72.7025L72.6343 39.5861L72.5319 39.6032L72.3955 39.6373L72.1225 39.7395L72.0202 39.7906L71.9178 39.8588L71.8496 39.9099L71.7643 39.9611L71.696 40.0122L71.5425 40.1997L71.4572 40.2679L71.406 40.319L71.3378 40.4042L71.2696 40.4724L71.2184 40.5406L71.0819 40.6939L71.0307 40.7621L70.9796 40.8473L70.8431 41.103L70.7919 41.1882L70.7237 41.3927L70.6725 41.495L70.6213 41.5802L70.5531 41.8699L70.5189 41.9722L70.4848 42.2619V42.5687L70.5019 42.671L70.536 42.7732L70.5872 42.8584L70.6384 42.9437L70.7066 43.0118L70.809 43.063L70.9454 43.08L71.0819 43.063L71.1843 43.0289L71.3549 42.9437L71.5084 42.8073L71.5766 42.7391L71.6449 42.671L71.7131 42.6028L71.7643 42.5346L71.8325 42.4664L71.8837 42.3983L72.0031 42.2278L72.0543 42.1597L72.2249 41.904L72.2931 41.7847L72.3613 41.6484L72.4125 41.5802L72.549 41.2905L72.6002 41.1882L72.6172 41.12L72.6684 41.0178L72.7025 40.9325L72.7367 40.8303L72.7878 40.711L72.8561 40.4894L72.9072 40.3701L72.9414 40.2679L73.0096 40.1656L73.112 40.1145L73.2143 40.0974L73.3167 40.1145L73.419 40.1315L73.5896 40.2167L73.6749 40.2679L73.7261 40.336L73.7432 40.4383L73.709 40.5235L73.692 40.6258L73.6579 40.728L73.6067 40.9325L73.5726 41.0348L73.5555 41.12L73.4873 41.3245L73.4702 41.4268L73.4531 41.495L73.419 41.6313L73.402 41.7336L73.3508 41.9211L73.3167 42.0574L73.2996 42.1597L73.2826 42.279L73.2484 42.4494L73.2143 42.6369L73.1973 42.8073L73.2143 42.9437L73.2655 43.0289L73.3679 43.08L73.5384 43.0971L73.6749 43.0459L73.7773 42.9948L73.9308 42.8925L73.999 42.8244L74.1355 42.688L74.272 42.5346L74.3743 42.3812L74.4255 42.296L74.4938 42.2108L74.5108 42.1426L74.6814 41.887L74.7326 41.8018L74.7838 41.7165L75.0055 41.2734L75.1079 41.2223L75.2444 41.2393L75.3297 41.3416L75.3467 41.4438L75.2955 41.5461L75.1761 41.6143Z" fill="#16151C"/>
<path d="M75.5174 40.1658L75.5856 40.0976L75.7221 39.9442L75.9439 39.7397L76.0121 39.6886L76.0974 39.6204L76.1656 39.5693L76.2509 39.5181L76.3533 39.467L76.5239 39.3818L76.6262 39.3307L76.831 39.2625L76.9163 39.2284L77.121 39.1773L77.2233 39.1602L77.3257 39.1432L77.5304 39.1261H77.7863L77.9228 39.1432L78.0422 39.1602L78.1104 39.1773L78.1786 39.1432L78.2298 39.075L78.2469 38.9728L78.3151 38.7682L78.3322 38.683L78.3663 38.5808L78.4345 38.3933L78.4687 38.291L78.4857 38.2228L78.5369 38.1206L78.5539 38.0354L78.6222 37.8308L78.6563 37.7456L78.7587 37.4218L78.8098 37.2855L78.8781 37.0809L78.9122 36.9957L78.9634 36.8935L78.9804 36.8253L79.0657 36.6208L79.0998 36.5356L79.2022 36.3481L79.2534 36.2629L79.3557 36.1947L79.4751 36.1436H79.5775L79.6799 36.1606L79.7822 36.1776L79.8505 36.1947L79.9528 36.2288L80.021 36.2799L80.0552 36.3651L80.0381 36.4503L80.021 36.5526L79.9699 36.6549L79.9187 36.7401L79.8846 36.8253L79.8505 36.9275L79.7993 37.0639L79.7481 37.2002L79.6969 37.3195L79.5604 37.6604L79.5093 37.7968L79.4581 37.9331L79.424 38.0354L79.3899 38.1206L79.3216 38.3421L79.2704 38.4785L79.2363 38.5808L79.1169 38.9387L79.0998 39.0409L79.0657 39.1261L79.0316 39.2284L78.9975 39.3136L78.9634 39.4159L78.9292 39.5011L78.9122 39.6034L78.8951 39.6886L78.8781 39.7908L78.844 39.8931L78.8098 39.9783L78.7757 40.0806L78.7587 40.1828L78.7416 40.268L78.7245 40.3703L78.6904 40.4726L78.6563 40.6089L78.6051 40.7453L78.5881 40.8134L78.5539 40.9327L78.5369 41.035L78.5198 41.1713L78.5028 41.3077L78.4345 41.5974L78.4175 41.6997L78.4004 41.8019L78.3834 41.9383L78.3663 42.0746L78.3492 42.1769L78.3322 42.2792L78.3151 42.3814V42.4837L78.3322 42.5859L78.3492 42.7223L78.3834 42.8586L78.4175 42.9609L78.4857 43.0291L78.571 43.0632L78.6734 43.0802L78.7587 43.0632L78.861 43.0291L78.9463 42.9779L79.151 42.8075L79.2193 42.7393L79.3216 42.5859L79.424 42.4155L79.5775 42.1939L79.6287 42.1087L79.6799 42.0235L79.731 41.9213L79.8334 41.6826L79.8846 41.5804L79.9358 41.5122L79.9869 41.41L80.0381 41.2906L80.1575 41.2054L80.294 41.2225L80.3622 41.3247V41.4611L80.3111 41.5974L80.2599 41.6997L80.1916 41.819L80.1234 41.9553L80.0722 42.0235L79.9358 42.2792L79.8675 42.3814L79.731 42.603L79.6287 42.7734L79.5775 42.8416L79.5093 42.9268L79.4581 42.995L79.3899 43.0632L79.3216 43.1313L79.2534 43.2165L79.2022 43.2677L79.134 43.3529L79.0657 43.4211L78.9804 43.4722L78.9122 43.5233L78.8269 43.5745L78.5369 43.6767L78.4345 43.6938H78.3492L78.2469 43.7108L78.1445 43.6938L78.0422 43.6767L77.9569 43.6256L77.8716 43.5745L77.8033 43.5233L77.7351 43.4552L77.6327 43.3018L77.5816 43.2165L77.5475 43.1143L77.5304 43.0291L77.4963 42.7393V42.5348L77.4792 42.5178L77.428 42.5859L77.3769 42.6712L77.2745 42.8416L77.2233 42.9098L77.1551 42.9779L77.0357 43.1313L76.9674 43.1995L76.7457 43.404L76.6433 43.4722L76.5409 43.5574L76.4386 43.6256L76.3533 43.6767L76.2509 43.7108L75.9951 43.7619L75.8927 43.779L75.7903 43.796L75.705 43.779L75.6027 43.7619L75.5003 43.7449L75.415 43.7278L75.3127 43.6767L75.2444 43.6256L75.1592 43.5574L75.0568 43.4552L74.9544 43.3699L74.9033 43.2847L74.8521 43.1995L74.818 43.0972L74.7497 42.9268L74.7156 42.8245L74.6985 42.7223L74.6815 42.5859V42.4496L74.6644 42.3473V42.2451L74.6815 42.1428L74.6985 42.0065L74.7156 41.8701L74.7327 41.7679L74.7668 41.6656L74.7838 41.5974L74.818 41.4952L74.8521 41.3929L74.9544 41.1373L74.9886 41.035L75.0739 40.8646L75.1421 40.7453L75.1933 40.626L75.2615 40.5237L75.3127 40.4726L75.3809 40.3873L75.4833 40.234L75.5174 40.1658ZM77.7522 39.7908L77.5475 39.8079H77.4451L77.3427 39.8249L77.2404 39.842L77.1721 39.859L77.0698 39.9101L76.9674 39.9442L76.8651 39.9954L76.7798 40.0465L76.7115 40.0976L76.6433 40.1658L76.5751 40.234L76.4215 40.3703L76.3533 40.4385L76.2851 40.5067L76.1486 40.6771L76.0974 40.7453L76.0462 40.8475L75.9098 41.0861L75.8586 41.1713L75.8245 41.2566L75.7903 41.3588L75.7562 41.444L75.705 41.5463L75.6368 41.8019L75.6027 41.9042L75.5856 42.0406L75.5686 42.1769L75.5515 42.2792L75.5686 42.4155L75.5856 42.5859L75.6027 42.7223L75.6368 42.8245L75.688 42.8927L75.7562 42.9609L75.8245 43.0291L75.9268 43.0802L76.0633 43.0972L76.1998 43.0802L76.3021 43.0291L76.3704 42.995L76.4727 42.9439L76.5409 42.8927L76.6774 42.7564L76.7457 42.6712L76.8139 42.603L76.8821 42.5348L76.9333 42.4666L76.9845 42.3814L77.0527 42.2792L77.121 42.1428L77.1892 42.0406L77.2404 41.9553L77.2916 41.8531L77.3257 41.7679L77.3769 41.6656L77.428 41.5293L77.4792 41.41L77.5304 41.3077L77.5645 41.2225L77.718 40.7623L77.7692 40.626L77.8545 40.2851L77.8886 40.1487L77.9228 40.0465L77.9398 39.9272L77.9057 39.8249L77.8375 39.7738H77.7522V39.7908Z" fill="#16151C"/>
<path d="M82.5117 41.3246V41.4439L82.4776 41.5462L82.3923 41.7166L82.2899 41.887L82.2388 41.9893L82.1876 42.0745L82.1193 42.1768L82.0852 42.245L82.034 42.3472L81.9829 42.4324L81.9317 42.5006L81.8635 42.5858L81.8123 42.654L81.7099 42.8244L81.5052 43.046L81.3687 43.1823L81.3005 43.2505L81.2323 43.3187L81.164 43.3869L80.9252 43.5743L80.857 43.6255L80.7546 43.6766L80.6522 43.7107L80.5669 43.7277L80.3622 43.7789H80.1746L80.0552 43.7618L79.9699 43.7277L79.8675 43.6936L79.7822 43.6425L79.714 43.5743L79.6628 43.5062L79.6116 43.4209L79.5605 43.3187L79.5434 43.2335L79.5263 43.1312L79.5093 43.029V42.9267L79.5263 42.7222L79.5434 42.6199L79.5775 42.5177L79.6287 42.3131L79.6628 42.2279L79.6799 42.1257L79.714 42.0234L79.7481 41.9382L79.8505 41.6484L79.8675 41.5632L79.8846 41.461L79.9187 41.3587L79.9358 41.2564L79.9528 41.1712L80.0211 40.9667L80.0552 40.8304L80.0893 40.694L80.1575 40.4895L80.1746 40.3872L80.1916 40.3191L80.2087 40.2168L80.2599 40.1145L80.294 40.0293L80.3622 39.7396L80.3964 39.6373L80.4305 39.501L80.4817 39.3646L80.5158 39.2624L80.5669 39.1772L80.6352 39.126L80.7375 39.0749L80.8228 39.0579L80.9252 39.0749L81.1299 39.0919L81.3005 39.1601L81.3517 39.2283V39.3305L81.3346 39.4328L81.3005 39.5692L81.2664 39.7055L81.1981 39.91L81.1811 39.9952L81.164 40.0975L81.1299 40.1998L81.0958 40.3361L80.9934 40.6599L80.9764 40.7622L80.9252 40.8985L80.857 41.1201L80.8399 41.2224L80.7546 41.3928L80.7375 41.4951L80.6693 41.6825L80.6522 41.7848L80.584 42.0575L80.5158 42.262L80.4987 42.3643L80.4646 42.5006L80.4305 42.671L80.4134 42.8585L80.4305 43.029L80.5158 43.1483L80.6352 43.1823L80.7375 43.1653L80.8399 43.1142L80.9081 43.063L80.9934 42.9949L81.3517 42.637L81.4199 42.5688L81.4711 42.5006L81.5393 42.4154L81.6417 42.245L81.7099 42.1768L81.7611 42.1086L81.8123 42.0234L81.8805 41.9211L81.9317 41.8189L82.017 41.6314L82.1535 41.3757L82.2046 41.2905L82.307 41.2394L82.4435 41.2564L82.5117 41.3246ZM80.7546 37.9671L80.8058 37.8819L80.8911 37.8137L80.9764 37.7626L81.0787 37.7285L81.1811 37.7114H81.2834L81.3858 37.7285L81.4711 37.7796L81.5393 37.8478L81.6076 37.9159L81.6587 38.0012L81.6929 38.1034L81.7099 38.2057V38.3079L81.6758 38.4102L81.6246 38.4954L81.5564 38.5806L81.4881 38.6488L81.4029 38.717L81.3005 38.7681L81.1981 38.7852L81.0958 38.7681L80.9934 38.7511L80.8228 38.6488L80.7546 38.5806L80.7034 38.4954L80.6864 38.3932L80.6693 38.2909L80.6864 38.1886L80.7034 38.0864L80.7546 37.9671Z" fill="#16151C"/>
<path d="M87.493 41.6142L87.4759 41.6653L87.4247 41.7676L87.3735 41.8357L87.3224 41.9209L87.2712 42.0232L87.22 42.1084L87.1177 42.2789L87.0665 42.347L87.0153 42.4322L86.9641 42.5175L86.913 42.6027L86.8447 42.6709L86.7765 42.7561L86.7082 42.8242L86.5888 42.9776L86.5206 43.0458L86.4523 43.114L86.1453 43.3696L86.06 43.4208L85.9576 43.4719L85.8382 43.523L85.7017 43.5742L85.5994 43.6082L85.497 43.6253H85.3947L85.2582 43.6082L85.1217 43.5742L85.0194 43.5401L84.9511 43.4889L84.8829 43.4208L84.8147 43.3185L84.7464 43.1992L84.7123 43.0969L84.6782 42.9606L84.6611 42.8242V42.722L84.6782 42.5856L84.6952 42.4493L84.6611 42.4322L84.6099 42.5004L84.5076 42.6709L84.4052 42.8242L84.337 42.8924L84.2858 42.9606L84.2176 43.0288L84.1664 43.0969L84.0982 43.1651L84.0299 43.2333L83.9617 43.3015L83.8935 43.3526L83.8082 43.4037L83.6546 43.6082L83.484 43.6764L83.3134 43.7275L83.177 43.7616L82.9723 43.7787L82.8699 43.7616L82.7334 43.7446L82.597 43.7105L82.4946 43.6764L82.4093 43.6423L82.3411 43.5912L82.1875 43.4549L82.1364 43.3867L82.0852 43.3015L82.0169 43.1822L81.9487 43.0117L81.9146 42.8754L81.8975 42.7731L81.8805 42.6368L81.8634 42.4663V42.33L81.8805 42.2277L81.8975 42.0914L81.9146 41.955L81.9487 41.8528L81.9828 41.7164L82.0169 41.5801L82.0511 41.4778L82.1022 41.3926L82.1364 41.2903L82.3922 40.762L82.4434 40.6768L82.4946 40.6086L82.5458 40.5234L82.6481 40.37L82.7164 40.3018L82.8528 40.1314L82.904 40.0803L82.9723 39.995L83.1258 39.8587L83.2281 39.7564L83.3476 39.6712L83.5011 39.5519L83.5864 39.5008L83.6546 39.4497L83.757 39.3985L83.8935 39.3474L84.0129 39.2792L84.1152 39.2281L84.2517 39.177L84.3882 39.1429L84.4905 39.1088L84.7635 39.0918L84.8658 39.0747H85.0023L85.2241 39.0918L85.48 39.1088L85.7188 39.1599L85.8212 39.177L85.9406 39.2111L86.3841 39.4156L86.4523 39.4837L86.5206 39.5349L86.5888 39.6031L86.6571 39.6712L86.6741 39.7905L86.6229 39.9439L86.5035 40.0803L86.3841 40.1484L86.2988 40.1655L86.2135 40.1314L86.1282 40.0632L86.0259 40.0121L85.9406 39.961L85.8723 39.9269L85.787 39.8757L85.6847 39.8246L85.5994 39.8076L85.4117 39.7564L85.3094 39.7224L85.207 39.7053H84.9852L84.917 39.7224L84.8147 39.7394L84.6782 39.7735L84.4052 39.8757L84.3029 39.9269L84.2005 39.995L84.1323 40.0462L84.047 40.0973L83.9788 40.1484L83.9105 40.2166L83.8252 40.2848L83.774 40.3359L83.7058 40.4211L83.6376 40.4893L83.5864 40.5575L83.4499 40.7109L83.3987 40.779L83.3476 40.8643L83.2111 41.1199L83.1599 41.2051L83.0917 41.4096L83.0405 41.5119L82.9893 41.5971L82.9211 41.8869L82.887 41.9891L82.8528 42.2789V42.5856L82.8699 42.6879L82.904 42.7902L82.9552 42.8754L83.0064 42.9606L83.0746 43.0288L83.177 43.0799L83.3134 43.0969L83.4499 43.0799L83.5523 43.0458L83.7229 42.9606L83.8764 42.8242L83.9446 42.7561L84.0129 42.6879L84.0811 42.6197L84.1323 42.5516L84.2005 42.4834L84.2517 42.4152L84.3711 42.2448L84.4223 42.1766L84.5929 41.9209L84.6611 41.8016L84.7294 41.6653L84.7805 41.5971L84.917 41.3074L84.9682 41.2051L84.9852 41.137L85.0364 41.0347L85.0705 40.9495L85.1047 40.8472L85.1558 40.7279L85.2241 40.5064L85.2753 40.387L85.3094 40.2848L85.3776 40.1825L85.48 40.1314L85.5823 40.1144L85.6847 40.1314L85.787 40.1484L85.9576 40.2337L86.0429 40.2848L86.0941 40.353L86.1112 40.4552L86.077 40.5404L86.06 40.6427L86.0259 40.745L85.9747 40.9495L85.9406 41.0517L85.9235 41.137L85.8553 41.3415L85.8382 41.4437L85.8212 41.5119L85.787 41.6483L85.77 41.7505L85.7188 41.938L85.6847 42.0743L85.6676 42.1766L85.6506 42.2959L85.6164 42.4663L85.5823 42.6538L85.5653 42.8242L85.5823 42.9606L85.6335 43.0458L85.7359 43.0969L85.9065 43.114L86.0429 43.0629L86.1453 43.0117L86.2988 42.9095L86.3671 42.8413L86.5035 42.7049L86.64 42.5516L86.7424 42.3982L86.7935 42.3129L86.8618 42.2277L86.8788 42.1596L87.0494 41.9039L87.1006 41.8187L87.1518 41.7335L87.3735 41.2903L87.4759 41.2392L87.6124 41.2563L87.6977 41.3585L87.7147 41.4608L87.6636 41.563L87.493 41.6142Z" fill="#16151C"/>
<path d="M89.6766 39.8249L89.5913 39.876L89.523 39.9271L89.4548 39.9783L89.3695 40.0464L89.3013 40.1146L89.1307 40.2339L89.0624 40.285L88.9942 40.3532L88.926 40.4214L88.7895 40.5748L88.7212 40.643L88.5848 40.7963L88.4824 40.9668L88.4142 41.052L88.2777 41.3076L88.1583 41.6656L88.1242 41.8019L88.073 41.9723L88.0218 42.1087L87.9195 42.4155L87.8683 42.5518L87.8171 42.7222L87.783 42.8586L87.7489 42.9608L87.7147 43.0972L87.6977 43.2165L87.6636 43.3188L87.6465 43.421L87.6295 43.5062L87.5953 43.5914L87.5271 43.6426L87.4247 43.6767L87.3224 43.6937L87.1859 43.7108L87.0153 43.6937L86.8788 43.6767L86.7935 43.6255L86.7253 43.5233L86.7083 43.404L86.7253 43.3017L86.7594 43.1654L86.7935 43.029L86.8106 42.9268L86.8447 42.8245L86.8618 42.7222L86.8959 42.637L86.93 42.5348L86.9471 42.4325L86.9641 42.3473L86.9812 42.245L87.0153 42.1428L87.0494 42.0575L87.1006 41.853L87.1177 41.7678L87.1347 41.6656L87.1689 41.5633L87.1859 41.461L87.22 41.3588L87.2542 41.2224L87.3053 41.0861L87.3565 40.8816L87.3736 40.7963L87.3906 40.6941L87.4247 40.5918L87.4418 40.4896L87.4759 40.4043L87.493 40.3021L87.5271 40.1998L87.5612 40.0635L87.5953 39.9271L87.6124 39.8249L87.6806 39.6204L87.6977 39.5351L87.7318 39.4329L87.783 39.2284L87.8512 39.1261L87.9877 39.0579L88.1583 39.0409L88.3289 39.0579L88.4995 39.1091L88.6018 39.2113L88.6189 39.3477L88.6018 39.4499L88.5848 39.5181L88.5507 39.6204L88.5336 39.7226L88.4995 39.8078L88.4824 39.9101L88.4483 40.0123L88.4312 40.1146L88.4142 40.1828L88.4312 40.1998L88.4824 40.1487L88.5507 40.0805L88.6018 40.0123L88.7383 39.859L88.8065 39.7908L88.943 39.6715L89.0113 39.6033L89.1477 39.467L89.3695 39.2965L89.4548 39.2454L89.5401 39.1943L89.6254 39.1431L89.7107 39.1091L89.813 39.075L89.9495 39.0409L90.086 39.0238H90.3419L90.5125 39.0409L90.6319 39.0579L90.7342 39.1091L90.8366 39.1602L90.9048 39.2284L90.956 39.2965L91.0072 39.3817L91.0584 39.467L91.0925 39.5692L91.1266 39.7056L91.1437 39.8419V40.0464L91.1266 40.1487V40.251L91.1095 40.3362L91.0925 40.4384L91.0754 40.5407L91.0584 40.6089L91.0243 40.7111L90.9901 40.8475L90.939 41.0179L90.8878 41.1543L90.8537 41.2565L90.8195 41.3929L90.7684 41.5803L90.7172 41.7508L90.666 41.9042L90.6489 42.0064L90.6319 42.0746L90.6148 42.1769L90.5807 42.2791L90.5636 42.3643L90.4954 42.6541L90.4784 42.7563V42.9608L90.5295 43.0461L90.5978 43.0972L90.7001 43.1142L90.8025 43.0801L90.9048 43.029L90.9901 42.9779L91.0584 42.9268L91.1437 42.8586L91.2801 42.7222L91.3313 42.6541L91.3996 42.5688L91.4507 42.5007L91.519 42.4155L91.5701 42.3473L91.6384 42.245L91.7407 42.0746L91.809 41.9723L91.8431 41.9212L91.9113 41.8189L91.9625 41.7167L92.0478 41.5462L92.099 41.444L92.1331 41.3588L92.1672 41.2565L92.2184 41.1713L92.3208 41.1031L92.4572 41.1372L92.5425 41.2395V41.3417L92.5084 41.444L92.4572 41.5292L92.406 41.6315L92.3549 41.7167L92.3037 41.8019L92.2525 41.8871L92.1843 41.9894L92.1502 42.0575L92.0478 42.2621L92.0307 42.3302L91.9796 42.4325L91.8772 42.6029L91.809 42.7052L91.7578 42.7563L91.6896 42.8415L91.6213 42.9438L91.5531 43.012L91.4337 43.1483L91.3654 43.2165L91.2119 43.3528L91.1437 43.421L91.0584 43.4892L90.9731 43.5403L90.8025 43.6255L90.7172 43.6596L90.6148 43.6937L90.5125 43.7108L90.4272 43.7278L90.3248 43.7448H90.2225L90.1201 43.7278L90.0348 43.7108L89.9325 43.6767L89.8472 43.6426L89.7619 43.5914L89.6936 43.5403L89.6254 43.4721L89.5742 43.3699L89.5401 43.2847L89.523 43.1824L89.506 43.0972V42.8586L89.523 42.7222L89.5401 42.62L89.5742 42.4836L89.6766 42.1257L89.7107 41.9382L89.7619 41.7508L89.813 41.5803L89.8642 41.444L89.8983 41.3417L89.9495 41.2054L90.0007 41.0349L90.0348 40.8645L90.086 40.7282L90.1372 40.5236L90.1542 40.4214L90.2054 40.2169L90.2225 40.1146L90.2054 40.0123L90.1372 39.9101L90.0348 39.8078L89.9325 39.7737L89.8301 39.7567L89.7277 39.7737L89.6766 39.8249ZM95.545 39.6544L95.4767 39.5692L95.4085 39.4499L95.3573 39.3306L95.3061 39.2284L95.272 39.1431L95.255 39.0409L95.2379 38.9045L95.2208 38.7171V38.5466L95.2379 38.4103L95.255 38.308L95.3061 38.1035L95.3232 38.0183L95.3573 37.916L95.3914 37.8308L95.4426 37.7456L95.545 37.5751L95.6303 37.4558L95.7156 37.3536L95.9203 37.132L95.9885 37.0638L96.2956 36.8082L96.3638 36.7571L96.4491 36.7059L96.5515 36.6548L96.6709 36.6037L96.7903 36.5355L96.8926 36.4844L96.9779 36.4503L97.0803 36.4162L97.4556 36.2799L97.558 36.2628L97.7627 36.2287L97.9503 36.1776L98.155 36.1606L98.2744 36.1435H98.3427L98.6668 36.1265H98.7692L98.8374 36.1435H98.9568L99.0592 36.1265L99.3492 36.1606L99.4515 36.1776L99.5709 36.1946L99.7074 36.2287L99.8439 36.2799L99.9121 36.2969L100.117 36.3651L100.202 36.3992L100.458 36.5355L100.543 36.5866L100.714 36.6889L100.833 36.7741L100.936 36.8593L101.14 37.0809L101.209 37.1661L101.26 37.2513L101.362 37.507L101.413 37.6092L101.43 37.6774L101.465 37.7797L101.482 37.8819L101.499 37.9842V38.1887L101.482 38.291L101.465 38.3932L101.447 38.5296L101.413 38.6659L101.379 38.7682L101.362 38.8534L101.328 38.9557L101.294 39.0409L101.243 39.1261L101.192 39.2113L101.14 39.2965L101.089 39.3647L101.021 39.4329L100.953 39.501L100.885 39.5692L100.816 39.6374L100.748 39.7056L100.663 39.7567L100.595 39.8249L100.475 39.893L100.356 39.9612L100.253 40.0123L100.117 40.0635L99.9804 40.1146L99.878 40.1657L99.7415 40.1998L99.6051 40.2339L99.5027 40.251L99.4004 40.285L99.3492 40.3191L99.4004 40.3873L99.5368 40.5407L99.588 40.6259L99.6733 40.8304L99.7245 40.9327L99.7586 41.0009L99.7927 41.1031L99.8439 41.2054L99.861 41.3076L99.9121 41.5122L99.9463 41.6144L99.9633 41.7167L99.9804 41.853L99.9974 41.9894L100.014 42.0916L100.032 42.1939L100.049 42.2791L100.066 42.3814L100.1 42.4836L100.117 42.5859L100.134 42.6711L100.151 42.7734L100.185 42.8756L100.219 42.9608L100.253 43.0631L100.304 43.1483L100.356 43.2165L100.407 43.3017L100.543 43.5574L100.68 43.7108L100.902 43.8812L100.987 43.9323L101.072 43.9834L101.175 44.0175L101.277 44.0346L101.345 44.0516L101.447 44.0687L101.499 44.1368L101.516 44.2391V44.3243L101.499 44.4266L101.447 44.5118L101.379 44.58L101.294 44.6481L101.157 44.6993L101.021 44.7163L100.919 44.6993L100.816 44.6822L100.731 44.6652L100.629 44.6481L100.526 44.597L100.424 44.5459L100.339 44.4947L100.27 44.4436L100.185 44.3754L100.134 44.3243L100.049 44.2561L99.9804 44.188L99.9121 44.0857L99.878 44.0346L99.8098 43.9323L99.7415 43.8471L99.6904 43.7789L99.6392 43.6937L99.588 43.5914L99.5539 43.5062L99.4686 43.3358L99.4345 43.2335L99.4174 43.1313L99.3833 43.0461L99.3662 42.9438L99.3321 42.8415L99.3151 42.7393L99.2639 42.5348L99.2468 42.4495L99.2298 42.3473L99.1956 42.245L99.1786 42.1428L99.1615 42.0575L99.0933 41.7678L99.0762 41.6656L98.9909 41.2736L98.9568 41.1713L98.9056 41.0861L98.8545 40.9838L98.7862 40.8816L98.7521 40.8304L98.6839 40.7282L98.6156 40.66L98.4621 40.5236L98.3768 40.4725L98.2744 40.4214L98.1721 40.4043L98.0697 40.3873L97.9844 40.4043L97.9162 40.4555L97.865 40.5407L97.7968 40.7793L97.7797 40.8816L97.7627 41.0009L97.7456 41.0861L97.6774 41.2906L97.6603 41.3758L97.6262 41.4781L97.5921 41.6144L97.558 41.7508L97.5238 41.853L97.4385 42.1087L97.4215 42.2109L97.3532 42.4155L97.3191 42.5007L97.285 42.6029L97.2509 42.6882L97.2168 42.7904L97.1656 42.9268L97.0974 43.0972L97.0462 43.2335L96.9779 43.4381L96.9268 43.5233L96.8244 43.5914L96.6709 43.6596H96.5003L96.3297 43.6085L96.1932 43.5062L96.125 43.3699L96.142 43.2506L96.1932 43.1483L96.2444 43.0631L96.3126 42.8756L96.3467 42.7734L96.432 42.6029L96.4662 42.5007L96.5003 42.4155L96.5685 42.2109L96.5856 42.1087L96.6538 41.9212L96.6709 41.8189L96.705 41.7167L96.722 41.6144L96.7391 41.5462L96.7562 41.444L96.7903 41.3247L96.8073 41.2736L96.8415 41.1543L96.8585 41.052L96.8756 40.9838L96.8926 40.8816L96.9268 40.7452L96.995 40.5236L97.0291 40.3873L97.0632 40.285L97.1144 40.0805L97.1485 39.9783L97.1656 39.876L97.1997 39.7737L97.2168 39.6885L97.2338 39.5863L97.2679 39.484L97.3191 39.2795L97.3532 39.1772L97.3703 39.075L97.4727 38.7511L97.5068 38.6318L97.558 38.5296L97.6262 38.4103L97.6774 38.291L97.7285 38.1887L97.7797 38.0524L97.848 37.916L97.9162 37.7967L97.9844 37.7115L98.2062 37.4899L98.3427 37.3877L98.4621 37.3195L98.5644 37.2684L98.6668 37.2513H98.7692L98.8715 37.2684L98.9568 37.3025L99.0421 37.3706L99.0933 37.4388L99.1103 37.524L99.0592 37.6092L98.8886 37.7115L98.8203 37.7797L98.7521 37.8478L98.6839 37.9331L98.6327 38.0183L98.5815 38.1035L98.5303 38.1717L98.4792 38.2569L98.428 38.3591L98.3939 38.4444L98.3256 38.6489L98.2744 38.7511L98.2403 38.8534L98.2233 38.9386L98.155 39.1431L98.138 39.2454L98.1039 39.3477L98.0868 39.4499L98.0527 39.5522L98.0356 39.6544V39.7397L98.0697 39.7908L98.155 39.8078H98.2574L98.3597 39.7908L98.4792 39.7737L98.7692 39.7567L98.9227 39.7397L99.0421 39.7226L99.1445 39.7056L99.2298 39.6885L99.4004 39.6374L99.5027 39.6033L99.6051 39.5522L99.6904 39.501L99.861 39.3988L99.9292 39.3477L100.083 39.2113L100.151 39.1431L100.219 39.075L100.27 38.9897L100.322 38.9045L100.407 38.7341L100.475 38.5296L100.492 38.4273L100.509 38.291L100.526 38.1546L100.509 38.0524L100.492 37.9501L100.475 37.8649L100.458 37.7626L100.424 37.6604L100.39 37.5751L100.287 37.4047L100.185 37.2513L100.117 37.1832L100.049 37.132L99.9633 37.0809L99.8951 37.0298L99.8098 36.9786L99.6733 36.9105L99.5368 36.8593L99.4345 36.8082L99.3321 36.7912L99.2468 36.7741L99.1445 36.7571L99.0421 36.74L98.9227 36.723H98.8545L98.6327 36.7059L98.5303 36.6889L98.0356 36.74L97.9333 36.7571L97.8138 36.7741L97.7456 36.7912L97.6432 36.8423L97.5409 36.8764L97.2509 36.9786L97.1485 37.0298L97.0632 37.0809L96.995 37.132L96.9097 37.1832L96.8073 37.2513L96.7391 37.3195L96.6709 37.3706L96.6026 37.4388L96.5173 37.507L96.4491 37.5751L96.3979 37.6433L96.2956 37.8138L96.2444 37.8819L96.1932 37.9842L96.1591 38.0694L96.125 38.1717L96.0738 38.3762V38.4614L96.0567 38.5637V38.7682L96.0738 38.8704L96.0909 38.9557L96.142 39.0579L96.1762 39.1431L96.2273 39.2454L96.2785 39.3306L96.3297 39.3988L96.3809 39.484V39.5692L96.3467 39.6544L96.2785 39.7226L96.2103 39.7908L96.1079 39.8419L96.0226 39.859L95.9203 39.8419L95.8179 39.7737L95.6814 39.6715L95.545 39.6544Z" fill="#16151C"/>
<path d="M104.876 41.0689L104.825 41.1371L104.689 41.2905L104.535 41.4268L104.467 41.478L104.365 41.5291L104.296 41.5461L104.194 41.6143L104.126 41.6484L104.024 41.6995L103.921 41.7336L103.819 41.7677L103.716 41.7847L103.614 41.8018L103.495 41.8188L103.358 41.8359L103.256 41.8529H103.153L102.949 41.8359L102.744 41.8188L102.642 41.8018L102.352 41.7336H102.283L102.232 41.7847L102.215 41.8529V41.9552L102.198 42.0574V42.2449L102.215 42.3472L102.232 42.4324L102.301 42.6369L102.403 42.8073L102.471 42.8755L102.539 42.9437L102.71 43.0459L102.812 43.08L102.915 43.1141L102.983 43.1312L103.085 43.1482L103.188 43.1652H103.29L103.392 43.1482L103.682 43.0971L103.785 43.08L103.887 43.0459L103.972 43.0119L104.16 42.9437L104.331 42.8585L104.484 42.7392L104.552 42.688L104.621 42.6199L104.774 42.4835L104.911 42.3301L104.962 42.262L105.03 42.1767L105.132 42.0233L105.184 41.9381L105.235 41.8529L105.286 41.7677L105.337 41.6825L105.388 41.6143L105.439 41.5291L105.491 41.4268L105.542 41.3416L105.593 41.2564L105.661 41.2053H105.764L105.866 41.2734L105.917 41.3757L105.9 41.478L105.849 41.5802L105.798 41.6995L105.729 41.8188L105.678 41.9381L105.61 42.0574L105.542 42.1597L105.439 42.3301L105.405 42.3983L105.337 42.5006L105.235 42.6539L105.166 42.7221L105.098 42.7903L105.03 42.8585L104.962 42.9437L104.928 42.9948L104.859 43.08L104.791 43.1482L104.638 43.2846L104.535 43.3698L104.433 43.455L104.262 43.5572L103.989 43.6766L103.904 43.7106L103.802 43.7447L103.665 43.7618L103.529 43.7959L103.307 43.8129L103.171 43.8299L103.051 43.847H102.932L102.539 43.7959L102.454 43.7788L102.352 43.7447L102.249 43.6936L102.164 43.6425L101.993 43.5402L101.908 43.4891L101.84 43.4209L101.772 43.3527L101.721 43.3016L101.652 43.2164L101.584 43.1482L101.533 43.063L101.482 42.9948L101.431 42.8926L101.396 42.8073L101.362 42.7051L101.345 42.6028L101.328 42.5176L101.311 42.4153L101.277 42.1256V41.9211L101.294 41.8188V41.7166L101.362 41.4268L101.396 41.3416L101.413 41.2394L101.448 41.1371L101.465 41.0348L101.499 40.9326L101.55 40.8133L101.601 40.6769L101.652 40.5747L101.721 40.4554L101.789 40.3531L101.84 40.2508L101.891 40.1827L101.959 40.1145L102.13 39.9441L102.301 39.7736L102.386 39.7055L102.488 39.6373L102.591 39.5691L102.693 39.5009L102.795 39.4328L102.898 39.3816L103 39.3305L103.136 39.2623L103.358 39.1942L103.563 39.143L103.699 39.126H103.938L104.075 39.143L104.245 39.1771L104.382 39.2112L104.484 39.2453L104.586 39.2964L104.672 39.3475L104.74 39.3987L104.894 39.535L104.962 39.6032L105.03 39.7055L105.081 39.8418L105.115 39.9441L105.132 40.0463L105.149 40.1486V40.2849L105.132 40.4213L105.115 40.5235L105.081 40.6599L105.03 40.7962L104.979 40.8985L104.945 40.9496L104.894 41.0519L104.876 41.0689ZM103.529 39.7566L103.375 39.8248L103.239 39.8929L103.153 39.9441L103 40.0804L102.898 40.1827L102.812 40.2849L102.744 40.3701L102.676 40.4894L102.608 40.5917L102.556 40.694L102.488 40.8133L102.437 40.9496L102.386 41.0519L102.352 41.1371L102.335 41.2053L102.386 41.2564L102.522 41.2905L102.744 41.3075L102.846 41.3246H103.153L103.256 41.3075L103.358 41.2905L103.461 41.2394L103.529 41.2223L103.631 41.1712L103.699 41.12L103.768 41.0519L103.836 40.9837L103.904 40.9155L103.972 40.8303L104.024 40.7621L104.075 40.6769L104.126 40.5747L104.194 40.3701L104.211 40.2679L104.228 40.1656L104.211 40.0634L104.16 39.9611L104.092 39.8929L104.006 39.8248L103.904 39.7736L103.802 39.7566L103.699 39.7395L103.597 39.7566H103.529Z" fill="#16151C"/>
<path d="M106.872 43.762L106.787 43.7449L106.685 43.7279L106.582 43.6938L106.446 43.6427L106.326 43.5745L106.224 43.5234L106.122 43.4382L106.019 43.3359L105.951 43.2677L105.883 43.1995L105.815 43.1314L105.763 43.0462L105.712 42.9439L105.661 42.8075L105.61 42.6882L105.576 42.586L105.542 42.4496L105.525 42.3133L105.508 42.211L105.49 42.1088V41.9043L105.508 41.819L105.525 41.7168L105.542 41.6145L105.559 41.4782L105.593 41.3418L105.627 41.2396L105.644 41.1373L105.712 40.9157L105.763 40.7964L105.815 40.6942L105.985 40.3533L106.036 40.2681L106.139 40.1147L106.292 39.9443L106.326 39.8931L106.395 39.8079L106.463 39.7397L106.531 39.6716L106.599 39.6034L106.668 39.5523L106.753 39.4841L106.821 39.433L106.906 39.3818L106.992 39.3307L107.06 39.2796L107.145 39.2284L107.265 39.1773L107.486 39.1091L107.606 39.0751L107.708 39.058L107.811 39.041L107.913 39.0239H108.101L108.203 39.041L108.339 39.058L108.51 39.1091L108.646 39.1603L108.749 39.1944L108.817 39.2455L108.885 39.2966L108.954 39.3648L109.022 39.433L109.09 39.5011L109.141 39.6034L109.192 39.7227L109.226 39.859L109.244 39.9613L109.226 40.0977L109.192 40.234L109.158 40.3363L109.107 40.4215L109.056 40.5067L108.988 40.609L108.919 40.7112L108.851 40.7794L108.783 40.8476L108.698 40.8987L108.561 40.9157H108.391L108.22 40.8646L108.118 40.7964V40.7112L108.169 40.609L108.237 40.4897L108.305 40.3874L108.356 40.2851L108.374 40.1999L108.391 40.0977V40.0295L108.374 39.9272L108.305 39.825L108.203 39.7568L108.101 39.7227L107.998 39.7057L107.896 39.7227L107.759 39.7397L107.623 39.7909L107.521 39.842L107.452 39.8931L107.367 39.9613L107.299 40.0124L107.213 40.0806L107.128 40.1829L107.06 40.251L106.992 40.3533L106.889 40.4726L106.821 40.5919L106.77 40.6942L106.719 40.7794L106.668 40.8476L106.616 40.9328L106.582 41.035L106.548 41.1203L106.514 41.2225L106.48 41.3589L106.446 41.4952L106.429 41.5975L106.412 41.7338L106.395 41.8702L106.378 41.9724V42.1088L106.395 42.2792L106.429 42.4326L106.463 42.5349L106.565 42.7564L106.633 42.8416L106.702 42.9098L106.77 42.978L106.889 43.0291L107.026 43.0802L107.128 43.0973L107.265 43.1143H107.503L107.759 43.0973L107.862 43.0802L107.981 43.0462L108.083 42.995L108.203 42.9269L108.322 42.8757L108.578 42.7053L108.681 42.6201L108.783 42.5349L108.936 42.3985L109.073 42.2451L109.141 42.1769L109.278 42.0236L109.38 41.8702L109.448 41.7679L109.482 41.6997L109.551 41.5804L109.619 41.4782L109.67 41.3759L109.738 41.2396L109.841 41.1714L109.977 41.1884L110.062 41.2907V41.41L110.028 41.4952L109.977 41.5804L109.926 41.6827L109.875 41.7849L109.806 41.9043L109.721 42.0236L109.636 42.1599L109.465 42.3985L109.397 42.4837L109.414 42.586L109.346 42.6542L109.141 42.8757L109.09 42.9439L109.022 43.0121L108.954 43.0802L108.8 43.1825L108.732 43.2677L108.664 43.3188L108.561 43.387L108.476 43.4382L108.391 43.4893L108.305 43.5404L108.169 43.5915L108.032 43.6427L107.913 43.6768L107.776 43.6938L107.64 43.7279L107.435 43.762L107.145 43.7961L106.941 43.779L106.872 43.762Z" fill="#16151C"/>
<path d="M112.348 41.3246V41.4439L112.314 41.5462L112.229 41.7166L112.126 41.887L112.075 41.9893L112.024 42.0745L111.956 42.1768L111.922 42.245L111.871 42.3472L111.819 42.4324L111.768 42.5006L111.7 42.5858L111.649 42.654L111.546 42.8244L111.342 43.046L111.205 43.1823L111.137 43.2505L111.069 43.3187L111.001 43.3869L110.762 43.5743L110.694 43.6255L110.591 43.6766L110.489 43.7107L110.404 43.7277L110.199 43.7789H110.011L109.892 43.7618L109.806 43.7277L109.704 43.6936L109.619 43.6425L109.551 43.5743L109.499 43.5062L109.448 43.4209L109.397 43.3187L109.38 43.2335L109.363 43.1312L109.346 43.029V42.9267L109.363 42.7222L109.38 42.6199L109.414 42.5177L109.465 42.3131L109.499 42.2279L109.516 42.1257L109.551 42.0234L109.585 41.9382L109.687 41.6484L109.704 41.5632L109.721 41.461L109.755 41.3587L109.772 41.2564L109.789 41.1712L109.858 40.9667L109.892 40.8304L109.926 40.694L109.994 40.4895L110.011 40.3872L110.028 40.3191L110.045 40.2168L110.096 40.1145L110.131 40.0293L110.199 39.7396L110.233 39.6373L110.267 39.501L110.318 39.3646L110.352 39.2624L110.404 39.1772L110.472 39.126L110.574 39.0749L110.659 39.0579L110.762 39.0749L110.966 39.0919L111.137 39.1601L111.188 39.2283V39.3305L111.171 39.4328L111.137 39.5692L111.103 39.7055L111.035 39.91L111.018 39.9952L111.001 40.0975L110.966 40.1998L110.932 40.3361L110.83 40.6599L110.813 40.7622L110.762 40.8985L110.694 41.1201L110.676 41.2224L110.608 41.3928L110.591 41.4951L110.523 41.6825L110.506 41.7848L110.438 42.0575L110.369 42.262L110.352 42.3643L110.318 42.5006L110.284 42.671L110.267 42.8585L110.284 43.029L110.369 43.1483L110.489 43.1823L110.591 43.1653L110.694 43.1142L110.762 43.063L110.847 42.9949L111.205 42.637L111.274 42.5688L111.325 42.5006L111.393 42.4154L111.495 42.245L111.564 42.1768L111.615 42.1086L111.666 42.0234L111.734 41.9211L111.785 41.8189L111.871 41.6314L112.007 41.3757L112.058 41.2905L112.161 41.2394L112.297 41.2564L112.348 41.3246ZM110.591 37.9671L110.642 37.8819L110.728 37.8137L110.813 37.7626L110.915 37.7285L111.018 37.7114H111.12L111.222 37.7285L111.308 37.7796L111.376 37.8478L111.444 37.9159L111.495 38.0012L111.529 38.1034L111.546 38.2057V38.3079L111.512 38.4102L111.461 38.4954L111.393 38.5806L111.325 38.6488L111.239 38.717L111.137 38.7681L111.035 38.7852L110.932 38.7681L110.83 38.7511L110.659 38.6488L110.591 38.5806L110.54 38.4954L110.523 38.3932L110.506 38.2909L110.523 38.1886L110.54 38.0864L110.591 37.9671Z" fill="#16151C"/>
<path d="M117.483 41.3073V41.4436L117.449 41.5459L117.415 41.6141L117.364 41.6993L117.296 41.8015L117.262 41.8527L117.193 41.9379L117.142 42.0402L117.091 42.1254L116.989 42.2788L116.92 42.3469L116.852 42.4151L116.682 42.5855L116.596 42.6537L116.494 42.7219L116.392 42.7901L116.323 42.8412L116.238 42.8923L116.136 42.9264L116.016 42.9775L115.88 43.0116L115.777 43.0457L115.675 43.0628H115.556L115.453 43.0457L115.351 43.0287L115.249 42.9946H115.163L115.078 43.0116L115.01 43.0628L114.941 43.1309L114.873 43.1991L114.805 43.2673L114.737 43.3184L114.651 43.3866L114.549 43.4548L114.498 43.4888L114.396 43.54L114.31 43.5911L114.208 43.6422L114.106 43.6763L114.037 43.6934L113.935 43.7274L113.73 43.7786H113.355L113.236 43.7615L113.133 43.7445L113.031 43.7274L112.946 43.6934L112.843 43.6422L112.758 43.5911L112.656 43.54L112.587 43.4888L112.519 43.4207L112.451 43.3525L112.383 43.3184L112.331 43.3355L112.297 43.4036L112.263 43.4888L112.212 43.6934L112.195 43.7786L112.178 43.8808L112.144 43.9831L112.076 44.2387L112.058 44.341L112.041 44.4433L112.024 44.5455L111.99 44.6478L111.905 45.0398L111.888 45.142L111.871 45.2784L111.854 45.4147L111.82 45.517L111.803 45.6533L111.786 45.7897L111.768 45.892L111.751 45.9942L111.717 46.0794L111.7 46.1817L111.683 46.284L111.666 46.4203L111.649 46.5566L111.632 46.6589L111.598 46.7441L111.53 46.7953L111.461 46.8293L111.359 46.8464L111.24 46.8634H111.12L111.052 46.8464L110.933 46.8293L110.83 46.7782L110.779 46.71L110.762 46.6248L110.779 46.5226L110.796 46.4203L110.813 46.3351L110.898 45.9431L110.915 45.8408L110.933 45.7386L110.967 45.6022L110.984 45.4659L111.001 45.3636L111.018 45.2273L111.035 45.0909L111.137 44.5967L111.154 44.4944L111.171 44.4092L111.188 44.3069L111.223 44.2047L111.291 43.949L111.308 43.8468L111.325 43.7104L111.359 43.5741L111.393 43.4718L111.41 43.3695L111.427 43.2843L111.496 42.9946L111.53 42.9094L111.564 42.8071L111.615 42.6196L111.649 42.5174L111.666 42.381L111.7 42.2447L111.717 42.1424L111.786 41.9379L111.854 41.6822L111.888 41.58L111.939 41.3755L111.973 41.2391L112.007 41.1028L112.024 41.0005L112.058 40.8983L112.093 40.813L112.127 40.7108L112.144 40.6256L112.178 40.5233L112.195 40.421L112.229 40.3358L112.263 40.2336L112.28 40.1313L112.297 40.0461L112.348 39.8757L112.383 39.7734L112.417 39.6711L112.451 39.5859L112.468 39.4837L112.553 39.228L112.621 39.1598L112.758 39.1087L112.928 39.0917L113.099 39.1087L113.27 39.1769L113.372 39.2962V39.4666L113.338 39.603L113.321 39.6711L113.338 39.6882L113.389 39.637L113.491 39.5518L113.594 39.4837L113.679 39.4155L113.781 39.3473L113.901 39.2791L114.003 39.228L114.14 39.1769L114.293 39.1257L114.43 39.0746L114.532 39.0576L114.669 39.0405H114.805L114.907 39.0576L115.01 39.0746L115.095 39.1087L115.18 39.1257L115.266 39.1598L115.368 39.211L115.453 39.2621L115.521 39.3132L115.59 39.3814L115.726 39.5177L115.794 39.62L115.846 39.7052L115.88 39.7904L115.914 39.8927L115.931 39.995L115.948 40.0802L115.999 40.2847V40.5744L116.016 40.6767L115.999 40.7789V40.8812L115.982 40.9835L115.965 41.0857L115.948 41.188L115.931 41.2732L115.914 41.3755L115.863 41.5629L115.829 41.6652L115.812 41.7675L115.794 41.8527L115.76 41.9549L115.709 42.0572L115.59 42.3128L115.47 42.5515L115.487 42.6026L115.556 42.6196L115.658 42.6026L115.76 42.5855H115.829L115.931 42.5685L116.033 42.5174L116.119 42.4662L116.306 42.364L116.46 42.2276L116.528 42.1595L116.596 42.0913L116.647 42.0231L116.716 41.9379L116.767 41.8527L116.869 41.6822L116.937 41.58L116.989 41.4948L117.04 41.3925L117.125 41.2221L117.227 41.1709L117.364 41.188L117.483 41.3073ZM114.856 41.7504L114.89 41.6652L114.959 41.4607L114.976 41.3755L114.993 41.2732L115.027 41.1709L115.044 41.0857L115.061 40.9835L115.112 40.5915L115.095 40.4892V40.387L115.078 40.2847L115.061 40.1995L115.044 40.0972L114.993 39.995L114.907 39.8927L114.805 39.8075L114.703 39.7563L114.6 39.7393L114.515 39.7223H114.413L114.31 39.7393L114.242 39.7563L114.14 39.7734L113.918 39.8586L113.85 39.8757L113.645 39.9779L113.543 40.029L113.474 40.0972L113.389 40.1483L113.321 40.2165L113.167 40.3699L113.099 40.4551L113.048 40.5744L112.997 40.7449L112.946 40.8812L112.877 41.1028L112.843 41.2391L112.826 41.3414L112.792 41.4777L112.741 41.6482L112.707 41.7845L112.673 41.8868L112.656 42.0742L112.604 42.2447L112.553 42.4151L112.519 42.5515L112.502 42.6537L112.519 42.7389L112.57 42.8071L112.638 42.8753L112.707 42.9435L112.775 42.9946L112.877 43.0457L113.014 43.0968L113.15 43.1309L113.355 43.148L113.457 43.1309L113.56 43.1139L113.662 43.0968L113.747 43.0798L113.85 43.0628L113.935 43.0116L114.106 42.9094L114.191 42.8582L114.259 42.7901L114.31 42.7219L114.293 42.6196L114.242 42.5174L114.208 42.4151L114.191 42.3299L114.208 42.2276L114.259 42.1595L114.327 42.0913L114.464 42.0402L114.617 42.0061L114.72 41.9549L114.788 41.8527L114.856 41.7504Z" fill="#16151C"/>
<path d="M120.622 41.0689L120.571 41.137L120.434 41.2904L120.281 41.4268L120.213 41.4779L120.11 41.529L120.042 41.5461L119.94 41.6143L119.871 41.6483L119.769 41.6995L119.667 41.7336L119.564 41.7676L119.462 41.7847L119.36 41.8017L119.24 41.8188L119.104 41.8358L119.001 41.8529H118.899L118.694 41.8358L118.49 41.8188L118.387 41.8017L118.114 41.7336H118.046L117.995 41.7847L117.978 41.8529V41.9551L117.961 42.0574V42.2449L117.978 42.3471L117.995 42.4323L118.063 42.6369L118.166 42.8073L118.234 42.8755L118.302 42.9436L118.473 43.0459L118.575 43.08L118.677 43.1141L118.746 43.1311L118.848 43.1482L118.95 43.1652H119.053L119.155 43.1482L119.445 43.097L119.547 43.08L119.65 43.0459L119.735 43.0118L119.923 42.9436L120.093 42.8584L120.247 42.7391L120.315 42.688L120.383 42.6198L120.537 42.4835L120.673 42.3301L120.724 42.2619L120.793 42.1767L120.895 42.0233L120.946 41.9381L120.997 41.8529L121.049 41.7676L121.1 41.6824L121.151 41.6143L121.202 41.529L121.253 41.4268L121.304 41.3416L121.356 41.2563L121.424 41.2052H121.526L121.629 41.2734L121.68 41.3756L121.663 41.4779L121.612 41.5802L121.56 41.6995L121.492 41.8188L121.441 41.9381L121.373 42.0574L121.304 42.1596L121.202 42.3301L121.168 42.3983L121.1 42.5005L120.997 42.6539L120.929 42.7221L120.861 42.7902L120.793 42.8584L120.724 42.9436L120.69 42.9948L120.622 43.08L120.554 43.1482L120.4 43.2845L120.298 43.3697L120.196 43.4549L120.025 43.5572L119.752 43.6765L119.667 43.7106L119.564 43.7447L119.428 43.7617L119.291 43.7958L119.07 43.8128L118.933 43.8299L118.814 43.8469H118.711L118.319 43.7958L118.234 43.7788L118.131 43.7447L118.029 43.6935L117.944 43.6424L117.773 43.5402L117.688 43.489L117.62 43.4209L117.551 43.3527L117.5 43.3015L117.432 43.2163L117.364 43.1482L117.313 43.0629L117.261 42.9948L117.21 42.8925L117.176 42.8073L117.142 42.705L117.091 42.5857L117.074 42.5005L117.057 42.3983L117.023 42.1085V41.904L117.04 41.8017V41.6995L117.108 41.4097L117.142 41.3245L117.159 41.2223L117.193 41.12L117.21 41.0177L117.244 40.9155L117.296 40.7962L117.347 40.6598L117.398 40.5576L117.466 40.4383L117.534 40.336L117.586 40.2337L117.637 40.1656L117.705 40.0974L117.876 39.927L118.046 39.7565L118.131 39.6884L118.234 39.6202L118.336 39.552L118.439 39.4838L118.541 39.4157L118.643 39.3645L118.746 39.3134L118.882 39.2452L119.104 39.1771L119.309 39.1259L119.445 39.1089H119.684L119.82 39.1259L119.991 39.16L120.127 39.1941L120.23 39.2282L120.332 39.2793L120.417 39.3304L120.486 39.3816L120.639 39.5179L120.707 39.5861L120.776 39.6884L120.827 39.8247L120.861 39.927L120.878 40.0292L120.895 40.1315V40.2678L120.878 40.4042L120.861 40.5064L120.827 40.6428L120.776 40.7791L120.724 40.8814L120.69 40.9325L120.639 41.0348L120.622 41.0689ZM119.291 39.7565L119.138 39.8247L119.001 39.8929L118.916 39.944L118.763 40.0804L118.66 40.1826L118.575 40.2849L118.507 40.3701L118.439 40.4894L118.37 40.5917L118.319 40.6939L118.251 40.8132L118.2 40.9496L118.149 41.0518L118.114 41.137L118.097 41.2052L118.149 41.2563L118.285 41.2904L118.507 41.3075L118.609 41.3245H118.916L119.019 41.3075L119.121 41.2904L119.223 41.2393L119.291 41.2223L119.394 41.1711L119.462 41.12L119.53 41.0518L119.599 40.9837L119.667 40.9155L119.735 40.8303L119.786 40.7621L119.837 40.6769L119.889 40.5746L119.957 40.3701L119.974 40.2678L119.991 40.1656L119.974 40.0633L119.923 39.9611L119.854 39.8929L119.769 39.8247L119.667 39.7736L119.564 39.7565L119.462 39.7395L119.36 39.7565H119.291Z" fill="#16151C"/>
<path d="M45.2201 6.7268C45.4248 6.70975 45.5101 6.57341 45.6636 6.52228C45.5272 5.92576 46.0048 5.89167 46.2607 5.65306L45.0154 5.02246L45.203 6.86314C45.2201 6.8461 45.2372 6.81201 45.2201 6.7268ZM52.6579 11.2092V11.3115C52.675 11.2603 52.675 11.2262 52.6579 11.2092ZM46.5337 5.78941L46.3972 5.72124V5.8235C46.4825 5.85758 46.5166 5.8235 46.5337 5.78941Z" fill="#9F130E"/>
<path d="M61.8017 8.60133L59.0893 8.73768L58.5605 7.11856L58.3216 7.25491C58.3387 7.32308 58.3046 7.4083 58.3216 7.45943C58.2705 7.42534 58.2363 7.4083 58.1511 7.4083C58.1511 7.37421 58.1511 7.35717 58.1681 7.34013L55.4557 8.87403L57.5028 3.98259L55.831 4.51093L54.6539 1L52.1462 3.72694L51.8562 3.47129C51.8391 3.48833 51.8391 3.50537 51.8221 3.52242C51.7538 3.47129 51.7368 3.4372 51.7538 3.40311L50.8326 2.58503L50.7132 7.88551L48.5979 5.00519L47.4378 6.2664L46.636 5.85736C46.619 5.8744 46.619 5.90849 46.636 5.95962C46.4484 5.92553 46.3972 6.06188 46.2949 5.95962C46.056 6.28344 45.8513 6.57318 45.6807 7.06743C45.5613 7.03335 45.5272 6.93109 45.5101 6.81178C45.3566 6.7777 45.3907 6.91404 45.2884 6.91404C45.3225 6.96517 45.3907 6.99926 45.4589 7.0163C45.4078 7.15265 45.3395 6.99926 45.2201 6.99926L45.3395 8.12412L44.0089 8.63542L44.5548 9.28307C44.6572 9.23194 44.8619 9.24898 44.896 9.26603C44.8448 9.31716 44.7425 9.35124 44.6401 9.36829L44.9983 9.79437C45.1519 9.79437 45.2884 9.81141 45.4078 9.8455C45.4078 9.9648 45.3395 10.05 45.2713 10.1012L45.3737 10.2205C45.5101 10.2375 45.5442 10.2716 45.6807 10.2205C45.6295 10.2545 45.5784 10.3398 45.5272 10.4079L47.6255 12.8451L47.4378 13.7314L46.9943 14.6858L51.6515 15.0608L56.0528 16.6288V15.5721L56.2404 14.6858L61.2558 12.3168L60.2493 11.3112L61.8017 8.60133ZM45.3395 8.78881C45.3225 8.66951 45.4419 8.66951 45.3907 8.53316C45.476 8.53316 45.5442 8.53316 45.5613 8.48203C45.6466 8.49908 45.5784 8.63542 45.6807 8.63542C45.4931 8.61838 45.5784 8.75473 45.3395 8.78881ZM45.3907 8.41386C45.2884 8.26047 45.5442 7.97073 45.5613 7.73212C45.6295 7.78325 45.766 7.78325 45.8513 7.83438C45.5784 7.9196 45.4931 8.19229 45.3907 8.41386ZM55.251 10.834H55.4216V11.0897C55.3704 11.0044 55.2169 11.0044 55.251 10.834ZM55.251 12.8792C55.1316 12.9985 55.3533 13.1349 55.3022 13.3564C55.1827 13.3905 55.1486 13.4928 54.961 13.4587C54.9268 13.203 54.9951 13.0326 55.0804 12.8792H55.251ZM54.8074 10.8851C55.0292 10.7999 54.8245 11.1238 55.0292 11.0385C54.978 11.1067 54.9439 11.209 54.8074 11.1919C54.9098 11.1067 54.7563 11.0726 54.8074 10.8851ZM55.251 13.561C55.3874 13.6803 54.9268 13.7143 55.1316 13.9359C54.961 13.7825 54.9098 14.0382 54.7904 14.0893C54.6368 14.0893 54.9268 13.9529 54.671 13.987C54.7221 13.6973 55.0633 13.7143 55.251 13.561ZM53.4598 11.0897C53.3915 10.7829 53.3062 10.5784 53.4086 10.3057C53.4768 10.3909 53.528 10.7488 53.6303 10.6125C53.6645 10.7318 53.5109 10.9874 53.6815 11.1919C53.6303 11.1919 53.6303 11.2601 53.6303 11.2942C53.4598 11.4305 53.4597 11.0897 53.1868 11.1919C53.238 11.0726 53.2892 11.0385 53.4598 11.0897ZM52.8286 8.68655C52.8286 8.83994 52.6921 8.83994 52.5556 8.83994C52.6068 8.73768 52.658 8.65246 52.8286 8.68655ZM51.6515 7.20378C51.7368 7.27195 51.6685 7.30604 51.6515 7.45943C51.4979 7.32308 51.6003 7.54465 51.4297 7.51056C51.4809 7.4083 51.6173 7.34013 51.6515 7.20378ZM51.4297 11.1408C51.3444 11.1238 51.3785 10.9704 51.2079 11.0385V10.7829C51.3956 10.7829 51.5321 11.0215 51.4297 11.1408ZM47.2502 8.78881C47.3696 8.92516 47.3696 8.90812 47.4208 9.16377C47.6084 9.14672 47.4719 8.8229 47.762 8.90812C47.7278 8.78881 47.5572 8.78881 47.4208 8.75473C47.5061 8.65246 47.5061 8.44795 47.6937 8.44795C47.7108 8.58429 47.6084 8.61838 47.5743 8.7036C47.6425 8.8229 47.8472 8.8229 47.9155 8.7036C48.0861 8.78881 47.8814 8.9422 47.7449 8.90812V9.23194C47.6425 9.28307 47.4719 9.24898 47.4037 9.3342C47.3355 9.31716 47.3525 9.19785 47.3525 9.12968C47.2161 9.18081 47.3866 9.50463 47.1308 9.43646C47.1649 9.18081 47.2843 8.92516 47.2502 8.78881ZM48.1031 9.67507C47.9325 9.69211 47.8472 9.62394 47.8814 9.47055C48.052 9.43646 48.069 9.55576 48.1031 9.67507ZM46.346 10.4079C46.4143 10.3057 46.5337 10.2375 46.6872 10.2034C46.619 10.3227 46.4996 10.4591 46.8066 10.4079C46.7896 10.4761 46.8237 10.5102 46.8578 10.5102C46.7725 10.7318 46.4313 10.5102 46.346 10.4079ZM46.9602 11.5157C46.8578 11.5157 46.7725 11.4817 46.7384 11.4135C46.7896 11.2431 46.9772 11.226 47.1308 11.1578C47.199 11.3794 46.8919 11.2601 46.9602 11.5157ZM47.0796 10.7829C47.0966 10.6806 47.3355 10.7829 47.2502 10.5784C47.0625 10.5102 47.199 10.7488 47.0284 10.6806C46.9431 10.4931 46.926 10.2375 46.9772 10.1523C47.1819 10.1012 47.0796 10.3227 46.9772 10.3057C47.0796 10.3738 47.2672 10.3738 47.3184 10.5102C47.4037 10.4591 47.4549 10.3568 47.5402 10.3057C47.3696 10.05 47.3014 10.05 47.4208 9.7262C47.3184 9.74324 47.3696 9.93072 47.199 9.87959C47.0796 9.77733 46.9943 9.7262 47.0796 9.57281C47.2502 9.70915 47.3696 9.50463 47.5231 9.47055C47.5061 9.57281 47.5572 9.60689 47.5743 9.67507C47.6425 9.67507 47.6255 9.57281 47.6255 9.52168C47.6937 9.53872 47.6596 10.0159 47.6767 10.3568C47.762 10.3568 47.8984 10.3909 47.8984 10.3057C47.9667 10.3227 47.9496 10.442 47.9496 10.5102C47.6767 10.442 47.6255 10.5954 47.6084 10.7658C47.3696 10.7999 47.3013 10.6125 47.3866 10.8681C47.2331 10.9192 47.199 10.817 47.0796 10.7829ZM47.5402 12.4702C47.5914 12.3509 47.6596 12.2657 47.8302 12.2657C47.8131 12.5043 47.7961 12.7258 48.052 12.5895C48.069 12.811 47.7278 12.7088 47.8302 13.0156C47.6767 13.0156 47.6596 12.8792 47.6596 12.7599C47.8984 12.8451 47.6255 12.5043 47.5402 12.4702ZM47.9837 14.1404C47.8131 14.1575 47.7961 14.0211 47.8131 13.8848C47.9837 13.8848 48.1031 14.0382 47.9837 14.1404ZM47.6425 13.4076C47.6596 13.3394 47.7449 13.3564 47.8131 13.3564C47.8814 13.3223 47.9155 13.2371 47.9325 13.1519C47.9837 13.186 48.0349 13.2201 48.052 13.1519C48.2055 13.1178 48.0178 13.4076 48.1714 13.3564C48.0008 13.4587 47.7961 13.595 47.6425 13.4076ZM48.1543 9.41942C48.069 9.36829 48.0349 9.28307 48.0349 9.16377C48.1884 9.16377 48.1714 9.31716 48.3249 9.31716C48.3078 9.38533 48.1543 9.3342 48.1543 9.41942ZM48.5979 13.4587C48.8026 13.578 49.1608 13.3564 49.3826 13.5098C49.2973 13.6973 49.0073 13.4757 49.0414 13.6632C48.8537 13.578 48.6832 13.6291 48.4784 13.6632C48.4273 13.5098 48.6661 13.6291 48.5979 13.4587ZM49.6214 14.4642C49.3826 14.4302 49.2973 14.5495 49.1096 14.5665C49.0414 14.2427 48.8879 14.4983 48.7173 14.4131C48.8879 14.2768 49.2632 14.3279 49.3314 14.0893C49.2973 14.0382 49.1949 14.0382 49.212 13.9359C49.0755 13.9189 49.0414 14.0211 48.9902 14.0893C48.7514 13.9018 49.1438 13.8507 49.1608 13.7143C49.212 13.7143 49.212 13.7825 49.212 13.8166C49.3826 13.7825 49.1608 13.6973 49.212 13.6121C49.502 13.8336 49.5191 13.6462 49.6555 13.987C49.5532 13.987 49.5361 14.0552 49.4338 14.0382C49.4849 14.2768 49.6897 14.0723 49.6214 14.4642ZM49.7238 10.05C49.6555 10.1011 49.5702 10.1182 49.4338 10.1012C49.4338 9.9648 49.6044 9.98185 49.6044 9.8455C49.7238 9.8455 49.7408 9.93072 49.7238 10.05ZM50.6279 13.1008C50.645 13.0326 50.6109 12.9985 50.5767 12.9985C50.6109 12.8281 50.7303 12.9303 50.8667 12.9474C50.8838 13.0667 50.7473 13.0667 50.6279 13.1008ZM50.5256 10.5102C50.5085 10.3909 50.6279 10.3909 50.5767 10.2545C50.8667 10.3057 51.0885 9.86254 51.0885 10.3568C50.8667 10.3909 50.7644 10.5102 50.5256 10.5102ZM50.7985 3.74398C50.7814 3.5565 51.1056 3.67581 51.1909 3.59059C51.1567 3.62468 51.1397 3.67581 51.1397 3.74398H50.7985ZM51.1909 11.9418C51.3444 11.7544 51.3103 11.8566 51.242 11.5669C51.6344 11.6862 51.3956 11.6691 51.805 11.5669C51.7709 11.8225 51.7368 11.9077 51.8562 12.0952C51.7026 11.9589 51.3444 11.9589 51.1909 11.9418ZM51.9244 11.4646H51.7538V11.2601H51.9244C51.8391 11.3624 51.9415 11.3283 51.9244 11.4646ZM52.2144 5.94257C52.1121 5.9937 52.0268 5.78918 51.9927 5.94257C51.8732 5.95962 51.9585 5.7551 51.9415 5.68692C52.1974 5.78918 52.2485 5.78918 52.385 5.58466C52.5215 5.66988 52.1974 5.78918 52.2144 5.94257ZM52.4362 11.209C52.5556 11.1578 52.675 11.1238 52.7091 11.0044C52.8115 11.0556 52.7944 11.1919 52.9309 11.209C52.8797 11.2771 52.7603 11.2771 52.658 11.3112C52.658 11.4476 52.6409 11.6521 52.8286 11.6351C52.7262 11.7373 52.6238 11.7203 52.4874 11.6862C52.6409 11.5328 52.4021 11.4135 52.4362 11.209ZM52.7774 13.2542C52.7944 13.1519 53.0333 13.2371 52.9992 13.1008C53.0674 13.1008 53.0503 13.203 53.0503 13.2542C52.8115 13.2201 52.9139 13.4416 52.7774 13.2542ZM53.2892 12.419C53.1186 12.4872 53.1527 12.3338 53.0674 12.3168C52.9821 12.4361 52.948 12.5895 52.7262 12.5724V12.3679C52.7433 12.2486 52.4703 12.402 52.5556 12.2145C52.7433 12.1804 52.7944 12.3168 52.8968 12.2145C52.8115 12.0441 52.8797 11.9759 52.8968 11.7884C53.0503 11.9077 53.1527 12.3509 53.4598 12.1634C53.6133 12.2316 53.2892 12.3168 53.2892 12.419ZM53.5621 11.5669C53.4427 11.4476 53.6303 11.3624 53.6815 11.2431C53.8009 11.3112 53.7156 11.601 53.5621 11.5669ZM53.5109 10.2545C53.2721 10.1352 53.7156 9.79437 53.8521 9.67507C53.9204 9.8455 53.4086 10.0671 53.5109 10.2545ZM54.4662 10.9874C54.4662 10.8511 54.5515 10.817 54.5857 10.7147C54.7051 10.7488 54.8074 10.7999 54.7563 10.9874C54.6539 11.0044 54.6539 10.9533 54.6368 10.8851C54.5857 10.9192 54.5857 11.0044 54.4662 10.9874ZM55.541 14.6176C55.3363 14.9415 54.7733 14.6176 54.6368 15.0437C54.3298 14.9415 54.961 14.6858 54.8074 14.5665C54.8416 14.4302 55.1998 14.6176 55.0974 14.362C55.2851 14.3109 55.1827 14.5324 55.3192 14.5154C55.4386 14.5324 55.6263 14.1916 55.3704 14.1916C55.3533 14.1404 55.3874 14.1404 55.4216 14.1404V14.0382C55.558 14.1404 55.541 14.3961 55.541 14.6176ZM55.5922 13.987C55.3874 13.8677 55.7628 13.8677 55.7116 13.7314C56.0186 13.7825 55.6433 13.9359 55.5922 13.987ZM55.541 10.7829C55.5239 10.5954 55.848 10.7147 55.9333 10.6295C55.9333 10.7829 55.7116 10.7658 55.541 10.7829ZM56.8375 12.9303C56.9057 13.1349 56.6498 13.0326 56.7181 13.2542C56.5134 13.203 56.6328 12.9133 56.8375 12.9303ZM56.6157 13.4587C56.6669 13.2883 56.7181 13.4416 56.9057 13.4076C56.8204 13.578 56.7351 13.578 56.6157 13.4587ZM57.4516 8.20934C57.571 8.15821 57.6563 8.07299 57.6734 7.95369C57.9975 8.02186 57.9463 7.74917 58.1852 7.74917C58.2363 7.8003 58.2534 7.86847 58.2363 7.95369C58.0146 7.88551 58.2534 8.00482 58.3558 8.00482V8.20934C58.2193 8.15821 58.134 8.05595 58.0146 8.00482C57.9463 8.02186 57.9634 8.14116 57.9634 8.20934C57.7757 8.02186 57.554 8.3116 57.4516 8.20934ZM58.3558 11.0897C58.0658 11.0897 58.0999 10.7999 57.7928 10.834C57.7928 10.7318 57.9805 10.7999 57.9634 10.6806C58.0999 10.7488 58.1681 10.8681 58.4069 10.834C58.4581 10.9874 58.3387 10.9704 58.3558 11.0897Z" fill="#9F130E"/>
</svg>
