<svg width="25" height="24" viewBox="0 0 25 24" fill="none" xmlns="http://www.w3.org/2000/svg">
<path d="M9.08997 20.618C10.846 21.54 11.724 22 12.668 22V12L3.30597 7.073C3.29236 7.09517 3.27903 7.1175 3.26597 7.14C2.66797 8.154 2.66797 9.417 2.66797 11.942V12.059C2.66797 14.583 2.66797 15.846 3.26497 16.86C3.86297 17.875 4.93897 18.44 7.08997 19.569L9.08997 20.618Z" fill="#8958F1"/>
<path opacity="0.7" d="M18.2437 4.432L16.2437 3.382C14.4887 2.461 13.6107 2 12.6667 2C11.7217 2 10.8447 2.46 9.08869 3.382L7.08869 4.432C4.98469 5.536 3.90869 6.1 3.30469 7.072L12.6667 12L22.0287 7.073C21.4227 6.1 20.3487 5.536 18.2437 4.432Z" fill="#8958F1"/>
<path opacity="0.5" d="M22.071 7.14C22.0576 7.1175 22.0439 7.09516 22.03 7.073L12.668 12V22C13.612 22 14.49 21.54 16.246 20.618L18.246 19.568C20.397 18.439 21.473 17.875 22.071 16.86C22.668 15.846 22.668 14.583 22.668 12.06V11.943C22.668 9.418 22.668 8.154 22.071 7.14Z" fill="#8958F1"/>
<path d="M6.99288 4.48401L7.09287 4.43201L8.58587 3.64801L17.6859 8.65301L21.7109 6.64201C21.8479 6.79701 21.9679 6.96201 22.0729 7.14001C22.2229 7.39401 22.3349 7.66401 22.4189 7.96501L18.4199 9.96401V13C18.4199 13.1989 18.3409 13.3897 18.2002 13.5303C18.0596 13.671 17.8688 13.75 17.6699 13.75C17.471 13.75 17.2802 13.671 17.1395 13.5303C16.9989 13.3897 16.9199 13.1989 16.9199 13V10.714L13.4199 12.464V21.904C13.1748 21.9669 12.9229 21.9991 12.6699 22C12.4219 22 12.1769 21.968 11.9199 21.904V12.464L2.92188 7.96401C3.00587 7.66401 3.11787 7.39401 3.26787 7.14001C3.37199 6.96259 3.49324 6.79579 3.62987 6.64201L12.6699 11.162L16.0569 9.46901L6.99288 4.48401Z" fill="#8958F1"/>
</svg>
