<svg width="25" height="24" viewBox="0 0 25 24" fill="none" xmlns="http://www.w3.org/2000/svg">
<path fill-rule="evenodd" clip-rule="evenodd" d="M2.33203 21.25C2.13312 21.25 1.94235 21.329 1.8017 21.4697C1.66105 21.6103 1.58203 21.8011 1.58203 22C1.58203 22.1989 1.66105 22.3897 1.8017 22.5303C1.94235 22.671 2.13312 22.75 2.33203 22.75H22.332C22.5309 22.75 22.7217 22.671 22.8624 22.5303C23.003 22.3897 23.082 22.1989 23.082 22C23.082 21.8011 23.003 21.6103 22.8624 21.4697C22.7217 21.329 22.5309 21.25 22.332 21.25H17.332V16C17.332 14.114 17.332 13.172 16.746 12.586C16.16 12 15.218 12 13.332 12H11.332C9.44603 12 8.50403 12 7.91803 12.586C7.33203 13.172 7.33203 14.114 7.33203 16V21.25H3.33203H2.33203ZM9.58203 15C9.58203 14.8011 9.66105 14.6103 9.8017 14.4697C9.94235 14.329 10.1331 14.25 10.332 14.25H14.332C14.5309 14.25 14.7217 14.329 14.8624 14.4697C15.003 14.6103 15.082 14.8011 15.082 15C15.082 15.1989 15.003 15.3897 14.8624 15.5303C14.7217 15.671 14.5309 15.75 14.332 15.75H10.332C10.1331 15.75 9.94235 15.671 9.8017 15.5303C9.66105 15.3897 9.58203 15.1989 9.58203 15ZM9.58203 18C9.58203 17.8011 9.66105 17.6103 9.8017 17.4697C9.94235 17.329 10.1331 17.25 10.332 17.25H14.332C14.5309 17.25 14.7217 17.329 14.8624 17.4697C15.003 17.6103 15.082 17.8011 15.082 18C15.082 18.1989 15.003 18.3897 14.8624 18.5303C14.7217 18.671 14.5309 18.75 14.332 18.75H10.332C10.1331 18.75 9.94235 18.671 9.8017 18.5303C9.66105 18.3897 9.58203 18.1989 9.58203 18Z" fill="#8958F1"/>
<path opacity="0.5" d="M8.33203 4.5C9.27503 4.5 9.74603 4.5 10.039 4.793C10.332 5.086 10.332 5.557 10.332 6.5V8.292C10.489 8.369 10.625 8.465 10.746 8.586C11.15 8.99 11.276 9.564 11.315 10.5V12C9.44103 12 8.50203 12.002 7.91803 12.586C7.33203 13.172 7.33203 14.114 7.33203 16V21.25H3.33203V12C3.33203 10.114 3.33203 9.172 3.91803 8.586C4.03845 8.46533 4.17843 8.36593 4.33203 8.292V6.5C4.33203 5.557 4.33203 5.086 4.62503 4.793C4.91803 4.5 5.38903 4.5 6.33203 4.5H6.58203V3C6.58203 2.80109 6.66105 2.61032 6.8017 2.46967C6.94235 2.32902 7.13312 2.25 7.33203 2.25C7.53094 2.25 7.72171 2.32902 7.86236 2.46967C8.00301 2.61032 8.08203 2.80109 8.08203 3V4.5H8.33203ZM20.976 5.247C20.62 4.733 19.992 4.497 18.736 4.027C16.281 3.106 15.054 2.646 14.193 3.242C13.332 3.84 13.332 5.15 13.332 7.772V12C15.218 12 16.16 12 16.746 12.586C17.332 13.172 17.332 14.114 17.332 16V21.25H21.332V7.772C21.332 6.432 21.332 5.761 20.976 5.247Z" fill="#8958F1"/>
</svg>
