<svg width="14" height="14" viewBox="0 0 14 14" fill="none" xmlns="http://www.w3.org/2000/svg">
<path d="M6.33203 8.33334V13.6667H3.66536C3.13493 13.6667 2.62622 13.456 2.25115 13.0809C1.87608 12.7058 1.66536 12.1971 1.66536 11.6667V9C1.66536 8.82319 1.7356 8.65362 1.86063 8.5286C1.98565 8.40358 2.15522 8.33334 2.33203 8.33334H6.33203ZM11.6654 8.33334C11.8422 8.33334 12.0117 8.40358 12.1368 8.5286C12.2618 8.65362 12.332 8.82319 12.332 9V11.6667C12.332 12.1971 12.1213 12.7058 11.7462 13.0809C11.3712 13.456 10.8625 13.6667 10.332 13.6667H7.66536V8.33334H11.6654ZM9.9987 0.333338C10.3924 0.333257 10.7797 0.432782 11.1245 0.62265C11.4694 0.812517 11.7606 1.08655 11.9711 1.41925C12.1815 1.75194 12.3044 2.13248 12.3282 2.52543C12.3521 2.91839 12.2761 3.31098 12.1074 3.66667H12.332C12.6857 3.66667 13.0248 3.80715 13.2748 4.0572C13.5249 4.30724 13.6654 4.64638 13.6654 5V5.66667C13.6654 6.02029 13.5249 6.35943 13.2748 6.60948C13.0248 6.85953 12.6857 7 12.332 7H7.66536V3.66667H6.33203V7H1.66536C1.31174 7 0.972604 6.85953 0.722555 6.60948C0.472507 6.35943 0.332031 6.02029 0.332031 5.66667V5C0.332031 4.64638 0.472507 4.30724 0.722555 4.0572C0.972604 3.80715 1.31174 3.66667 1.66536 3.66667H1.89003C1.74195 3.35411 1.66521 3.01254 1.66536 2.66667C1.66536 1.378 2.71003 0.333338 3.98736 0.333338C5.15736 0.313338 6.19536 1.06134 6.90803 2.28934L6.9987 2.45134C7.68736 1.17534 8.70536 0.375338 9.85936 0.334671L9.9987 0.333338ZM3.9987 1.66667C3.73348 1.66667 3.47913 1.77203 3.29159 1.95956C3.10405 2.1471 2.9987 2.40145 2.9987 2.66667C2.9987 2.93189 3.10405 3.18624 3.29159 3.37378C3.47913 3.56131 3.73348 3.66667 3.9987 3.66667H6.09403C5.60003 2.39667 4.7947 1.65334 3.9987 1.66667ZM9.98736 1.66667C9.2007 1.65334 8.39736 2.39734 7.90336 3.66667H9.9987C10.2639 3.66517 10.5177 3.55837 10.7041 3.36977C10.8906 3.18117 10.9945 2.92622 10.993 2.661C10.9915 2.39579 10.8847 2.14203 10.6961 1.95556C10.5075 1.76908 10.2526 1.66517 9.98736 1.66667Z" fill="white"/>
</svg>
