<svg width="24" height="24" viewBox="0 0 24 24" fill="none" xmlns="http://www.w3.org/2000/svg">
<g clip-path="url(#clip0_99_10803)">
<path fill-rule="evenodd" clip-rule="evenodd" d="M12 1C5.9247 1 1 5.9247 1 12C1 18.0753 5.9247 23 12 23C18.0753 23 23 18.0753 23 12C23 5.9247 18.0753 1 12 1ZM8.15 9.25C8.15 8.74441 8.24958 8.24377 8.44306 7.77667C8.63654 7.30957 8.92013 6.88514 9.27764 6.52764C9.63515 6.17013 10.0596 5.88654 10.5267 5.69306C10.9938 5.49958 11.4944 5.4 12 5.4C12.5056 5.4 13.0062 5.49958 13.4733 5.69306C13.9404 5.88654 14.3649 6.17013 14.7224 6.52764C15.0799 6.88514 15.3635 7.30957 15.5569 7.77667C15.7504 8.24377 15.85 8.74441 15.85 9.25C15.85 10.2711 15.4444 11.2503 14.7224 11.9724C14.0003 12.6944 13.0211 13.1 12 13.1C10.9789 13.1 9.99965 12.6944 9.27764 11.9724C8.55562 11.2503 8.15 10.2711 8.15 9.25ZM18.8838 17.4824C18.0604 18.5182 17.0136 19.3546 15.8216 19.929C14.6296 20.5035 13.3232 20.8012 12 20.8C10.6768 20.8012 9.37041 20.5035 8.17841 19.929C6.98642 19.3546 5.93962 18.5182 5.1162 17.4824C6.8993 16.2031 9.3325 15.3 12 15.3C14.6675 15.3 17.1007 16.2031 18.8838 17.4824Z" fill="#8958F1"/>
</g>
<defs>
<clipPath id="clip0_99_10803">
<rect width="24" height="24" fill="white"/>
</clipPath>
</defs>
</svg>
