<svg width="109" height="30" viewBox="0 0 109 30" fill="none" xmlns="http://www.w3.org/2000/svg">
<g clip-path="url(#clip0_3017_1526)">
<path d="M31.1449 11.8639C32.1539 12.1981 33.1438 12.5896 34.105 13.0384L35.0136 10.5509C33.1677 9.62943 31.5132 8.9992 30.0116 8.59815C27.7354 3.99557 22.9869 0.820557 17.5068 0.820557C10.7116 0.820557 5.04019 5.70005 3.81601 12.136C2.82614 11.8066 1.8554 11.4199 0.908574 10.9758L0 13.4633C1.28157 14.1031 2.46749 14.5996 3.57213 14.9768C3.58647 15.8983 3.69168 16.8007 3.87817 17.6696C2.8644 17.3354 1.87453 16.9391 0.903792 16.4856L0 18.9826C1.86018 19.9136 3.52431 20.5438 5.03063 20.9449C7.31641 25.514 12.0506 28.6604 17.5068 28.6604C24.2828 28.6604 29.9447 23.8048 31.188 17.3927C32.1826 17.7221 33.1534 18.1136 34.105 18.5577L35.0136 16.0702C33.7368 15.4304 32.5508 14.9339 31.4414 14.5567C31.4319 13.6495 31.3314 12.7472 31.1449 11.8639ZM17.5068 3.82369C21.0024 3.82369 24.1155 5.47088 26.1191 8.02999C18.511 7.92017 15.1875 14.2272 6.74257 12.8617C7.6368 7.73397 12.1223 3.82369 17.5068 3.82369ZM6.62781 15.7694C15.7661 17.3211 18.927 9.9159 27.8071 11.0856C28.1132 11.9355 28.3092 12.8331 28.3953 13.7593C19.257 12.2029 16.0961 19.6033 7.23033 18.4431C6.91472 17.5837 6.71388 16.6861 6.62781 15.7694ZM17.5068 25.6525C14.0351 25.6525 10.9364 24.0292 8.93271 21.4987C16.5121 21.5894 19.8356 15.311 28.2614 16.667C27.3481 21.7661 22.8769 25.6525 17.5068 25.6525Z" fill="#4D774A"/>
<path d="M45.1996 9.11844L41.6035 19.374H45.5391L46.2277 17.1586H49.312L50.015 19.374H54.1562L50.498 9.11844H45.1996ZM47.7962 11.5486L48.8673 14.7571H46.682L47.7388 11.5486H47.7962ZM63.0028 9.2951C61.8838 9.05637 60.7409 8.93701 59.5981 8.94179C55.2369 8.94179 54.2996 10.8325 54.2996 12.2696C54.2996 14.7905 56.5615 15.2154 58.0439 15.521C58.809 15.6833 59.7176 15.7549 59.7176 16.3708C59.7176 17.0011 58.6608 17.087 57.9578 17.087C57.121 17.087 55.9016 16.982 54.4192 16.3995V19.0684C56.0498 19.4838 57.6327 19.5554 58.6608 19.5554C63.1511 19.5554 63.6819 17.2684 63.6819 16.1083C63.6819 13.53 61.3626 13.1624 59.5407 12.8091C58.8808 12.6897 58.2639 12.5752 58.2639 12.0929C58.2639 11.4197 59.1725 11.4054 59.9519 11.4054C61.3769 11.4054 62.3429 11.6823 63.0028 11.9354V9.2951ZM73.1167 9.2951C71.9977 9.05637 70.8548 8.93701 69.7119 8.94179C65.3555 8.94179 64.4135 10.8325 64.4135 12.2696C64.4135 14.7905 66.6754 15.2154 68.1578 15.521C68.9229 15.6833 69.8315 15.7549 69.8315 16.3708C69.8315 17.0011 68.7746 17.087 68.0717 17.087C67.2349 17.087 66.0155 16.982 64.533 16.3995V19.0684C66.1637 19.4838 67.7465 19.5554 68.7746 19.5554C73.2649 19.5554 73.7957 17.2684 73.7957 16.1083C73.7957 13.53 71.4765 13.1624 69.6593 12.8091C68.9994 12.6897 68.3825 12.5752 68.3825 12.0929C68.3825 11.4197 69.2911 11.4054 70.0706 11.4054C71.4956 11.4054 72.4615 11.6823 73.1215 11.9354L73.1167 9.2951ZM74.9673 9.11844V19.3788H78.9029V9.11844H74.9673ZM88.7776 9.2951C87.6586 9.05637 86.5157 8.93701 85.3729 8.94179C81.0165 8.94179 80.0744 10.8325 80.0744 12.2696C80.0744 14.7905 82.3363 15.2154 83.8187 15.521C84.5838 15.6833 85.4924 15.7549 85.4924 16.3708C85.4924 17.0011 84.4356 17.087 83.7279 17.087C82.891 17.087 81.6716 16.982 80.1892 16.3995V19.0684C81.8199 19.4838 83.4027 19.5554 84.4308 19.5554C88.9211 19.5554 89.4519 17.2684 89.4519 16.1083C89.4519 13.53 87.1326 13.1624 85.3107 12.8091C84.6508 12.6897 84.0339 12.5752 84.0339 12.0929C84.0339 11.4197 84.9425 11.4054 85.7219 11.4054C87.147 11.4054 88.1129 11.6823 88.7776 11.9354V9.2951ZM89.9683 9.11844V12.1502H93.4305V19.374H97.366V12.1502H100.828V9.11844H89.9683ZM104.324 9.17574V9.37626H105.06V11.625H105.29V9.37626H106.021V9.17574H104.324ZM107.705 11.4006L107.604 11.076L106.791 9.17574H106.428V11.6203H106.657V9.7248L106.648 9.39059H106.662L106.782 9.71048L107.595 11.6155H107.834L108.647 9.71048L108.766 9.39059H108.781L108.771 9.7248V11.6203H109.001V9.17574H108.637L107.824 11.076L107.724 11.4006H107.705Z" fill="white"/>
</g>
<defs>
<clipPath id="clip0_3017_1526">
<rect width="109" height="29" fill="white" transform="translate(0 0.5)"/>
</clipPath>
</defs>
</svg>
