<svg width="68" height="16" viewBox="0 0 68 16" fill="none" xmlns="http://www.w3.org/2000/svg">
<g clip-path="url(#clip0_3017_1521)">
<path fill-rule="evenodd" clip-rule="evenodd" d="M1.59603 0H12.7536C13.6322 0 14.3497 0.738232 14.3497 1.64219V13.1224C14.3497 14.0264 13.6322 14.7646 12.7536 14.7646H1.59603C0.717483 14.7646 0 14.0264 0 13.1224V1.64219C0 0.738232 0.717483 0 1.59603 0Z" fill="#004675"/>
<path fill-rule="evenodd" clip-rule="evenodd" d="M9.72234 10.9831H8.00916C7.96523 10.9831 7.92131 10.9379 7.92131 10.8927V10.4558L6.63276 11.7816C6.60348 11.8118 6.54491 11.8118 6.50098 11.7816L5.28565 10.5312C5.25637 10.501 5.25637 10.4408 5.28565 10.3956L5.5785 10.0942H3.77747C3.73355 10.0942 3.68962 10.0491 3.68962 10.0039V8.24114C3.68962 8.19594 3.73355 8.15074 3.77747 8.15074H4.20211L2.91357 6.82494C2.88428 6.79481 2.88428 6.73454 2.91357 6.68934L4.12889 5.43887C4.15818 5.40874 4.21675 5.40874 4.26068 5.43887L4.55353 5.74019V3.88708C4.55353 3.84188 4.59745 3.79668 4.64138 3.79668H6.35456C6.39848 3.79668 6.44241 3.84188 6.44241 3.88708V4.32399L7.73095 2.99818C7.76024 2.96805 7.81881 2.96805 7.86274 2.99818L9.07806 4.24866C9.10735 4.27879 9.10735 4.33905 9.07806 4.38425L8.78521 4.68557H10.6009C10.6448 4.68557 10.6887 4.73077 10.6887 4.77597V6.53868C10.6887 6.58388 10.6448 6.62908 10.6009 6.62908H10.1763L11.4648 7.95488C11.4941 7.98502 11.4941 8.04528 11.4648 8.09048L10.2495 9.34095C10.2202 9.37108 10.1616 9.37108 10.1177 9.34095L9.82483 9.03963V10.9078C9.81019 10.9379 9.76626 10.9831 9.72234 10.9831ZM9.5027 6.07164L8.82914 6.61401H8.00916C7.96523 6.61401 7.92131 6.56882 7.92131 6.52362V4.77597L7.81881 5.64979L7.23311 6.25243C7.20382 6.28256 7.14525 6.28256 7.10133 6.25243L6.42777 5.5594L5.90064 5.01702L6.42777 5.71006V6.55375C6.42777 6.59895 6.38384 6.64415 6.33991 6.64415H4.62674L5.47601 6.74961L6.06171 7.35225C6.09099 7.38238 6.09099 7.44264 6.06171 7.48784L4.84638 8.73831L5.51993 8.19594H6.33991C6.38384 8.19594 6.42777 8.24114 6.42777 8.28633V10.0491L6.53027 9.17523L7.11597 8.57259C7.14525 8.54246 7.20382 8.54246 7.24775 8.57259L8.46308 9.82306L7.93595 9.13003V8.28633C7.93595 8.24114 7.97988 8.19594 8.0238 8.19594H9.73698L8.88771 8.09048L8.30201 7.48784C8.27273 7.45771 8.27273 7.39744 8.30201 7.35225L8.97557 6.65921L9.5027 6.07164Z" fill="white"/>
<path fill-rule="evenodd" clip-rule="evenodd" d="M22.0227 5.92092C22.0374 6.61395 21.5102 7.11113 20.8513 7.11113H19.0942V4.77591H20.866C21.4809 4.77591 21.9934 5.22789 22.0227 5.92092ZM65.5696 1.65726V8.55746C65.5696 8.67799 65.4671 8.75332 65.3499 8.75332H63.9442C63.8271 8.75332 63.7246 8.66292 63.7246 8.55746V1.65726H61.5136C61.3965 1.65726 61.3232 1.55179 61.3232 1.43127V0.241055C61.3232 0.120528 61.3965 0.015066 61.5136 0.015066C63.6075 0.015066 65.7014 0.015066 67.8099 0.015066C67.927 0.015066 68.0002 0.120528 68.0002 0.241055V1.43127C68.0002 1.55179 67.9124 1.65726 67.8099 1.65726H65.5696ZM30.3543 8.46707V7.32205C30.3543 7.23166 30.2957 7.11113 30.1493 7.11113H26.8548C26.6498 7.11113 26.2544 6.96047 26.2544 6.44823V4.79097H29.754C29.9004 4.79097 29.959 4.65538 29.959 4.58005V3.40491C29.959 3.28438 29.8711 3.19398 29.7247 3.19398H26.2398V2.25989C26.2398 1.86818 26.5619 1.64219 26.8401 1.64219H30.12C30.2665 1.64219 30.3397 1.52166 30.3397 1.43127V0.225989C30.3397 0.105462 30.2518 0.015066 30.1054 0.015066L26.7083 0C25.4198 0 24.4241 1.09981 24.4241 2.32016V6.4633C24.4241 7.72884 25.4637 8.75332 26.6644 8.75332H30.1493C30.2665 8.75332 30.3543 8.66292 30.3543 8.5424C30.3543 8.52733 30.3543 8.4972 30.3543 8.46707ZM44.3086 4.11301V4.05274C44.5722 3.88702 44.7918 3.67609 44.9529 3.41997C45.1286 3.16385 45.2604 2.84747 45.3336 2.50095L45.89 0.271187C45.9047 0.165726 45.8461 0.0301319 45.685 0.0301319H44.3672C44.3233 0.0301319 44.2793 0.0301319 44.2208 0.0602638C44.1769 0.0753298 44.1329 0.135594 44.1183 0.210923L43.5765 2.30509C43.5179 2.56121 43.4301 2.75707 43.3129 2.90773C43.2104 3.05839 43.0933 3.17892 42.9615 3.23918C42.8297 3.31451 42.698 3.35971 42.5662 3.38984C42.4344 3.40491 42.3026 3.41997 42.1855 3.41997H41.2337V0.225989C41.2337 0.0903957 41.1166 0.015066 41.0287 0.015066H39.6084C39.4912 0.015066 39.3887 0.105462 39.3887 0.210923V8.55746C39.3887 8.67799 39.4912 8.75332 39.6084 8.75332H41.0141C41.1312 8.75332 41.2337 8.67799 41.2337 8.55746V4.85124H42.2148C42.493 4.85124 42.7272 4.88137 42.9322 4.92657C43.1226 4.98683 43.2837 5.09229 43.4154 5.24295C43.5472 5.39361 43.6497 5.6196 43.7376 5.89079L44.4843 8.60266C44.5283 8.70812 44.6015 8.75332 44.6747 8.75332H46.0804C46.2561 8.76839 46.3147 8.58759 46.2854 8.4972L45.5386 5.60454C45.4947 5.42374 45.4361 5.24295 45.3922 5.09229C45.3336 4.94163 45.2604 4.80604 45.1725 4.68551C45.0847 4.56498 44.9675 4.45952 44.8358 4.35406C44.6893 4.26367 44.5136 4.18834 44.3086 4.11301ZM49.4042 5.39361L49.8581 3.81169L50.3121 2.0339H50.3853L50.8392 3.81169L51.2931 5.39361H49.4042ZM51.747 6.93034L52.2156 8.55746C52.2595 8.70812 52.3327 8.75332 52.4206 8.75332H53.9581C54.1045 8.75332 54.1923 8.63279 54.163 8.48213L51.6445 0.693034C51.5274 0.316385 51.3517 0.015066 50.9271 0.015066H49.8435C49.6239 0 49.4335 0.0753298 49.2871 0.271187C49.2139 0.376649 49.1407 0.512242 49.0967 0.693034L46.5782 8.46707C46.5197 8.63279 46.6661 8.75332 46.7686 8.75332H48.2475C48.2914 8.75332 48.3939 8.75332 48.4525 8.61773C48.4671 8.58759 48.4818 8.5424 48.4964 8.51227L48.965 6.93034H51.747ZM59.2879 2.7872C59.2879 3.38984 58.8194 3.93221 58.1751 3.93221H56.5205V1.65726H58.1019C58.8194 1.62712 59.2879 2.18456 59.2879 2.7872ZM56.5205 8.4972V5.5744H58.5412C59.9322 5.5744 61.2354 4.39926 61.2207 2.742C61.2207 2.35029 61.1182 1.97364 60.9865 1.64219C60.6497 0.873825 60.0493 0.361583 59.3172 0.135594C59.0244 0.0451979 58.7022 0.015066 58.3801 0.015066H55.3052C54.983 0.015066 54.7048 0.241055 54.6902 0.617704C54.6902 0.662902 54.6902 0.723166 54.6902 0.78343V8.55746C54.6902 8.67799 54.778 8.76839 54.8952 8.76839H56.3301C56.4034 8.76839 56.4766 8.72319 56.5059 8.66292C56.5205 8.60266 56.5205 8.55746 56.5205 8.4972ZM17.835 8.75332H21.0124C22.5791 8.81358 23.8677 7.68364 23.9262 6.01132C23.9262 5.86066 23.9409 5.69493 23.897 5.51414C23.6188 4.14314 22.5645 3.19398 21.2174 3.19398H19.0796V1.64219H22.7402C22.872 1.64219 22.9598 1.53673 22.9598 1.40113V0.286253C22.9598 0.135594 22.9013 0.015066 22.7402 0.015066H17.8789C17.381 0.015066 17.2346 0.391715 17.2346 0.63277V8.13562C17.2346 8.48213 17.4982 8.75332 17.835 8.75332ZM32.375 0.858759L32.2725 2.75707C32.2432 3.40491 32.1993 3.96235 32.1553 4.44446C32.0821 5.22789 32.0089 7.1262 31.0132 7.1262C30.9986 7.1262 30.9839 7.1262 30.9693 7.1262C30.8814 7.1262 30.7643 7.20153 30.7643 7.33712V8.4972C30.7643 8.52733 30.7643 8.5424 30.7643 8.55746C30.7643 8.69306 30.8522 8.78345 30.9693 8.78345C30.9839 8.78345 31.0425 8.78345 31.0572 8.78345C31.8039 8.78345 32.4628 8.69306 33.0339 7.81923C33.2096 7.54804 33.3707 7.23166 33.4732 6.88514C33.5903 6.53863 33.6782 6.13184 33.7367 5.71C33.7953 5.27308 33.8539 4.79097 33.8978 4.27873C33.9417 3.75142 33.9857 3.19398 34.0149 2.57628L34.0589 1.70245H36.4163V8.58759C36.4163 8.70812 36.5188 8.81358 36.636 8.79852H38.0416C38.1881 8.79852 38.2613 8.69306 38.2613 8.57253V0.63277C38.2613 0.301319 37.9977 0.015066 37.617 0.015066H32.9607C32.6093 0.015066 32.3896 0.331451 32.375 0.602638C32.3896 0.677968 32.375 0.768364 32.375 0.858759Z" fill="white"/>
<path fill-rule="evenodd" clip-rule="evenodd" d="M19.9286 11.7213L19.3722 12.6704L18.3326 14.4181C18.2886 14.4783 18.2593 14.5235 18.2301 14.5537C18.2008 14.5838 18.1715 14.6139 18.1422 14.6441C18.1129 14.6591 18.069 14.6742 18.0251 14.6893C17.9811 14.6893 17.9226 14.7043 17.864 14.7043H17.6151C17.454 14.7043 17.3515 14.6591 17.2929 14.5838C17.2344 14.5085 17.2197 14.403 17.2197 14.2674V10.3653C17.2197 10.29 17.2637 10.2448 17.3515 10.2448H18.0104C18.069 10.2448 18.0983 10.2599 18.1129 10.2749C18.1276 10.29 18.1276 10.3201 18.1276 10.3653V13.2279H18.1715L18.6986 12.339L19.7675 10.5311C19.8115 10.4708 19.8407 10.4256 19.87 10.3804C19.8993 10.3352 19.9286 10.3201 19.9579 10.29C19.9872 10.2749 20.0311 10.2599 20.075 10.2448C20.1189 10.2448 20.1629 10.2297 20.2361 10.2297H20.485C20.6314 10.2297 20.7486 10.2599 20.8071 10.3352C20.8657 10.3955 20.895 10.516 20.895 10.6817V14.5687C20.895 14.6441 20.8511 14.6893 20.7632 14.6893H20.1043C20.0457 14.6893 20.0164 14.6742 19.9872 14.6591C19.9725 14.6441 19.9579 14.6139 19.9579 14.5687V11.7213H19.9286ZM22.6375 14.5687C22.6375 14.629 22.6228 14.6591 22.6082 14.6742C22.5935 14.6893 22.5496 14.6893 22.491 14.6893H21.876C21.7882 14.6893 21.7443 14.6441 21.7443 14.5687V11.4802C21.7443 11.4049 21.7882 11.3597 21.876 11.3597H22.491C22.5496 11.3597 22.5935 11.3597 22.6082 11.3747C22.6228 11.3898 22.6375 11.4199 22.6375 11.4802V12.565H23.7942V11.4802C23.7942 11.4049 23.8381 11.3597 23.926 11.3597H24.541C24.5996 11.3597 24.6435 11.3597 24.6581 11.3747C24.6728 11.3898 24.6874 11.4199 24.6874 11.4802V14.5687C24.6874 14.629 24.6728 14.6591 24.6581 14.6742C24.6435 14.6893 24.5996 14.6893 24.541 14.6893H23.926C23.8381 14.6893 23.7942 14.6441 23.7942 14.5687V13.2881H22.6375V14.5687ZM27.0449 12.113V14.5687C27.0449 14.629 27.0302 14.6591 27.0156 14.6742C27.0009 14.6893 26.957 14.6893 26.8984 14.6893H26.2834C26.1956 14.6893 26.137 14.6441 26.137 14.5687V12.113H25.2585C25.1706 12.113 25.1413 12.0678 25.1413 11.9774V11.5103C25.1413 11.4501 25.1413 11.4049 25.156 11.3898C25.1706 11.3747 25.1999 11.3597 25.2585 11.3597H27.9234C27.9673 11.3597 28.0113 11.3747 28.0259 11.3898C28.0405 11.4049 28.0552 11.4501 28.0552 11.5103V11.9774C28.0552 12.0678 28.0113 12.113 27.9381 12.113H27.0449ZM29.7537 11.2844C30.2369 11.2844 30.603 11.4049 30.8373 11.661C31.0715 11.9021 31.2033 12.2636 31.2033 12.7307C31.2033 12.9567 31.1594 13.1073 31.0862 13.1827C30.9983 13.258 30.8958 13.3032 30.7494 13.3032H29.168C29.168 13.4388 29.1973 13.5442 29.2266 13.6346C29.2705 13.725 29.3144 13.8004 29.3877 13.8456C29.4609 13.9058 29.5341 13.936 29.6219 13.9661C29.7098 13.9812 29.8123 13.9962 29.9148 13.9962C30.0319 13.9962 30.1491 13.9812 30.2809 13.951C30.398 13.9209 30.5151 13.8908 30.6323 13.8305C30.6762 13.8154 30.7201 13.8154 30.7348 13.8154C30.7494 13.8154 30.7641 13.8456 30.7933 13.8757L30.9837 14.3277C30.9983 14.3729 30.9983 14.403 30.9983 14.4181C30.9837 14.4331 30.9691 14.4633 30.9398 14.4783C30.7933 14.5838 30.6176 14.6591 30.4126 14.7043C30.2076 14.7495 30.0173 14.7646 29.8562 14.7646C29.3144 14.7646 28.9191 14.629 28.6555 14.3578C28.392 14.0866 28.2602 13.6497 28.2602 13.0471C28.2602 12.7608 28.2895 12.5198 28.3627 12.2938C28.4359 12.0828 28.5384 11.887 28.6702 11.7363C28.802 11.5857 28.963 11.4651 29.1534 11.3898C29.2998 11.3296 29.5194 11.2844 29.7537 11.2844ZM29.7684 12.0527C29.5927 12.0527 29.4609 12.113 29.3584 12.2335C29.2559 12.354 29.1827 12.5198 29.168 12.7006H30.3248C30.3248 12.6102 30.3101 12.5198 30.2955 12.4444C30.2809 12.3691 30.2516 12.2938 30.2076 12.2335C30.1637 12.1732 30.1051 12.128 30.0466 12.0979C29.9734 12.0678 29.8855 12.0527 29.7684 12.0527ZM32.7408 15.8945C32.7408 15.9397 32.7408 15.9699 32.7262 15.9849C32.7115 16 32.6822 16 32.6237 16H31.9794C31.9355 16 31.9062 16 31.8769 15.9849C31.8622 15.9699 31.8476 15.9397 31.8476 15.8945V11.7514C31.8476 11.7062 31.8476 11.661 31.8622 11.6459C31.8769 11.6158 31.9062 11.5857 31.9647 11.5555C32.1551 11.4651 32.3894 11.3898 32.6237 11.3597C32.8726 11.3145 33.1069 11.2994 33.3265 11.2994C33.6193 11.2994 33.8683 11.3446 34.0586 11.435C34.2636 11.5254 34.4247 11.6459 34.5418 11.7966C34.659 11.9473 34.7468 12.128 34.8054 12.339C34.864 12.5499 34.8786 12.7759 34.8786 13.0169C34.8786 13.258 34.8493 13.484 34.7907 13.6798C34.7322 13.8908 34.6443 14.0716 34.5272 14.2222C34.41 14.3729 34.249 14.5085 34.0733 14.5989C33.8829 14.6893 33.6779 14.7345 33.429 14.7345C33.3119 14.7345 33.1947 14.7345 33.0922 14.7194C32.9897 14.7043 32.8726 14.6893 32.7408 14.6591V15.8945ZM33.9561 13.0169C33.9561 12.8361 33.9415 12.7006 33.9122 12.58C33.8829 12.4595 33.8243 12.3691 33.7658 12.2938C33.7072 12.2184 33.6193 12.1732 33.5315 12.1431C33.4436 12.113 33.3411 12.0979 33.224 12.0979C33.1654 12.0979 33.0922 12.0979 33.0044 12.113C32.9165 12.128 32.8286 12.1431 32.7554 12.1582V13.8908C32.8579 13.9209 32.9604 13.936 33.0483 13.951C33.1361 13.9661 33.2094 13.9661 33.2826 13.9661C33.4876 13.9661 33.6633 13.8908 33.7951 13.7552C33.8976 13.6045 33.9561 13.3635 33.9561 13.0169ZM36.4746 14.5687C36.4746 14.629 36.46 14.6591 36.4454 14.6742C36.4307 14.6893 36.3868 14.6893 36.3282 14.6893H35.7132C35.6254 14.6893 35.5814 14.6441 35.5814 14.5687V11.4802C35.5814 11.4049 35.6254 11.3597 35.7132 11.3597H36.3282C36.3868 11.3597 36.4307 11.3597 36.4454 11.3747C36.46 11.3898 36.4746 11.4199 36.4746 11.4802V12.565H37.6314V11.4802C37.6314 11.4049 37.6753 11.3597 37.7632 11.3597H38.3782C38.4367 11.3597 38.4807 11.3597 38.4953 11.3747C38.5099 11.3898 38.5246 11.4199 38.5246 11.4802V14.5687C38.5246 14.629 38.5099 14.6591 38.4953 14.6742C38.4807 14.6893 38.4367 14.6893 38.3782 14.6893H37.7632C37.6753 14.6893 37.6314 14.6441 37.6314 14.5687V13.2881H36.4746V14.5687ZM40.7356 11.2844C41.2188 11.2844 41.5849 11.4049 41.8192 11.661C42.0534 11.9021 42.1852 12.2636 42.1852 12.7307C42.1852 12.9567 42.1413 13.1073 42.0681 13.1827C41.9802 13.258 41.8777 13.3032 41.7313 13.3032H40.1499C40.1499 13.4388 40.1792 13.5442 40.2085 13.6346C40.2524 13.725 40.2963 13.8004 40.3695 13.8456C40.4281 13.9058 40.516 13.936 40.6038 13.9661C40.6917 13.9812 40.7942 13.9962 40.8967 13.9962C41.0138 13.9962 41.131 13.9812 41.2627 13.951C41.3799 13.9209 41.497 13.8908 41.6142 13.8305C41.6581 13.8154 41.702 13.8154 41.7167 13.8154C41.7313 13.8154 41.7459 13.8456 41.7752 13.8757L41.9656 14.3277C41.9802 14.3729 41.9802 14.403 41.9802 14.4181C41.9656 14.4331 41.9509 14.4633 41.9216 14.4783C41.7752 14.5838 41.5995 14.6591 41.3945 14.7043C41.1895 14.7495 40.9992 14.7646 40.8381 14.7646C40.2963 14.7646 39.901 14.629 39.6374 14.3578C39.3739 14.0866 39.2421 13.6497 39.2421 13.0471C39.2421 12.7608 39.2714 12.5198 39.3446 12.2938C39.4178 12.0828 39.5203 11.887 39.6521 11.7363C39.7838 11.5857 39.9449 11.4651 40.1353 11.3898C40.2817 11.3296 40.5013 11.2844 40.7356 11.2844ZM40.7502 12.0527C40.5745 12.0527 40.4428 12.113 40.3403 12.2335C40.2378 12.354 40.1646 12.5198 40.1499 12.7006H41.3067C41.3067 12.6102 41.292 12.5198 41.2774 12.4444C41.2627 12.3691 41.2335 12.2938 41.1895 12.2335C41.1456 12.1732 41.087 12.128 41.0285 12.0979C40.9552 12.0678 40.8674 12.0527 40.7502 12.0527ZM44.3816 12.113V14.5687C44.3816 14.629 44.367 14.6591 44.3523 14.6742C44.3377 14.6893 44.2937 14.6893 44.2352 14.6893H43.6348C43.547 14.6893 43.4884 14.6441 43.4884 14.5687V12.113H42.6098C42.522 12.113 42.4927 12.0678 42.4927 11.9774V11.5103C42.4927 11.4501 42.4927 11.4049 42.5074 11.3898C42.522 11.3747 42.5513 11.3597 42.6098 11.3597H45.2748C45.3187 11.3597 45.3626 11.3747 45.3773 11.3898C45.3919 11.4049 45.4066 11.4501 45.4066 11.5103V11.9774C45.4066 12.0678 45.3626 12.113 45.2894 12.113H44.3816ZM49.4772 14.5838C49.4772 14.629 49.4626 14.6591 49.4479 14.6742C49.4333 14.6893 49.3893 14.7043 49.3308 14.7043H48.6572C48.5694 14.7043 48.5254 14.6591 48.5254 14.5838V11.0885H46.8562V14.5838C46.8562 14.629 46.8415 14.6591 46.8269 14.6742C46.8123 14.6893 46.7683 14.7043 46.7098 14.7043H46.0362C45.9483 14.7043 45.9044 14.6591 45.9044 14.5838V10.6817C45.9044 10.5311 45.9337 10.4256 45.9923 10.3503C46.0508 10.2749 46.1533 10.2448 46.2998 10.2448H49.0672C49.2136 10.2448 49.3161 10.2749 49.3747 10.3503C49.4333 10.4256 49.4625 10.5311 49.4625 10.6817V14.5838H49.4772ZM53.0939 14.2825C53.0939 14.3427 53.0939 14.3879 53.0793 14.4181C53.0646 14.4633 53.0353 14.4934 52.9767 14.5235C52.8889 14.5687 52.7864 14.6139 52.6693 14.6441C52.5668 14.6742 52.4496 14.7043 52.3325 14.7194C52.2153 14.7345 52.0982 14.7495 51.9957 14.7646C51.8786 14.7797 51.7761 14.7797 51.6736 14.7797C51.3954 14.7797 51.1611 14.7495 50.9854 14.7043C50.8097 14.6441 50.6632 14.5687 50.5461 14.4783C50.429 14.3879 50.3557 14.2674 50.3118 14.1469C50.2679 14.0113 50.2386 13.8757 50.2386 13.725C50.2386 13.5593 50.2679 13.4087 50.3118 13.2731C50.3704 13.1375 50.4436 13.0169 50.5461 12.9115C50.6486 12.806 50.795 12.7307 50.9561 12.6704C51.1172 12.6102 51.3075 12.58 51.5271 12.58H52.2007V12.4746C52.2007 12.4143 52.2007 12.354 52.1861 12.3088C52.1714 12.2486 52.1421 12.2034 52.1128 12.1732C52.0689 12.128 52.025 12.0979 51.9518 12.0678C51.8786 12.0377 51.7907 12.0226 51.6736 12.0226C51.615 12.0226 51.5418 12.0226 51.4686 12.0377C51.3954 12.0377 51.3075 12.0527 51.2343 12.0678C51.1611 12.0828 51.0732 12.0979 51 12.113C50.9268 12.128 50.8536 12.1431 50.8097 12.1582C50.7511 12.1732 50.7218 12.1732 50.6925 12.1582C50.6779 12.1431 50.6632 12.113 50.6486 12.0828L50.5461 11.6309C50.5315 11.5857 50.5315 11.5555 50.5461 11.5254C50.5607 11.5103 50.5754 11.4953 50.6047 11.4802C50.795 11.4199 50.9854 11.3597 51.1904 11.3296C51.3954 11.2994 51.6004 11.2844 51.8054 11.2844C52.2593 11.2844 52.5814 11.3898 52.7864 11.5857C52.9914 11.7815 53.0939 12.0678 53.0939 12.4595V14.2825ZM52.2007 13.1827H51.7175C51.6589 13.1827 51.6004 13.1827 51.5271 13.1977C51.4686 13.2128 51.3954 13.2279 51.3514 13.258C51.2929 13.2881 51.2489 13.3333 51.2197 13.3936C51.1757 13.4539 51.1611 13.5292 51.1611 13.6346C51.1611 13.7853 51.205 13.8908 51.3075 13.951C51.41 14.0113 51.5418 14.0414 51.7029 14.0414C51.7321 14.0414 51.7614 14.0414 51.8054 14.0414C51.8493 14.0414 51.8932 14.0414 51.9371 14.0264C51.9811 14.0264 52.0396 14.0113 52.0836 13.9962C52.1275 13.9812 52.1714 13.9661 52.2153 13.951V13.1827H52.2007ZM54.7924 15.8945C54.7924 15.9397 54.7924 15.9699 54.7778 15.9849C54.7631 16 54.7339 16 54.6753 16H54.031C53.9871 16 53.9578 16 53.9285 15.9849C53.9139 15.9699 53.8992 15.9397 53.8992 15.8945V11.7514C53.8992 11.7062 53.8992 11.661 53.9139 11.6459C53.9285 11.6158 53.9578 11.5857 54.0164 11.5555C54.2067 11.4651 54.441 11.3898 54.6753 11.3597C54.9242 11.3145 55.1585 11.2994 55.3781 11.2994C55.671 11.2994 55.9199 11.3446 56.1103 11.435C56.3153 11.5254 56.4763 11.6459 56.5935 11.7966C56.7106 11.9473 56.7984 12.128 56.857 12.339C56.9156 12.5499 56.9302 12.7759 56.9302 13.0169C56.9302 13.258 56.9009 13.484 56.8424 13.6798C56.7838 13.8908 56.6959 14.0716 56.5788 14.2222C56.4617 14.3729 56.3006 14.5085 56.1249 14.5989C55.9345 14.6893 55.7295 14.7345 55.4806 14.7345C55.3635 14.7345 55.2463 14.7345 55.1438 14.7194C55.0413 14.7043 54.9242 14.6893 54.7924 14.6591V15.8945ZM56.0224 13.0169C56.0224 12.8361 56.0078 12.7006 55.9785 12.58C55.9492 12.4595 55.8906 12.3691 55.832 12.2938C55.7735 12.2184 55.6856 12.1732 55.5978 12.1431C55.5099 12.113 55.4074 12.0979 55.2903 12.0979C55.2317 12.0979 55.1585 12.0979 55.0706 12.113C54.9828 12.128 54.8949 12.1431 54.8217 12.1582V13.8908C54.9242 13.9209 55.0267 13.936 55.1146 13.951C55.2024 13.9661 55.2756 13.9661 55.3488 13.9661C55.5538 13.9661 55.7295 13.8908 55.8613 13.7552C55.9492 13.6045 56.0224 13.3635 56.0224 13.0169ZM60.6348 13.0169C60.6348 13.5744 60.503 14.0113 60.2394 14.3126C59.9759 14.6139 59.5805 14.7646 59.0534 14.7646C58.5116 14.7646 58.1309 14.6139 57.882 14.3126C57.6331 14.0113 57.5159 13.5744 57.5159 13.032C57.5159 12.7608 57.5452 12.5198 57.6184 12.2938C57.6916 12.0828 57.7941 11.887 57.9259 11.7514C58.0577 11.6007 58.2188 11.4953 58.4091 11.4049C58.5995 11.3296 58.8191 11.2844 59.0534 11.2844C59.5659 11.2844 59.9612 11.435 60.2248 11.7514C60.503 12.0527 60.6348 12.4746 60.6348 13.0169ZM59.6977 13.032C59.6977 12.8813 59.683 12.7608 59.6684 12.6403C59.6537 12.5198 59.6098 12.4143 59.5659 12.339C59.522 12.2486 59.4487 12.1883 59.3755 12.1431C59.3023 12.0979 59.1998 12.0678 59.0827 12.0678C58.863 12.0678 58.702 12.1582 58.5995 12.3239C58.497 12.4896 58.4384 12.7307 58.4384 13.0169C58.4384 13.3333 58.4823 13.5744 58.5848 13.7401C58.6873 13.9058 58.8484 13.9812 59.068 13.9812C59.1852 13.9812 59.2877 13.951 59.3609 13.9058C59.4341 13.8606 59.5073 13.7853 59.5512 13.71C59.6098 13.6196 59.6391 13.5292 59.6684 13.4087C59.683 13.3032 59.6977 13.1676 59.6977 13.032ZM63.8122 11.3597C63.9586 11.3597 64.0611 11.3898 64.1051 11.4501C64.1636 11.5103 64.1783 11.6158 64.1783 11.7514V14.5838C64.1783 14.629 64.1636 14.6742 64.149 14.6893C64.1344 14.7043 64.0904 14.7043 64.0319 14.7043H63.4022C63.3437 14.7043 63.2997 14.6893 63.2851 14.6742C63.2704 14.6591 63.2558 14.629 63.2558 14.5687V12.113H62.5237L62.509 12.4444C62.4944 12.806 62.4651 13.1375 62.4358 13.3936C62.4065 13.6648 62.348 13.8908 62.2747 14.0716C62.2015 14.2674 62.0844 14.4181 61.938 14.5386C61.7915 14.6591 61.6012 14.7495 61.3669 14.8249C61.3083 14.8399 61.2644 14.855 61.2498 14.8399C61.2205 14.8249 61.2058 14.7947 61.1912 14.7495L61.0301 14.3126C61.0155 14.2523 61.0009 14.2222 61.0155 14.1921C61.0155 14.162 61.0448 14.1469 61.1033 14.1168C61.2205 14.0716 61.3083 14.0113 61.3669 13.951C61.4401 13.8908 61.4841 13.8004 61.528 13.6798C61.5719 13.5593 61.6012 13.4087 61.6305 13.2128C61.6598 13.0169 61.6744 12.7608 61.7037 12.4294L61.7476 11.7363C61.7623 11.6007 61.7915 11.4953 61.8501 11.4501C61.9087 11.3898 61.9965 11.3747 62.143 11.3747H63.8122V11.3597ZM65.379 14.7043C65.2179 14.7043 65.1154 14.6742 65.0568 14.5989C65.0129 14.5386 64.9836 14.4482 64.9836 14.3277V11.4802C64.9836 11.4049 65.0275 11.3597 65.1154 11.3597H65.7304C65.789 11.3597 65.8329 11.3597 65.8475 11.3747C65.8622 11.3898 65.8768 11.4199 65.8768 11.4802V12.3992H66.6382C66.9457 12.3992 67.18 12.4444 67.3557 12.5348C67.5314 12.6252 67.6632 12.7307 67.7511 12.8512C67.8389 12.9717 67.8975 13.1073 67.9268 13.2279C67.956 13.3635 67.956 13.4689 67.956 13.5442C67.956 13.71 67.9268 13.8606 67.8682 13.9962C67.8096 14.1318 67.7218 14.2523 67.6046 14.3578C67.5021 14.4633 67.3703 14.5386 67.2239 14.5989C67.0775 14.6591 66.9164 14.6893 66.7407 14.6893H65.379V14.7043ZM67.0482 13.5442C67.0482 13.4237 67.0189 13.3183 66.9457 13.2429C66.8725 13.1676 66.77 13.1224 66.6236 13.1224H65.8915V13.9812H66.6089C66.6968 13.9812 66.77 13.9661 66.8286 13.936C66.8871 13.9058 66.9311 13.8757 66.9604 13.8305C66.9896 13.7853 67.0189 13.7401 67.0336 13.6949C67.0336 13.6346 67.0482 13.5744 67.0482 13.5442Z" fill="white"/>
</g>
<defs>
<clipPath id="clip0_3017_1521">
<rect width="68" height="16" fill="white"/>
</clipPath>
</defs>
</svg>
