<svg width="55" height="20" viewBox="0 0 55 20" fill="none" xmlns="http://www.w3.org/2000/svg">
<g clip-path="url(#clip0_3017_1487)">
<path fill-rule="evenodd" clip-rule="evenodd" d="M51.975 7.93346C51.975 7.33878 52.4333 6.86304 53.0139 6.86304C53.5944 6.86304 54.0528 7.33878 54.0528 7.93346C54.0528 8.52815 53.5944 9.00389 53.0139 9.00389C52.4639 9.00389 51.975 8.52815 51.975 7.93346ZM53.0139 8.73628C53.4416 8.73628 53.8083 8.37948 53.8083 7.93346C53.8083 7.48745 53.4416 7.13064 53.0139 7.13064C52.5861 7.13064 52.2194 7.48745 52.2194 7.93346C52.25 8.37948 52.5861 8.73628 53.0139 8.73628ZM52.8916 8.40921H52.6778V7.48745H53.075C53.1666 7.48745 53.2278 7.48745 53.3194 7.54692C53.3805 7.60639 53.4416 7.69559 53.4416 7.78479C53.4416 7.874 53.3805 7.99293 53.2889 8.02267L53.4416 8.43894H53.1666L53.0139 8.08213H52.8611V8.40921H52.8916ZM52.8916 7.874H53.0139C53.0444 7.874 53.1055 7.874 53.1361 7.84426C53.1666 7.81453 53.1972 7.78479 53.1972 7.72533C53.1972 7.69559 53.1666 7.63612 53.1361 7.63612C53.1055 7.60639 53.0444 7.60639 53.0139 7.60639H52.8916V7.874Z" fill="#ED1C24"/>
<path fill-rule="evenodd" clip-rule="evenodd" d="M37.1864 0.916277L36.9114 2.70032C36.3003 2.37325 35.842 2.25431 35.3531 2.25431C34.0698 2.25431 33.1531 3.53288 33.1531 5.34666C33.1531 6.59549 33.7642 7.36857 34.7725 7.36857C35.2003 7.36857 35.6587 7.2199 36.2392 6.9523L35.9337 8.85528C35.292 9.03368 34.8948 9.09315 34.4059 9.09315C32.542 9.09315 31.3809 7.72538 31.3809 5.52506C31.3809 2.55165 33.0003 0.5 35.292 0.5C35.5975 0.5 35.842 0.529734 36.0559 0.589202L36.7587 0.767607C36.9725 0.827075 37.0337 0.827075 37.1864 0.916277Z" fill="#ED1C24"/>
<path fill-rule="evenodd" clip-rule="evenodd" d="M31.442 2.13532C31.3809 2.13532 31.3198 2.10559 31.2587 2.10559C30.6781 2.10559 30.3725 2.40293 29.8225 3.20575L29.9753 2.19479H28.417L27.3475 8.91469H29.0892C29.7003 4.81139 29.8837 4.09777 30.7087 4.09777C30.7698 4.09777 30.7698 4.09777 30.8309 4.09777C30.9837 3.29495 31.1975 2.70027 31.4725 2.13532H31.442Z" fill="#ED1C24"/>
<path fill-rule="evenodd" clip-rule="evenodd" d="M21.0532 8.82562C20.5949 8.97429 20.1976 9.03376 19.8004 9.03376C18.9143 9.03376 18.4254 8.49854 18.4254 7.54705C18.4254 7.36865 18.4254 7.16051 18.4865 6.95237L18.6087 6.29822L18.7004 5.76301L19.4643 1.18396H21.1754L20.9921 2.19492H21.8782L21.6338 3.83029H20.7476L20.2893 6.6253C20.2588 6.74423 20.2588 6.83344 20.2588 6.8929C20.2588 7.24971 20.4421 7.39838 20.8393 7.39838C21.0532 7.39838 21.1754 7.36865 21.2976 7.33891L21.0532 8.82562Z" fill="#ED1C24"/>
<path fill-rule="evenodd" clip-rule="evenodd" d="M14.2392 4.30605C14.2392 5.16834 14.6365 5.73329 15.5531 6.1793C16.2559 6.50637 16.3476 6.62531 16.3476 6.92265C16.3476 7.33893 16.042 7.54707 15.3698 7.54707C14.8504 7.54707 14.3615 7.45786 13.8115 7.27946L13.567 8.82563L13.6587 8.85537L13.9642 8.91483C14.0559 8.94457 14.2087 8.94458 14.4226 8.97431C14.8504 9.00405 15.1559 9.03377 15.3698 9.03377C17.1726 9.03377 18.0281 8.32016 18.0281 6.77398C18.0281 5.85222 17.692 5.31701 16.8059 4.90073C16.0726 4.57366 16.0115 4.48445 16.0115 4.18711C16.0115 3.83031 16.2865 3.62217 16.867 3.62217C17.2031 3.62217 17.6615 3.6519 18.1198 3.71137L18.3337 2.1652C17.8754 2.07599 17.2031 2.04626 16.8059 2.04626C14.9115 2.04626 14.2392 3.08695 14.2392 4.30605Z" fill="#ED1C24"/>
<path fill-rule="evenodd" clip-rule="evenodd" d="M50.9978 8.91471H49.3478L49.4394 8.26056C48.9505 8.79578 48.4616 9.00391 47.8505 9.00391C46.5977 9.00391 45.7422 7.90375 45.7422 6.20891C45.7422 3.97885 47.0255 2.07587 48.5533 2.07587C49.2255 2.07587 49.745 2.37321 50.2033 2.99763L50.57 0.618896H52.2811L50.9978 8.91471ZM48.4311 7.33881C49.2255 7.33881 49.8061 6.41705 49.8061 5.07901C49.8061 4.21673 49.47 3.77071 48.8894 3.77071C48.095 3.77071 47.545 4.72221 47.545 6.03051C47.545 6.89279 47.8505 7.33881 48.4311 7.33881Z" fill="#ED1C24"/>
<path fill-rule="evenodd" clip-rule="evenodd" d="M26.5533 8.76612C25.9728 8.94452 25.3922 9.03372 24.7811 9.03372C22.8561 9.03372 21.8478 7.99303 21.8478 6.03058C21.8478 3.71132 23.1311 2.01648 24.8728 2.01648C26.3089 2.01648 27.2256 2.96797 27.2256 4.45467C27.2256 4.96015 27.1645 5.4359 27.0117 6.11978H23.5283C23.5283 6.20899 23.4978 6.26845 23.4978 6.32792C23.4978 7.10101 24.0172 7.51728 25.0256 7.51728C25.6367 7.51728 26.1867 7.39835 26.8283 7.10101L26.5533 8.76612ZM25.5756 4.78175C25.5756 4.63308 25.5756 4.51414 25.5756 4.45467C25.5756 3.91946 25.27 3.59239 24.7506 3.59239C24.2006 3.59239 23.8033 4.00866 23.6506 4.81148L25.5756 4.78175Z" fill="#ED1C24"/>
<path fill-rule="evenodd" clip-rule="evenodd" d="M7.27256 8.91512H5.56144L6.53922 2.55203L4.33922 8.91512H3.14755L2.99477 2.58176L1.95588 8.91512H0.336426L1.68087 0.649048H4.18644L4.24755 5.76331L5.92811 0.649048H8.61701L7.27256 8.91512Z" fill="#ED1C24"/>
<path fill-rule="evenodd" clip-rule="evenodd" d="M11.7335 5.91159C11.5502 5.88186 11.4585 5.88186 11.3363 5.88186C10.3585 5.88186 9.86961 6.23866 9.86961 6.92255C9.86961 7.33883 10.1141 7.60643 10.4807 7.60643C11.2141 7.60643 11.7029 6.92255 11.7335 5.91159ZM13.0168 8.91473H11.5807L11.6113 8.23085C11.1835 8.7958 10.6029 9.03367 9.80851 9.03367C8.86128 9.03367 8.2196 8.29032 8.2196 7.19016C8.2196 5.55478 9.35016 4.60329 11.2752 4.60329C11.4585 4.60329 11.7335 4.60329 11.9779 4.66276C12.0391 4.45462 12.0391 4.33568 12.0391 4.21675C12.0391 3.77074 11.7335 3.59233 10.9391 3.59233C10.4502 3.59233 9.90017 3.6518 9.50294 3.77074L9.2585 3.8302L9.10572 3.85994L9.35016 2.3435C10.2057 2.07589 10.7863 1.98669 11.4279 1.98669C12.9252 1.98669 13.7196 2.67057 13.7196 3.94914C13.7196 4.27621 13.6891 4.54382 13.5668 5.28717L13.2002 7.6659L13.1391 8.08218L13.0474 8.49846L13.0168 8.73633V8.91473Z" fill="#ED1C24"/>
<path fill-rule="evenodd" clip-rule="evenodd" d="M40.1809 5.91159C39.9976 5.88186 39.9059 5.88186 39.7837 5.88186C38.8059 5.88186 38.2865 6.23866 38.2865 6.92255C38.2865 7.33883 38.5309 7.60643 38.8976 7.60643C39.6309 7.60643 40.1504 6.92255 40.1809 5.91159ZM41.4337 8.91473H39.9976L40.0282 8.23085C39.6004 8.7958 39.0198 9.03367 38.2254 9.03367C37.2781 9.03367 36.6365 8.29032 36.6365 7.19016C36.6365 5.55478 37.767 4.60329 39.692 4.60329C39.8754 4.60329 40.1504 4.60329 40.3948 4.66276C40.4559 4.45462 40.4559 4.33568 40.4559 4.21675C40.4559 3.77074 40.1504 3.59233 39.3559 3.59233C38.867 3.59233 38.317 3.6518 37.9198 3.77074L37.6754 3.8302L37.5226 3.85994L37.767 2.3435C38.6226 2.07589 39.2031 1.98669 39.8448 1.98669C41.342 1.98669 42.1365 2.67057 42.1365 3.94914C42.1365 4.27621 42.1059 4.54382 41.9837 5.28717L41.617 7.6659L41.5559 8.08218L41.4948 8.43899L41.4643 8.67686L41.4337 8.91473Z" fill="#ED1C24"/>
<path fill-rule="evenodd" clip-rule="evenodd" d="M46.2612 2.13532C46.2001 2.13532 46.139 2.10559 46.0779 2.10559C45.4973 2.10559 45.1918 2.40293 44.6418 3.20575L44.7945 2.19479H43.2362L42.1667 8.91469H43.9085C44.5196 4.81139 44.703 4.09777 45.528 4.09777C45.5891 4.09777 45.5891 4.09777 45.6502 4.09777C45.803 3.29495 46.0168 2.70027 46.3223 2.13532H46.2612Z" fill="#ED1C24"/>
<path fill-rule="evenodd" clip-rule="evenodd" d="M38.989 15.4562C38.989 16.9726 38.5001 17.8943 37.7362 17.8943C37.1862 17.9241 36.8501 17.2997 36.8501 16.4076C36.8501 15.3372 37.339 14.1181 38.1335 14.1181C38.7751 14.0884 38.989 14.7425 38.989 15.4562ZM40.7001 15.4859C40.7001 13.791 39.8446 12.4827 38.2251 12.4827C36.3612 12.4827 35.1696 14.0884 35.1696 16.4374C35.1696 18.1322 35.8723 19.5 37.6446 19.5C39.4168 19.5 40.7001 18.2809 40.7001 15.4859Z" fill="#F7941D"/>
<path fill-rule="evenodd" clip-rule="evenodd" d="M35.7195 11.2636L35.4445 13.0476C34.864 12.7205 34.4362 12.6016 34.0084 12.6016C32.7862 12.6016 31.9612 13.8802 31.9612 15.6939C31.9612 16.9428 32.5418 17.7159 33.4584 17.7159C33.8557 17.7159 34.314 17.5969 34.8334 17.2996L34.5584 19.1728C33.9473 19.3512 33.5807 19.4107 33.1223 19.4107C31.3806 19.4107 30.2806 18.0429 30.2806 15.8426C30.2806 12.8692 31.7779 10.8176 33.9168 10.8176C34.1918 10.8176 34.4362 10.8473 34.6501 10.9068L35.3223 11.0852C35.5362 11.1744 35.5668 11.2041 35.7195 11.2636Z" fill="#F7941D"/>
<path fill-rule="evenodd" clip-rule="evenodd" d="M24.9942 12.5125C24.9331 12.5125 24.9025 12.4827 24.8414 12.4827C24.322 12.4827 24.0164 12.7801 23.5275 13.5829L23.6803 12.5719H22.2136L21.2358 19.2918H22.8553C23.4053 15.1588 23.5581 14.4452 24.322 14.4452C24.3831 14.4452 24.3831 14.4452 24.4442 14.4452C24.597 13.6424 24.7803 13.0477 25.0553 12.4827L24.9942 12.5125Z" fill="#F7941D"/>
<path fill-rule="evenodd" clip-rule="evenodd" d="M46.1391 19.2027H44.6114L44.703 18.5485C44.2447 19.054 43.7864 19.2919 43.2058 19.2919C42.0141 19.2919 41.2502 18.1917 41.2502 16.4969C41.2502 14.2668 42.4725 12.3639 43.878 12.3639C44.5197 12.3639 44.978 12.6612 45.4364 13.2856L45.803 10.9069H47.3919L46.1391 19.2027ZM43.7253 17.6268C44.4891 17.6268 45.0086 16.705 45.0086 15.367C45.0086 14.5047 44.703 14.0587 44.153 14.0587C43.4197 14.0587 42.9002 14.9805 42.9002 16.3185C42.9002 17.1808 43.2058 17.6268 43.7253 17.6268Z" fill="#F7941D"/>
<path fill-rule="evenodd" clip-rule="evenodd" d="M9.83861 19.1729C9.28861 19.3513 8.73861 19.4405 8.18861 19.4405C6.38582 19.4405 5.4386 18.3998 5.4386 16.4374C5.4386 14.1181 6.63027 12.4232 8.28027 12.4232C9.62472 12.4232 10.4497 13.3747 10.4497 14.8614C10.4497 15.3669 10.3886 15.8427 10.2664 16.5266H7.02749C7.02749 16.6158 7.02749 16.6752 7.02749 16.7347C7.02749 17.5078 7.51638 17.9241 8.46361 17.9241C9.04417 17.9241 9.56361 17.8051 10.1442 17.5078L9.83861 19.1729ZM8.92194 15.1885C8.92194 15.0398 8.92194 14.9209 8.92194 14.8317C8.92194 14.2965 8.64694 13.9694 8.15805 13.9694C7.63861 13.9694 7.27194 14.4154 7.11916 15.1885H8.92194Z" fill="#F7941D"/>
<path fill-rule="evenodd" clip-rule="evenodd" d="M29.0889 19.1729C28.5389 19.3513 27.9889 19.4405 27.4389 19.4405C25.6361 19.4405 24.6888 18.3998 24.6888 16.4374C24.6888 14.1181 25.8805 12.4232 27.5305 12.4232C28.875 12.4232 29.7305 13.3747 29.7305 14.8614C29.7305 15.3669 29.6694 15.8427 29.5166 16.5266H26.2472C26.2472 16.6158 26.2166 16.6752 26.2166 16.7347C26.2166 17.5078 26.7055 17.9241 27.6222 17.9241C28.2027 17.9241 28.7222 17.8051 29.3027 17.5078L29.0889 19.1729ZM28.1722 15.1885C28.1722 15.0398 28.2027 14.9209 28.2027 14.8317C28.2027 14.2965 27.9277 13.9694 27.4389 13.9694C26.9194 13.9694 26.5527 14.4154 26.4 15.1885H28.1722Z" fill="#F7941D"/>
<path fill-rule="evenodd" clip-rule="evenodd" d="M51.6388 19.1729C51.0888 19.3513 50.5388 19.4405 49.9888 19.4405C48.186 19.4405 47.2388 18.3998 47.2388 16.4374C47.2388 14.1181 48.4304 12.4232 50.0804 12.4232C51.4249 12.4232 52.2499 13.3747 52.2499 14.8614C52.2499 15.3669 52.1888 15.8427 52.036 16.5266H48.8277C48.8277 16.6158 48.8277 16.6752 48.8277 16.7347C48.8277 17.5078 49.3166 17.9241 50.2638 17.9241C50.8443 17.9241 51.3638 17.8051 51.9443 17.5078L51.6388 19.1729ZM50.7527 15.1885C50.7527 15.0398 50.7527 14.9209 50.7527 14.8317C50.7527 14.2965 50.4777 13.9694 49.9888 13.9694C49.4693 13.9694 49.1027 14.4154 48.9499 15.1885H50.7527Z" fill="#F7941D"/>
<path fill-rule="evenodd" clip-rule="evenodd" d="M5.04168 12.8098C4.73612 12.6017 4.30835 12.4233 3.69723 12.4233C3.05556 12.4233 2.50556 12.5422 2.50556 13.2261C2.50556 14.4155 4.8889 13.9694 4.8889 16.5266C4.8889 18.8458 3.30001 19.4703 1.89445 19.4703C1.25278 19.4703 0.519446 19.2621 0 19.0242L0.397223 17.2997C0.733335 17.597 1.375 17.7754 1.92501 17.7754C2.44445 17.7754 3.2389 17.6267 3.2389 16.7645C3.2389 15.3967 0.855558 15.9022 0.855558 13.5234C0.855558 11.3528 2.26112 10.6987 3.60557 10.6987C4.36946 10.6987 5.07224 10.8176 5.50002 11.0852L5.04168 12.8098Z" fill="#F7941D"/>
<path fill-rule="evenodd" clip-rule="evenodd" d="M14.5752 19.1728C14.2391 19.3215 13.8113 19.4404 13.1391 19.4404C11.7335 19.4404 10.8474 18.0727 10.8474 16.3778C10.8474 14.1775 12.1307 12.4529 13.9946 12.4529C14.3919 12.4529 15.0335 12.6313 15.5224 12.8989L15.1558 14.5046C14.7891 14.2964 14.4224 14.1478 14.0558 14.1478C13.2002 14.1478 12.5585 14.9209 12.5585 16.2886C12.5585 17.0914 13.0169 17.7456 13.7196 17.7456C14.1474 17.7456 14.4224 17.6564 14.7891 17.4483L14.5752 19.1728Z" fill="#F7941D"/>
<path fill-rule="evenodd" clip-rule="evenodd" d="M20.6253 17.5078C20.5336 18.0727 20.4725 18.6377 20.4114 19.2621H18.8531L18.9753 18.1619H18.9447C18.4559 18.9053 17.967 19.4108 17.0808 19.4108C16.1031 19.4108 15.5836 18.3998 15.5836 17.0915C15.5836 16.6455 15.6142 16.3779 15.7058 15.694L16.1336 12.5719H17.8753L17.417 15.694C17.3558 16.0211 17.2947 16.3481 17.2947 16.705C17.2947 17.0915 17.4781 17.5078 17.9364 17.478C18.6392 17.478 19.067 16.6455 19.1892 15.6345L19.6781 12.5719H21.3892L20.6253 17.5078Z" fill="#F7941D"/>
<path fill-rule="evenodd" clip-rule="evenodd" d="M53.2586 19.1728H53.0142V18.0429H52.6169V17.8051H53.6558V18.0429H53.2586V19.1728Z" fill="#F7941D"/>
<path fill-rule="evenodd" clip-rule="evenodd" d="M55.0001 19.1728H54.7556V18.0132L54.5112 19.1728H54.2667L54.0223 18.0132V19.1728H53.7778V17.8051H54.1751L54.3889 18.8755L54.6334 17.8051H55.0001V19.1728Z" fill="#F7941D"/>
</g>
<defs>
<clipPath id="clip0_3017_1487">
<rect width="55" height="19" fill="white" transform="translate(0 0.5)"/>
</clipPath>
</defs>
</svg>
