<svg width="34" height="26" viewBox="0 0 34 26" fill="none" xmlns="http://www.w3.org/2000/svg">
<g clip-path="url(#clip0_3017_1511)">
<path d="M6.13121 25.8566V24.1368C6.16045 23.5635 5.75104 23.0762 5.16618 23.0476C5.10769 23.0476 5.07845 23.0476 5.01996 23.0476C4.6398 23.0189 4.25964 23.2196 4.02569 23.5349C3.82099 23.2196 3.47007 23.0189 3.0899 23.0476C2.76823 23.0189 2.44655 23.1909 2.27109 23.4489V23.1049H1.65698V25.8566H2.27109V24.3374C2.21261 23.9935 2.47579 23.6495 2.82671 23.6209C2.85596 23.6209 2.91444 23.6209 2.94369 23.6209C3.35309 23.6209 3.5578 23.8788 3.5578 24.3374V25.8566H4.17191V24.3374C4.11342 23.9935 4.37661 23.6495 4.72753 23.6209C4.75677 23.6209 4.81526 23.6209 4.8445 23.6209C5.25391 23.6209 5.45861 23.8788 5.45861 24.3374V25.8566H6.13121ZM15.2259 23.1049H14.2316V22.2737H13.6175V23.1049H13.0619V23.6495H13.6175V24.9107C13.6175 25.5413 13.8807 25.9139 14.5825 25.9139C14.8457 25.9139 15.1089 25.8279 15.3428 25.7133L15.1674 25.1973C14.9919 25.2833 14.8165 25.3407 14.641 25.3407C14.3486 25.3407 14.2316 25.1687 14.2316 24.882V23.6209H15.2259V23.1049ZM20.4312 23.0476C20.1387 23.0476 19.8463 23.1909 19.7001 23.4489V23.1049H19.086V25.8566H19.7001V24.3088C19.7001 23.8502 19.9048 23.5922 20.285 23.5922C20.4019 23.5922 20.5481 23.6209 20.6651 23.6495L20.8406 23.0762C20.6944 23.0476 20.5481 23.0189 20.4312 23.0476ZM12.5647 23.3342C12.2138 23.1336 11.8336 23.0476 11.4242 23.0476C10.7224 23.0476 10.2545 23.3915 10.2545 23.9361C10.2545 24.3948 10.6054 24.6527 11.2195 24.7387L11.512 24.7674C11.8336 24.8247 12.0091 24.9107 12.0091 25.054C12.0091 25.2547 11.7752 25.398 11.3658 25.398C11.0441 25.398 10.6932 25.312 10.43 25.1113L10.1375 25.57C10.4885 25.7993 10.9271 25.9426 11.3365 25.9139C12.1553 25.9139 12.6232 25.5413 12.6232 25.0254C12.6232 24.5094 12.2431 24.2801 11.6582 24.1941L11.3658 24.1655C11.1026 24.1368 10.8979 24.0795 10.8979 23.9075C10.8979 23.7355 11.1026 23.5922 11.4242 23.5922C11.7459 23.5922 12.0384 23.6782 12.3015 23.8215L12.5647 23.3342ZM28.8532 23.0476C28.5608 23.0476 28.2684 23.1909 28.1222 23.4489V23.1049H27.5081V25.8566H28.1222V24.3088C28.1222 23.8502 28.3269 23.5922 28.707 23.5922C28.824 23.5922 28.9702 23.6209 29.0872 23.6495L29.2627 23.0762C29.1457 23.0476 28.9995 23.0189 28.8532 23.0476ZM21.016 24.4808C20.9868 25.2547 21.6009 25.8853 22.3612 25.9139C22.4197 25.9139 22.449 25.9139 22.5075 25.9139C22.8584 25.9426 23.2385 25.8279 23.5017 25.5986L23.2093 25.1113C23.0046 25.2547 22.7414 25.3407 22.4782 25.3693C21.9811 25.3407 21.6302 24.9107 21.6594 24.4234C21.6886 23.9935 22.0396 23.6495 22.4782 23.6209C22.7414 23.6209 23.0046 23.7068 23.2093 23.8788L23.5017 23.3915C23.2093 23.1622 22.8584 23.0476 22.5075 23.0762C21.7179 23.0189 21.0745 23.6209 21.016 24.3661C21.016 24.3661 21.016 24.4234 21.016 24.4808ZM26.7185 24.4808V23.1049H26.1044V23.4489C25.8997 23.1909 25.578 23.0476 25.2271 23.0476C24.4083 23.0476 23.7649 23.6782 23.7649 24.4808C23.7649 25.2833 24.4083 25.9139 25.2271 25.9139C25.578 25.9139 25.8997 25.7706 26.1044 25.5126V25.8566H26.7185V24.4808ZM24.4668 24.4808C24.496 24.0221 24.9054 23.6782 25.3733 23.7068C25.8412 23.7355 26.1921 24.1368 26.1629 24.5954C26.1336 25.0254 25.7827 25.3693 25.3148 25.3693C24.8469 25.3693 24.4668 25.0254 24.4668 24.5667C24.4668 24.5094 24.4668 24.4808 24.4668 24.4808ZM17.1267 23.0476C16.3079 23.0476 15.6645 23.7068 15.6938 24.5094C15.723 25.312 16.3664 25.9426 17.1852 25.9139C17.5946 25.9426 18.0332 25.7993 18.3549 25.5413L18.0625 25.1113C17.8285 25.2833 17.5361 25.398 17.2437 25.398C16.8343 25.4266 16.4541 25.14 16.3956 24.7387H18.4719C18.4719 24.6527 18.4719 24.5954 18.4719 24.5094C18.4719 23.6209 17.9163 23.0476 17.1267 23.0476ZM17.1267 23.5635C17.5068 23.5635 17.8285 23.8502 17.8285 24.2228H16.3664C16.3956 23.8502 16.7173 23.5635 17.1267 23.5635ZM32.3624 24.4808V22.0157H31.7776V23.4489C31.5729 23.1909 31.2512 23.0476 30.9003 23.0476C30.0815 23.0476 29.4381 23.6782 29.4381 24.4808C29.4381 25.2833 30.0815 25.9139 30.9003 25.9139C31.2512 25.9139 31.5729 25.7706 31.7776 25.5126V25.8566H32.3624V24.4808ZM33.386 25.4553C33.4152 25.4553 33.4737 25.4553 33.5029 25.484C33.5322 25.484 33.5614 25.5126 33.5907 25.5413C33.6199 25.57 33.6491 25.5986 33.6491 25.6273C33.6784 25.6846 33.6784 25.7706 33.6491 25.8279C33.6199 25.8566 33.6199 25.8853 33.5907 25.9139C33.5614 25.9426 33.5322 25.9712 33.5029 25.9712C33.4737 25.9999 33.4444 25.9999 33.386 25.9999C33.269 25.9999 33.1813 25.9426 33.1228 25.8279C33.0935 25.7706 33.0935 25.6846 33.1228 25.6273C33.152 25.5986 33.152 25.57 33.1813 25.5413C33.2105 25.5126 33.2397 25.484 33.269 25.484C33.2982 25.4553 33.3567 25.4553 33.386 25.4553ZM33.386 25.9426C33.4152 25.9426 33.4444 25.9426 33.4737 25.9139C33.5029 25.9139 33.5322 25.8853 33.5322 25.8566C33.6199 25.7706 33.6199 25.6559 33.5322 25.57C33.5029 25.5413 33.5029 25.5413 33.4737 25.5126C33.4444 25.5126 33.4152 25.484 33.386 25.484C33.3567 25.484 33.3275 25.484 33.2982 25.5126C33.269 25.5126 33.2397 25.5413 33.2397 25.57C33.152 25.6559 33.152 25.7706 33.2397 25.8566C33.269 25.8853 33.2982 25.8853 33.2982 25.9139C33.3275 25.9139 33.3567 25.9426 33.386 25.9426ZM33.386 25.5986C33.4152 25.5986 33.4444 25.5986 33.4737 25.6273C33.5029 25.6559 33.5029 25.6559 33.5029 25.6846C33.5029 25.7133 33.5029 25.7133 33.4737 25.7419C33.4444 25.7706 33.4444 25.7706 33.4152 25.7706L33.5029 25.8566H33.4444L33.3567 25.7706H33.3275V25.8566H33.269V25.5986H33.386ZM33.3275 25.6273V25.6846H33.386H33.4152V25.6559V25.6273H33.386H33.3275ZM30.1107 24.4808C30.14 24.0221 30.5494 23.6782 31.0173 23.7068C31.4851 23.7355 31.8361 24.1368 31.8068 24.5954C31.7776 25.0254 31.4267 25.3693 30.9588 25.3693C30.4909 25.3693 30.1107 25.0254 30.1107 24.5667C30.1107 24.5094 30.1107 24.5094 30.1107 24.4808ZM9.58191 24.4808V23.1049H8.96781V23.4489C8.7631 23.1909 8.44143 23.0476 8.09051 23.0476C7.27169 23.0476 6.62834 23.6782 6.62834 24.4808C6.62834 25.2833 7.27169 25.9139 8.09051 25.9139C8.44143 25.9139 8.7631 25.7706 8.96781 25.5126V25.8566H9.58191V24.4808ZM7.30094 24.4808C7.33018 24.0221 7.73959 23.6782 8.20748 23.7068C8.67537 23.7355 9.02629 24.1368 8.99705 24.5954C8.96781 25.0254 8.61689 25.3693 8.14899 25.3693C7.6811 25.3693 7.30094 25.0254 7.30094 24.5667C7.30094 24.5094 7.30094 24.5094 7.30094 24.4808Z" fill="white"/>
<path d="M21.6012 2.23816H12.3895V18.4616H21.6012V2.23816Z" fill="#FF5F00"/>
<path d="M12.9741 10.3506C12.9741 7.19763 14.4655 4.18799 17.0097 2.23888C12.4477 -1.2867 5.80948 -0.512798 2.2418 3.98734C-1.32588 8.48748 -0.565555 14.9654 4.02564 18.4623C7.85651 21.4146 13.208 21.4146 17.0389 18.4623C14.4363 16.4845 12.9448 13.5035 12.9741 10.3506Z" fill="#EB001B"/>
<path d="M34.0001 10.3498C34.0001 16.0538 29.2919 20.6686 23.4725 20.6686C21.1038 20.6686 18.8228 19.8947 16.9805 18.4616C21.5424 14.936 22.332 8.4294 18.7643 3.95792C18.2379 3.29867 17.6531 2.7254 16.9805 2.20946C21.5424 -1.31613 28.1806 -0.542215 31.7776 3.95792C33.2105 5.76371 34.0001 8.02811 34.0001 10.3498Z" fill="#F79E1B"/>
<path d="M33.0056 16.7418V16.3978H33.1518V16.3405H32.8009V16.3978H32.9471V16.7418H33.0056ZM33.6782 16.7418V16.3405H33.5612L33.4443 16.6271L33.3273 16.3405H33.2396V16.7418H33.3273V16.4552L33.4443 16.7131H33.532L33.649 16.4552V16.7705L33.6782 16.7418Z" fill="#F79E1B"/>
</g>
<defs>
<clipPath id="clip0_3017_1511">
<rect width="34" height="26" fill="white"/>
</clipPath>
</defs>
</svg>
