<svg width="54" height="20" viewBox="0 0 54 20" fill="none" xmlns="http://www.w3.org/2000/svg">
<path d="M27.6429 6.95828C27.5893 9.369 29.7857 10.7083 31.4464 11.5119C33.1071 12.3154 33.6964 12.8512 33.6964 13.6012C33.6964 14.7262 32.3571 15.2083 31.125 15.2619C28.9286 15.3154 27.6964 14.6726 26.6786 14.1904L25.875 17.8333C26.8929 18.3154 28.7679 18.6904 30.6964 18.744C35.25 18.744 38.1964 16.494 38.25 13.0119C38.25 8.619 32.1429 8.35114 32.1964 6.369C32.1964 5.77971 32.7857 5.13685 34.0179 4.97614C34.6607 4.869 36.3214 4.81543 38.3036 5.72614L39.0536 2.19043C38.0357 1.81543 36.6964 1.44043 34.9822 1.44043C30.6964 1.44043 27.6964 3.69043 27.6429 6.95828ZM46.3393 1.70828C45.5357 1.70828 44.7857 2.19043 44.5179 2.94043L38.0357 18.4226H42.5893L43.5 15.9047H49.0714L49.6071 18.4226H53.625L50.1429 1.70828H46.3393ZM46.9821 6.26185L48.2679 12.5297H44.6786L46.9821 6.26185ZM22.1786 1.70828L18.5893 18.4226H22.9286L26.5179 1.70828H22.1786ZM15.75 1.70828L11.25 13.0654L9.42857 3.369C9.21429 2.29757 8.35714 1.65471 7.44642 1.65471H0.107149L0 2.13686C1.5 2.45829 3.21429 2.994 4.28571 3.58328C4.92857 3.90471 5.08928 4.22614 5.30357 5.02971L8.73215 18.369H13.2857L20.3036 1.65471L15.75 1.70828Z" fill="white"/>
</svg>
