<svg width="18" height="18" viewBox="0 0 18 18" fill="none" xmlns="http://www.w3.org/2000/svg">
<path d="M14.4 4.1001L14.4001 4.1001C14.7319 4.10004 15.0511 4.22682 15.2925 4.4545C15.4564 4.60918 15.576 4.80249 15.6418 5.01441L9.00003 8.33489L2.35823 5.01441C2.42408 4.80249 2.54364 4.60918 2.70761 4.4545C2.94893 4.22683 3.26817 4.10004 3.59994 4.1001H3.60003H14.4Z" fill="#80808A" stroke="#80808A"/>
<path d="M16.2008 7.30615L9.00078 10.9062L1.80078 7.30615V12.6C1.80078 13.0773 1.99042 13.5352 2.32799 13.8727C2.66555 14.2103 3.12339 14.4 3.60078 14.4H14.4008C14.8782 14.4 15.336 14.2103 15.6736 13.8727C16.0111 13.5352 16.2008 13.0773 16.2008 12.6V7.30615Z" fill="#80808A"/>
</svg>
