<svg width="143" height="64" viewBox="0 0 143 64" fill="none" xmlns="http://www.w3.org/2000/svg">
<g clip-path="url(#clip0_15_273)">
<path fill-rule="evenodd" clip-rule="evenodd" d="M4.77612 27.1839C4.77612 24.3538 6.48699 21.6187 13.1879 21.6425C18.273 21.6425 20.9581 23.5214 20.9343 26.6845V29.2293H13.9958V25.8759C13.9958 25.2813 13.9958 24.6392 12.7602 24.6392C11.976 24.6392 11.7146 25.1862 11.7146 25.8283V36.1501C11.7146 36.7685 11.976 37.3393 12.7602 37.3393C13.9958 37.3393 13.9958 36.6496 13.9958 35.8885V32.2497H20.9343V35.2226C20.9343 38.3857 17.9403 40.3835 13.0216 40.3835C6.05927 40.3835 4.77612 37.6722 4.77612 34.8183V27.1839ZM23.1204 22.0706L30.0589 22.0468L30.1065 28.5396H32.7203L32.6965 22.023L39.635 21.9755L39.7301 39.9316L32.7916 39.9792L32.7441 32.44L30.1065 32.4638L30.154 39.9792L23.2155 40.0268L23.1204 22.0706ZM41.8449 22.0706H48.7834V40.0268H41.8449V22.0706ZM50.5656 27.2553C50.5418 24.4013 52.2052 21.6901 58.9061 21.6187C63.9911 21.5712 66.6763 23.4262 66.7238 26.5894L66.7475 29.1342L59.809 29.2055L59.7853 25.8521C59.7853 25.2575 59.7853 24.6154 58.5259 24.6392C57.7417 24.6392 57.4803 25.21 57.4803 25.8283L57.5754 36.1263C57.5754 36.7447 57.8605 37.3155 58.6447 37.2917C59.8803 37.2917 59.8803 36.602 59.8803 35.8172L59.8565 32.1784L66.7951 32.107L66.8188 35.0799C66.8426 38.243 63.8961 40.2646 58.9536 40.3121C51.9913 40.3835 50.6844 37.6722 50.6606 34.8421L50.5656 27.2553ZM75.7296 36.1263C75.7296 36.7447 75.991 37.3155 77.0603 37.3155C78.1058 37.3155 78.3672 36.7685 78.3672 36.1263L78.3434 25.8283C78.3434 25.1862 78.082 24.6392 77.0365 24.6392C75.991 24.6392 75.7296 25.1862 75.7296 25.8283V36.1263ZM68.7911 27.1839C68.7911 24.3538 70.0742 21.6187 77.0365 21.6187C83.9988 21.6187 85.2819 24.33 85.2819 27.1602L85.3057 34.7469C85.3057 37.6009 84.0226 40.3121 77.0603 40.3121C70.098 40.3121 68.8148 37.6009 68.8148 34.7707L68.7911 27.1839ZM94.2402 29.6812H95.4283C96.6402 29.6812 97.0917 29.3006 97.0917 28.5871V26.1375C97.0917 25.424 96.6402 25.0673 95.4283 25.0673H94.2165L94.2402 29.6812ZM87.5393 22.0706H96.6164C100.608 22.0706 102.985 23.3787 102.985 26.1613V28.3731C102.985 30.9654 101.559 32.7016 97.258 32.7016H94.2402V40.0268H87.5393V22.0706ZM105.195 22.0468L116.909 22.0706L116.885 25.6856H112.109V28.9677L116.577 28.9915V32.4638L112.086 32.44V36.388H117.242V40.0268L105.147 40.003L105.195 22.0468ZM134.731 42.191V39.9316H135.277L135.848 41.7391L136.394 39.9316H136.941V42.191H136.608V40.2884L136.038 42.191H135.681L135.087 40.2646V42.191H134.731ZM133.353 42.191V40.2646H132.616V39.9316H134.469V40.2646H133.733V42.191H133.353ZM119.262 22.0468L130.976 22.0706V25.6856H126.176V28.9677L130.667 28.9915L130.644 32.4638L126.176 32.44L126.153 36.388H131.333L131.309 40.0268L119.214 40.003L119.262 22.0468Z" fill="#16151C"/>
<path d="M14.3523 56.3894L14.376 56.5559L14.3048 56.6986L14.2335 56.8413L14.1859 56.9602L14.1147 57.0554L14.0434 57.1743L13.9958 57.2932L13.9246 57.4359L13.8533 57.6024L13.7582 57.7689L13.6869 57.9116L13.6157 58.0067L13.5206 58.1256L13.3305 58.4348L13.2355 58.5537L13.1642 58.6488L12.9741 58.8391L12.879 58.9104L12.6889 59.1007L12.5939 59.1958L12.3563 59.3147L12.1662 59.3861L11.9761 59.4812L11.881 59.505L11.7385 59.5764L11.5484 59.6001L11.3583 59.6239L11.0731 59.6001H10.9305L10.788 59.5764L10.5028 59.4812L10.2652 59.3385L10.1702 59.2672L10.0751 59.1721L9.98006 59.0769L9.90877 58.9818L9.83749 58.8629L9.7662 58.744L9.69491 58.6013L9.67115 58.4586L9.62363 58.0543L9.59987 57.9116V57.7926L9.67115 57.5072L9.71868 57.317L9.78996 57.0792L9.86125 56.8889L9.93254 56.7462L9.98006 56.6273L10.0513 56.5084L10.1226 56.4132L10.1939 56.2943L10.384 55.9614L10.4791 55.8187L10.5741 55.676L10.6929 55.5333L10.7642 55.4143L10.8593 55.2479L10.9543 55.1052L11.0256 54.9625V54.796L10.9781 54.6057L10.9068 54.463L10.6692 54.1538L10.5741 54.0587L10.4553 53.916L10.289 53.7971L10.1464 53.8209L10.0513 53.9398L9.98006 54.0587L9.90877 54.1776L9.83749 54.2965L9.69491 54.5106L9.59987 54.6057L9.29096 54.9149L9.0771 55.1052L8.98205 55.1765L8.83948 55.2716L8.55434 55.4381L8.41177 55.5333L8.29295 55.6046L8.03157 55.6997L7.889 55.7473L7.77019 55.7949L7.62762 55.8187L7.46128 55.89L7.31871 55.9851L7.24742 56.104L7.12861 56.3419L7.08109 56.4608L7.03357 56.6035L6.96228 56.7224L6.89099 56.8413L6.74842 57.0792L6.67714 57.1981L6.60585 57.3408L6.55833 57.4359L6.46328 57.5786L6.39199 57.6975L6.15437 58.0067L6.05932 58.1018L5.96427 58.2207L5.86923 58.3159L5.77418 58.411L5.58408 58.6013L5.48903 58.6964L5.27517 58.8867L5.03755 59.0294L4.94251 59.1007L4.8237 59.1721L4.68112 59.2434L4.49103 59.3385L4.20588 59.4812L4.06331 59.5288L3.9445 59.5764L3.80193 59.6001L3.39797 59.6477H3.11283L2.82768 59.6239L2.63759 59.6001L2.44749 59.5764L2.16235 59.505L2.01977 59.4812L1.75839 59.4574L1.59206 59.3861L1.47325 59.3147L1.35444 59.2434L1.23563 59.1483L1.14058 59.0531L0.831672 58.744L0.736623 58.6488L0.665337 58.5537L0.522765 58.3159L0.451479 58.2207L0.380193 58.1018L0.308907 57.9829L0.261383 57.8402L0.190096 57.5548L0.166334 57.4121L0.11881 57.2932L0.0950482 57.1505L0.0712861 57.0078V56.8413L0.0475241 56.6511L0 56.3657V56.223L0.0475241 55.8187V55.6522L0.0712861 55.5095L0.0950482 55.3668L0.11881 55.2241L0.142572 55.0814L0.190096 54.8911L0.23762 54.7009L0.285145 54.5582L0.332669 54.4392L0.403955 54.2965L0.451479 54.1776L0.499003 54.0349L0.570289 53.8447L0.665337 53.6544L0.736623 53.5117L0.831672 53.369L0.974244 53.2263L1.11682 53.155L1.25939 53.1787L1.40196 53.2263L1.54453 53.2977L1.66334 53.3928L1.75839 53.4879L1.78215 53.6306L1.75839 53.7733L1.71087 53.916L1.59206 54.1538L1.52077 54.2965L1.47325 54.463L1.35444 54.8198L1.30691 54.9625L1.28315 55.1052L1.25939 55.2241L1.23563 55.3668L1.16434 56.0565V56.3419L1.1881 56.5084L1.21186 56.6511V56.77L1.23563 56.9127L1.30691 57.1981L1.33067 57.317L1.3782 57.4597L1.40196 57.5786L1.44948 57.7213L1.52077 57.864L1.59206 57.9829L1.66334 58.078L1.75839 58.197L1.82968 58.2683L1.92473 58.3634L2.01977 58.4586L2.11482 58.5299L2.23363 58.6013L2.42373 58.6726L2.61383 58.7202L2.78016 58.744L3.0653 58.7677H3.20788L3.35045 58.744L3.49302 58.7202L3.61183 58.6726L3.7544 58.625L3.87321 58.5775L4.01579 58.5299L4.11083 58.4586L4.22964 58.3872L4.37222 58.2921L4.46726 58.2207L4.68112 58.0305L5.03755 57.6024L5.10884 57.5072L5.20389 57.3883L5.27517 57.2932L5.39398 57.0554L5.46527 56.9127L5.51279 56.8175L5.60784 56.6748L5.72665 56.437L5.79794 56.2943L5.86923 56.1754L5.91675 56.0327L5.94051 55.9376L5.89299 55.8662L5.79794 55.8187L5.51279 55.7949L5.22765 55.7235L5.08508 55.676L5.01379 55.6522L4.72865 55.5808L4.58607 55.5333L4.20588 55.3906L4.08707 55.3192L3.96826 55.2479L3.73064 55.1052L3.61183 55.01L3.54054 54.9387L3.39797 54.8436L3.27916 54.7722L3.08907 54.5819L2.99402 54.4868L2.70887 54.2014L2.61383 54.1063L2.54254 53.9874L2.47125 53.8922L2.3762 53.7733L2.30492 53.6782L2.23363 53.5355L2.11482 53.2977L2.0673 53.1787L2.01977 53.036L1.92473 52.7744L1.8772 52.6317L1.82968 52.5604L1.80592 52.4177L1.78215 52.275L1.75839 52.1323L1.73463 52.0134V51.728L1.75839 51.5853L1.78215 51.4426V51.2999L1.80592 51.181L1.8772 50.8956L1.94849 50.7053L2.01977 50.515L2.09106 50.3724L2.20987 50.1345L2.28116 50.0394L2.3762 49.9443L2.44749 49.8729L2.54254 49.754L2.63759 49.6589L2.73264 49.5637L2.82768 49.4924L2.94649 49.3972L3.27916 49.207L3.42173 49.1356L3.51678 49.1119L3.68312 49.0405L4.03955 48.9454L4.18212 48.9216L4.32469 48.8978H4.99003L5.27517 48.9216L5.46527 48.9692L5.65537 49.0167L5.96427 49.1119L6.15437 49.1832L6.29694 49.2546L6.53456 49.3972L6.67714 49.4924L6.81971 49.6351L6.91476 49.7302L6.98604 49.8253L7.05733 49.9205L7.15238 50.0156L7.22366 50.1345L7.36623 50.4199L7.43752 50.6102L7.50881 50.7529L7.58009 50.9431L7.65138 51.181L7.6989 51.3712L7.72267 51.5139L7.74643 51.7042L7.77019 51.8945L7.79395 52.0372L7.81771 52.1799L7.79395 52.3226V52.9885L7.77019 53.2739L7.74643 53.4166L7.72267 53.6068L7.6989 53.7971V53.9398L7.67514 54.1301L7.62762 54.3203L7.60386 54.463L7.53257 54.7484V54.9149L7.62762 55.01H7.79395L7.93652 54.9387L8.17414 54.8436L8.31672 54.7722L8.45929 54.7009L8.5781 54.6295L8.69691 54.5582L8.81572 54.463L9.19591 54.0825L9.29096 53.9874L9.36225 53.8684L9.43353 53.7257L9.48106 53.6306L9.55234 53.4879L9.62363 53.3452L9.64739 53.2025L9.59987 53.036L9.52858 52.8696L9.45729 52.7269L9.38601 52.5604L9.33848 52.3701V52.2274L9.36225 52.0372L9.43353 51.7993L9.52858 51.6566L9.64739 51.5615L9.81373 51.4902L10.0038 51.4664L10.1464 51.4902L10.2652 51.5615L10.3603 51.6566L10.4315 51.7518L10.5028 51.8707L10.5266 52.0609L10.5503 52.2512V52.5842L10.5741 52.7744L10.6454 52.8696L10.8355 53.0836L10.9543 53.2025L11.0494 53.2977L11.1444 53.369L11.3345 53.5593L11.4295 53.6544L11.5246 53.7495L11.5959 53.8447L11.6909 53.9398L11.8573 54.1301L11.9523 54.2728L12.0236 54.3679L12.0949 54.4868L12.1662 54.6295L12.2137 54.7484V54.8911L12.1899 55.01L12.1424 55.1527L12.0711 55.2716L11.9998 55.3668L11.9285 55.4619L11.8335 55.5808L11.7385 55.676L11.6672 55.7711L11.5721 55.89L11.5008 56.0089L11.4295 56.1278L11.3583 56.223L11.287 56.3419L11.2157 56.437L11.1206 56.6986L11.0494 56.8175L10.9781 56.9602L10.9543 57.0792L10.9068 57.2219L10.883 57.3645L10.8593 57.6499V57.9353L10.883 58.078L10.9305 58.2207L10.9781 58.3397L11.0494 58.4586L11.1919 58.5775L11.3583 58.6488L11.5008 58.6726L11.6909 58.6488L11.881 58.744L12.0236 58.6964L12.1424 58.6488L12.2612 58.5775L12.4038 58.4823L12.5464 58.3397L12.6414 58.2445L12.8315 58.0543L12.9503 57.9116L13.0929 57.7213L13.2117 57.5548L13.283 57.4359L13.4256 57.1981L13.5206 57.0078L13.6157 56.8651L13.6869 56.7224L13.877 56.3181L14.0196 56.1754L14.2097 56.223L14.3523 56.3894ZM6.36823 54.4155L6.39199 54.2252L6.41575 54.0825L6.43952 53.8922L6.46328 53.702L6.48704 53.5593L6.5108 53.369L6.53456 53.1787L6.55833 53.036L6.58209 52.8458V52.5366L6.55833 52.3939L6.53456 52.2512L6.5108 52.0609V51.8707L6.48704 51.728L6.43952 51.5377L6.41575 51.3475L6.36823 51.2048L6.3207 51.0858L6.24942 50.9431L6.17813 50.7767L6.08308 50.6102L5.98804 50.4913L5.89299 50.3961L5.79794 50.3248L5.70289 50.2534L5.58408 50.1821L5.46527 50.1345L5.3227 50.0632L5.1326 50.0156L4.89498 49.9918H4.6336L4.37222 50.0156L4.1346 50.0632L3.9445 50.1345L3.80193 50.2059L3.65936 50.301L3.51678 50.4199L3.42173 50.515L3.35045 50.6102L3.27916 50.7291L3.20788 50.9194L3.13659 51.1334L3.0653 51.3237L3.04154 51.4664L3.01778 51.7518V51.8945L3.04154 52.0372V52.3226L3.0653 52.4653L3.08907 52.608L3.18411 52.8933L3.2554 53.0123L3.30292 53.155L3.37421 53.2739L3.4455 53.4166L3.51678 53.5593L3.61183 53.6544L3.68312 53.7495L3.87321 53.9636L3.99202 54.0825L4.06331 54.1538L4.30093 54.3679L4.39598 54.4392L4.60984 54.6057L4.75241 54.7009L4.94251 54.796L5.03755 54.8436L5.20389 54.9149L5.48903 55.01L5.63161 55.0338L5.91675 55.1052L6.05932 55.1289L6.17813 55.1052L6.27318 54.9862L6.34447 54.7484L6.36823 54.4155Z" fill="#16151C"/>
<path d="M17.4176 56.2705V56.437L17.3701 56.5797L17.2513 56.8175L17.1087 57.0554L17.0374 57.1981L16.9661 57.317L16.8711 57.4597L16.8235 57.5548L16.7523 57.6975L16.681 57.8164L16.6097 57.9116L16.5146 58.0305L16.4433 58.1256L16.3008 58.3634L16.0156 58.6726L15.8255 58.8629L15.7305 58.958L15.6354 59.0531L15.5404 59.1483L15.2077 59.4099L15.1127 59.4812L14.9701 59.5526L14.8275 59.6001L14.7087 59.6239L14.4236 59.6953H14.1622L13.9959 59.6715L13.877 59.6239L13.7345 59.5764L13.6157 59.505L13.5206 59.4099L13.4493 59.3147L13.378 59.1958L13.3068 59.0531L13.283 58.9342L13.2592 58.7915L13.2355 58.6488V58.5061L13.2592 58.2207L13.283 58.078L13.3305 57.9353L13.4018 57.6499L13.4493 57.531L13.4731 57.3883L13.5206 57.2456L13.5681 57.1267L13.7107 56.7224L13.7345 56.6035L13.7582 56.4608L13.8058 56.3181L13.8295 56.1754L13.8533 56.0565L13.9483 55.7711L13.9959 55.5808L14.0434 55.3906L14.1384 55.1052L14.1622 54.9625L14.186 54.8673L14.2097 54.7246L14.281 54.5819L14.3285 54.463L14.4236 54.0587L14.4711 53.916L14.5186 53.7257L14.5899 53.5355L14.6374 53.3928L14.7087 53.2739L14.8038 53.2025L14.9463 53.1312L15.0652 53.1074L15.2077 53.1312L15.4453 53.2739L15.683 53.369L15.7543 53.4641V53.6068L15.7305 53.7495L15.683 53.9398L15.6354 54.1301L15.5404 54.4155L15.5166 54.5344L15.4929 54.6771L15.4453 54.8198L15.3978 55.01L15.2552 55.4619L15.2315 55.6046L15.1602 55.7949L15.0652 56.104L15.0414 56.2467L14.9701 56.3657L14.9463 56.5084L14.8513 56.77L14.8275 56.9127L14.7325 57.2932L14.6374 57.5786L14.6137 57.7213L14.5661 57.9116L14.5186 58.1494L14.4949 58.411L14.5186 58.6488L14.6374 58.8153L14.8038 58.8629L14.9463 58.8391L15.0889 58.7677L15.184 58.6964L15.3028 58.6013L15.8018 58.1018L15.8968 58.0067L15.9681 57.9116L16.0632 57.7926L16.2057 57.5548L16.3008 57.4597L16.3721 57.3645L16.4433 57.2456L16.5384 57.1029L16.6097 56.9602L16.7285 56.6986L16.9186 56.3419L16.9899 56.223L17.1324 56.1516L17.3225 56.1754L17.4176 56.2705ZM14.9701 51.5853L15.0414 51.4664L15.1602 51.3712L15.279 51.2999L15.4216 51.2523L15.5642 51.2285H15.7067L15.8493 51.2523L15.9681 51.3237L16.0632 51.4188L16.1582 51.5139L16.2295 51.6328L16.277 51.7755L16.3008 51.9182V52.0609L16.2533 52.2036L16.182 52.3226L16.0869 52.4415L15.9919 52.5366L15.8731 52.6317L15.7305 52.7031L15.5879 52.7269L15.4453 52.7031L15.3028 52.6793L15.0652 52.5366L14.9701 52.4415L14.8988 52.3226L14.8751 52.1799L14.8513 52.0372L14.8751 51.8945L14.8988 51.7518L14.9701 51.5853Z" fill="#16151C"/>
<path d="M17.7027 63.9762L17.5363 63.9286L17.4413 63.9049L17.2987 63.8335L17.1799 63.7622L17.0849 63.667L16.9898 63.5719L16.9185 63.453L16.8235 63.2865L16.7522 63.12L16.7284 62.9773L16.7047 62.8346L16.7284 62.6919L16.7522 62.5017L16.7997 62.3114L16.8472 62.1687L16.9185 62.0022L17.0136 61.8357L17.0849 61.7168L17.1799 61.5979L17.275 61.5028L17.4413 61.3125L17.7502 61.0271L17.8452 60.9558L18.1779 60.7417L18.3205 60.6704L18.4868 60.5752L18.6769 60.5039L18.8195 60.4326L18.8908 60.4088L19.0571 60.3136L19.2234 60.2423L19.366 60.1709L19.5086 60.0996L19.6274 60.052L19.7224 59.9807L19.8175 59.8855L19.865 59.7666L19.9601 59.505L20.0789 59.1245L20.1026 58.9818L20.1502 58.8391L20.1739 58.7202L20.1977 58.5775L20.2452 58.4348L20.269 58.3159L20.3165 58.1732L20.4115 57.9353L20.4591 57.7926H20.4353L20.364 57.9116L20.2214 58.1494L20.1502 58.2445L20.0551 58.3397L19.9838 58.4348L19.8888 58.5537L19.8175 58.625L19.7224 58.744L19.6274 58.8391L19.4373 59.0294L19.3423 59.1245L19.2234 59.1958L18.9858 59.3148L18.867 59.3861L18.7482 59.4574L18.6294 59.4812L18.4868 59.505L18.2017 59.5288H17.9165L17.7264 59.505L17.5363 59.4812L17.3938 59.4099L17.2274 59.3148L17.0849 59.2196L16.9898 59.1245L16.8948 59.0294L16.8235 58.9104L16.7284 58.7202L16.6571 58.5537L16.6334 58.411L16.6096 58.2683L16.5859 58.1256L16.5621 57.9353L16.5383 57.7451V57.6024L16.5621 57.317L16.5859 57.1267L16.6334 56.8889L16.7047 56.6986L16.7522 56.5559L16.776 56.437L16.8235 56.2943L16.871 56.1754L16.9423 56.0327L17.0136 55.8662L17.1324 55.5808L17.2037 55.4381L17.275 55.2954L17.3462 55.2003L17.5363 54.9149L17.6314 54.7484L17.7264 54.6533L17.869 54.4392L18.0591 54.2252L18.1542 54.1301L18.273 54.0349L18.4631 53.8684L18.8908 53.5593L19.2234 53.369L19.366 53.2977L19.5323 53.2263L19.8413 53.1312L19.9838 53.1074L20.0789 53.0836L20.2214 53.036L20.364 53.0123L20.6492 52.9885H20.7917L21.1957 53.0123H21.3858L21.5284 53.036L21.6472 53.0598L21.7897 53.0836L21.9323 53.155L22.0749 53.2025L22.1699 53.2263L22.2887 53.2977L22.4076 53.3452L22.5501 53.4166L22.7165 53.5117L22.859 53.5831L23.0016 53.6782L23.1204 53.7733L23.2155 53.8684L23.263 54.0111L23.2155 54.1776L23.1204 54.2965L23.0254 54.3917L22.9303 54.463L22.8115 54.5344L22.6689 54.5106L22.5264 54.4392L22.3125 54.2965L22.0749 54.1538L21.9561 54.0825L21.8135 54.0349L21.6709 54.0111L21.5284 53.9636L21.2432 53.8922H20.8155L20.6729 53.916L20.5304 53.9398L20.364 53.9874L20.1977 54.0587L20.0314 54.1063L19.8413 54.2014L19.6274 54.3203L19.4611 54.4392L19.366 54.5106L19.271 54.6057L19.1759 54.7009L19.0571 54.8436L18.9383 54.9862L18.8432 55.1052L18.7482 55.2479L18.5581 55.5095L18.4393 55.6997L18.3442 55.8662L18.2254 56.1516L18.1779 56.2705L18.1066 56.4132L18.0116 56.6986L17.9878 56.8413L17.9403 56.984L17.9165 57.1267L17.8928 57.2694L17.869 57.4121L17.8452 57.5548L17.8215 57.6975V57.8402L17.8452 57.9829L17.8928 58.1256L17.9403 58.2683L17.9641 58.3634L18.0353 58.5061L18.1304 58.6013L18.2492 58.6726L18.3918 58.6964H18.5343L18.6532 58.6726L18.7957 58.6488L18.9145 58.5775L19.2234 58.3397L19.3185 58.2445L19.4135 58.1494L19.5086 58.0543L19.6036 57.9591L19.6987 57.864L19.77 57.7689L19.9125 57.531L20.0076 57.3883L20.1264 57.2456L20.1977 57.1267L20.269 57.0316L20.3165 56.8889L20.4353 56.6511L20.5779 56.4132L20.6492 56.2943L20.7204 56.1516L21.0769 55.0576L21.1006 54.9149L21.1719 54.7722L21.2907 54.6533L21.4333 54.5819H21.5759L21.766 54.6057L21.9561 54.6771L22.0986 54.7484L22.1937 54.8911L22.2412 55.0576L22.2175 55.2003L22.1937 55.343L22.0986 55.6284L22.0749 55.7473L22.0274 55.89L22.0036 56.0327L21.9086 56.3181L21.8848 56.437L21.861 56.5559L21.8135 56.6986L21.7185 57.1029L21.6234 57.3883L21.5996 57.531L21.5759 57.6737L21.5521 57.7689L21.5284 57.9116L21.5046 58.0543L21.4571 58.197L21.3858 58.3872L21.3383 58.5775L21.2907 58.7202L21.267 58.8629L21.1244 59.2672L21.1006 59.4337L21.1244 59.5288L21.2432 59.505L21.4808 59.4099L21.5996 59.3385L21.7185 59.2672L21.8135 59.1958L21.9323 59.1007L22.0274 59.0294L22.1224 58.9342L22.2175 58.8629L22.3125 58.7677L22.4313 58.6488L22.5264 58.5537L22.6214 58.4586L22.6927 58.3634L22.764 58.2445L22.859 58.1494L22.9541 58.0067L23.0967 57.8402L23.1917 57.7213L23.3343 57.4835L23.4056 57.3883L23.4768 57.2694L23.5481 57.1505L23.5957 57.0078L23.7858 56.6511L23.857 56.5084L23.9283 56.3894L24.0234 56.2943L24.1184 56.223H24.261L24.4036 56.3181L24.4749 56.4132V56.5559L24.4036 56.6986L24.3323 56.8889L24.261 57.0554L24.1897 57.1743L24.1184 57.2932L24.0471 57.4359L23.9759 57.6024L23.8808 57.7689L23.7858 57.9116L23.6907 58.0543L23.5957 58.197L23.5006 58.3159L23.4293 58.411L23.3343 58.5537L23.2868 58.625L23.0729 58.9104L22.9303 59.0531L22.7402 59.2434L22.6214 59.3385L22.4313 59.505L22.3363 59.6001L22.2412 59.6953L22.1462 59.7904L22.0274 59.8618L21.9323 59.9331L21.8135 60.0045L21.7185 60.0758L21.5996 60.1472L21.362 60.2661L21.1244 60.4088L21.0056 60.4801L20.8868 60.5515L20.8155 60.6942L20.7442 60.8844L20.7204 61.0271L20.6729 61.146L20.6492 61.2887L20.6016 61.4314L20.5779 61.5028L20.5304 61.6455L20.4828 61.7882L20.4115 61.9784L20.3403 62.2163L20.2452 62.4541L20.1739 62.6444L20.1264 62.7871L20.0789 62.906L20.0076 63.0487L19.9125 63.1914L19.8175 63.3579L19.7224 63.4768L19.6512 63.5719L19.5561 63.667L19.4611 63.7384L19.366 63.8335L19.2234 63.9286L19.1046 64L18.9383 64.0713L18.7007 64.1427L18.5106 64.1665L18.368 64.1903H18.2254L18.0829 64.1665L17.7027 63.9762ZM17.8215 62.6682L17.8452 62.8584L17.9165 62.9773L18.0591 63.0725L18.2254 63.12L18.368 63.0962L18.4868 63.0487L18.6056 62.9773L18.7482 62.8584L18.867 62.7395L18.9621 62.6206L19.0333 62.5255L19.1046 62.3828L19.2472 62.0498L19.2947 61.9071L19.5086 61.265L19.5323 61.0747L19.4373 61.0033L19.2947 61.0747L19.1522 61.146L18.7957 61.3839L18.7007 61.4552L18.5819 61.5503L18.4868 61.6455L18.2017 61.9309L18.1066 62.026L18.0116 62.1449L17.9403 62.2401L17.869 62.359L17.7977 62.5017L17.8215 62.6682Z" fill="#16151C"/>
<path d="M27.6352 56.2705V56.437L27.5877 56.5797L27.4689 56.8175L27.3263 57.0554L27.2551 57.1981L27.1838 57.317L27.0887 57.4597L27.0412 57.5548L26.9699 57.6975L26.8986 57.8164L26.8273 57.9116L26.7323 58.0305L26.661 58.1256L26.5184 58.3634L26.2333 58.6726L26.0432 58.8629L25.9481 58.958L25.8531 59.0531L25.758 59.1483L25.4254 59.4574L25.3303 59.5288L25.1878 59.6001L25.0452 59.6477L24.9264 59.6715L24.6412 59.7428H24.3798L24.2135 59.7191L24.0947 59.6715L23.9521 59.6239L23.8333 59.5526L23.7383 59.4574L23.667 59.3623L23.5957 59.2434L23.5244 59.1007L23.5007 58.9818L23.4769 58.8391L23.4531 58.6964V58.5537L23.4769 58.2683L23.5007 58.1256L23.5482 57.9829L23.6195 57.6975L23.667 57.5786L23.6907 57.4359L23.7383 57.2932L23.7858 57.1743L23.9284 56.77L23.9521 56.6511L23.9759 56.5084L24.0234 56.3657L24.0472 56.223L24.0709 56.104L24.166 55.8187L24.2135 55.6284L24.261 55.4381L24.3561 55.1527L24.3798 55.01L24.4036 54.9149L24.4274 54.7722L24.4987 54.6295L24.5462 54.5106L24.6412 54.1063L24.6888 53.9636L24.7363 53.7733L24.8076 53.5831L24.8551 53.4404L24.9264 53.3214L25.0214 53.2501L25.164 53.1787L25.2828 53.155L25.4254 53.1787L25.7105 53.2025L25.9481 53.2977L26.0194 53.3928V53.5355L25.9957 53.6782L25.9481 53.8684L25.9006 54.0587L25.8056 54.3441L25.7818 54.463L25.758 54.6057L25.7105 54.7484L25.663 54.9387L25.5204 55.3906L25.4967 55.5333L25.4254 55.7235L25.3303 56.0327L25.3066 56.1754L25.2828 56.2943L25.259 56.437L25.164 56.6986L25.1402 56.8413L25.0452 57.2218L24.9501 57.5072L24.9264 57.6499L24.8788 57.8402L24.8313 58.078L24.8076 58.3396L24.8313 58.5775L24.9501 58.744L25.1165 58.7915L25.259 58.7677L25.4016 58.6964L25.4967 58.625L25.6155 58.5299L26.1145 58.0305L26.2095 57.9353L26.2808 57.8402L26.3759 57.7213L26.5184 57.4835L26.6135 57.3883L26.6848 57.2932L26.756 57.1743L26.8511 57.0316L26.9224 56.8889L27.0412 56.6273L27.2313 56.2705L27.3026 56.1516L27.4451 56.0803L27.6352 56.104V56.2705ZM25.1878 51.5853L25.259 51.4664L25.3779 51.3712L25.4967 51.2999L25.6392 51.2523L25.7818 51.2285H25.9244L26.067 51.2523L26.1858 51.3237L26.2808 51.4188L26.3759 51.5139L26.4471 51.6328L26.4947 51.7755L26.5184 51.9182V52.0609L26.4709 52.2036L26.3996 52.3226L26.3046 52.4415L26.2095 52.5366L26.0907 52.6317L25.9481 52.7031L25.8056 52.7269L25.663 52.7031L25.5204 52.6793L25.2828 52.5366L25.1878 52.4415L25.1165 52.3226L25.0927 52.1799L25.0689 52.0372L25.0927 51.8945L25.1165 51.7518L25.1878 51.5853Z" fill="#16151C"/>
<path d="M30.4629 54.1776L30.3441 54.249L30.2491 54.3203L30.154 54.3917L30.0352 54.4868L29.9402 54.5819L29.7025 54.7484L29.6075 54.8198L29.5124 54.9149L29.4174 55.01L29.2273 55.2241L29.1323 55.3192L28.9422 55.5333L28.7996 55.7711L28.7045 55.89L28.5144 56.2467L28.3481 56.7462L28.3006 56.9365L28.2293 57.1743L28.158 57.3645L28.063 57.7689L27.9917 57.9591L27.9204 58.197L27.8729 58.3872L27.8253 58.5299L27.7778 58.7202L27.7541 58.8867L27.7065 59.0294L27.6828 59.1721L27.659 59.291L27.6115 59.4099L27.5164 59.4812L27.3739 59.5288L27.2313 59.5526L27.0412 59.5764L26.8036 59.5526L26.6135 59.5288L26.4947 59.4574L26.3996 59.3148L26.3759 59.1483L26.3996 59.0056L26.4471 58.8153L26.4947 58.625L26.5184 58.4823L26.566 58.3397L26.5897 58.197L26.6372 58.078L26.6848 57.9353L26.7085 57.7926L26.7323 57.6737L26.756 57.531L26.8036 57.3883L26.8511 57.2694L26.9224 56.984L26.9461 56.8651L26.9699 56.7224L27.0174 56.5797L27.0412 56.437L27.0887 56.2943L27.1362 56.104L27.2075 55.9138L27.2788 55.6284L27.3026 55.5095L27.3263 55.3668L27.3739 55.2241L27.3976 55.0814L27.4451 54.9625L27.4689 54.8198L27.5164 54.6771L27.564 54.4868L27.6115 54.2965L27.6352 54.1538L27.7303 53.8684L27.7541 53.7495L27.8016 53.6068L27.8729 53.3214L27.9679 53.1787L28.158 53.0836L28.3956 53.0598L28.6332 53.0836L28.8709 53.155L29.0134 53.2977L29.0372 53.4879L29.0134 53.6306L28.9897 53.7258L28.9422 53.8684L28.9184 54.0111L28.8709 54.1301L28.8471 54.2728L28.7996 54.4155L28.7758 54.5582L28.7521 54.6533L28.7758 54.6771L28.8471 54.6057L28.9422 54.5106L29.0134 54.4155L29.2035 54.2014L29.2986 54.1063L29.4887 53.9398L29.5837 53.8447L29.7738 53.6544L30.0827 53.4166L30.2015 53.3452L30.3204 53.2739L30.4392 53.2025L30.558 53.155L30.7005 53.1074L30.8906 53.0598L31.0807 53.036H31.4372L31.6748 53.0598L31.8411 53.0836L31.9837 53.155L32.1263 53.2263L32.2213 53.3214L32.2926 53.4166L32.3639 53.5355L32.4352 53.6544L32.4827 53.7971L32.5302 53.9874L32.554 54.1776V54.463L32.5302 54.6057V54.7484L32.5065 54.8673L32.4827 55.01L32.4589 55.1527L32.4352 55.2479L32.3877 55.3906L32.3401 55.5808L32.2688 55.8187L32.1976 56.0089L32.15 56.1516L32.1025 56.3419L32.0312 56.6035L31.9599 56.8413L31.8886 57.0554L31.8649 57.1981L31.8411 57.2932L31.8174 57.4359L31.7698 57.5786L31.7461 57.6975L31.651 58.1018L31.6273 58.2445V58.5299L31.6986 58.6488L31.7936 58.7202L31.9362 58.744L32.0787 58.6964L32.2213 58.625L32.3401 58.5537L32.4352 58.4823L32.554 58.3872L32.7441 58.197L32.8154 58.1018L32.9104 57.9829L32.9817 57.8878L33.0768 57.7689L33.148 57.6737L33.2431 57.531L33.3857 57.2932L33.4807 57.1505L33.5282 57.0792L33.6233 56.9365L33.6946 56.7938L33.8134 56.5559L33.8847 56.4132L33.9322 56.2943L33.9797 56.1516L34.051 56.0327L34.1936 55.9376L34.3837 55.9851L34.5025 56.1278V56.2705L34.455 56.4132L34.3837 56.5321L34.3124 56.6748L34.2411 56.7938L34.1698 56.9127L34.0985 57.0316L34.0035 57.1743L33.9559 57.2694L33.8134 57.5548L33.7896 57.6499L33.7183 57.7926L33.5758 58.0305L33.4807 58.1732L33.4094 58.2445L33.3144 58.3634L33.2193 58.5061L33.1243 58.6013L32.9579 58.7915L32.8629 58.8867L32.649 59.0769L32.554 59.1721L32.4352 59.2672L32.3164 59.3385L32.0787 59.4574L31.9599 59.505L31.8174 59.5526L31.6748 59.5764L31.556 59.6001L31.4134 59.6239H31.2708L31.1283 59.6001L31.0095 59.5764L30.8669 59.5288L30.7481 59.4812L30.6293 59.4099L30.5342 59.3385L30.4392 59.2434L30.3679 59.1007L30.3204 58.9818L30.2966 58.8391L30.2728 58.7202V58.3872L30.2966 58.197L30.3204 58.0543L30.3679 57.864L30.5104 57.3645L30.558 57.1029L30.6293 56.8413L30.7005 56.6035L30.7718 56.4132L30.8194 56.2705L30.8906 56.0803L30.9619 55.8424L31.0095 55.6046L31.0807 55.4143L31.152 55.1289L31.1758 54.9862L31.2471 54.7009L31.2708 54.5582L31.2471 54.4155L31.152 54.2728L31.0095 54.1301L30.8669 54.0825L30.7243 54.0587L30.5817 54.0825L30.4629 54.1776Z" fill="#16151C"/>
<path d="M41.441 56.6748L41.4173 56.7462L41.346 56.8889L41.2747 56.984L41.2034 57.1029L41.1321 57.2456L41.0609 57.3645L40.9183 57.6024L40.847 57.6975L40.7757 57.8164L40.7044 57.9353L40.6331 58.0543L40.5381 58.1494L40.443 58.2683L40.348 58.3634L40.1817 58.5775L40.0866 58.6726L39.9916 58.7677L39.5638 59.1245L39.445 59.1958L39.3025 59.2672L39.1361 59.3385L38.946 59.4099L38.8035 59.4574L38.6609 59.4812H38.5183L38.3282 59.4574L38.1381 59.4099L37.9955 59.3623L37.9005 59.291L37.8055 59.1958L37.7104 59.0531L37.6154 58.8867L37.5678 58.744L37.5203 58.5537L37.4965 58.3634V58.2207L37.5203 58.0305L37.5441 57.8402L37.4965 57.8164L37.4253 57.9116L37.2827 58.1494L37.1401 58.3634L37.0451 58.4586L36.9738 58.5537L36.8787 58.6488L36.8074 58.744L36.7124 58.8391L36.6174 58.9342L36.5223 59.0294L36.4273 59.1007L36.3084 59.1721L36.1421 59.2672L35.9045 59.3623L35.6669 59.4337L35.4768 59.4812L35.1916 59.505L35.0491 59.4812L34.859 59.4574L34.6689 59.4099L34.5263 59.3623L34.4075 59.3148L34.3124 59.2434L34.0986 59.0531L34.0273 58.958L33.956 58.8391L33.861 58.6726L33.7659 58.4348L33.7184 58.2445L33.6946 58.1018L33.6709 57.9116L33.6471 57.6737V57.4835L33.6709 57.3408L33.6946 57.1505L33.7184 56.9602L33.7659 56.8175L33.8134 56.6273L33.861 56.437L33.9085 56.2943L33.9798 56.1754L34.0273 56.0327L34.3837 55.2954L34.455 55.1765L34.5263 55.0814L34.5976 54.9625L34.7401 54.7484L34.8352 54.6533L35.0253 54.4155L35.0966 54.3441L35.1916 54.2252L35.4055 54.0349L35.5481 53.8922L35.7144 53.7733L35.9282 53.6068L36.0471 53.5355L36.1421 53.4641L36.2847 53.3928L36.4748 53.3214L36.6411 53.2263L36.7837 53.155L36.9738 53.0836L37.1639 53.036L37.3064 52.9885L37.6866 52.9647L37.8292 52.9409H38.0193L38.3282 52.9647L38.6846 52.9885L39.0173 53.0598L39.1599 53.0836L39.3262 53.1312L39.944 53.4166L40.0391 53.5117L40.1341 53.5831L40.2292 53.6782L40.3242 53.7733L40.348 53.9398L40.2767 54.1538L40.1104 54.3441L39.944 54.4392L39.8252 54.463L39.7064 54.4155L39.5876 54.3203L39.445 54.249L39.3262 54.1776L39.2312 54.1301L39.1124 54.0587L38.9698 53.9874L38.851 53.9636L38.5896 53.8922L38.447 53.8447L38.3045 53.8209H37.9955L37.9005 53.8447L37.7579 53.8684L37.5678 53.916L37.1876 54.0587L37.0451 54.1301L36.9025 54.2252L36.8074 54.2965L36.6886 54.3679L36.5936 54.4392L36.356 54.7009L36.2372 54.796L36.1659 54.8673L36.0708 54.9862L35.9758 55.0814L35.9045 55.1765L35.7144 55.3906L35.6431 55.4857L35.5718 55.6046L35.3817 55.9614L35.3104 56.0803L35.2154 56.3657L35.1441 56.5084L35.0728 56.6273L34.9778 57.0316L34.9302 57.1743L34.8827 57.5786V58.0067L34.9065 58.1494L34.954 58.2921L35.0253 58.411L35.0966 58.5299L35.1916 58.625L35.3342 58.6964L35.5243 58.7202L35.7144 58.6964L35.857 58.6488L36.0946 58.5299L36.3084 58.3397L36.4035 58.2445L36.4985 58.1494L36.5936 58.0543L36.6649 57.9591L36.7599 57.864L36.8312 57.7689L36.9975 57.531L37.0688 57.4359L37.3064 57.0792L37.4015 56.9127L37.4965 56.7224L37.5678 56.6273L37.7579 56.223L37.8292 56.0803L37.853 55.9851L37.9243 55.8424L37.9718 55.7235L38.0193 55.5808L38.0906 55.4143L38.1856 55.1052L38.2569 54.9387L38.3045 54.796L38.3995 54.6533L38.5421 54.5819L38.6846 54.5582L38.8272 54.5819L38.9698 54.6057L39.2074 54.7246L39.3262 54.796L39.3975 54.8911L39.4213 55.0338L39.3737 55.1527L39.35 55.2954L39.3025 55.4381L39.2312 55.7235L39.1836 55.8662L39.1599 55.9851L39.0648 56.2705L39.0411 56.4132L39.0173 56.5084L38.9698 56.6986L38.946 56.8413L38.8747 57.1029L38.8272 57.2932L38.8035 57.4359L38.7797 57.6024L38.7322 57.8402L38.6846 58.1018L38.6609 58.3397L38.6846 58.5299L38.7559 58.6488L38.8985 58.7202L39.1361 58.744L39.3262 58.6726L39.4688 58.6013L39.6827 58.4586L39.7777 58.3634L39.9678 58.1732L40.1579 57.9591L40.3005 57.7451L40.3718 57.6262L40.4668 57.5072L40.4906 57.4121L40.7282 57.0554L40.7995 56.9365L40.8708 56.8175L41.1797 56.1992L41.3222 56.1278L41.5123 56.1516L41.6311 56.2943L41.6549 56.437L41.5836 56.5797L41.441 56.6748Z" fill="#16151C"/>
<path d="M45.7895 52.2274L45.7182 52.3701L45.5994 52.608L45.5281 52.7744L45.4331 52.9409L45.3618 53.036L45.2905 53.155L45.2192 53.2501L45.1479 53.3928L45.0767 53.4879L45.0054 53.6068L44.9103 53.7495L44.7678 53.8922L44.6252 54.0349L44.5539 54.1063L44.4588 54.2252L44.2687 54.4155L44.1737 54.5106L44.0074 54.7009L43.9123 54.796L43.7935 54.9149L43.6272 55.0338L43.3896 55.2241L43.2707 55.2954L42.9381 55.5095L42.843 55.557L42.7242 55.6284L42.5579 55.7711L42.4628 55.9138L42.3915 56.0327L42.3678 56.1992L42.3203 56.4846V56.5797L42.2965 56.7224L42.2727 56.8651L42.249 57.0078V57.317L42.2252 57.5072V57.8164L42.249 57.9829L42.2727 58.078L42.2965 58.2207L42.3678 58.3634L42.4391 58.4823L42.5341 58.5775L42.6529 58.6488L42.7717 58.6964L42.9143 58.7202H43.1757L43.2945 58.6964L43.4371 58.6488L43.6272 58.5775L43.7935 58.4823L43.9123 58.3872L44.0549 58.2683L44.1975 58.1256L44.3876 57.9591L44.5064 57.864L44.6014 57.7451L44.6727 57.6737L44.7678 57.5548L44.839 57.4597L44.9341 57.317L45.0054 57.2456L45.1004 57.1029L45.2192 56.8651L45.2905 56.7462L45.3856 56.6035L45.4569 56.4608L45.5281 56.3181L45.6707 56.1278L45.8133 56.0089L46.0034 56.0327L46.1222 56.1754V56.3181L46.0747 56.4608L46.0034 56.5797L45.9321 56.6986L45.8608 56.8413L45.7895 56.9602L45.742 57.0792L45.6707 57.1981L45.5994 57.2932L45.5281 57.4121L45.4331 57.5548L45.4093 57.6262L45.338 57.7689L45.243 57.8878L45.1004 58.1018L45.0054 58.2445L44.9341 58.3159L44.839 58.4586L44.744 58.5537L44.6252 58.6964L44.4826 58.8153L44.3876 58.9104L44.2925 58.9818L44.1975 59.0769L44.0549 59.1483L43.9361 59.2196L43.7935 59.291L43.6747 59.3623L43.5559 59.4099L43.4133 59.4812L43.2232 59.5526L42.9143 59.6239L42.7242 59.6477L42.5579 59.6239H42.4628L42.3203 59.6001L42.1777 59.5764L42.0589 59.5288L41.9163 59.4812L41.7975 59.4099L41.6787 59.3385L41.5836 59.2434L41.4886 59.1483L41.3935 59.0531L41.3223 58.9342L41.251 58.7915L41.2034 58.6726L41.1797 58.5299L41.1322 58.3872L41.1084 58.2445L41.0846 58.1018V58.0067L41.0609 57.8402L41.0371 57.6975V57.5548L41.0609 57.4121L41.0846 57.2694V57.1743L41.1084 56.984L41.1559 56.6511L41.1797 56.4608V56.3181L41.2034 56.1754L41.2272 56.0327L41.3223 55.5333L41.3698 55.343L41.4173 55.0576L41.4411 54.9862L41.4886 54.796L41.5124 54.7009L41.5836 54.463L41.6312 54.2728L41.6549 54.1301L41.7024 53.9398L41.7737 53.7257L41.7975 53.6306L41.8688 53.4166L41.9401 53.2263L41.9876 53.1312L42.0589 52.9409L42.1302 52.7506L42.2015 52.608L42.344 52.2036L42.3678 52.1085L42.4628 51.8945L42.5579 51.6566L42.6292 51.4664L42.7005 51.3237L42.748 51.2285L42.8193 51.0858L42.9143 50.8242L42.9856 50.6815L43.0569 50.5388L43.1519 50.3961L43.2707 50.2059L43.4608 49.9205L43.5559 49.8016L43.746 49.6113L43.8173 49.5399L43.9123 49.4448L44.0074 49.3735L44.245 49.207L44.4113 49.1119L44.5777 49.0405L44.7202 48.9929L44.8628 48.9692H45.1479L45.2905 48.9929L45.3856 49.0167L45.5281 49.0643L45.6469 49.1356L45.8608 49.3259L45.9321 49.4448L46.0271 49.5875L46.0984 49.7778L46.1697 49.9205L46.241 50.1107L46.2648 50.301V50.5864L46.241 50.9907L46.1697 51.2761L46.1222 51.395L46.0984 51.5377L45.9796 51.8945L45.9083 52.0134L45.7895 52.2274ZM43.2707 52.6555L43.0569 53.2977L43.0331 53.4404L42.9856 53.5831L42.9143 53.7733L42.8193 54.0825L42.7717 54.2252L42.748 54.3203L42.7005 54.463L42.6529 54.6057L42.6292 54.7484L42.6529 54.8436L42.748 54.7722L42.8905 54.6533L43.5084 54.0349L43.5796 53.9398L43.6509 53.8209L43.746 53.6782L43.8173 53.6068L43.9123 53.4641L44.0074 53.3214L44.1024 53.1787L44.1975 53.0123L44.2687 52.8933L44.34 52.7982L44.4113 52.7031L44.5301 52.4653L44.6014 52.3226L44.6489 52.2274L44.7202 52.0847L44.7915 51.942L44.8153 51.7993L44.8628 51.6566L44.9103 51.4902L44.9816 51.3237L45.0291 51.1572L45.1004 50.9907L45.1242 50.848L45.1479 50.7053V50.4199L45.1242 50.301L45.0767 50.1821L44.9816 50.1107L44.8628 50.087L44.7202 50.1107L44.5777 50.2059L44.4826 50.301L44.4113 50.3961L44.34 50.4913L44.2687 50.6102L44.1262 50.848L44.0549 50.9907L43.9836 51.1334L43.9123 51.2523L43.841 51.395L43.7697 51.5139L43.6985 51.6566L43.6509 51.7755L43.5796 51.942L43.4846 52.1799L43.4133 52.3226L43.2707 52.6555ZM52.3478 59.6715L52.0152 59.6001L51.8726 59.5526L51.6825 59.4812L51.5162 59.4099L51.3974 59.3385L51.3023 59.2434L51.2073 59.1721L50.8984 58.8867L50.7083 58.6964L50.6132 58.6013L50.5419 58.4823L50.3994 58.2445L50.2805 58.0067L50.233 57.864L50.1855 57.7451L50.1142 57.6024L50.0429 57.4359L49.9954 57.2456L49.9716 57.1029L49.9479 56.9602L49.9241 56.8175L49.9004 56.6273L49.8766 56.437L49.8528 56.2943V55.8662L49.8291 55.7235V55.5808L49.8528 55.4381L49.8766 55.2479L49.9004 55.0576L49.9241 54.9149L49.9479 54.796L49.9716 54.6533L49.9954 54.5106L50.0192 54.3679L50.0429 54.1776L50.0905 53.9874L50.1617 53.702L50.2093 53.5593L50.2805 53.369L50.3756 53.0598L50.4231 52.9409L50.4706 52.7982L50.5419 52.6793L50.6132 52.5366L50.7083 52.3701L50.7795 52.1799L50.8508 52.0372L51.0409 51.7042L51.0885 51.5853V51.4664L51.0409 51.3712L50.9696 51.2523L50.8984 51.1096L50.8271 50.9431L50.732 50.7767L50.6132 50.6577L50.5419 50.4675L50.4706 50.301L50.4231 50.1583L50.3756 49.968L50.3043 49.7778L50.233 49.4924L50.2093 49.3497L50.2805 49.1832L50.4469 49.0881H50.6845L50.8746 49.1832L50.9696 49.3497L50.9934 49.4924L51.0172 49.6351L51.0647 49.7778L51.1122 49.9205L51.1597 50.0394L51.2073 50.1821L51.2786 50.3248L51.4211 50.5864L51.4924 50.7291L51.5637 50.8242H51.635L51.8251 50.634L51.9201 50.5388L52.2053 50.2534L52.3478 50.1345L52.4429 50.0394L52.5617 49.968L52.7043 49.8729L52.7756 49.8016L52.8944 49.7064L53.0369 49.6351L53.5359 49.3497L53.7736 49.2308L53.8924 49.1832L54.1775 49.1119L54.3201 49.0643L54.4627 49.0405L54.8904 48.9692L55.1755 48.9454H55.3181L55.4607 48.9692H55.6032L55.7696 48.9929H55.8646L56.031 49.0167L56.1498 49.0405L56.2923 49.1119L56.4112 49.1594L56.5537 49.2308L56.6725 49.3021L56.7913 49.3735L56.8864 49.4448L56.9814 49.5399L57.1003 49.6589L57.1715 49.754L57.2428 49.8729L57.3141 49.9918L57.3854 50.1345L57.4329 50.2534L57.4567 50.3961L57.4804 50.5388L57.5042 50.8242V51.1096L57.4804 51.2285L57.4567 51.3712L57.4092 51.5139L57.3616 51.6329L57.2904 51.7755L57.2191 51.8945L57.1478 52.0134L57.0765 52.1085L56.9814 52.2274L56.8389 52.4415L56.7438 52.5366L56.6488 52.6317L56.4349 52.822L56.3399 52.8933L56.2211 52.9647L56.126 53.036L56.0072 53.1074L55.8409 53.1787L55.6508 53.2501L55.5082 53.3214L55.3656 53.369L55.2231 53.3928L55.1042 53.4166L54.7478 53.4404L54.5577 53.4641H54.1775L53.8924 53.4404L53.7973 53.4166L53.6548 53.3928L53.2983 53.2977L53.0132 53.2025L52.8231 53.1312L52.7043 53.0598L52.5855 52.9885L52.4667 52.9171L52.3478 52.8458L52.229 52.7744L52.1102 52.7031L52.0152 52.6317L51.9201 52.5604L51.8488 52.5842L51.7776 52.6793L51.6112 53.1074L51.5162 53.3452L51.4449 53.5355L51.3974 53.6782L51.3736 53.7971L51.3261 53.9398L51.3023 54.1301L51.2786 54.3203L51.2548 54.6057L51.231 54.7484L51.2073 54.9387L51.1835 55.1765L51.1597 55.3668V55.6997L51.1835 55.89V56.0327L51.2073 56.223L51.2548 56.4608L51.2786 56.6511L51.3023 56.7938L51.3498 56.984L51.4449 57.2932L51.5399 57.4835L51.635 57.7213L51.73 57.8878L51.8013 58.0067L51.8726 58.1018L51.9677 58.1969L52.1102 58.3159L52.2528 58.411L52.3954 58.4823L52.5142 58.5299L52.6568 58.5775L52.8468 58.625L53.0845 58.6488H53.4171L53.5597 58.625L53.8924 58.5537L54.0825 58.5299L54.225 58.4823L54.4151 58.411L54.6528 58.3159L54.9617 58.1732L55.0805 58.1018L55.1755 58.0305L55.4844 57.7926L55.7933 57.5072L55.9122 57.3645L56.031 57.2219L56.2211 56.9365L56.3161 56.7938L56.4112 56.6748L56.4824 56.5797L56.5537 56.4608L56.6488 56.2943L56.7438 56.1516L56.8626 56.0803L57.0527 56.1516L57.1715 56.2943L57.1953 56.4608L57.124 56.6035L57.0527 56.7224L56.9814 56.8651L56.7913 57.1981L56.7201 57.3408L56.4112 57.7689L56.3161 57.8878L56.2211 58.0067L56.0785 58.1494L55.9597 58.2921L55.7458 58.4823L55.6508 58.5775L55.5557 58.6726L55.4131 58.7677L55.3419 58.8391L55.1993 58.9342L54.9854 59.0769L54.8666 59.1483L54.7241 59.2196L54.6052 59.291L54.3439 59.3861L54.2013 59.4337L54.0825 59.4812L53.9399 59.505L53.7973 59.5526L53.6785 59.5764L53.5359 59.6001L53.1082 59.6715H52.8468L52.7043 59.6477H52.5617L52.3478 59.6715ZM54.629 49.9918L54.4864 50.0156L54.3439 50.0632L54.1538 50.1345L53.9637 50.2059L53.8449 50.2772L53.726 50.3486L53.6072 50.4199L53.3696 50.5626L53.2746 50.634L53.1795 50.7291L53.0845 50.8242L53.0132 50.8956L52.9181 50.9907L52.7518 51.1334L52.6568 51.2285L52.5617 51.3237L52.4904 51.4426L52.4191 51.6091L52.4429 51.7993L52.5617 51.942L52.7993 52.0847L52.8944 52.1561L53.0132 52.2274L53.1082 52.2988L53.2508 52.3463L53.3696 52.3701L53.6548 52.4415L53.7973 52.4653L54.2013 52.489H54.4864L54.629 52.4653L54.7716 52.4415L54.8904 52.4177L55.033 52.3701L55.2231 52.2988L55.3894 52.2036L55.5082 52.1323L55.7221 51.942L55.8171 51.8469L55.9122 51.728L55.9834 51.6329L56.2211 51.1572L56.2448 51.0145L56.2686 50.8718V50.7529L56.2448 50.6102L56.1735 50.4675L56.0785 50.3248L55.9597 50.1821L55.8646 50.087L55.7458 50.0156L55.6032 49.968L55.4844 49.9443L55.3419 49.9205L55.1993 49.8967H55.0567L54.629 49.9918Z" fill="#16151C"/>
<path d="M64.2526 56.6748L64.2288 56.7462L64.1575 56.8889L64.0862 56.984L64.0149 57.1029L63.9437 57.2456L63.8724 57.3645L63.7298 57.6024L63.6585 57.6975L63.5872 57.8164L63.5159 57.9353L63.4447 58.0543L63.3496 58.1494L63.2546 58.2683L63.1595 58.3634L62.9932 58.5775L62.8981 58.6726L62.8031 58.7677L62.3754 59.1245L62.2566 59.1958L62.114 59.2672L61.9477 59.3385L61.7576 59.4099L61.615 59.4574L61.4724 59.4812H61.3298L61.1397 59.4574L60.9496 59.4099L60.8071 59.3623L60.712 59.291L60.617 59.1958L60.5219 59.0531L60.4269 58.8867L60.3794 58.744L60.3318 58.5537L60.3081 58.3634V58.2207L60.3318 58.0305L60.3556 57.8402L60.3081 57.8164L60.2368 57.9116L60.0942 58.1494L59.9516 58.3634L59.8566 58.4586L59.7853 58.5537L59.6903 58.6488L59.619 58.744L59.5239 58.8391L59.4289 58.9342L59.3338 59.0294L59.2388 59.1007L59.12 59.1721L58.9536 59.2672L58.716 59.3623L58.4784 59.4337L58.2883 59.4812L58.0032 59.505L57.8606 59.4812L57.6705 59.4574L57.4804 59.4099L57.3378 59.3623L57.219 59.3148L57.124 59.2434L56.9101 59.0531L56.8388 58.958L56.7675 58.8391L56.6725 58.6726L56.5774 58.4348L56.5299 58.2445L56.5061 58.1018L56.4824 57.9116L56.4586 57.6737V57.4835L56.4824 57.3408L56.5061 57.1505L56.5299 56.9602L56.5774 56.8175L56.625 56.6273L56.6725 56.437L56.72 56.2943L56.7913 56.1754L56.8388 56.0327L57.1952 55.2954L57.2665 55.1765L57.3378 55.0814L57.4091 54.9625L57.5517 54.7484L57.6467 54.6533L57.8368 54.4155L57.9081 54.3441L58.0032 54.2252L58.217 54.0349L58.3596 53.8922L58.5259 53.7733L58.7398 53.6068L58.8586 53.5355L58.9536 53.4641L59.0962 53.3928L59.2863 53.3214L59.4526 53.2263L59.5952 53.155L59.7853 53.0836L59.9754 53.036L60.118 52.9885L60.4982 52.9647L60.6407 52.9409H60.8308L61.1397 52.9647L61.4962 52.9885L61.8288 53.0598L61.9714 53.0836L62.1377 53.1312L62.7556 53.4166L62.8506 53.5117L62.9457 53.5831L63.0407 53.6782L63.1358 53.7733L63.1595 53.9398L63.0882 54.1538L62.9219 54.3441L62.7556 54.4392L62.6368 54.463L62.5179 54.4155L62.3991 54.3203L62.2566 54.249L62.1377 54.1776L62.0427 54.1301L61.9239 54.0587L61.7813 53.9874L61.6625 53.9636L61.4011 53.8922L61.2585 53.8447L61.116 53.8209H60.8071L60.712 53.8447L60.5694 53.8684L60.3794 53.916L59.9992 54.0587L59.8566 54.1301L59.714 54.2252L59.619 54.2965L59.5002 54.3679L59.4051 54.4392L59.1675 54.7009L59.0487 54.796L58.9774 54.8673L58.8823 54.9862L58.7873 55.0814L58.716 55.1765L58.5259 55.3906L58.4546 55.4857L58.3833 55.6046L58.1932 55.9614L58.122 56.0803L58.0269 56.3657L57.9556 56.5084L57.8843 56.6273L57.7893 57.0316L57.7418 57.1743L57.6942 57.5786V58.0067L57.718 58.1494L57.7655 58.2921L57.8368 58.411L57.9081 58.5299L58.0032 58.625L58.1457 58.6964L58.3358 58.7202L58.5259 58.6964L58.6685 58.6488L58.9061 58.5299L59.12 58.3397L59.215 58.2445L59.3101 58.1494L59.4051 58.0543L59.4764 57.9591L59.5714 57.864L59.6427 57.7689L59.8091 57.531L59.8804 57.4359L60.118 57.0792L60.213 56.9127L60.3081 56.7224L60.3794 56.6273L60.5694 56.223L60.6407 56.0803L60.6645 55.9851L60.7358 55.8424L60.7833 55.7235L60.8308 55.5808L60.9021 55.4143L60.9972 55.1052L61.0685 54.9387L61.116 54.796L61.211 54.6533L61.3536 54.5819L61.4962 54.5582L61.6387 54.5819L61.7813 54.6057L62.0189 54.7246L62.1377 54.796L62.209 54.8911L62.2328 55.0338L62.1853 55.1527L62.1615 55.2954L62.114 55.4381L62.0427 55.7235L61.9952 55.8662L61.9714 55.9851L61.8764 56.2705L61.8526 56.4132L61.8288 56.5084L61.7813 56.6986L61.7576 56.8413L61.6863 57.1029L61.6387 57.2932L61.615 57.4359L61.5912 57.6024L61.5437 57.8402L61.4962 58.1018L61.4724 58.3397L61.4962 58.5299L61.5675 58.6488L61.71 58.7202L61.9477 58.744L62.1377 58.6726L62.2803 58.6013L62.4942 58.4586L62.5892 58.3634L62.7793 58.1732L62.9694 57.9591L63.112 57.7451L63.1833 57.6262L63.2783 57.5072L63.3021 57.4121L63.5397 57.0554L63.611 56.9365L63.6823 56.8175L63.9912 56.1992L64.1338 56.1278L64.3239 56.1516L64.4427 56.2943L64.4664 56.437L64.3951 56.5797L64.2526 56.6748Z" fill="#16151C"/>
<path d="M67.2704 54.1776L67.1516 54.249L67.0565 54.3203L66.9615 54.3917L66.8427 54.4868L66.7476 54.5819L66.51 54.7484L66.4149 54.8198L66.3199 54.9149L66.2249 55.01L66.0348 55.2241L65.9397 55.3192L65.7496 55.5333L65.607 55.7711L65.512 55.89L65.3219 56.2467L65.1556 56.7462L65.108 56.9364L65.0368 57.1743L64.9655 57.3645L64.8704 57.7689L64.7991 57.9591L64.7278 58.1969L64.6803 58.3872L64.6328 58.5299L64.5853 58.7202L64.5615 58.8867L64.514 59.0294L64.4902 59.1721L64.4665 59.291L64.3952 59.4574L64.3001 59.5288L64.1576 59.5764L64.015 59.6001L63.8249 59.6239L63.5873 59.6001L63.3972 59.5764L63.2784 59.505L63.1833 59.3623L63.1595 59.1958L63.1833 59.0531L63.2308 58.8629L63.2784 58.6726L63.3021 58.5299L63.3496 58.3872L63.3734 58.2445L63.4209 58.1256L63.4685 57.9829L63.4922 57.8402L63.516 57.7213L63.5397 57.5786L63.5873 57.4359L63.6348 57.317L63.7061 57.0316L63.7298 56.9127L63.7536 56.77L63.8011 56.6273L63.8249 56.4846L63.8724 56.3419L63.9199 56.1516L63.9912 55.9613L64.0625 55.676L64.0863 55.557L64.11 55.4143L64.1576 55.2716L64.1813 55.1289L64.2288 55.01L64.2526 54.8673L64.3001 54.7246L64.3476 54.5344L64.3952 54.3441L64.4189 54.2014L64.514 53.916L64.5377 53.7971L64.5853 53.6544L64.6566 53.369L64.7516 53.2263L64.9417 53.1312L65.1793 53.1074L65.4169 53.1312L65.6546 53.2025L65.7971 53.3452L65.8209 53.5355L65.7971 53.6782L65.7734 53.7733L65.7259 53.916L65.7021 54.0587L65.6546 54.1776L65.6308 54.3203L65.5833 54.463L65.5595 54.6057L65.5358 54.7009L65.5595 54.7246L65.6308 54.6533L65.7259 54.5582L65.7971 54.463L65.9872 54.249L66.0823 54.1538L66.2724 53.9874L66.3674 53.8922L66.5575 53.702L66.8664 53.4641L66.9852 53.3928L67.104 53.3214L67.2229 53.2501L67.3417 53.2025L67.4842 53.155L67.6743 53.1074L67.8644 53.0836H68.2209L68.4585 53.1074L68.6248 53.1312L68.7674 53.2025L68.91 53.2739L69.005 53.369L69.0763 53.4641L69.1476 53.5831L69.2189 53.702L69.2664 53.8447L69.3139 54.0349L69.3377 54.2252V54.5106L69.3139 54.6533V54.796L69.2902 54.9149L69.2664 55.0576L69.2426 55.2003L69.2189 55.2954L69.1713 55.4381L69.1238 55.6284L69.0525 55.8662L68.9812 56.0565L68.9337 56.1992L68.8862 56.3894L68.8149 56.6511L68.7436 56.8889L68.6723 57.1029L68.6486 57.2456L68.6248 57.3408L68.6011 57.4835L68.5535 57.6262L68.5298 57.7451L68.4347 58.1494L68.411 58.2921V58.5775L68.4823 58.6964L68.5773 58.7677L68.7199 58.7915L68.8624 58.744L69.005 58.6726L69.1238 58.6013L69.2189 58.5299L69.3377 58.4348L69.5278 58.2445L69.5991 58.1494L69.6941 58.0305L69.7654 57.9353L69.8604 57.8164L69.9317 57.7213L70.0268 57.5786L70.1693 57.3408L70.2644 57.1981L70.3119 57.1267L70.407 56.984L70.4783 56.8413L70.5971 56.6035L70.6684 56.4608L70.7159 56.3419L70.7634 56.1992L70.8347 56.0803L70.9773 55.9851L71.1674 56.0327L71.2862 56.1754V56.3181L71.2386 56.4608L71.1674 56.5797L71.0961 56.7224L71.0248 56.8413L70.9535 56.9602L70.8822 57.0791L70.7872 57.2218L70.7396 57.317L70.5971 57.6024L70.5733 57.6975L70.502 57.8402L70.3595 58.078L70.2644 58.2207L70.1931 58.2921L70.0981 58.411L70.003 58.5537L69.908 58.6488L69.7416 58.8391L69.6466 58.9342L69.4327 59.1245L69.3377 59.2196L69.2189 59.3147L69.1001 59.3861L68.8624 59.505L68.7436 59.5526L68.6011 59.6001L68.4585 59.6239L68.3397 59.6477L68.1971 59.6715H68.0545L67.912 59.6477L67.7931 59.6239L67.6506 59.5764L67.5318 59.5288L67.413 59.4574L67.3179 59.3861L67.2229 59.291L67.1516 59.1483L67.104 59.0294L67.0803 58.8867L67.0565 58.7677V58.4348L67.0803 58.2445L67.104 58.1018L67.1516 57.9116L67.2941 57.4121L67.3417 57.1505L67.413 56.8889L67.4842 56.6511L67.5555 56.4608L67.6031 56.3181L67.6743 56.1278L67.7456 55.89L67.7931 55.6522L67.8644 55.4619L67.9357 55.1765L67.9595 55.0338L68.0308 54.7484L68.0545 54.6057L68.0308 54.463L67.9357 54.3203L67.7931 54.1776L67.6506 54.1301L67.508 54.1063L67.3654 54.1301L67.2704 54.1776Z" fill="#16151C"/>
<path d="M78.2484 56.6748L78.2247 56.7462L78.1534 56.8889L78.0821 56.984L78.0108 57.1029L77.9395 57.2456L77.8682 57.3645L77.7257 57.6024L77.6544 57.6975L77.5831 57.8164L77.5118 57.9353L77.4405 58.0543L77.3455 58.1494L77.2504 58.2683L77.1554 58.3634L76.989 58.5775L76.894 58.6726L76.7989 58.7677L76.3712 59.1245L76.2524 59.1958L76.1098 59.2672L75.9435 59.3385L75.7534 59.4099L75.6108 59.4574L75.4683 59.4812H75.3257L75.1356 59.4574L74.9455 59.4099L74.8029 59.3623L74.7079 59.291L74.6128 59.1958L74.5178 59.0531L74.4227 58.8867L74.3752 58.744L74.3277 58.5537L74.3039 58.3634V58.2207L74.3277 58.0305L74.3514 57.8402L74.3039 57.8164L74.2326 57.9116L74.0901 58.1494L73.9475 58.3634L73.8524 58.4586L73.7812 58.5537L73.6861 58.6488L73.6148 58.744L73.5198 58.8391L73.4247 58.9342L73.3297 59.0294L73.2346 59.1007L73.1158 59.1721L72.9495 59.2672L72.7119 59.3623L72.4742 59.4337L72.2841 59.4812L71.999 59.505L71.8564 59.4812L71.6663 59.4574L71.4762 59.4099L71.3337 59.3623L71.2149 59.3148L71.1198 59.2434L70.9059 59.0531L70.8347 58.958L70.7634 58.8391L70.6683 58.6726L70.5733 58.4348L70.5258 58.2445L70.502 58.1018L70.4782 57.9116L70.4545 57.6737V57.4835L70.4782 57.3408L70.502 57.1505L70.5258 56.9602L70.5733 56.8175L70.6208 56.6273L70.6683 56.437L70.7159 56.2943L70.7871 56.1754L70.8347 56.0327L71.1911 55.2954L71.2624 55.1765L71.3337 55.0814L71.4049 54.9625L71.5475 54.7484L71.6426 54.6533L71.8327 54.4155L71.904 54.3441L71.999 54.2252L72.2129 54.0349L72.3554 53.8922L72.5218 53.7733L72.7356 53.6068L72.8544 53.5355L72.9495 53.4641L73.0921 53.3928L73.2822 53.3214L73.4485 53.2263L73.5911 53.155L73.7812 53.0836L73.9712 53.036L74.1138 52.9885L74.494 52.9647L74.6366 52.9409H74.8267L75.1356 52.9647L75.492 52.9885L75.8247 53.0598L75.9673 53.0836L76.1336 53.1312L76.7514 53.4166L76.8465 53.5117L76.9415 53.5831L77.0366 53.6782L77.1316 53.7733L77.1554 53.9398L77.0841 54.1538L76.9177 54.3441L76.7514 54.4392L76.6326 54.463L76.5138 54.4155L76.395 54.3203L76.2524 54.249L76.1336 54.1776L76.0385 54.1301L75.9197 54.0587L75.7772 53.9874L75.6584 53.9636L75.397 53.8922L75.2544 53.8447L75.1118 53.8209H74.8029L74.7079 53.8447L74.5653 53.8684L74.3752 53.916L73.995 54.0587L73.8524 54.1301L73.7099 54.2252L73.6148 54.2965L73.496 54.3679L73.401 54.4392L73.1871 54.7009L73.0683 54.796L72.997 54.8673L72.902 54.9862L72.8069 55.0814L72.7356 55.1765L72.5455 55.3906L72.4742 55.4857L72.403 55.6046L72.2129 55.9614L72.1416 56.0803L72.0465 56.3657L71.9752 56.5084L71.904 56.6273L71.8089 57.0316L71.7614 57.1743L71.7139 57.5786V58.0067L71.7376 58.1494L71.7851 58.2921L71.8564 58.411L71.9277 58.5299L72.0228 58.625L72.1653 58.6964L72.3554 58.7202L72.5455 58.6964L72.6881 58.6488L72.9257 58.5299L73.1396 58.3397L73.2346 58.2445L73.3297 58.1494L73.4247 58.0543L73.496 57.9591L73.5911 57.864L73.6623 57.7689L73.8287 57.531L73.9 57.4359L74.1376 57.0792L74.2326 56.9127L74.3277 56.7224L74.399 56.6273L74.5891 56.223L74.6604 56.0803L74.6841 55.9851L74.7554 55.8424L74.8029 55.7235L74.8504 55.5808L74.9217 55.4143L75.0168 55.1052L75.0881 54.9387L75.1356 54.796L75.2306 54.6533L75.3732 54.5819L75.5158 54.5582L75.6584 54.5819L75.8009 54.6057L76.0385 54.7246L76.1574 54.796L76.2286 54.8911L76.2524 55.0338L76.2049 55.1527L76.1811 55.2954L76.1336 55.4381L76.0623 55.7235L76.0148 55.8662L75.991 55.9851L75.896 56.2705L75.8722 56.4132L75.8485 56.5084L75.8009 56.6986L75.7772 56.8413L75.7059 57.1029L75.6584 57.2932L75.6346 57.4359L75.6108 57.6024L75.5633 57.8402L75.5158 58.1018L75.492 58.3397L75.5158 58.5299L75.5871 58.6488L75.7296 58.7202L75.9673 58.744L76.1574 58.6726L76.2999 58.6013L76.5138 58.4586L76.6088 58.3634L76.7989 58.1732L76.989 57.9591L77.1316 57.7451L77.2029 57.6262L77.2979 57.5072L77.3217 57.4121L77.5593 57.0554L77.6306 56.9365L77.7019 56.8175L78.0108 56.1992L78.1534 56.1278L78.3435 56.1516L78.4623 56.2943L78.486 56.437L78.4148 56.5797L78.2484 56.6748Z" fill="#16151C"/>
<path d="M78.7236 54.6533L78.8187 54.5582L79.0088 54.3441L79.3177 54.0587L79.4127 53.9874L79.5315 53.8922L79.6266 53.8209L79.7454 53.7495L79.888 53.6782L80.1256 53.5593L80.2682 53.4879L80.5533 53.3928L80.6721 53.3452L80.9573 53.2739L81.0998 53.2501L81.2424 53.2263L81.5276 53.2025H81.884L82.0741 53.2263L82.2404 53.2501L82.3355 53.2739L82.4305 53.2263L82.5018 53.1312L82.5256 52.9885L82.6206 52.7031L82.6444 52.5842L82.6919 52.4415L82.7869 52.1799L82.8345 52.0372L82.8582 51.942L82.9295 51.7993L82.9533 51.6804L83.0483 51.395L83.0958 51.2761L83.2384 50.8242L83.3097 50.634L83.4048 50.3486L83.4523 50.2297L83.5236 50.087L83.5473 49.9918L83.6661 49.7064L83.7137 49.5875L83.8562 49.3259L83.9275 49.207L84.0701 49.1119L84.2364 49.0405H84.379L84.5216 49.0643L84.6641 49.0881L84.7592 49.1119L84.9018 49.1594L84.9968 49.2308L85.0443 49.3497L85.0206 49.4686L84.9968 49.6113L84.9255 49.754L84.8542 49.8729L84.8067 49.9918L84.7592 50.1345L84.6879 50.3248L84.6166 50.515L84.5453 50.6815L84.3552 51.1572L84.284 51.3475L84.2127 51.5377L84.1651 51.6804L84.1176 51.7993L84.0226 52.1085L83.9513 52.2988L83.9038 52.4415L83.7374 52.9409L83.7137 53.0836L83.6661 53.2025L83.6186 53.3452L83.5711 53.4641L83.5236 53.6068L83.476 53.7258L83.4523 53.8685L83.4285 53.9874L83.4048 54.1301L83.3572 54.2728L83.3097 54.3917L83.2622 54.5344L83.2384 54.6771L83.2147 54.796L83.1909 54.9387L83.1434 55.0814L83.0958 55.2716L83.0246 55.4619L83.0008 55.557L82.9533 55.7235L82.9295 55.8662L82.9057 56.0565L82.882 56.2467L82.7869 56.6511L82.7632 56.7938L82.7394 56.9365L82.7157 57.1267L82.6919 57.317L82.6681 57.4597L82.6444 57.6024L82.6206 57.7451V57.8878L82.6444 58.0305L82.6681 58.2207L82.7157 58.411L82.7632 58.5537L82.8582 58.6488L82.977 58.6964L83.1196 58.7202L83.2384 58.6964L83.381 58.6488L83.4998 58.5775L83.7849 58.3397L83.88 58.2445L84.0226 58.0305L84.1651 57.7926L84.379 57.4835L84.4503 57.3645L84.5216 57.2456L84.5929 57.1029L84.7354 56.77L84.8067 56.6273L84.878 56.5321L84.9493 56.3894L85.0206 56.223L85.1869 56.104L85.377 56.1278L85.4721 56.2705V56.4608L85.4008 56.6511L85.3295 56.7938L85.2344 56.9602L85.1394 57.1505L85.0681 57.2456L84.878 57.6024L84.7829 57.7451L84.5929 58.0543L84.4503 58.2921L84.379 58.3872L84.284 58.5061L84.2127 58.6013L84.1176 58.6964L84.0226 58.7915L83.9275 58.9104L83.8562 58.9818L83.7612 59.1007L83.6661 59.1958L83.5473 59.2672L83.4523 59.3385L83.3335 59.4099L82.9295 59.5526L82.7869 59.5764H82.6681L82.5256 59.6002L82.383 59.5764L82.2404 59.5526L82.1216 59.4812L82.0028 59.4099L81.9077 59.3385L81.8127 59.2434L81.6701 59.0294L81.5988 58.9104L81.5513 58.7677L81.5276 58.6488L81.48 58.2445V57.9591L81.4563 57.9353L81.385 58.0305L81.3137 58.1494L81.1711 58.3872L81.0998 58.4823L81.0048 58.5775L80.8385 58.7915L80.7434 58.8867L80.4345 59.1721L80.2919 59.2672L80.1493 59.3861L80.0068 59.4812L79.888 59.5526L79.7454 59.6002L79.389 59.6715L79.2464 59.6953L79.1038 59.7191L78.985 59.6953L78.8424 59.6715L78.6999 59.6477L78.5811 59.6239L78.4385 59.5526L78.3434 59.4812L78.2246 59.3861L78.0821 59.2434L77.9395 59.1245L77.8682 59.0056L77.7969 58.8867L77.7494 58.744L77.6543 58.5061L77.6068 58.3634L77.583 58.2207L77.5593 58.0305V57.8402L77.5355 57.6975V57.5548L77.5593 57.4121L77.583 57.2219L77.6068 57.0316L77.6306 56.8889L77.6781 56.7462L77.7019 56.6511L77.7494 56.5084L77.7969 56.3657L77.9395 56.0089L77.987 55.8662L78.1058 55.6284L78.2009 55.4619L78.2721 55.2954L78.3672 55.1527L78.4385 55.0814L78.5335 54.9625L78.6761 54.7484L78.7236 54.6533ZM81.8365 54.1301L81.5513 54.1538H81.4087L81.2662 54.1776L81.1236 54.2014L81.0285 54.2252L80.886 54.2965L80.7434 54.3441L80.6008 54.4155L80.482 54.4868L80.387 54.5582L80.2919 54.6533L80.1969 54.7484L79.983 54.9387L79.888 55.0338L79.7929 55.1289L79.6028 55.3668L79.5315 55.4619L79.4602 55.6046L79.2702 55.9376L79.1989 56.0565L79.1513 56.1754L79.1038 56.3181L79.0563 56.437L78.985 56.5797L78.89 56.9365L78.8424 57.0792L78.8187 57.2694L78.7949 57.4597L78.7712 57.6024L78.7949 57.7926L78.8187 58.0305L78.8424 58.2207L78.89 58.3634L78.9612 58.4586L79.0563 58.5537L79.1513 58.6488L79.2939 58.7202L79.484 58.744L79.6741 58.7202L79.8167 58.6488L79.9117 58.6013L80.0543 58.5299L80.1493 58.4586L80.3394 58.2683L80.4345 58.1494L80.5295 58.0543L80.6246 57.9591L80.6959 57.864L80.7672 57.7451L80.8622 57.6024L80.9573 57.4121L81.0523 57.2694L81.1236 57.1505L81.1949 57.0078L81.2424 56.8889L81.3137 56.7462L81.385 56.5559L81.4563 56.3894L81.5276 56.2467L81.5751 56.1278L81.7889 55.4857L81.8602 55.2954L81.979 54.8198L82.0266 54.6295L82.0741 54.4868L82.0978 54.3203L82.0503 54.1776L81.9553 54.1063H81.8365V54.1301Z" fill="#16151C"/>
<path d="M88.4661 56.2705V56.437L88.4185 56.5797L88.2997 56.8175L88.1571 57.0554L88.0859 57.1981L88.0146 57.317L87.9195 57.4597L87.872 57.5548L87.8007 57.6975L87.7294 57.8164L87.6581 57.9116L87.5631 58.0305L87.4918 58.1256L87.3492 58.3634L87.0641 58.6726L86.874 58.8629L86.779 58.958L86.6839 59.0531L86.5888 59.1483L86.2562 59.4099L86.1611 59.4812L86.0186 59.5526L85.876 59.6001L85.7572 59.6239L85.472 59.6953H85.2107L85.0443 59.6715L84.9255 59.6239L84.7829 59.5764L84.6641 59.505L84.5691 59.4099L84.4978 59.3147L84.4265 59.1958L84.3552 59.0531L84.3315 58.9342L84.3077 58.7915L84.2839 58.6488V58.5061L84.3077 58.2207L84.3315 58.078L84.379 57.9353L84.4503 57.6499L84.4978 57.531L84.5216 57.3883L84.5691 57.2456L84.6166 57.1267L84.7592 56.7224L84.7829 56.6035L84.8067 56.4608L84.8542 56.3181L84.878 56.1754L84.9017 56.0565L84.9968 55.7711L85.0443 55.5808L85.0918 55.3906L85.1869 55.1052L85.2107 54.9625L85.2344 54.8673L85.2582 54.7246L85.3295 54.5819L85.377 54.463L85.472 54.0587L85.5196 53.916L85.5671 53.7257L85.6384 53.5355L85.6859 53.3928L85.7572 53.2739L85.8522 53.2025L85.9948 53.1312L86.1136 53.1074L86.2562 53.1312L86.5413 53.155L86.779 53.2501L86.8502 53.3452V53.4879L86.8265 53.6306L86.779 53.8209L86.7314 54.0111L86.6364 54.2965L86.6126 54.4155L86.5888 54.5582L86.5413 54.7009L86.4938 54.8911L86.3512 55.343L86.3275 55.4857L86.2562 55.676L86.1611 55.9851L86.1374 56.1278L86.0186 56.3657L85.9948 56.5084L85.8998 56.77L85.876 56.9127L85.7809 57.2932L85.6859 57.5786L85.6621 57.7213L85.6146 57.9116L85.5671 58.1494L85.5433 58.411L85.5671 58.6488L85.6859 58.8153L85.8522 58.8629L85.9948 58.8391L86.1374 58.7677L86.2324 58.6964L86.3512 58.6013L86.8502 58.1018L86.9453 58.0067L87.0166 57.9116L87.1116 57.7926L87.2542 57.5548L87.3492 57.4597L87.4205 57.3645L87.4918 57.2456L87.5869 57.1029L87.6581 56.9602L87.777 56.6986L87.9671 56.3419L88.0383 56.223L88.1809 56.1516L88.371 56.1754L88.4661 56.2705ZM86.0186 51.5853L86.0898 51.4664L86.2087 51.3712L86.3275 51.2999L86.47 51.2523L86.6126 51.2285H86.7552L86.8978 51.2523L87.0166 51.3237L87.1116 51.4188L87.2067 51.5139L87.2779 51.6328L87.3255 51.7755L87.3492 51.9182V52.0609L87.3017 52.2036L87.2304 52.3226L87.1354 52.4415L87.0403 52.5366L86.9215 52.6317L86.779 52.7031L86.6364 52.7269L86.4938 52.7031L86.3512 52.6793L86.1136 52.5366L86.0186 52.4415L85.9473 52.3226L85.9235 52.1799L85.8998 52.0372L85.9235 51.8945L85.9473 51.7518L86.0186 51.5853Z" fill="#16151C"/>
<path d="M95.4046 56.6748L95.3808 56.7462L95.3095 56.8889L95.2382 56.984L95.167 57.1029L95.0957 57.2456L95.0244 57.3645L94.8818 57.6024L94.8105 57.6975L94.7393 57.8164L94.668 57.9353L94.5967 58.0543L94.5016 58.1494L94.4066 58.2683L94.3115 58.3634L94.1452 58.5775L94.0501 58.6726L93.9551 58.7677L93.5274 59.1245L93.4086 59.1958L93.266 59.2672L93.0997 59.3385L92.9096 59.4099L92.767 59.4575L92.6244 59.4812H92.4819L92.2918 59.4575L92.1017 59.4099L91.9591 59.3623L91.864 59.291L91.769 59.1958L91.6739 59.0531L91.5789 58.8867L91.5314 58.744L91.4838 58.5537L91.4601 58.3634V58.2207L91.4838 58.0305L91.5076 57.8402L91.4601 57.8164L91.3888 57.9116L91.2462 58.1494L91.1037 58.3634L91.0086 58.4586L90.9373 58.5537L90.8423 58.6488L90.771 58.744L90.6759 58.8391L90.5809 58.9342L90.4858 59.0294L90.3908 59.1007L90.272 59.1721L90.0581 59.4575L89.8205 59.5526L89.5829 59.6239L89.3928 59.6715L89.1076 59.6953L88.9651 59.6715L88.775 59.6477L88.5849 59.6001L88.4423 59.5526L88.3235 59.505L88.2284 59.4337L88.0146 59.2434L87.9433 59.1483L87.872 59.0294L87.777 58.8629L87.6819 58.625L87.6344 58.4348L87.6106 58.2921L87.5869 58.1018L87.5631 57.864V57.6737L87.5869 57.531L87.6106 57.3408L87.6344 57.1505L87.6819 57.0078L87.7294 56.8175L87.777 56.6273L87.8245 56.4846L87.8958 56.3657L87.9433 56.223L88.2997 55.4857L88.371 55.3668L88.4423 55.2716L88.5136 55.1527L88.6562 54.9387L88.7512 54.8436L88.9413 54.6057L89.0126 54.5344L89.1076 54.4155L89.3215 54.2252L89.4641 54.0825L89.6304 53.9636L89.8443 53.7971L89.9631 53.7258L90.0581 53.6544L90.2007 53.5831L90.3908 53.5117L90.5571 53.4166L90.6997 53.3452L90.8898 53.2739L91.0799 53.2263L91.2225 53.1787L91.6027 53.155L91.7452 53.1312H91.9353L92.2442 53.155L92.6007 53.1787L92.9333 53.2501L93.0759 53.2739L93.2422 53.3214L93.8601 53.6068L93.9551 53.702L94.0501 53.7733L94.1452 53.8684L94.2402 53.9636L94.264 54.1301L94.1927 54.3441L94.0264 54.5344L93.8601 54.6295L93.7412 54.6533L93.6224 54.6057L93.5036 54.5106L93.361 54.4392L93.2422 54.3679L93.1472 54.3203L93.0284 54.249L92.8858 54.1776L92.767 54.1538L92.5056 54.0825L92.363 54.0349L92.2205 54.0111H91.9116L91.8165 54.0349L91.6739 54.0587L91.4838 54.1063L91.1037 54.249L90.9611 54.3203L90.8185 54.4155L90.7235 54.4868L90.6046 54.5582L90.5096 54.6295L90.4146 54.7246L90.2957 54.8198L90.2245 54.8911L90.1294 55.01L90.0344 55.1052L89.9631 55.2003L89.773 55.4143L89.7017 55.5095L89.6304 55.6284L89.4403 55.9851L89.369 56.104L89.274 56.3894L89.2027 56.5321L89.1314 56.6511L89.0364 57.0554L88.9888 57.1981L88.9413 57.6024V58.0305L88.9651 58.1732L89.0126 58.3159L89.0839 58.4348L89.1552 58.5537L89.2502 58.6488L89.3928 58.7202L89.5829 58.744L89.773 58.7202L89.9156 58.6726L90.1532 58.5537L90.367 58.3634L90.4621 58.2683L90.5571 58.1732L90.6522 58.078L90.7235 57.9829L90.8185 57.8878L90.8898 57.7926L91.0561 57.5548L91.1274 57.4597L91.365 57.1029L91.4601 56.9365L91.5551 56.7462L91.6264 56.6511L91.8165 56.2467L91.8878 56.104L91.9116 56.0089L91.9829 55.8662L92.0304 55.7473L92.0779 55.6046L92.1492 55.4381L92.2442 55.1289L92.3155 54.9625L92.363 54.8198L92.4581 54.6771L92.6007 54.6057L92.7432 54.5819L92.8858 54.6057L93.0284 54.6295L93.266 54.7484L93.3848 54.8198L93.4561 54.9149L93.4799 55.0576L93.4323 55.1765L93.4086 55.3192L93.361 55.4619L93.2898 55.7473L93.2422 55.89L93.2185 56.0089L93.1234 56.2943L93.0997 56.437L93.0759 56.5321L93.0284 56.7224L93.0046 56.8651L92.9333 57.1267L92.8858 57.317L92.862 57.4597L92.8383 57.6262L92.7908 57.864L92.7432 58.1256L92.7195 58.3634L92.7432 58.5537L92.8145 58.6726L92.9571 58.744L93.1947 58.7677L93.3848 58.6964L93.5274 58.625L93.7412 58.4823L93.8363 58.3872L94.0264 58.197L94.2165 57.9829L94.3591 57.7689L94.4303 57.6499L94.5254 57.531L94.5492 57.4359L94.7868 57.0792L94.8581 56.9602L94.9293 56.8413L95.2382 56.223L95.3808 56.1516L95.5709 56.1754L95.6897 56.3181L95.7135 56.4608L95.6422 56.6035L95.4046 56.6748Z" fill="#16151C"/>
<path d="M98.4461 54.1776L98.3273 54.249L98.2323 54.3203L98.1372 54.3917L98.0184 54.4868L97.9234 54.5819L97.6857 54.7484L97.5907 54.8198L97.4956 54.9149L97.4006 55.01L97.2105 55.2241L97.1154 55.3192L96.9253 55.5333L96.7828 55.7711L96.6877 55.89L96.4976 56.2467L96.3313 56.7462L96.2838 56.9364L96.2125 57.1743L96.1412 57.3645L95.9986 57.7926L95.9273 57.9829L95.8561 58.2207L95.8085 58.411L95.761 58.5537L95.7135 58.744L95.6897 58.9104L95.6422 59.0531L95.6184 59.1958L95.5947 59.3147L95.5472 59.4337L95.4521 59.505L95.3095 59.5526L95.167 59.5764L94.9769 59.6001L94.7392 59.5764L94.5491 59.5526L94.4303 59.4812L94.3353 59.3385L94.3115 59.1721L94.3353 59.0294L94.3828 58.8391L94.4303 58.6488L94.4541 58.5061L94.5016 58.3634L94.5254 58.2207L94.5729 58.1018L94.6204 57.9591L94.6442 57.8164L94.668 57.6975L94.6917 57.5548L94.7392 57.4121L94.7868 57.2932L94.8581 57.0078L94.8818 56.8889L94.9056 56.7462L94.9531 56.6035L94.9769 56.4608L95.0244 56.3181L95.0719 56.1278L95.1432 55.9376L95.2145 55.6522L95.2382 55.5333L95.262 55.3906L95.3095 55.2479L95.3333 55.1052L95.3808 54.9862L95.4046 54.8435L95.4521 54.7009L95.4996 54.5106L95.5472 54.3203L95.5709 54.1776L95.666 53.8922L95.6897 53.7733L95.7372 53.6306L95.8085 53.3452L95.9036 53.2025L96.0937 53.1074L96.3313 53.0836L96.5689 53.1074L96.8065 53.1787L96.9491 53.3214L96.9729 53.5117L96.9491 53.6544L96.9253 53.7495L96.8778 53.8922L96.8541 54.0349L96.8065 54.1538L96.7828 54.2965L96.7353 54.4392L96.7115 54.5819L96.6877 54.6771L96.7115 54.7009L96.7828 54.6295L96.8778 54.5344L96.9491 54.4392L97.1392 54.2252L97.2343 54.1301L97.4244 53.9636L97.5194 53.8684L97.7095 53.6782L98.0184 53.4404L98.1372 53.369L98.256 53.2977L98.3748 53.2263L98.4936 53.1787L98.6362 53.1312L98.8263 53.0836L99.0164 53.0598H99.3728L99.6105 53.0836L99.7768 53.1074L99.9194 53.1787L100.062 53.2501L100.157 53.3452L100.228 53.4404L100.3 53.5593L100.371 53.6782L100.418 53.8209L100.466 54.0111L100.49 54.2014V54.4868L100.466 54.6295V54.7722L100.442 54.8911L100.418 55.0338L100.395 55.1765L100.371 55.2716L100.323 55.4143L100.276 55.6046L100.205 55.8424L100.133 56.0327L100.086 56.1754L100.038 56.3657L99.9669 56.6273L99.8956 56.8651L99.8243 57.0791L99.8006 57.2218L99.7768 57.317L99.753 57.4597L99.7055 57.6024L99.6817 57.7213L99.5867 58.1256L99.5629 58.2683V58.5537L99.6342 58.6726L99.7293 58.744L99.8718 58.7677L100.014 58.7202L100.157 58.6488L100.276 58.5775L100.371 58.5061L100.49 58.411L100.68 58.2207L100.751 58.1256L100.846 58.0067L100.917 57.9116L101.012 57.7926L101.084 57.6975L101.179 57.5548L101.321 57.317L101.416 57.1743L101.464 57.1029L101.559 56.9602L101.63 56.8175L101.749 56.5797L101.82 56.437L101.868 56.3181L101.915 56.1754L101.987 56.0565L102.129 55.9613L102.319 56.0089L102.438 56.1516V56.2943L102.391 56.437L102.319 56.5559L102.248 56.6986L102.177 56.8175L102.105 56.9364L102.034 57.0554L101.939 57.1981L101.892 57.2932L101.749 57.5786L101.725 57.6737L101.654 57.8164L101.511 58.0543L101.416 58.1969L101.345 58.2683L101.25 58.3872L101.155 58.5299L101.06 58.625L100.894 58.8153L100.799 58.9104L100.585 59.1007L100.49 59.1958L100.371 59.291L100.252 59.3623L100.014 59.4812L99.8956 59.5288L99.753 59.5764L99.6105 59.6001L99.4917 59.6239L99.3491 59.6477H99.2065L99.0639 59.6239L98.9451 59.6001L98.8025 59.5526L98.6837 59.505L98.5649 59.4337L98.4699 59.3623L98.3748 59.2672L98.3036 59.1245L98.256 59.0056L98.2323 58.8629L98.2085 58.744V58.411L98.2323 58.2207L98.256 58.078L98.3036 57.8878L98.4461 57.3883L98.4936 57.1267L98.5649 56.8651L98.6362 56.6273L98.7075 56.437L98.755 56.2943L98.8263 56.104L98.8976 55.8662L98.9451 55.6284L99.0164 55.4381L99.0877 55.1527L99.1115 55.01L99.1827 54.7246L99.2065 54.5819L99.1827 54.4392L99.0877 54.2965L98.9451 54.1538L98.8025 54.1063L98.66 54.0825L98.5174 54.1063L98.4461 54.1776ZM106.62 53.9398L106.525 53.8209L106.43 53.6544L106.359 53.4879L106.288 53.3452L106.24 53.2263L106.216 53.0836L106.193 52.8933L106.169 52.6317V52.3939L106.193 52.2036L106.216 52.0609L106.288 51.7755L106.311 51.6566L106.359 51.5139L106.406 51.395L106.478 51.2761L106.62 51.0383L106.739 50.8718L106.858 50.7291L107.143 50.4199L107.238 50.3248L107.666 49.968L107.761 49.8967L107.88 49.8253L108.022 49.754L108.189 49.6826L108.355 49.5875L108.497 49.5162L108.616 49.4686L108.759 49.421L109.282 49.2308L109.424 49.207L109.709 49.1594L109.971 49.0881L110.256 49.0643L110.422 49.0405H110.517L110.969 49.0167H111.111L111.206 49.0405H111.373L111.515 49.0167L111.919 49.0643L112.062 49.0881L112.228 49.1119L112.418 49.1594L112.608 49.2308L112.703 49.2545L112.988 49.3497L113.107 49.3972L113.464 49.5875L113.583 49.6589L113.82 49.8016L113.987 49.9205L114.129 50.0394L114.414 50.3486L114.509 50.4675L114.581 50.5864L114.723 50.9431L114.794 51.0858L114.818 51.181L114.866 51.3237L114.889 51.4664L114.913 51.6091V51.8945L114.889 52.0372L114.866 52.1799L114.842 52.3701L114.794 52.5604L114.747 52.7031L114.723 52.822L114.676 52.9647L114.628 53.0836L114.557 53.2025L114.486 53.3214L114.414 53.4404L114.343 53.5355L114.248 53.6306L114.153 53.7257L114.058 53.8209L113.963 53.916L113.868 54.0111L113.749 54.0825L113.654 54.1776L113.487 54.2728L113.321 54.3679L113.179 54.4392L112.988 54.5106L112.798 54.5819L112.656 54.6533L112.466 54.7009L112.276 54.7484L112.133 54.7722L111.99 54.8198L111.919 54.8673L111.99 54.9625L112.181 55.1765L112.252 55.2954L112.371 55.5808L112.442 55.7235L112.489 55.8186L112.537 55.9613L112.608 56.104L112.632 56.2467L112.703 56.5321L112.751 56.6748L112.775 56.8175L112.798 57.0078L112.822 57.1981L112.846 57.3408L112.87 57.4835L112.893 57.6024L112.917 57.7451L112.965 57.8878L112.988 58.0305L113.012 58.1494L113.036 58.2921L113.084 58.4348L113.131 58.5537L113.179 58.6964L113.25 58.8153L113.321 58.9104L113.392 59.0294L113.583 59.3861L113.773 59.6001L114.082 59.838L114.2 59.9093L114.319 59.9807L114.462 60.0282L114.604 60.052L114.699 60.0758L114.842 60.0996L114.913 60.1947L114.937 60.3374V60.4563L114.913 60.599L114.842 60.7179L114.747 60.8131L114.628 60.9082L114.438 60.9796L114.248 61.0033L114.105 60.9796L113.963 60.9558L113.844 60.932L113.701 60.9082L113.559 60.8369L113.416 60.7655L113.297 60.6942L113.202 60.6228L113.084 60.5277L113.012 60.4563L112.893 60.3612L112.798 60.2661L112.703 60.1234L112.656 60.052L112.561 59.9093L112.466 59.7904L112.394 59.6953L112.323 59.5764L112.252 59.4337L112.204 59.3147L112.086 59.0769L112.038 58.9342L112.014 58.7915L111.967 58.6726L111.943 58.5299L111.895 58.3872L111.872 58.2445L111.8 57.9591L111.777 57.8402L111.753 57.6975L111.705 57.5548L111.682 57.4121L111.658 57.2932L111.563 56.8889L111.539 56.7462L111.42 56.1992L111.373 56.0565L111.301 55.9376L111.23 55.7949L111.135 55.6522L111.088 55.5808L110.992 55.4381L110.897 55.343L110.684 55.1527L110.565 55.0814L110.422 55.01L110.28 54.9862L110.137 54.9625L110.018 54.9862L109.923 55.0576L109.852 55.1765L109.757 55.5095L109.733 55.6522L109.709 55.8186L109.686 55.9376L109.591 56.223L109.567 56.3419L109.519 56.4846L109.472 56.6748L109.424 56.8651L109.377 57.0078L109.258 57.3645L109.234 57.5072L109.139 57.7926L109.092 57.9116L109.044 58.0543L108.996 58.1732L108.949 58.3159L108.878 58.5061L108.783 58.744L108.711 58.9342L108.616 59.2196L108.545 59.3385L108.402 59.4337L108.189 59.5288H107.951L107.713 59.4574L107.523 59.3147L107.428 59.1245L107.452 58.958L107.523 58.8153L107.595 58.6964L107.69 58.4348L107.737 58.2921L107.856 58.0543L107.903 57.9116L107.951 57.7926L108.046 57.5072L108.07 57.3645L108.165 57.1029L108.189 56.9602L108.236 56.8175L108.26 56.6748L108.284 56.5797L108.307 56.437L108.355 56.2705L108.379 56.1992L108.426 56.0327L108.45 55.89L108.474 55.7949L108.497 55.6522L108.545 55.4619L108.64 55.1527L108.688 54.9625L108.735 54.8198L108.806 54.5344L108.854 54.3917L108.878 54.249L108.925 54.1063L108.949 53.9874L108.973 53.8447L109.02 53.702L109.092 53.4166L109.139 53.2739L109.163 53.1312L109.305 52.6793L109.353 52.5128L109.424 52.3701L109.519 52.2036L109.591 52.0372L109.662 51.8945L109.733 51.7042L109.828 51.5139L109.923 51.3474L110.018 51.2285L110.327 50.9194L110.517 50.7767L110.684 50.6815L110.826 50.6102L110.969 50.5864H111.111L111.254 50.6102L111.373 50.6577L111.491 50.7529L111.563 50.848L111.587 50.9669L111.515 51.0858L111.278 51.2285L111.183 51.3237L111.088 51.4188L110.992 51.5377L110.921 51.6566L110.85 51.7755L110.779 51.8707L110.707 51.9896L110.636 52.1323L110.589 52.2512L110.493 52.5366L110.422 52.6793L110.375 52.822L110.351 52.9409L110.256 53.2263L110.232 53.369L110.185 53.5117L110.161 53.6544L110.113 53.7971L110.09 53.9398V54.0587L110.137 54.1301L110.256 54.1538H110.398L110.541 54.1301L110.707 54.1063L111.111 54.0825L111.325 54.0587L111.491 54.0349L111.634 54.0111L111.753 53.9874L111.99 53.916L112.133 53.8684L112.276 53.7971L112.394 53.7257L112.632 53.5831L112.727 53.5117L112.941 53.3214L113.036 53.2263L113.131 53.1312L113.202 53.0123L113.274 52.8933L113.392 52.6555L113.487 52.3701L113.511 52.2274L113.535 52.0372L113.559 51.8469L113.535 51.7042L113.511 51.5615L113.487 51.4426L113.464 51.2999L113.416 51.1572L113.369 51.0383L113.226 50.8004L113.084 50.5864L112.988 50.4913L112.893 50.4199L112.775 50.3486L112.68 50.2772L112.561 50.2059L112.371 50.1107L112.181 50.0394L112.038 49.968L111.895 49.9443L111.777 49.9205L111.634 49.8967L111.491 49.8729L111.325 49.8491H111.23L110.921 49.8253L110.779 49.8016L110.09 49.8729L109.947 49.8967L109.781 49.9205L109.686 49.9443L109.543 50.0156L109.4 50.0632L108.996 50.2059L108.854 50.2772L108.735 50.3486L108.64 50.4199L108.521 50.4913L108.379 50.5864L108.284 50.6815L108.189 50.7529L108.094 50.848L107.975 50.9431L107.88 51.0383L107.808 51.1334L107.666 51.3712L107.595 51.4664L107.523 51.6091L107.476 51.728L107.428 51.8707L107.357 52.1561V52.275L107.333 52.4177V52.7031L107.357 52.8458L107.381 52.9647L107.452 53.1074L107.499 53.2263L107.571 53.369L107.642 53.4879L107.713 53.5831L107.785 53.702V53.8209L107.737 53.9398L107.642 54.0349L107.547 54.1301L107.404 54.2014L107.286 54.2252L107.143 54.2014L107 54.1063L106.81 53.9636L106.62 53.9398Z" fill="#16151C"/>
<path d="M119.618 55.9138L119.547 56.0089L119.357 56.223L119.143 56.4132L119.048 56.4846L118.905 56.5559L118.81 56.5797L118.668 56.6748L118.573 56.7224L118.43 56.7938L118.287 56.8413L118.145 56.8889L118.002 56.9127L117.86 56.9365L117.693 56.9602L117.503 56.984L117.361 57.0078H117.218L116.933 56.984L116.648 56.9602L116.505 56.9365L116.101 56.8413H116.006L115.935 56.9127L115.911 57.0078V57.1505L115.888 57.2932V57.5548L115.911 57.6975L115.935 57.8164L116.03 58.1018L116.173 58.3397L116.268 58.4348L116.363 58.5299L116.6 58.6726L116.743 58.7202L116.886 58.7677L116.981 58.7915L117.123 58.8153L117.266 58.8391H117.408L117.551 58.8153L117.955 58.744L118.097 58.7202L118.24 58.6726L118.359 58.625L118.62 58.5299L118.858 58.411L119.072 58.2445L119.167 58.1732L119.262 58.078L119.476 57.8878L119.666 57.6737L119.737 57.5786L119.832 57.4597L119.975 57.2456L120.046 57.1267L120.117 57.0078L120.188 56.8889L120.26 56.77L120.331 56.6748L120.402 56.5559L120.474 56.4132L120.545 56.2943L120.616 56.1754L120.711 56.104H120.854L120.996 56.1992L121.068 56.3419L121.044 56.4846L120.973 56.6273L120.901 56.7938L120.806 56.9602L120.735 57.1267L120.64 57.2932L120.545 57.4359L120.402 57.6737L120.355 57.7689L120.26 57.9116L120.117 58.1256L120.022 58.2207L119.927 58.3159L119.832 58.411L119.737 58.5299L119.689 58.6013L119.594 58.7202L119.499 58.8153L119.285 59.0056L119.143 59.1245L119 59.2434L118.763 59.3861L118.383 59.5526L118.264 59.6001L118.121 59.6477L117.931 59.6715L117.741 59.7191L117.432 59.7428L117.242 59.7666L117.076 59.7904H116.909L116.363 59.7191L116.244 59.6953L116.101 59.6477L115.959 59.5764L115.84 59.505L115.602 59.3623L115.484 59.291L115.389 59.1958L115.293 59.1007L115.222 59.0294L115.127 58.9104L115.032 58.8153L114.961 58.6964L114.89 58.6013L114.818 58.4586L114.771 58.3397L114.723 58.197L114.699 58.0543L114.676 57.9353L114.652 57.7926L114.604 57.3883V57.1029L114.628 56.9602V56.8175L114.723 56.4132L114.771 56.2943L114.794 56.1516L114.842 56.0089L114.866 55.8662L114.913 55.7235L114.985 55.557L115.056 55.3668L115.127 55.2241L115.222 55.0576L115.317 54.9149L115.389 54.7722L115.46 54.6771L115.555 54.5819L115.792 54.3441L116.03 54.1063L116.149 54.0111L116.291 53.916L116.434 53.8209L116.577 53.7258L116.719 53.6306L116.862 53.5593L117.004 53.4879L117.194 53.3928L117.503 53.2977L117.788 53.2263L117.979 53.2025H118.311L118.501 53.2263L118.739 53.2739L118.929 53.3214L119.072 53.369L119.214 53.4404L119.333 53.5117L119.428 53.5831L119.642 53.7733L119.737 53.8685L119.832 54.0111L119.903 54.2014L119.951 54.3441L119.975 54.4868L119.998 54.6295V54.8198L119.975 55.01L119.951 55.1527L119.903 55.343L119.832 55.5333L119.761 55.676L119.713 55.7473L119.642 55.89L119.618 55.9138ZM117.741 54.0825L117.527 54.1776L117.337 54.2728L117.218 54.3441L117.004 54.5344L116.862 54.6771L116.743 54.8198L116.648 54.9387L116.553 55.1052L116.458 55.2479L116.387 55.3906L116.291 55.557L116.22 55.7473L116.149 55.89L116.101 56.0089L116.078 56.104L116.149 56.1754L116.339 56.223L116.648 56.2467L116.79 56.2705H117.218L117.361 56.2467L117.503 56.223L117.646 56.1516L117.741 56.1278L117.884 56.0565L117.979 55.9851L118.074 55.89L118.169 55.7949L118.264 55.6997L118.359 55.5808L118.43 55.4857L118.501 55.3668L118.573 55.2241L118.668 54.9387L118.691 54.796L118.715 54.6533L118.691 54.5106L118.62 54.3679L118.525 54.2728L118.406 54.1776L118.264 54.1063L118.121 54.0825L117.979 54.0587L117.836 54.0825H117.741Z" fill="#16151C"/>
<path d="M122.398 59.6715L122.28 59.6477L122.137 59.6239L121.994 59.5764L121.804 59.505L121.638 59.4099L121.495 59.3385L121.353 59.2196L121.21 59.0769L121.115 58.9818L121.02 58.8867L120.925 58.7915L120.854 58.6726L120.783 58.5299L120.711 58.3397L120.64 58.1732L120.592 58.0305L120.545 57.8402L120.521 57.6499L120.497 57.5072L120.474 57.3645V57.0792L120.497 56.9602L120.521 56.8175L120.545 56.6748L120.569 56.4846L120.616 56.2943L120.664 56.1516L120.687 56.0089L120.783 55.6997L120.854 55.5333L120.925 55.3906L121.163 54.9149L121.234 54.796L121.377 54.5819L121.59 54.3441L121.638 54.2728L121.733 54.1538L121.828 54.0587L121.923 53.9636L122.018 53.8684L122.113 53.7971L122.232 53.702L122.327 53.6306L122.446 53.5593L122.565 53.4879L122.66 53.4166L122.779 53.3452L122.945 53.2739L123.254 53.1787L123.42 53.1312L123.563 53.1074L123.705 53.0836L123.848 53.0598H124.109L124.252 53.0836L124.442 53.1074L124.68 53.1787L124.87 53.2501L125.012 53.2977L125.107 53.369L125.202 53.4404L125.297 53.5355L125.392 53.6306L125.487 53.7258L125.559 53.8684L125.63 54.0349L125.678 54.2252L125.701 54.3679L125.678 54.5582L125.63 54.7484L125.582 54.8911L125.511 55.01L125.44 55.1289L125.345 55.2716L125.25 55.4143L125.155 55.5095L125.06 55.6046L124.941 55.676L124.751 55.6997H124.513L124.276 55.6284L124.133 55.5333V55.4143L124.204 55.2716L124.299 55.1052L124.394 54.9625L124.466 54.8198L124.489 54.7009L124.513 54.5582V54.463L124.489 54.3203L124.394 54.1776L124.252 54.0825L124.109 54.0349L123.967 54.0111L123.824 54.0349L123.634 54.0587L123.444 54.1301L123.301 54.2014L123.206 54.2728L123.087 54.3679L122.992 54.4392L122.874 54.5344L122.755 54.6771L122.66 54.7722L122.565 54.9149L122.422 55.0814L122.327 55.2479L122.256 55.3906L122.185 55.5095L122.113 55.6046L122.042 55.7235L121.994 55.8662L121.947 55.9851L121.899 56.1278L121.852 56.3181L121.804 56.5084L121.781 56.6511L121.757 56.8413L121.733 57.0316L121.709 57.1743V57.3645L121.733 57.6024L121.781 57.8164L121.828 57.9591L121.971 58.2683L122.066 58.3872L122.161 58.4823L122.256 58.5775L122.422 58.6488L122.612 58.7202L122.755 58.744L122.945 58.7677H123.278L123.634 58.744L123.777 58.7202L123.943 58.6726L124.085 58.6013L124.252 58.5061L124.418 58.4348L124.775 58.197L124.917 58.078L125.06 57.9591L125.274 57.7689L125.464 57.5548L125.559 57.4597L125.749 57.2456L125.891 57.0316L125.986 56.8889L126.034 56.7938L126.129 56.6273L126.224 56.4846L126.295 56.3419L126.39 56.1516L126.533 56.0565L126.723 56.0803L126.842 56.223V56.3894L126.794 56.5084L126.723 56.6273L126.652 56.77L126.58 56.9127L126.485 57.0792L126.367 57.2456L126.248 57.4359L126.01 57.7689L125.915 57.8878L125.939 58.0305L125.844 58.1256L125.559 58.4348L125.487 58.5299L125.392 58.625L125.297 58.7202L125.083 58.8629L124.988 58.9818L124.893 59.0531L124.751 59.1483L124.632 59.2196L124.513 59.291L124.394 59.3623L124.204 59.4337L124.014 59.505L123.848 59.5526L123.658 59.5764L123.468 59.6239L123.183 59.6715L122.779 59.7191L122.493 59.6953L122.398 59.6715Z" fill="#16151C"/>
<path d="M130.026 56.2705V56.437L129.978 56.5797L129.86 56.8175L129.717 57.0554L129.646 57.1981L129.574 57.317L129.479 57.4597L129.432 57.5548L129.361 57.6975L129.289 57.8164L129.218 57.9116L129.123 58.0305L129.052 58.1256L128.909 58.3634L128.624 58.6726L128.434 58.8629L128.339 58.958L128.244 59.0531L128.149 59.1483L127.816 59.4099L127.721 59.4812L127.578 59.5526L127.436 59.6001L127.317 59.6239L127.032 59.6953H126.77L126.604 59.6715L126.485 59.6239L126.343 59.5764L126.224 59.505L126.129 59.4099L126.058 59.3147L125.986 59.1958L125.915 59.0531L125.891 58.9342L125.868 58.7915L125.844 58.6488V58.5061L125.868 58.2207L125.891 58.078L125.939 57.9353L126.01 57.6499L126.058 57.531L126.081 57.3883L126.129 57.2456L126.176 57.1267L126.319 56.7224L126.343 56.6035L126.367 56.4608L126.414 56.3181L126.438 56.1754L126.462 56.0565L126.557 55.7711L126.604 55.5808L126.652 55.3906L126.747 55.1052L126.77 54.9625L126.794 54.8673L126.818 54.7246L126.889 54.5819L126.937 54.463L127.032 54.0587L127.079 53.916L127.127 53.7257L127.198 53.5355L127.246 53.3928L127.317 53.2739L127.412 53.2025L127.555 53.1312L127.673 53.1074L127.816 53.1312L128.101 53.155L128.339 53.2501L128.41 53.3452V53.4879L128.386 53.6306L128.339 53.8209L128.291 54.0111L128.196 54.2965L128.172 54.4155L128.149 54.5582L128.101 54.7009L128.054 54.8911L127.911 55.343L127.887 55.4857L127.816 55.676L127.721 55.9851L127.697 56.1278L127.602 56.3657L127.578 56.5084L127.483 56.77L127.46 56.9127L127.365 57.2932L127.269 57.5786L127.246 57.7213L127.198 57.9116L127.151 58.1494L127.127 58.411L127.151 58.6488L127.269 58.8153L127.436 58.8629L127.578 58.8391L127.721 58.7677L127.816 58.6964L127.935 58.6013L128.434 58.1018L128.529 58.0067L128.6 57.9116L128.695 57.7926L128.838 57.5548L128.933 57.4597L129.004 57.3645L129.075 57.2456L129.17 57.1029L129.242 56.9602L129.361 56.6986L129.551 56.3419L129.622 56.223L129.764 56.1516L129.955 56.1754L130.026 56.2705ZM127.578 51.5853L127.65 51.4664L127.768 51.3712L127.887 51.2999L128.03 51.2523L128.172 51.2285H128.315L128.458 51.2523L128.576 51.3237L128.671 51.4188L128.766 51.5139L128.838 51.6328L128.885 51.7755L128.909 51.9182V52.0609L128.862 52.2036L128.79 52.3226L128.695 52.4415L128.6 52.5366L128.481 52.6317L128.339 52.7031L128.196 52.7269L128.054 52.7031L127.911 52.6793L127.673 52.5366L127.578 52.4415L127.507 52.3226L127.483 52.1799L127.46 52.0372L127.483 51.8945L127.507 51.7518L127.578 51.5853Z" fill="#16151C"/>
<path d="M137.178 56.2467V56.437L137.131 56.5797L137.083 56.6748L137.012 56.7938L136.917 56.9364L136.869 57.0078L136.774 57.1267L136.703 57.2694L136.632 57.3883L136.489 57.6024L136.394 57.6975L136.299 57.7926L136.061 58.0305L135.943 58.1256L135.8 58.2207L135.658 58.3159L135.562 58.3872L135.444 58.4586L135.301 58.5061L135.135 58.5775L134.945 58.625L134.802 58.6726L134.66 58.6964H134.493L134.351 58.6726L134.208 58.6488L134.065 58.6013H133.947L133.828 58.625L133.733 58.6964L133.638 58.7915L133.543 58.8867L133.448 58.9818L133.353 59.0531L133.234 59.1483L133.091 59.2434L133.02 59.291L132.877 59.3623L132.759 59.4337L132.616 59.505L132.473 59.5526L132.378 59.5764L132.236 59.6239L131.951 59.6953H131.428L131.262 59.6715L131.119 59.6477L130.976 59.6239L130.858 59.5764L130.715 59.505L130.596 59.4337L130.454 59.3623L130.359 59.291L130.264 59.1958L130.168 59.1007L130.073 59.0531L130.002 59.0769L129.955 59.1721L129.907 59.291L129.836 59.5764L129.812 59.6953L129.788 59.838L129.741 59.9807L129.646 60.3374L129.622 60.4801L129.598 60.6228L129.574 60.7655L129.527 60.9082L129.408 61.4552L129.384 61.5979L129.361 61.7882L129.337 61.9784L129.289 62.1211L129.266 62.3114L129.242 62.5017L129.218 62.6444L129.194 62.7871L129.147 62.906L129.123 63.0487L129.099 63.1914L129.075 63.3816L129.052 63.5719L129.028 63.7146L128.98 63.8335L128.885 63.9049L128.79 63.9524L128.648 63.9762L128.481 64H128.315L128.22 63.9762L128.054 63.9524L127.911 63.8811L127.84 63.786L127.816 63.667L127.84 63.5243L127.864 63.3816L127.887 63.2627L128.006 62.7157L128.03 62.573L128.054 62.4303L128.101 62.2401L128.125 62.0498L128.149 61.9071L128.172 61.7168L128.196 61.5266L128.339 60.8369L128.363 60.6942L128.386 60.5752L128.41 60.4325L128.458 60.2899L128.553 59.9331L128.576 59.7904L128.6 59.6001L128.648 59.4099L128.695 59.2672L128.719 59.1245L128.743 59.0056L128.838 58.6013L128.885 58.4823L128.933 58.3396L129.004 58.078L129.052 57.9353L129.075 57.7451L129.123 57.5548L129.147 57.4121L129.242 57.1267L129.337 56.77L129.384 56.6273L129.456 56.3419L129.503 56.1516L129.551 55.9613L129.574 55.8186L129.622 55.676L129.669 55.557L129.717 55.4143L129.741 55.2954L129.788 55.1527L129.812 55.01L129.86 54.8911L129.907 54.7484L129.931 54.6057L129.955 54.4868L130.026 54.249L130.073 54.1063L130.121 53.9636L130.168 53.8447L130.192 53.702L130.311 53.3452L130.406 53.2501L130.596 53.1787L130.834 53.155L131.071 53.1787L131.309 53.2739L131.452 53.4404V53.6782L131.404 53.8684L131.38 53.9636L131.404 53.9874L131.475 53.916L131.618 53.7971L131.761 53.702L131.879 53.6068L132.022 53.5117L132.188 53.4166L132.331 53.3452L132.521 53.2739L132.735 53.2025L132.925 53.1312L133.067 53.1074L133.258 53.0836H133.448L133.59 53.1074L133.733 53.1312L133.852 53.1787L133.97 53.2025L134.089 53.2501L134.232 53.3214L134.351 53.3928L134.446 53.4641L134.541 53.5593L134.731 53.7495L134.826 53.8922L134.897 54.0111L134.945 54.1301L134.992 54.2728L135.016 54.4155L135.04 54.5344L135.111 54.8198V55.2241L135.135 55.3668L135.111 55.5095V55.6522L135.087 55.7949L135.063 55.9376L135.04 56.0803L135.016 56.1992L134.992 56.3419L134.921 56.6035L134.873 56.7462L134.85 56.8889L134.826 57.0078L134.778 57.1505L134.707 57.2932L134.541 57.6499L134.374 57.9829L134.398 58.0543L134.493 58.078L134.636 58.0543L134.778 58.0305H134.873L135.016 58.0067L135.159 57.9353L135.277 57.864L135.539 57.7213L135.753 57.531L135.848 57.4359L135.943 57.3408L136.014 57.2456L136.109 57.1267L136.18 57.0078L136.323 56.77L136.418 56.6273L136.489 56.5084L136.56 56.3657L136.679 56.1278L136.822 56.0565L137.012 56.0803L137.178 56.2467ZM133.519 56.8651L133.566 56.7462L133.661 56.4608L133.685 56.3419L133.709 56.1992L133.757 56.0565L133.78 55.9376L133.804 55.7949L133.875 55.2479L133.852 55.1052V54.9625L133.828 54.8198L133.804 54.7009L133.78 54.5582L133.709 54.4155L133.59 54.2728L133.448 54.1538L133.305 54.0825L133.163 54.0587L133.044 54.0349H132.901L132.759 54.0587L132.663 54.0825L132.521 54.1063L132.212 54.2252L132.117 54.249L131.832 54.3917L131.689 54.463L131.594 54.5582L131.475 54.6295L131.38 54.7246L131.166 54.9387L131.071 55.0576L131 55.2241L130.929 55.4619L130.858 55.6522L130.763 55.9613L130.715 56.1516L130.691 56.2943L130.644 56.4846L130.572 56.7224L130.525 56.9127L130.477 57.0554L130.454 57.317L130.382 57.5548L130.311 57.7926L130.264 57.9829L130.24 58.1256L130.264 58.2445L130.335 58.3396L130.43 58.4348L130.525 58.5299L130.62 58.6013L130.763 58.6726L130.953 58.744L131.143 58.7915L131.428 58.8153L131.57 58.7915L131.713 58.7677L131.856 58.744L131.974 58.7202L132.117 58.6964L132.236 58.625L132.473 58.4823L132.592 58.411L132.687 58.3159L132.759 58.2207L132.735 58.078L132.663 57.9353L132.616 57.7926L132.592 57.6737L132.616 57.531L132.687 57.4359L132.782 57.3408L132.972 57.2694L133.186 57.2218L133.329 57.1505L133.424 57.0078L133.519 56.8651Z" fill="#16151C"/>
<path d="M141.551 55.9138L141.479 56.0089L141.289 56.223L141.075 56.4132L140.98 56.4846L140.838 56.5559L140.743 56.5797L140.6 56.6748L140.505 56.7224L140.362 56.7938L140.22 56.8413L140.077 56.8889L139.935 56.9127L139.792 56.9364L139.626 56.9602L139.436 56.984L139.293 57.0078H139.151L138.865 56.984L138.58 56.9602L138.438 56.9364L138.058 56.8413H137.962L137.891 56.9127L137.867 57.0078V57.1505L137.844 57.2932V57.5548L137.867 57.6975L137.891 57.8164L137.986 58.1018L138.129 58.3396L138.224 58.4348L138.319 58.5299L138.557 58.6726L138.699 58.7202L138.842 58.7677L138.937 58.7915L139.079 58.8153L139.222 58.8391H139.364L139.507 58.8153L139.911 58.744L140.054 58.7202L140.196 58.6726L140.315 58.625L140.576 58.5299L140.814 58.411L141.028 58.2445L141.123 58.1732L141.218 58.078L141.432 57.8878L141.622 57.6737L141.693 57.5786L141.788 57.4597L141.931 57.2456L142.002 57.1267L142.073 57.0078L142.145 56.8889L142.216 56.77L142.287 56.6748L142.358 56.5559L142.43 56.4132L142.501 56.2943L142.572 56.1754L142.667 56.104H142.81L142.952 56.1992L143.024 56.3419L143 56.4846L142.929 56.6273L142.857 56.7938L142.762 56.9602L142.691 57.1267L142.596 57.2932L142.501 57.4359L142.358 57.6737L142.311 57.7689L142.216 57.9116L142.073 58.1256L141.978 58.2207L141.883 58.3159L141.788 58.411L141.693 58.5299L141.646 58.6013L141.551 58.7202L141.455 58.8153L141.242 59.0056L141.099 59.1245L140.956 59.2434L140.719 59.3861L140.339 59.5526L140.22 59.6001L140.077 59.6477L139.887 59.6715L139.697 59.7191L139.388 59.7428L139.198 59.7666L139.032 59.7904H138.889L138.343 59.7191L138.224 59.6953L138.081 59.6477L137.939 59.5764L137.82 59.505L137.582 59.3623L137.463 59.291L137.368 59.1958L137.273 59.1007L137.202 59.0294L137.107 58.9104L137.012 58.8153L136.941 58.6964L136.869 58.6013L136.798 58.4586L136.751 58.3396L136.703 58.1969L136.632 58.0305L136.608 57.9116L136.584 57.7689L136.537 57.3645V57.0791L136.561 56.9364V56.7938L136.656 56.3894L136.703 56.2705L136.727 56.1278L136.774 55.9851L136.798 55.8424L136.846 55.6997L136.917 55.5333L136.988 55.343L137.06 55.2003L137.155 55.0338L137.25 54.8911L137.321 54.7484L137.392 54.6533L137.487 54.5582L137.725 54.3203L137.962 54.0825L138.081 53.9874L138.224 53.8922L138.366 53.7971L138.509 53.702L138.652 53.6068L138.794 53.5355L138.937 53.4641L139.127 53.369L139.436 53.2739L139.721 53.2025L139.911 53.1787H140.244L140.434 53.2025L140.671 53.2501L140.861 53.2977L141.004 53.3452L141.147 53.4166L141.265 53.4879L141.36 53.5593L141.574 53.7495L141.669 53.8447L141.764 53.9874L141.836 54.1776L141.883 54.3203L141.907 54.463L141.931 54.6057V54.796L141.907 54.9862L141.883 55.1289L141.836 55.3192L141.764 55.5095L141.693 55.6522L141.646 55.7235L141.574 55.8662L141.551 55.9138ZM139.697 54.0825L139.483 54.1776L139.293 54.2728L139.174 54.3441L138.96 54.5344L138.818 54.6771L138.699 54.8198L138.604 54.9387L138.509 55.1052L138.414 55.2479L138.343 55.3906L138.248 55.557L138.176 55.7473L138.105 55.89L138.058 56.0089L138.034 56.104L138.105 56.1754L138.295 56.223L138.604 56.2467L138.747 56.2705H139.174L139.317 56.2467L139.459 56.223L139.602 56.1516L139.697 56.1278L139.84 56.0565L139.935 55.9851L140.03 55.89L140.125 55.7949L140.22 55.6997L140.315 55.5808L140.386 55.4857L140.457 55.3668L140.529 55.2241L140.624 54.9387L140.648 54.796L140.671 54.6533L140.648 54.5106L140.576 54.3679L140.481 54.2728L140.362 54.1776L140.22 54.1063L140.077 54.0825L139.935 54.0587L139.792 54.0825H139.697Z" fill="#16151C"/>
<path d="M36.5222 7.99108C36.8073 7.9673 36.9262 7.77704 37.14 7.70569C36.9499 6.87328 37.6153 6.82572 37.9717 6.49276L36.2371 5.61279L36.4984 8.18135C36.5222 8.15756 36.546 8.11 36.5222 7.99108ZM46.8825 14.246V14.3887C46.9062 14.3174 46.9062 14.2698 46.8825 14.246ZM38.3519 6.68302L38.1618 6.58789V6.73059C38.2806 6.77815 38.3281 6.73059 38.3519 6.68302Z" fill="#9F130E"/>
<path d="M59.619 10.6072L55.8409 10.7975L55.1042 8.53809L54.7716 8.72835C54.7953 8.82349 54.7478 8.9424 54.7716 9.01375C54.7003 8.96618 54.6528 8.9424 54.5339 8.9424C54.5339 8.89483 54.5339 8.87105 54.5577 8.84727L50.7795 10.9877L53.631 4.16202L51.3023 4.89929L49.6627 0L46.1697 3.80528L45.7657 3.44853C45.742 3.47232 45.742 3.4961 45.7182 3.51988C45.6232 3.44853 45.5994 3.40097 45.6232 3.3534L44.34 2.21182L44.1737 9.60832L41.2272 5.589L39.6114 7.34894L38.4946 6.77815C38.4708 6.80193 38.4708 6.8495 38.4946 6.92085C38.2332 6.87328 38.1619 7.06355 38.0193 6.92085C37.6866 7.37272 37.4015 7.77703 37.1639 8.46674C36.9975 8.41918 36.95 8.27648 36.9263 8.11C36.7124 8.06243 36.7599 8.25269 36.6174 8.25269C36.6649 8.32404 36.7599 8.37161 36.855 8.39539C36.7837 8.58566 36.6886 8.37161 36.5223 8.37161L36.6886 9.94129L34.8352 10.6548L35.5956 11.5585C35.7382 11.4872 36.0233 11.511 36.0708 11.5347C35.9995 11.6061 35.857 11.6537 35.7144 11.6774L36.2134 12.272C36.4273 12.272 36.6174 12.2958 36.7837 12.3434C36.7837 12.5098 36.6886 12.6288 36.5936 12.7001L36.7362 12.8666C36.9263 12.8904 36.9738 12.9379 37.1639 12.8666C37.0926 12.9142 37.0213 13.0331 36.95 13.1282L39.8728 16.5292L39.6114 17.7659L38.9936 19.0977L45.4806 19.621L51.6112 21.809V20.3344L51.8726 19.0977L58.8586 15.7919L57.4567 14.3887L59.619 10.6072ZM36.6886 10.8688C36.6649 10.7023 36.8312 10.7023 36.7599 10.5121C36.8787 10.5121 36.9738 10.5121 36.9975 10.4407C37.1164 10.4645 37.0213 10.6548 37.1639 10.6548C36.9025 10.631 37.0213 10.8213 36.6886 10.8688ZM36.7599 10.3456C36.6174 10.1315 36.9738 9.72724 36.9975 9.39428C37.0926 9.46563 37.2827 9.46563 37.4015 9.53697C37.0213 9.65589 36.9025 10.0364 36.7599 10.3456ZM50.4944 13.7228H50.732V14.0795C50.6607 13.9606 50.4469 13.9606 50.4944 13.7228ZM50.4944 16.5767C50.3281 16.7432 50.637 16.9335 50.5657 17.2427C50.3993 17.2902 50.3518 17.4329 50.0904 17.3854C50.0429 17.0286 50.138 16.7908 50.2568 16.5767H50.4944ZM49.8766 13.7941C50.1855 13.6752 49.9003 14.1271 50.1855 14.0082C50.1142 14.1033 50.0667 14.246 49.8766 14.2222C50.0192 14.1033 49.8053 14.0557 49.8766 13.7941ZM50.4944 17.5281C50.6845 17.6945 50.0429 17.7421 50.3281 18.0513C50.0904 17.8372 50.0192 18.194 49.8528 18.2653C49.639 18.2653 50.0429 18.0751 49.6865 18.1226C49.7578 17.7183 50.233 17.7421 50.4944 17.5281ZM47.9994 14.0795C47.9043 13.6514 47.7855 13.366 47.9281 12.9855C48.0231 13.1044 48.0944 13.6039 48.237 13.4136C48.2845 13.5801 48.0707 13.9368 48.3083 14.2222C48.237 14.2222 48.237 14.3174 48.237 14.3649C47.9994 14.5552 47.9994 14.0795 47.6192 14.2222C47.6905 14.0557 47.7618 14.0082 47.9994 14.0795ZM47.1202 10.7261C47.1202 10.9402 46.9301 10.9402 46.74 10.9402C46.8113 10.7975 46.8826 10.6786 47.1202 10.7261ZM45.4806 8.65701C45.5994 8.75214 45.5044 8.7997 45.4806 9.01375C45.2667 8.82349 45.4093 9.13266 45.1717 9.0851C45.243 8.9424 45.4331 8.84727 45.4806 8.65701ZM45.1717 14.1509C45.0529 14.1271 45.1004 13.913 44.8628 14.0082V13.6514C45.1242 13.6514 45.3143 13.9844 45.1717 14.1509ZM39.35 10.8688C39.5163 11.0591 39.5163 11.0353 39.5876 11.392C39.849 11.3683 39.6589 10.9164 40.0629 11.0353C40.0153 10.8688 39.7777 10.8688 39.5876 10.8213C39.7064 10.6786 39.7064 10.3932 39.9678 10.3932C39.9916 10.5834 39.849 10.631 39.8015 10.7499C39.8965 10.9164 40.1817 10.9164 40.2767 10.7499C40.5143 10.8688 40.2292 11.0829 40.0391 11.0353V11.4872C39.8965 11.5585 39.6589 11.511 39.5639 11.6299C39.4688 11.6061 39.4926 11.4396 39.4926 11.3445C39.3025 11.4158 39.5401 11.8677 39.1837 11.7726C39.2312 11.4158 39.3975 11.0591 39.35 10.8688ZM40.5381 12.1055C40.3005 12.1293 40.1817 12.0342 40.2292 11.8201C40.4668 11.7726 40.4906 11.9391 40.5381 12.1055ZM38.0906 13.1282C38.1857 12.9855 38.352 12.8904 38.5658 12.8428C38.4708 13.0093 38.3045 13.1996 38.7322 13.1282C38.7084 13.2233 38.7559 13.2709 38.8035 13.2709C38.6847 13.5801 38.2094 13.2709 38.0906 13.1282ZM38.946 14.6741C38.8035 14.6741 38.6847 14.6265 38.6371 14.5314C38.7084 14.2936 38.9698 14.2698 39.1837 14.1747C39.2787 14.4838 38.851 14.3174 38.946 14.6741ZM39.1124 13.6514C39.1361 13.5087 39.4688 13.6514 39.35 13.366C39.0886 13.2709 39.2787 13.6039 39.0411 13.5087C38.9223 13.2471 38.8985 12.8904 38.9698 12.7715C39.2549 12.7001 39.1124 13.0093 38.9698 12.9855C39.1124 13.0806 39.3738 13.0806 39.445 13.2709C39.5639 13.1996 39.6351 13.0569 39.7539 12.9855C39.5163 12.6288 39.4213 12.6288 39.5876 12.1769C39.445 12.2007 39.5163 12.4623 39.2787 12.3909C39.1124 12.2482 38.9936 12.1769 39.1124 11.9628C39.35 12.1531 39.5163 11.8677 39.7302 11.8201C39.7064 11.9628 39.7777 12.0104 39.8015 12.1055C39.8965 12.1055 39.8728 11.9628 39.8728 11.8915C39.9678 11.9153 39.9203 12.5812 39.944 13.0569C40.0629 13.0569 40.2529 13.1044 40.2529 12.9855C40.348 13.0093 40.3242 13.1758 40.3242 13.2709C39.944 13.1758 39.8728 13.3898 39.849 13.6276C39.5163 13.6752 39.4213 13.4136 39.5401 13.7703C39.3262 13.8417 39.2787 13.699 39.1124 13.6514ZM39.7539 16.0059C39.8252 15.8395 39.9203 15.7205 40.1579 15.7205C40.1341 16.0535 40.1104 16.3627 40.4668 16.1724C40.4906 16.4816 40.0153 16.3389 40.1579 16.767C39.944 16.767 39.9203 16.5767 39.9203 16.4103C40.253 16.5292 39.8728 16.0535 39.7539 16.0059ZM40.3718 18.3367C40.1341 18.3605 40.1104 18.1702 40.1341 17.9799C40.3718 17.9799 40.5381 18.194 40.3718 18.3367ZM39.8965 17.314C39.9203 17.2189 40.0391 17.2427 40.1341 17.2427C40.2292 17.1951 40.2767 17.0762 40.3005 16.9573C40.3718 17.0048 40.443 17.0524 40.4668 16.9573C40.6807 16.9097 40.4193 17.314 40.6331 17.2427C40.3955 17.3854 40.1104 17.5756 39.8965 17.314ZM40.6094 11.7488C40.4906 11.6774 40.443 11.5585 40.443 11.392C40.6569 11.392 40.6331 11.6061 40.847 11.6061C40.8232 11.7012 40.6094 11.6299 40.6094 11.7488ZM41.2272 17.3854C41.5123 17.5518 42.0113 17.2427 42.3203 17.4567C42.2014 17.7183 41.7975 17.4091 41.845 17.6708C41.5836 17.5518 41.346 17.6232 41.0609 17.6708C40.9896 17.4567 41.3222 17.6232 41.2272 17.3854ZM42.6529 18.7886C42.3202 18.741 42.2014 18.9075 41.9401 18.9313C41.845 18.4794 41.6311 18.8361 41.3935 18.7172C41.6311 18.5269 42.1539 18.5983 42.249 18.2653C42.2014 18.194 42.0589 18.194 42.0826 18.0513C41.8925 18.0275 41.845 18.1702 41.7737 18.2653C41.4411 18.0037 41.9876 17.9324 42.0113 17.7421C42.0826 17.7421 42.0826 17.8372 42.0826 17.8848C42.3203 17.8372 42.0113 17.7183 42.0826 17.5994C42.4866 17.9086 42.5103 17.647 42.7004 18.1226C42.5579 18.1226 42.5341 18.2178 42.3915 18.194C42.4628 18.5269 42.748 18.2415 42.6529 18.7886ZM42.7955 12.6288C42.7004 12.7001 42.5816 12.7239 42.3915 12.7001C42.3915 12.5098 42.6292 12.5336 42.6292 12.3434C42.7955 12.3434 42.8193 12.4623 42.7955 12.6288ZM44.0549 16.8859C44.0786 16.7908 44.0311 16.7432 43.9836 16.7432C44.0311 16.5054 44.1975 16.6481 44.3875 16.6719C44.4113 16.8384 44.2212 16.8384 44.0549 16.8859ZM43.9123 13.2709C43.8885 13.1044 44.0549 13.1044 43.9836 12.9142C44.3875 12.9855 44.6965 12.3672 44.6965 13.0569C44.3875 13.1044 44.245 13.2709 43.9123 13.2709ZM44.2925 3.82906C44.2687 3.56745 44.7202 3.73393 44.839 3.61501C44.7915 3.66258 44.7677 3.73393 44.7677 3.82906H44.2925ZM44.839 15.2687C45.0529 15.0071 45.0054 15.1498 44.9103 14.7454C45.4568 14.9119 45.1242 14.8881 45.6945 14.7454C45.6469 15.1022 45.5994 15.2211 45.7657 15.4827C45.5519 15.2925 45.0529 15.2925 44.839 15.2687ZM45.8608 14.6028H45.6232V14.3174H45.8608C45.742 14.4601 45.8846 14.4125 45.8608 14.6028ZM46.2647 6.89706C46.1222 6.96841 46.0034 6.68302 45.9558 6.89706C45.7895 6.92085 45.9083 6.63545 45.8846 6.54032C46.241 6.68302 46.3123 6.68302 46.5024 6.39762C46.6925 6.51654 46.241 6.68302 46.2647 6.89706ZM46.5737 14.246C46.74 14.1747 46.9063 14.1271 46.9538 13.9606C47.0964 14.032 47.0727 14.2222 47.2628 14.246C47.1915 14.3411 47.0251 14.3411 46.8826 14.3887C46.8826 14.579 46.8588 14.8644 47.1202 14.8406C46.9776 14.9833 46.835 14.9595 46.6449 14.9119C46.8588 14.6979 46.5261 14.5314 46.5737 14.246ZM47.0489 17.1C47.0727 16.9573 47.4053 17.0762 47.3578 16.8859C47.4529 16.8859 47.4291 17.0286 47.4291 17.1C47.0964 17.0524 47.239 17.3616 47.0489 17.1ZM47.7618 15.9346C47.5241 16.0297 47.5717 15.8157 47.4529 15.7919C47.334 15.9584 47.2865 16.1724 46.9776 16.1486V15.8632C47.0014 15.6968 46.6212 15.9108 46.74 15.6492C47.0014 15.6016 47.0727 15.7919 47.2152 15.6492C47.0964 15.4114 47.1915 15.3162 47.2152 15.0546C47.4291 15.2211 47.5717 15.8395 47.9994 15.5779C48.2132 15.673 47.7618 15.7919 47.7618 15.9346ZM48.142 14.7454C47.9756 14.579 48.237 14.4601 48.3083 14.2936C48.4746 14.3887 48.3558 14.793 48.142 14.7454ZM48.0707 12.9142C47.738 12.7477 48.3558 12.272 48.5459 12.1055C48.641 12.3434 47.9281 12.6525 48.0707 12.9142ZM49.4013 13.9368C49.4013 13.7466 49.5202 13.699 49.5677 13.5563C49.734 13.6039 49.8766 13.6752 49.8053 13.9368C49.6627 13.9606 49.6627 13.8893 49.639 13.7941C49.5677 13.8417 49.5677 13.9606 49.4013 13.9368ZM50.8983 19.0026C50.6132 19.4545 49.8291 19.0026 49.639 19.5972C49.2112 19.4545 50.0904 19.0977 49.8766 18.9313C49.9241 18.741 50.4231 19.0026 50.2805 18.6459C50.5419 18.5745 50.3993 18.8837 50.5894 18.8599C50.7558 18.8837 51.0172 18.408 50.6607 18.408C50.637 18.3367 50.6845 18.3367 50.732 18.3367V18.194C50.9221 18.3367 50.8983 18.6934 50.8983 19.0026ZM50.9696 18.1226C50.6845 17.9562 51.2073 17.9562 51.136 17.7659C51.5637 17.8372 51.0409 18.0513 50.9696 18.1226ZM50.8983 13.6514C50.8746 13.3898 51.3261 13.5563 51.4449 13.4374C51.4449 13.6514 51.136 13.6276 50.8983 13.6514ZM52.7043 16.6481C52.7993 16.9335 52.4429 16.7908 52.5379 17.1C52.2528 17.0286 52.4191 16.6243 52.7043 16.6481ZM52.3954 17.3854C52.4666 17.1475 52.5379 17.3616 52.7993 17.314C52.6805 17.5518 52.5617 17.5518 52.3954 17.3854ZM53.5597 10.0602C53.726 9.98885 53.8448 9.86994 53.8686 9.70346C54.3201 9.79859 54.2488 9.41806 54.5815 9.41806C54.6528 9.48941 54.6765 9.58454 54.6528 9.70346C54.3438 9.60832 54.6765 9.77481 54.8191 9.77481V10.0602C54.629 9.98885 54.5102 9.84615 54.3438 9.77481C54.2488 9.79859 54.2726 9.96507 54.2726 10.0602C54.0112 9.79859 53.7023 10.2029 53.5597 10.0602ZM54.8191 14.0795C54.4151 14.0795 54.4627 13.6752 54.0349 13.7228C54.0349 13.5801 54.2963 13.6752 54.2726 13.5087C54.4627 13.6039 54.5577 13.7703 54.8904 13.7228C54.9617 13.9368 54.7953 13.913 54.8191 14.0795Z" fill="#9F130E"/>
</g>
<defs>
<clipPath id="clip0_15_273">
<rect width="143" height="64" fill="white"/>
</clipPath>
</defs>
</svg>
