<svg width="19" height="19" viewBox="0 0 19 19" fill="none" xmlns="http://www.w3.org/2000/svg">
<path fill-rule="evenodd" clip-rule="evenodd" d="M16 0C17.6569 0 19 1.34315 19 3V16C19 17.6569 17.6569 19 16 19H3C1.34315 19 0 17.6569 0 16V3C0 1.34315 1.34315 0 3 0H16ZM10 12H9C8.4477 12 8 12.4477 8 13V17H11V13C11 12.4477 10.5523 12 10 12ZM12.1407 6.7972C11.499 7.53418 10.5539 8 9.5 8C8.4461 8 7.50097 7.53418 6.85931 6.7972C6.13315 7.53939 5.12037 8 4 8C3.27143 8 2.58835 7.80521 2 7.46487V16C2 16.5523 2.44772 17 3 17H6V13C6 11.3431 7.34315 10 9 10H10C11.6569 10 13 11.3431 13 13V17H16C16.5523 17 17 16.5523 17 16V7.46487C16.4117 7.80521 15.7286 8 15 8C13.8796 8 12.8669 7.53938 12.1407 6.7972ZM16 2H3C2.48717 2 2.06449 2.38604 2.00673 2.88338L2 3V4C2 5.10457 2.89543 6 4 6C5.05436 6 5.91817 5.18412 5.99451 4.14926L6 4C6 3.44772 6.44772 3 7 3C7.51283 3 7.93551 3.38604 7.99327 3.88338L8 4V4.5C8 5.32843 8.6716 6 9.5 6C10.2797 6 10.9204 5.40511 10.9931 4.64446L11 4.5V4C11 3.44772 11.4477 3 12 3C12.5523 3 13 3.44772 13 4C13 5.10457 13.8954 6 15 6C16.0544 6 16.9182 5.18412 16.9945 4.14926L17 4V3C17 2.48717 16.614 2.06449 16.1166 2.00673L16 2Z" fill="#80808A"/>
</svg>
