<svg width="226" height="48" viewBox="0 0 226 48" fill="none" xmlns="http://www.w3.org/2000/svg">
<path fill-rule="evenodd" clip-rule="evenodd" d="M23.1391 0C35.9185 0 46.2782 10.3597 46.2782 23.1391C46.2782 30.4974 42.8424 37.0535 37.4895 41.2911C38.3098 38.5397 40.6919 35.0147 40.0283 31.4691C39.4546 28.404 36.0033 26.3406 37.0351 24.4066C37.5103 23.5155 39.409 22.7371 39.2963 21.7137C39.2262 21.3257 39.1562 20.938 39.0863 20.5505C39.1008 20.4351 39.1156 20.3197 39.1301 20.2041C39.0252 19.2497 37.8528 19.4265 37.2266 18.8583C36.4543 18.1581 36.7854 17.6658 35.5439 17.3845C35.026 17.2678 34.6575 17.331 33.2675 17.0141C33.1257 16.2133 32.822 15.559 32.6845 15.29C32.5897 15.1051 32.4556 15.2413 32.1727 15.608C31.9517 15.8906 31.8587 16.0953 31.6377 16.3785C31.4739 16.1712 30.5398 15.0546 30.3356 15.0978C30.2292 15.1199 30.1576 15.308 29.9882 15.6501C29.0012 17.6447 28.6021 20.0803 28.645 22.5606C28.7543 28.8763 30.2245 28.0065 25.587 30.8962L23.9623 32.2362C23.6116 32.2428 23.2629 32.2657 22.9175 32.3068C23.0134 32.2083 23.1112 32.1087 23.2113 32.0081C23.7265 31.4928 24.6184 30.8432 25.2103 30.3564L25.2398 30.338C25.6763 30.0661 26.0522 29.8312 26.3765 29.6223C26.4134 29.0354 26.4057 28.4585 26.3404 27.8922C25.5915 21.4042 21.5968 19.9683 22.323 16.0081C22.5685 14.6692 23.9357 13.8808 25.6165 12.3643C26.8714 11.2324 27.1725 11.1354 25.2722 6.79009C25.2475 6.73293 25.331 6.59702 25.3202 6.54012C25.1134 5.44958 24.9385 5.20539 24.0352 5.52913C23.8882 5.58182 23.8772 5.66266 23.8308 5.67926C22.5538 6.13682 21.2683 6.60861 20.065 7.00347C18.4007 7.13755 17.3687 5.90607 15.9265 6.23771C14.1797 6.63916 13.1406 8.27208 11.7982 9.23935C10.6513 9.73352 9.79569 12.4349 9.56757 13.9242C9.34893 15.3514 10.287 15.6011 11.3296 16.3287C12.031 16.8231 12.8806 17.4219 13.4335 17.587C13.6982 17.6661 13.945 17.6745 14.1692 17.6313C14.5127 17.5652 14.8082 17.3768 15.0385 17.1366C15.2703 16.8942 15.436 16.599 15.519 16.3218C15.5756 16.1317 15.593 15.9525 15.5656 15.8095C15.4323 15.1186 14.9447 14.6863 14.3968 14.2005C14.0101 13.8576 13.5936 13.4885 13.2386 12.9833C13.076 12.752 12.9991 12.5358 12.9801 12.3772C12.972 12.3074 12.9746 12.2439 12.9862 12.1928C13.0017 12.1238 13.0355 12.0698 13.0823 12.0371C13.1087 12.0184 13.1379 12.0068 13.1701 12.0029C13.3234 11.9847 13.464 12.167 13.65 12.4093L13.7867 12.5847C14.1447 13.0355 14.5746 13.394 14.9826 13.7338C15.7113 14.3407 16.3753 14.8941 16.5055 15.8222C16.5228 15.9457 16.517 16.0911 16.4899 16.2478C16.4169 16.6666 16.1854 17.1864 15.82 17.6213C15.451 18.0604 14.9434 18.417 14.3204 18.5045C14.1049 18.5348 13.8755 18.5327 13.635 18.4908C12.9883 18.3778 12.3795 18.0722 11.8361 17.7053C11.7165 17.6244 11.5998 17.5401 11.4868 17.4548C11.7495 18.1089 11.9449 18.9708 11.9929 20.1372C12.0972 22.6715 10.6982 24.3542 9.77593 25.8994C8.95249 27.2789 7.18181 28.6563 5.99801 29.8459C3.41968 32.4372 3.64886 31.6216 2.5296 33.6692C0.912484 30.5105 0 26.9315 0 23.1391C0 10.3597 10.3597 0 23.1391 0Z" fill="#EF7F1A"/>
<path d="M56.5736 15.8103H71.1819C71.2546 15.8103 71.3136 15.8694 71.3136 15.9421V17.9938C71.3136 18.0665 71.2546 18.1255 71.1819 18.1255H58.9802V22.3228H70.7581C70.8308 22.3228 70.8898 22.3818 70.8898 22.4545V24.5063C70.8898 24.579 70.8308 24.638 70.7581 24.638H58.9802V29.036H71.1819C71.2546 29.036 71.3136 29.095 71.3136 29.1677V31.2194C71.3136 31.2921 71.2546 31.3512 71.1819 31.3512H56.5736C56.5009 31.3512 56.4419 31.2921 56.4419 31.2194V15.9421C56.4419 15.8694 56.5009 15.8103 56.5736 15.8103ZM91.5198 26.759C91.5198 27.525 91.4137 28.1959 91.2021 28.7697C90.9885 29.3497 90.6666 29.8312 90.2378 30.2137C89.3877 30.9716 88.1502 31.3512 86.5262 31.3512H74.2818C74.2091 31.3512 74.1501 31.2921 74.1501 31.2194V15.9421C74.1501 15.8694 74.2091 15.8103 74.2818 15.8103H85.991C86.7844 15.8103 87.4869 15.9054 88.0983 16.0956C88.7144 16.2871 89.2384 16.5766 89.6691 16.9633C90.1008 17.3508 90.4253 17.8226 90.6408 18.3781C90.855 18.9303 90.9622 19.5654 90.9622 20.2837C90.9622 21.7415 90.4604 22.7237 89.4575 23.2276C89.6783 23.3246 89.8827 23.4402 90.0705 23.5743C90.3413 23.7679 90.5784 24.001 90.7799 24.2721C91.273 24.9346 91.5198 25.7641 91.5198 26.759ZM88.4239 20.28C88.4239 19.9418 88.3815 19.6447 88.2972 19.3899C88.2145 19.1405 88.0901 18.9292 87.9258 18.758C87.7256 18.5491 87.4653 18.3916 87.1453 18.2867C86.8178 18.1792 86.4269 18.1255 85.9723 18.1255H76.6884V22.2114H85.9723C86.4453 22.2114 86.8442 22.1708 87.1679 22.0897C87.4819 22.0109 87.7258 21.8937 87.8994 21.7391L87.9068 21.733C88.0759 21.5815 88.2037 21.3879 88.2898 21.1524C88.3791 20.9075 88.4239 20.6164 88.4239 20.28ZM76.6884 24.5266V29.036H86.5038C86.9214 29.036 87.2859 28.9833 87.5967 28.8785C87.9015 28.776 88.1568 28.6216 88.362 28.4164C88.568 28.2105 88.7231 27.9718 88.8256 27.7023C88.9294 27.4289 88.9815 27.1217 88.9815 26.7811C88.9815 26.4479 88.9286 26.1455 88.8237 25.8758C88.7189 25.6071 88.5609 25.3671 88.3509 25.1572C88.142 24.9483 87.8852 24.7913 87.5817 24.6867C87.2725 24.5803 86.9127 24.5266 86.5038 24.5266H76.6884ZM94.7801 31.2194V15.9421C94.7801 15.8694 94.8391 15.8103 94.9118 15.8103H107.357C108.049 15.8103 108.668 15.9139 109.212 16.1207C109.761 16.3285 110.233 16.642 110.63 17.0595C111.027 17.4775 111.325 18.0036 111.522 18.6352C111.717 19.2606 111.815 19.9916 111.815 20.8263C111.815 21.6603 111.715 22.3905 111.516 23.0151C111.314 23.6459 111.011 24.1691 110.607 24.5832C110.202 24.997 109.72 25.3073 109.161 25.5133C108.606 25.718 107.974 25.8202 107.268 25.8202H97.3184V31.2194C97.3184 31.2921 97.2594 31.3512 97.1867 31.3512H94.9118C94.8391 31.3512 94.7801 31.2921 94.7801 31.2194ZM97.3184 23.5048H107.268C107.577 23.5048 107.853 23.4524 108.097 23.3478C108.338 23.244 108.549 23.0875 108.729 22.8784C108.909 22.6689 109.045 22.3945 109.137 22.0575L109.138 22.0523C109.231 21.7085 109.277 21.2994 109.277 20.8263C109.277 20.3498 109.231 19.9376 109.14 19.5917C109.05 19.2529 108.916 18.9756 108.739 18.7617C108.563 18.5496 108.351 18.3905 108.105 18.2852C107.857 18.1787 107.57 18.1255 107.245 18.1255H97.3184V23.5048ZM124.463 31.5743C122.879 31.5743 121.529 31.5226 120.414 31.4199C119.297 31.3169 118.417 31.1615 117.777 30.9542C116.469 30.5312 115.637 29.7246 115.282 28.5363C115.161 28.1341 115.069 27.52 115.009 26.6955C114.95 25.8771 114.92 24.8492 114.92 23.6143C114.92 22.3573 114.948 21.3187 115.004 20.5C115.06 19.6755 115.146 19.0722 115.26 18.6921L115.262 18.6858C115.439 18.0876 115.739 17.5832 116.159 17.1751C116.578 16.7668 117.118 16.4549 117.776 16.2408C118.424 16.0298 119.307 15.8717 120.425 15.7669C121.54 15.6621 122.886 15.6096 124.463 15.6096C127.644 15.6096 129.869 15.8164 131.139 16.2294C131.786 16.4399 132.319 16.7492 132.737 17.1556C133.156 17.5631 133.459 18.0681 133.644 18.6692C133.766 19.0715 133.857 19.6876 133.917 20.516C133.977 21.3382 134.007 22.3715 134.007 23.6143C134.007 24.8635 133.978 25.8963 133.922 26.7113C133.866 27.5321 133.78 28.1338 133.667 28.5139L133.664 28.5202C133.487 29.1187 133.189 29.6218 132.773 30.0283C132.357 30.4347 131.823 30.7437 131.172 30.9542C130.532 31.1615 129.65 31.3169 128.528 31.4199C127.41 31.5226 126.054 31.5743 124.463 31.5743ZM124.463 29.2588C126.212 29.2588 127.601 29.1941 128.629 29.065L128.64 29.0642C129.64 28.9375 130.288 28.752 130.579 28.5094C130.867 28.2673 131.087 27.7444 131.237 26.941C131.391 26.1163 131.468 25.0031 131.468 23.603C131.468 22.1953 131.392 21.0766 131.239 20.2481C131.091 19.441 130.874 18.916 130.59 18.6742C130.301 18.4311 129.652 18.2457 128.643 18.1189C127.613 17.9896 126.219 17.9248 124.463 17.9248C120.971 17.9248 118.929 18.1748 118.336 18.6742C118.052 18.9155 117.835 19.4408 117.687 20.2479C117.534 21.0763 117.458 22.1953 117.458 23.603C117.458 24.9957 117.535 26.1039 117.69 26.9271C117.84 27.7292 118.06 28.2536 118.348 28.4989C118.64 28.7457 119.291 28.934 120.298 29.0626C121.323 29.1932 122.712 29.2588 124.463 29.2588ZM137.468 31.2194V15.9421C137.468 15.8694 137.527 15.8103 137.599 15.8103H139.874C139.947 15.8103 140.006 15.8694 140.006 15.9421V22.0107H142.11L151.31 15.833C151.332 15.818 151.357 15.8109 151.383 15.8109L155.285 15.8103C155.358 15.8103 155.417 15.8694 155.417 15.9421C155.417 15.9916 155.39 16.0348 155.349 16.0572L144.811 23.1489L156.053 31.1125C156.112 31.1541 156.125 31.236 156.084 31.295C156.059 31.3311 156.018 31.3504 155.977 31.3504L152.23 31.3512C152.2 31.3512 152.172 31.3409 152.149 31.3238L142.108 24.3258H140.006V31.2194C140.006 31.2921 139.947 31.3512 139.874 31.3512H137.599C137.527 31.3512 137.468 31.2921 137.468 31.2194ZM167.998 31.5743C166.414 31.5743 165.064 31.5226 163.949 31.4199C162.832 31.3169 161.952 31.1615 161.312 30.9542C160.004 30.5312 159.172 29.7246 158.817 28.5363C158.696 28.1341 158.604 27.52 158.544 26.6955C158.485 25.8771 158.455 24.8492 158.455 23.6143C158.455 22.3573 158.483 21.3187 158.539 20.5C158.595 19.6755 158.681 19.0722 158.795 18.6921L158.797 18.6858C158.974 18.0876 159.274 17.5832 159.693 17.1751C160.113 16.7668 160.653 16.4549 161.311 16.2408C161.959 16.0298 162.842 15.8717 163.96 15.7669C165.075 15.6621 166.421 15.6096 167.998 15.6096C171.178 15.6096 173.404 15.8164 174.674 16.2294C175.321 16.4399 175.854 16.7492 176.272 17.1556C176.691 17.5631 176.994 18.0681 177.179 18.6692C177.301 19.0715 177.392 19.6876 177.452 20.516C177.512 21.3382 177.542 22.3715 177.542 23.6143C177.542 24.8635 177.513 25.8963 177.457 26.7113C177.401 27.5321 177.315 28.1338 177.201 28.5139L177.199 28.5202C177.022 29.1187 176.724 29.6218 176.308 30.0283C175.892 30.4347 175.358 30.7437 174.707 30.9542C174.067 31.1615 173.185 31.3169 172.063 31.4199C170.945 31.5226 169.589 31.5743 167.998 31.5743ZM167.998 29.2588C169.747 29.2588 171.136 29.1941 172.164 29.065L172.174 29.0642C173.175 28.9375 173.823 28.752 174.114 28.5094C174.402 28.2673 174.622 27.7444 174.772 26.941C174.926 26.1163 175.003 25.0031 175.003 23.603C175.003 22.1953 174.927 21.0766 174.774 20.2481C174.626 19.441 174.409 18.916 174.124 18.6742C173.836 18.4311 173.187 18.2457 172.178 18.1189C171.148 17.9896 169.754 17.9248 167.998 17.9248C164.506 17.9248 162.464 18.1748 161.871 18.6742C161.587 18.9155 161.37 19.4408 161.222 20.2479C161.069 21.0763 160.993 22.1953 160.993 23.603C160.993 24.9957 161.07 26.1039 161.224 26.9271C161.375 27.7292 161.595 28.2536 161.882 28.4989C162.175 28.7457 162.826 28.934 163.833 29.0626C164.858 29.1932 166.246 29.2588 167.998 29.2588ZM180.624 31.2194V15.9421C180.624 15.8694 180.683 15.8103 180.755 15.8103H193.2C193.892 15.8103 194.511 15.9139 195.056 16.1207C195.604 16.3288 196.077 16.642 196.473 17.0595C196.87 17.4775 197.168 18.0036 197.365 18.6352C197.56 19.2606 197.659 19.9916 197.659 20.8263C197.659 21.6603 197.559 22.3905 197.359 23.0151C197.158 23.6459 196.854 24.1691 196.45 24.5832C196.046 24.997 195.564 25.3073 195.005 25.5133C194.449 25.718 193.818 25.8202 193.111 25.8202H183.162V31.2194C183.162 31.2921 183.103 31.3512 183.03 31.3512H180.755C180.683 31.3512 180.624 31.2921 180.624 31.2194ZM183.162 23.5048H193.111C193.42 23.5048 193.697 23.4524 193.94 23.3478C194.182 23.2437 194.393 23.087 194.572 22.8784C194.752 22.6689 194.889 22.3945 194.98 22.0575L194.982 22.0523C195.074 21.7085 195.12 21.2994 195.12 20.8263C195.12 20.3498 195.074 19.9376 194.983 19.5917C194.893 19.2529 194.759 18.9756 194.582 18.7617C194.406 18.5496 194.195 18.3905 193.949 18.2852C193.7 18.1787 193.413 18.1255 193.089 18.1255H183.162V23.5048ZM205.538 15.8799L213.317 28.2518L221.101 15.872C221.126 15.8325 221.169 15.8109 221.212 15.8109L225.272 15.8103C225.344 15.8103 225.403 15.8694 225.403 15.9421V31.2194C225.403 31.2921 225.344 31.3512 225.272 31.3512H222.997C222.924 31.3512 222.865 31.2921 222.865 31.2194V18.1255H222.622L214.13 31.2906C214.105 31.3296 214.063 31.3509 214.02 31.3509L212.593 31.3512C212.544 31.3512 212.501 31.3246 212.478 31.2848L203.99 18.1255H203.77V31.2194C203.77 31.2921 203.711 31.3512 203.638 31.3512H201.363C201.29 31.3512 201.231 31.2921 201.231 31.2194V15.9421C201.231 15.8694 201.29 15.8103 201.363 15.8103H205.422C205.472 15.8103 205.516 15.8385 205.538 15.8799Z" fill="#EF7F1A"/>
<path fill-rule="evenodd" clip-rule="evenodd" d="M37.2179 43.2466C34.2434 37.5468 29.6713 32.6586 22.6836 33.3134C17.2667 33.8221 11.4879 38.057 7.80664 39.0997C12.8606 41.35 17.5315 45.7791 23.1852 47.4033C27.4681 48.634 32.8363 48.0284 36.3821 44.9541C31.4991 41.4193 26.304 39.3122 20.7702 38.7511C26.2037 38.189 31.6917 39.906 37.2179 43.2466Z" fill="#70B635"/>
</svg>
