<svg width="24" height="24" viewBox="0 0 24 24" fill="none" xmlns="http://www.w3.org/2000/svg">
<g clip-path="url(#clip0_1052_787)">
<path fill-rule="evenodd" clip-rule="evenodd" d="M4.77935 8.79L4.78193 8.7876L4.78322 8.7888C4.89536 8.71086 5.02435 8.65647 5.16129 8.62938C5.29823 8.6023 5.43985 8.60316 5.5764 8.63191C5.71295 8.66066 5.84116 8.71661 5.9522 8.7959C6.06323 8.8752 6.15445 8.97595 6.21954 9.0912L7.25969 10.9284C7.36896 11.1219 7.55446 11.2687 7.7774 11.338C8.00035 11.4074 8.24348 11.3939 8.45598 11.3004C8.9554 11.0796 9.28706 10.3224 8.98121 9.5556C8.51663 8.388 8.19401 6.7848 8.82893 5.1024C9.46514 3.4152 10.6589 2.1528 11.8526 1.3152C12.3987 0.92902 12.9938 0.606611 13.6244 0.3552C14.169 0.1416 14.7342 2.36678e-08 15.2272 2.36678e-08C15.3629 -2.89177e-05 15.4971 0.026485 15.6211 0.0778202C15.7451 0.129155 15.8561 0.204164 15.9469 0.297976C16.0377 0.391789 16.1062 0.502307 16.1481 0.622355C16.19 0.742404 16.2042 0.869298 16.1899 0.9948C15.9073 3.4884 17.07 5.2704 18.5438 7.2048L18.9296 7.7052C20.2808 9.4548 21.81 11.436 21.9752 14.0472C22.1469 16.7688 21.4268 19.2588 19.8136 21.084C18.1863 22.926 15.7266 24 12.6462 24C9.65872 24 7.18871 23.2848 5.36394 21.8928C3.53402 20.496 2.45129 18.4932 2.10157 16.0968C1.74668 13.6692 2.37773 11.8536 3.1288 10.6356C3.50176 10.032 3.89923 9.5808 4.20895 9.2772C4.33355 9.15578 4.46358 9.03928 4.59868 8.928C4.65103 8.88436 4.70528 8.84272 4.76128 8.8032L4.77419 8.7936L4.77935 8.79ZM13.9393 17.9393C14.2206 17.658 14.6022 17.5 15 17.5C15.3978 17.5 15.7794 17.658 16.0607 17.9393C16.342 18.2206 16.5 18.6022 16.5 19C16.5 19.3978 16.342 19.7794 16.0607 20.0607C15.7794 20.342 15.3978 20.5 15 20.5C14.6022 20.5 14.2206 20.342 13.9393 20.0607C13.658 19.7794 13.5 19.3978 13.5 19C13.5 18.6022 13.658 18.2206 13.9393 17.9393ZM15.5 12.5002C15.7652 12.5002 16.0195 12.6055 16.207 12.793C16.3945 12.9805 16.4998 13.2348 16.4998 13.5C16.4998 13.7652 16.3945 14.0195 16.207 14.207L10.207 20.207C10.0184 20.3892 9.7658 20.49 9.5036 20.4877C9.2414 20.4854 8.99059 20.3802 8.80518 20.1948C8.61977 20.0094 8.5146 19.7586 8.51233 19.4964C8.51005 19.2342 8.61084 18.9816 8.793 18.793L14.793 12.793C14.9805 12.6055 15.2348 12.5002 15.5 12.5002ZM8.93934 12.9393C9.22064 12.658 9.60218 12.5 10 12.5C10.3978 12.5 10.7794 12.658 11.0607 12.9393C11.342 13.2206 11.5 13.6022 11.5 14C11.5 14.3978 11.342 14.7794 11.0607 15.0607C10.7794 15.342 10.3978 15.5 10 15.5C9.60218 15.5 9.22064 15.342 8.93934 15.0607C8.65804 14.7794 8.5 14.3978 8.5 14C8.5 13.6022 8.65804 13.2206 8.93934 12.9393Z" fill="#F55555"/>
</g>
<defs>
<clipPath id="clip0_1052_787">
<rect width="24" height="24" fill="white"/>
</clipPath>
</defs>
</svg>
